<svg width="16" height="16" viewBox="0 0 16 16" fill="none" xmlns="http://www.w3.org/2000/svg">
  <rect width="16" height="16" rx="4" fill="#FFFFFF" />
  <g transform="translate(4.2105 2)" fill="#1F1F1F">
    <path d="M6.56842 3.74561C6.56842 3.32794 6.85157 2.97257 7.14047 2.67092C7.41208 2.38733 7.57895 2.00263 7.57895 1.57895C7.57895 0.706918 6.87203 0 6 0C5.12797 0 4.42105 0.706918 4.42105 1.57895C4.42105 2.00263 4.58792 2.38733 4.85953 2.67092C5.14843 2.97257 5.43158 3.32794 5.43158 3.74561V3.83333C5.43158 4.25101 5.14843 4.60637 4.85953 4.90802C4.5992 5.17984 4.27825 5.43158 3.90188 5.43158H3.74562C3.32794 5.43158 2.97257 5.14843 2.67092 4.85953C2.38733 4.58792 2.00262 4.42105 1.57895 4.42105C0.706918 4.42105 0 5.12797 0 6C0 6.87203 0.706918 7.57895 1.57895 7.57895C2.00262 7.57895 2.38733 7.41208 2.67092 7.14047C2.97257 6.85157 3.32794 6.56842 3.74562 6.56842H3.90188C4.27825 6.56842 4.5992 6.82017 4.85953 7.09198C5.14843 7.39363 5.43158 7.74899 5.43158 8.16667V8.25439C5.43158 8.67206 5.14843 9.02743 4.85953 9.32908C4.58792 9.61267 4.42105 9.99737 4.42105 10.4211C4.42105 11.2931 5.12797 12 6 12C6.87203 12 7.57895 11.2931 7.57895 10.4211C7.57895 9.99737 7.41208 9.61267 7.14047 9.32908C6.85157 9.02743 6.56842 8.67206 6.56842 8.25439V8.16667C6.56842 7.74899 6.85157 7.39363 7.14047 7.09198C7.41208 6.80839 7.57895 6.42368 7.57895 6C7.57895 5.57632 7.41208 5.19161 7.14047 4.90802C6.85157 4.60637 6.56842 4.25101 6.56842 3.83333V3.74561Z"/>
  </g>
</svg>
