<svg width="16" height="16" viewBox="0 0 16 16" fill="none" xmlns="http://www.w3.org/2000/svg">
  <rect width="16" height="16" rx="4" fill="#FFFFFF" />
  <g transform="translate(3 3)" fill="#1F1F1F">
    <path d="M5.47368 3.12134C5.47368 2.77328 5.70964 2.47714 5.95039 2.22577C6.17673 1.98944 6.31579 1.66886 6.31579 1.31579C6.31579 0.589098 5.72669 0 5 0C4.27331 0 3.68421 0.589098 3.68421 1.31579C3.68421 1.66886 3.82327 1.98944 4.04961 2.22577C4.29036 2.47714 4.52632 2.77328 4.52632 3.12134V3.19445C4.52632 3.54251 4.29036 3.83865 4.04961 4.09002C3.83267 4.31653 3.56521 4.52632 3.25157 4.52632H3.12135C2.77328 4.52632 2.47714 4.29036 2.22577 4.04961C1.98944 3.82327 1.66885 3.68421 1.31579 3.68421C0.589098 3.68421 0 4.27331 0 5C0 5.72669 0.589098 6.31579 1.31579 6.31579C1.66885 6.31579 1.98944 6.17673 2.22577 5.95039C2.47714 5.70964 2.77328 5.47368 3.12135 5.47368H3.25157C3.56521 5.47368 3.83267 5.68347 4.04961 5.90998C4.29036 6.16135 4.52632 6.45749 4.52632 6.80555V6.87866C4.52632 7.22672 4.29036 7.52286 4.04961 7.77423C3.82327 8.01056 3.68421 8.33114 3.68421 8.68421C3.68421 9.4109 4.27331 10 5 10C5.72669 10 6.31579 9.4109 6.31579 8.68421C6.31579 8.33114 6.17673 8.01056 5.95039 7.77423C5.70964 7.52286 5.47368 7.22672 5.47368 6.87866V6.80555C5.47368 6.45749 5.70964 6.16135 5.95039 5.90998C6.17673 5.67365 6.31579 5.35307 6.31579 5C6.31579 4.64693 6.17673 4.32635 5.95039 4.09002C5.70964 3.83865 5.47368 3.54251 5.47368 3.19445V3.12134Z" />
    <path d="M7.56579 2.625L8.64482 0H9.00315L10.0741 2.625H9.73189L9.04341 0.9225C9.02462 0.875 9.00315 0.82 8.97899 0.7575C8.95752 0.6925 8.93336 0.62625 8.90652 0.55875C8.88236 0.48875 8.85821 0.42125 8.83405 0.35625C8.81258 0.29125 8.79244 0.23375 8.77365 0.18375H8.85418C8.83271 0.24625 8.80989 0.31 8.78573 0.375C8.76426 0.4375 8.74145 0.50125 8.71729 0.56625C8.69313 0.62875 8.66897 0.69125 8.64482 0.75375C8.62066 0.81625 8.5965 0.87875 8.57234 0.94125L7.88789 2.625H7.56579ZM8.02478 1.90125L8.14154 1.61625H9.47422L9.60306 1.90125H8.02478Z" />
    <path d="M8.90215 10C8.71369 10 8.53869 9.96696 8.37715 9.90087C8.21561 9.83479 8.07366 9.74301 7.95128 9.62552C7.8289 9.50804 7.73345 9.36976 7.66492 9.21066C7.59883 9.04913 7.56579 8.87413 7.56579 8.68566C7.56579 8.4972 7.59883 8.32343 7.66492 8.16434C7.73345 8.0028 7.82645 7.86329 7.94394 7.7458C8.06387 7.62832 8.20338 7.53776 8.36247 7.47413C8.52401 7.40804 8.69656 7.375 8.88013 7.375C9.00985 7.375 9.13712 7.39336 9.26194 7.43007C9.38922 7.46678 9.50425 7.51818 9.60705 7.58427C9.70985 7.65035 9.79306 7.725 9.8567 7.80822L9.66579 8.0028C9.59726 7.93182 9.52016 7.87063 9.4345 7.81923C9.34883 7.76783 9.25827 7.72745 9.16282 7.69808C9.06981 7.66871 8.9768 7.65402 8.8838 7.65402C8.73939 7.65402 8.60478 7.67972 8.47995 7.73112C8.35757 7.78252 8.24988 7.85472 8.15687 7.94773C8.06387 8.03829 7.99166 8.1472 7.94027 8.27448C7.88887 8.3993 7.86317 8.53636 7.86317 8.68566C7.86317 8.83007 7.88887 8.96591 7.94027 9.09318C7.99411 9.21801 8.06876 9.32815 8.16422 9.4236C8.26212 9.51661 8.37471 9.58881 8.50198 9.64021C8.62925 9.69161 8.76631 9.71731 8.91317 9.71731C9.0282 9.71731 9.13589 9.70017 9.23624 9.66591C9.33904 9.63164 9.42838 9.58392 9.50425 9.52273C9.58013 9.45909 9.63887 9.38566 9.68048 9.30245C9.72208 9.21923 9.74289 9.1299 9.74289 9.03444V8.90594L9.80163 8.97937H8.89848V8.69668H10.0293C10.0317 8.71626 10.0341 8.73951 10.0366 8.76643C10.039 8.79091 10.0403 8.81661 10.0403 8.84353C10.0427 8.86801 10.0439 8.89126 10.0439 8.91329C10.0439 9.07238 10.0146 9.21923 9.95582 9.35385C9.89708 9.48601 9.81509 9.60105 9.70985 9.69895C9.60705 9.79441 9.48712 9.86906 9.35006 9.9229C9.21299 9.9743 9.06369 10 8.90215 10Z" />
    <path d="M7.56579 6.3125V3.6875H8.98969C9.19715 3.6875 9.38103 3.725 9.54134 3.8C9.70479 3.875 9.83366 3.9775 9.92796 4.1075C10.0254 4.2375 10.0741 4.38375 10.0741 4.54625C10.0741 4.71625 10.0254 4.86875 9.92796 5.00375C9.83366 5.13625 9.70479 5.24125 9.54134 5.31875C9.38103 5.39625 9.19715 5.435 8.98969 5.435H8.36732V6.3125H7.56579ZM8.35318 4.87625H8.87654C8.94569 4.87625 9.00855 4.8625 9.06513 4.835C9.12171 4.8075 9.16729 4.77 9.20186 4.7225C9.23644 4.675 9.25373 4.62 9.25373 4.5575C9.25373 4.4925 9.23644 4.4375 9.20186 4.3925C9.16729 4.3475 9.12171 4.3125 9.06513 4.2875C9.00855 4.2625 8.94569 4.25 8.87654 4.25H8.35318V4.87625Z" />
  </g>
</svg>
