<svg preserveAspectRatio="none" width="100%" height="100%" overflow="visible" style="display: block;" viewBox="0 0 127.476 48" fill="none" xmlns="http://www.w3.org/2000/svg">
<g id="Vector">
<path d="M26.2737 14.9825C26.2737 13.3117 27.4063 11.8903 28.5619 10.6837C29.6483 9.54933 30.3158 8.01052 30.3158 6.31579C30.3158 2.82767 27.4881 0 24 0C20.5119 0 17.6842 2.82767 17.6842 6.31579C17.6842 8.01052 18.3517 9.54933 19.4381 10.6837C20.5937 11.8903 21.7263 13.3117 21.7263 14.9825V15.3333C21.7263 17.004 20.5937 18.4255 19.4381 19.6321C18.3968 20.7193 17.113 21.7263 15.6075 21.7263H14.9825C13.3117 21.7263 11.8903 20.5937 10.6837 19.4381C9.54932 18.3517 8.01049 17.6842 6.31579 17.6842C2.82767 17.6842 0 20.5119 0 24C0 27.4881 2.82767 30.3158 6.31579 30.3158C8.01049 30.3158 9.54932 29.6483 10.6837 28.5619C11.8903 27.4063 13.3117 26.2737 14.9825 26.2737H15.6075C17.113 26.2737 18.3968 27.2807 19.4381 28.3679C20.5937 29.5745 21.7263 30.996 21.7263 32.6667V33.0175C21.7263 34.6883 20.5937 36.1097 19.4381 37.3163C18.3517 38.4507 17.6842 39.9895 17.6842 41.6842C17.6842 45.1723 20.5119 48 24 48C27.4881 48 30.3158 45.1723 30.3158 41.6842C30.3158 39.9895 29.6483 38.4507 28.5619 37.3163C27.4063 36.1097 26.2737 34.6883 26.2737 33.0175V32.6667C26.2737 30.996 27.4063 29.5745 28.5619 28.3679C29.6483 27.2335 30.3158 25.6947 30.3158 24C30.3158 22.3053 29.6483 20.7665 28.5619 19.6321C27.4063 18.4255 26.2737 17.004 26.2737 15.3333V14.9825Z" fill="var(--fill-0, #1F1F1F)"/>
<path d="M38.3158 20L44.329 5.37143H46.3259L52.2942 20H50.387L46.5503 10.5123C46.4456 10.2476 46.3259 9.94112 46.1913 9.59282C46.0716 9.23059 45.937 8.86139 45.7874 8.48523C45.6528 8.09513 45.5181 7.71897 45.3835 7.35674C45.2639 6.99451 45.1517 6.67407 45.047 6.39543H45.4957C45.376 6.74373 45.2489 7.099 45.1143 7.46123C44.9946 7.80953 44.8675 8.16479 44.7328 8.52702C44.5982 8.87532 44.4636 9.22362 44.329 9.57192C44.1943 9.92022 44.0597 10.2685 43.9251 10.6168L40.1108 20H38.3158ZM40.8736 15.9667L41.5243 14.3784H48.951L49.669 15.9667H40.8736Z" fill="var(--fill-0, #1F1F1F)"/>
<path d="M71.9221 20C71.1419 20 70.4787 19.844 69.9326 19.5319C69.3995 19.2068 68.9899 18.7387 68.7038 18.1275C68.4307 17.5164 68.2942 16.7557 68.2942 15.8455V9.62347H69.7766V15.5529C69.7766 16.2421 69.8676 16.8207 70.0496 17.2888C70.2447 17.7439 70.5307 18.0885 70.9078 18.3226C71.2979 18.5566 71.7725 18.6737 72.3317 18.6737C72.7608 18.6737 73.1574 18.6022 73.5215 18.4591C73.8856 18.3031 74.2041 18.095 74.4772 17.835C74.7503 17.5749 74.9648 17.2693 75.1209 16.9182C75.2769 16.5672 75.3549 16.1966 75.3549 15.8065V9.62347H76.8178V19.805H75.3744L75.3159 17.6594L75.55 17.5424C75.3939 17.9975 75.1339 18.4136 74.7698 18.7907C74.4057 19.1548 73.9701 19.4474 73.463 19.6684C72.9688 19.8895 72.4552 20 71.9221 20Z" fill="var(--fill-0, #1F1F1F)"/>
<path d="M95.1193 20V7.14636H96.5822V20H95.1193ZM92.8178 11.2229V9.81851H99.1568V11.2229H92.8178Z" fill="var(--fill-0, #1F1F1F)"/>
<path d="M115.157 20V5.56648H116.62V12.0421L116.327 12.3346C116.47 11.8015 116.737 11.3334 117.127 10.9303C117.517 10.5142 117.972 10.1891 118.492 9.95505C119.025 9.72099 119.565 9.60396 120.111 9.60396C120.891 9.60396 121.541 9.7535 122.062 10.0526C122.582 10.3516 122.965 10.8133 123.212 11.4374C123.472 12.0616 123.602 12.8548 123.602 13.817V20H122.12V13.895C122.12 13.2188 122.029 12.6662 121.847 12.2371C121.678 11.795 121.411 11.4699 121.047 11.2619C120.683 11.0538 120.228 10.9563 119.682 10.9693C119.253 10.9693 118.85 11.0473 118.473 11.2034C118.096 11.3464 117.77 11.5479 117.497 11.808C117.224 12.0681 117.01 12.3671 116.854 12.7052C116.698 13.0433 116.62 13.4074 116.62 13.7975V20H115.898C115.807 20 115.703 20 115.586 20C115.469 20 115.326 20 115.157 20Z" fill="var(--fill-0, #1F1F1F)"/>
<path d="M38.3158 42.6286V28H46.2509C47.407 28 48.4317 28.209 49.3251 28.6269C50.236 29.0449 50.9542 29.6161 51.4797 30.3406C52.0227 31.065 52.2942 31.8801 52.2942 32.7856C52.2942 33.733 52.0227 34.5829 51.4797 35.3352C50.9542 36.0736 50.236 36.6587 49.3251 37.0906C48.4317 37.5225 47.407 37.7384 46.2509 37.7384H42.7826V42.6286H38.3158ZM42.7038 34.6247H45.6203C46.0057 34.6247 46.356 34.548 46.6713 34.3948C46.9866 34.2415 47.2406 34.0325 47.4333 33.7678C47.626 33.5031 47.7223 33.1966 47.7223 32.8483C47.7223 32.4861 47.626 32.1796 47.4333 31.9288C47.2406 31.678 46.9866 31.483 46.6713 31.3437C46.356 31.2044 46.0057 31.1347 45.6203 31.1347H42.7038V34.6247Z" fill="var(--fill-0, #1F1F1F)"/>
<path d="M59.2603 42.6287V30.7921H62.6486L62.8046 34.6485L62.1359 33.9129C62.3142 33.2739 62.604 32.7017 63.0053 32.1965C63.4214 31.6912 63.9043 31.29 64.4542 30.9928C65.004 30.6955 65.591 30.5469 66.2152 30.5469C66.4827 30.5469 66.7279 30.5692 66.9508 30.6138C67.1886 30.6584 67.404 30.7104 67.5972 30.7698L66.6164 34.7154C66.453 34.6114 66.23 34.5296 65.9477 34.4702C65.6802 34.3959 65.3978 34.3587 65.1006 34.3587C64.7737 34.3587 64.469 34.4182 64.1867 34.5371C63.9043 34.6411 63.6666 34.7971 63.4734 35.0052C63.2802 35.2132 63.1242 35.4584 63.0053 35.7408C62.9012 36.0231 62.8492 36.3426 62.8492 36.6993V42.6287H59.2603Z" fill="var(--fill-0, #1F1F1F)"/>
<path d="M80.9608 42.6285C79.7274 42.6285 78.6277 42.361 77.6617 41.826C76.7106 41.2911 75.9527 40.5629 75.388 39.6415C74.8382 38.7201 74.5632 37.665 74.5632 36.4762C74.5632 35.2873 74.8382 34.2322 75.388 33.3108C75.9527 32.3895 76.7106 31.6613 77.6617 31.1263C78.6277 30.5913 79.7274 30.3238 80.9608 30.3238C82.1943 30.3238 83.2865 30.5913 84.2376 31.1263C85.2036 31.6613 85.9615 32.3895 86.5113 33.3108C87.0612 34.2322 87.3361 35.2873 87.3361 36.4762C87.3361 37.665 87.0612 38.7201 86.5113 39.6415C85.9615 40.5629 85.2036 41.2911 84.2376 41.826C83.2865 42.361 82.1943 42.6285 80.9608 42.6285ZM80.9608 39.5523C81.4958 39.5523 81.9713 39.4186 82.3874 39.1511C82.8035 38.8836 83.1305 38.5195 83.3683 38.0588C83.606 37.5982 83.7175 37.0706 83.7026 36.4762C83.7175 35.8817 83.606 35.3542 83.3683 34.8935C83.1305 34.418 82.8035 34.0464 82.3874 33.7789C81.9713 33.5114 81.4958 33.3777 80.9608 33.3777C80.4258 33.3777 79.9428 33.5114 79.5119 33.7789C79.0958 34.0464 78.7688 34.418 78.5311 34.8935C78.2933 35.3542 78.1818 35.8817 78.1967 36.4762C78.1818 37.0706 78.2933 37.5982 78.5311 38.0588C78.7688 38.5195 79.0958 38.8836 79.5119 39.1511C79.9428 39.4186 80.4258 39.5523 80.9608 39.5523Z" fill="var(--fill-0, #1F1F1F)"/>
<path d="M102.773 42.6284L100.254 38.8167L99.0946 37.1894L94.4134 30.7918H98.6933L101.123 34.4253L102.394 36.164L107.008 42.6284H102.773ZM94.302 42.6284L99.0723 35.9857L100.989 38.2817L98.515 42.6284H94.302ZM102.126 37.4792L100.231 35.2055L102.572 30.7918H106.785L102.126 37.4792Z" fill="var(--fill-0, #1F1F1F)"/>
<path d="M116.843 47.7554L119.54 41.4024L119.585 43.2303L113.879 30.7918H117.913L120.41 36.7436C120.544 37.0408 120.67 37.3603 120.789 37.7021C120.908 38.0439 120.997 38.3708 121.056 38.6829L120.566 38.9727C120.655 38.7498 120.752 38.4749 120.856 38.1479C120.975 37.8061 121.101 37.442 121.235 37.0556L123.419 30.7918H127.476L122.438 42.6284L120.388 47.7554H116.843Z" fill="var(--fill-0, #1F1F1F)"/>
</g>
</svg>
