<svg preserveAspectRatio="none" width="100%" height="100%" overflow="visible" style="display: block;" viewBox="0 0 121.708 48" fill="none" xmlns="http://www.w3.org/2000/svg">
<g id="Vector">
<path d="M26.2737 14.9825C26.2737 13.3117 27.4063 11.8903 28.5619 10.6837C29.6483 9.54933 30.3158 8.01052 30.3158 6.31579C30.3158 2.82767 27.4881 0 24 0C20.5119 0 17.6842 2.82767 17.6842 6.31579C17.6842 8.01052 18.3517 9.54933 19.4381 10.6837C20.5937 11.8903 21.7263 13.3117 21.7263 14.9825V15.3333C21.7263 17.004 20.5937 18.4255 19.4381 19.6321C18.3968 20.7193 17.113 21.7263 15.6075 21.7263H14.9825C13.3117 21.7263 11.8903 20.5937 10.6837 19.4381C9.54932 18.3517 8.01049 17.6842 6.31579 17.6842C2.82767 17.6842 0 20.5119 0 24C0 27.4881 2.82767 30.3158 6.31579 30.3158C8.01049 30.3158 9.54932 29.6483 10.6837 28.5619C11.8903 27.4063 13.3117 26.2737 14.9825 26.2737H15.6075C17.113 26.2737 18.3968 27.2807 19.4381 28.3679C20.5937 29.5745 21.7263 30.996 21.7263 32.6667V33.0175C21.7263 34.6883 20.5937 36.1097 19.4381 37.3163C18.3517 38.4507 17.6842 39.9895 17.6842 41.6842C17.6842 45.1723 20.5119 48 24 48C27.4881 48 30.3158 45.1723 30.3158 41.6842C30.3158 39.9895 29.6483 38.4507 28.5619 37.3163C27.4063 36.1097 26.2737 34.6883 26.2737 33.0175V32.6667C26.2737 30.996 27.4063 29.5745 28.5619 28.3679C29.6483 27.2335 30.3158 25.6947 30.3158 24C30.3158 22.3053 29.6483 20.7665 28.5619 19.6321C27.4063 18.4255 26.2737 17.004 26.2737 15.3333V14.9825Z" fill="var(--fill-0, #1F1F1F)"/>
<path d="M40.3158 19.8143L46.329 5.18572H48.3259L54.2942 19.8143H52.387L48.5503 10.3266C48.4456 10.0619 48.3259 9.7554 48.1913 9.4071C48.0716 9.04487 47.937 8.67567 47.7874 8.29951C47.6528 7.90942 47.5181 7.53325 47.3835 7.17102C47.2639 6.80879 47.1517 6.48836 47.047 6.20972H47.4957C47.376 6.55802 47.2489 6.91328 47.1143 7.27551C46.9946 7.62381 46.8675 7.97908 46.7328 8.34131C46.5982 8.68961 46.4636 9.03791 46.329 9.38621C46.1943 9.7345 46.0597 10.0828 45.9251 10.4311L42.1108 19.8143H40.3158ZM42.8736 15.781L43.5243 14.1927H50.951L51.669 15.781H42.8736Z" fill="var(--fill-0, #1F1F1F)"/>
<path d="M69.9221 19.8143C69.1419 19.8143 68.4787 19.6582 67.9326 19.3462C67.3995 19.0211 66.9899 18.553 66.7038 17.9418C66.4307 17.3307 66.2942 16.57 66.2942 15.6598V9.43775H67.7766V15.3672C67.7766 16.0564 67.8676 16.635 68.0496 17.1031C68.2447 17.5582 68.5307 17.9028 68.9078 18.1369C69.2979 18.3709 69.7725 18.488 70.3317 18.488C70.7608 18.488 71.1574 18.4164 71.5215 18.2734C71.8856 18.1174 72.2041 17.9093 72.4772 17.6493C72.7503 17.3892 72.9648 17.0836 73.1209 16.7325C73.2769 16.3814 73.3549 16.0109 73.3549 15.6208V9.43775H74.8178V19.6192H73.3744L73.3159 17.4737L73.55 17.3567C73.3939 17.8118 73.1339 18.2279 72.7698 18.605C72.4057 18.9691 71.9701 19.2616 71.463 19.4827C70.9688 19.7038 70.4552 19.8143 69.9221 19.8143Z" fill="var(--fill-0, #1F1F1F)"/>
<path d="M89.1193 19.8143V6.96065H90.5822V19.8143H89.1193ZM86.8178 11.0371V9.6328H93.1568V11.0371H86.8178Z" fill="var(--fill-0, #1F1F1F)"/>
<path d="M105.157 19.8143V5.38076H106.62V11.8563L106.327 12.1489C106.47 11.6158 106.737 11.1477 107.127 10.7446C107.517 10.3285 107.972 10.0034 108.492 9.76933C109.025 9.53528 109.565 9.41825 110.111 9.41825C110.891 9.41825 111.541 9.56778 112.062 9.86686C112.582 10.1659 112.965 10.6275 113.212 11.2517C113.472 11.8758 113.602 12.669 113.602 13.6313V19.8143H112.12V13.7093C112.12 13.0331 112.029 12.4805 111.847 12.0514C111.678 11.6093 111.411 11.2842 111.047 11.0762C110.683 10.8681 110.228 10.7706 109.682 10.7836C109.253 10.7836 108.85 10.8616 108.473 11.0176C108.096 11.1607 107.77 11.3622 107.497 11.6223C107.224 11.8823 107.01 12.1814 106.854 12.5195C106.698 12.8576 106.62 13.2217 106.62 13.6118V19.8143H105.898C105.807 19.8143 105.703 19.8143 105.586 19.8143C105.469 19.8143 105.326 19.8143 105.157 19.8143Z" fill="var(--fill-0, #1F1F1F)"/>
<path d="M40.3158 42.4429V27.8143H48.2509C49.407 27.8143 50.4317 28.0233 51.3251 28.4412C52.236 28.8592 52.9542 29.4304 53.4797 30.1549C54.0227 30.8793 54.2942 31.6943 54.2942 32.5999C54.2942 33.5473 54.0227 34.3971 53.4797 35.1495C52.9542 35.8879 52.236 36.473 51.3251 36.9049C50.4317 37.3368 49.407 37.5527 48.2509 37.5527H44.7826V42.4429H40.3158ZM44.7038 34.4389H47.6203C48.0057 34.4389 48.356 34.3623 48.6713 34.2091C48.9866 34.0558 49.2406 33.8468 49.4333 33.5821C49.626 33.3174 49.7223 33.0109 49.7223 32.6626C49.7223 32.3004 49.626 31.9939 49.4333 31.7431C49.2406 31.4923 48.9866 31.2973 48.6713 31.158C48.356 31.0186 48.0057 30.949 47.6203 30.949H44.7038V34.4389Z" fill="var(--fill-0, #1F1F1F)"/>
<path d="M59.2943 42.443V30.6064H62.6826L62.8386 34.4628L62.1699 33.7272C62.3482 33.0882 62.638 32.516 63.0392 32.0108C63.4553 31.5055 63.9383 31.1043 64.4881 30.807C65.038 30.5098 65.625 30.3612 66.2491 30.3612C66.5166 30.3612 66.7618 30.3835 66.9847 30.4281C67.2225 30.4727 67.438 30.5247 67.6312 30.5841L66.6504 34.5297C66.4869 34.4256 66.264 34.3439 65.9817 34.2845C65.7142 34.2102 65.4318 34.173 65.1346 34.173C64.8077 34.173 64.503 34.2325 64.2206 34.3513C63.9383 34.4554 63.7005 34.6114 63.5073 34.8195C63.3141 35.0275 63.1581 35.2727 63.0392 35.5551C62.9352 35.8374 62.8832 36.1569 62.8832 36.5136V42.443H59.2943Z" fill="var(--fill-0, #1F1F1F)"/>
<path d="M79.0288 42.4428C77.7953 42.4428 76.6956 42.1753 75.7297 41.6403C74.7786 41.1053 74.0207 40.3772 73.456 39.4558C72.9061 38.5344 72.6312 37.4793 72.6312 36.2905C72.6312 35.1016 72.9061 34.0465 73.456 33.1251C74.0207 32.2037 74.7786 31.4756 75.7297 30.9406C76.6956 30.4056 77.7953 30.1381 79.0288 30.1381C80.2622 30.1381 81.3545 30.4056 82.3056 30.9406C83.2715 31.4756 84.0294 32.2037 84.5793 33.1251C85.1291 34.0465 85.4041 35.1016 85.4041 36.2905C85.4041 37.4793 85.1291 38.5344 84.5793 39.4558C84.0294 40.3772 83.2715 41.1053 82.3056 41.6403C81.3545 42.1753 80.2622 42.4428 79.0288 42.4428ZM79.0288 39.3666C79.5638 39.3666 80.0393 39.2329 80.4554 38.9654C80.8715 38.6979 81.1985 38.3338 81.4362 37.8731C81.674 37.4124 81.7855 36.8849 81.7706 36.2905C81.7855 35.696 81.674 35.1685 81.4362 34.7078C81.1985 34.2322 80.8715 33.8607 80.4554 33.5932C80.0393 33.3257 79.5638 33.192 79.0288 33.192C78.4938 33.192 78.0108 33.3257 77.5799 33.5932C77.1638 33.8607 76.8368 34.2322 76.599 34.7078C76.3613 35.1685 76.2498 35.696 76.2647 36.2905C76.2498 36.8849 76.3613 37.4124 76.599 37.8731C76.8368 38.3338 77.1638 38.6979 77.5799 38.9654C78.0108 39.2329 78.4938 39.3666 79.0288 39.3666Z" fill="var(--fill-0, #1F1F1F)"/>
<path d="M98.8748 42.4427L96.3559 38.6309L95.1968 37.0037L90.5156 30.6061H94.7955L97.2253 34.2396L98.4959 35.9783L103.11 42.4427H98.8748ZM90.4042 42.4427L95.1745 35.8L97.0915 38.0959L94.6172 42.4427H90.4042ZM98.2284 37.2935L96.3336 35.0198L98.6742 30.6061H102.887L98.2284 37.2935Z" fill="var(--fill-0, #1F1F1F)"/>
<path d="M111.075 47.5697L113.772 41.2167L113.817 43.0446L108.11 30.6061H112.145L114.642 36.5579C114.775 36.8551 114.902 37.1746 115.02 37.5164C115.139 37.8582 115.229 38.1851 115.288 38.4972L114.798 38.787C114.887 38.5641 114.983 38.2891 115.087 37.9622C115.206 37.6204 115.333 37.2563 115.466 36.8699L117.651 30.6061H121.708L116.67 42.4427L114.619 47.5697H111.075Z" fill="var(--fill-0, #1F1F1F)"/>
</g>
</svg>
