<svg preserveAspectRatio="none" width="100%" height="100%" overflow="visible" style="display: block;" viewBox="0 0 126.791 48" fill="none" xmlns="http://www.w3.org/2000/svg">
<g id="Vector">
<path d="M26.2737 14.9825C26.2737 13.3117 27.4063 11.8903 28.5619 10.6837C29.6483 9.54933 30.3158 8.01052 30.3158 6.31579C30.3158 2.82767 27.4881 0 24 0C20.5119 0 17.6842 2.82767 17.6842 6.31579C17.6842 8.01052 18.3517 9.54933 19.4381 10.6837C20.5937 11.8903 21.7263 13.3117 21.7263 14.9825V15.3333C21.7263 17.004 20.5937 18.4255 19.4381 19.6321C18.3968 20.7193 17.113 21.7263 15.6075 21.7263H14.9825C13.3117 21.7263 11.8903 20.5937 10.6837 19.4381C9.54932 18.3517 8.01049 17.6842 6.31579 17.6842C2.82767 17.6842 0 20.5119 0 24C0 27.4881 2.82767 30.3158 6.31579 30.3158C8.01049 30.3158 9.54932 29.6483 10.6837 28.5619C11.8903 27.4063 13.3117 26.2737 14.9825 26.2737H15.6075C17.113 26.2737 18.3968 27.2807 19.4381 28.3679C20.5937 29.5745 21.7263 30.996 21.7263 32.6667V33.0175C21.7263 34.6883 20.5937 36.1097 19.4381 37.3163C18.3517 38.4507 17.6842 39.9895 17.6842 41.6842C17.6842 45.1723 20.5119 48 24 48C27.4881 48 30.3158 45.1723 30.3158 41.6842C30.3158 39.9895 29.6483 38.4507 28.5619 37.3163C27.4063 36.1097 26.2737 34.6883 26.2737 33.0175V32.6667C26.2737 30.996 27.4063 29.5745 28.5619 28.3679C29.6483 27.2335 30.3158 25.6947 30.3158 24C30.3158 22.3053 29.6483 20.7665 28.5619 19.6321C27.4063 18.4255 26.2737 17.004 26.2737 15.3333V14.9825Z" fill="var(--fill-0, #1F1F1F)"/>
<path d="M37.63 20.3429L43.6432 5.71429H45.6401L51.6084 20.3429H49.7013L45.8645 10.8552C45.7598 10.5905 45.6401 10.284 45.5055 9.93567C45.3858 9.57344 45.2512 9.20424 45.1016 8.82808C44.967 8.43799 44.8324 8.06182 44.6978 7.69959C44.5781 7.33736 44.4659 7.01693 44.3612 6.73829H44.8099C44.6903 7.08658 44.5631 7.44185 44.4285 7.80408C44.3088 8.15238 44.1817 8.50765 44.0471 8.86988C43.9125 9.21818 43.7778 9.56648 43.6432 9.91477C43.5086 10.2631 43.374 10.6114 43.2393 10.9597L39.425 20.3429H37.63ZM40.1879 16.3095L40.8386 14.7213H48.2653L48.9833 16.3095H40.1879Z" fill="var(--fill-0, #1F1F1F)"/>
<path d="M62.2025 20.3429C61.4223 20.3429 60.7591 20.1868 60.213 19.8747C59.6799 19.5497 59.2703 19.0815 58.9842 18.4704C58.7111 17.8593 58.5746 17.0986 58.5746 16.1883V9.96633H60.0569V15.8958C60.0569 16.5849 60.148 17.1636 60.33 17.6317C60.5251 18.0868 60.8111 18.4314 61.1882 18.6654C61.5783 18.8995 62.0529 19.0165 62.6121 19.0165C63.0412 19.0165 63.4378 18.945 63.8019 18.802C64.1659 18.6459 64.4845 18.4379 64.7576 18.1778C65.0307 17.9178 65.2452 17.6122 65.4012 17.2611C65.5573 16.91 65.6353 16.5394 65.6353 16.1493V9.96633H67.0982V20.1478H65.6548L65.5963 18.0023L65.8304 17.8853C65.6743 18.3404 65.4143 18.7565 65.0502 19.1336C64.6861 19.4976 64.2505 19.7902 63.7433 20.0113C63.2492 20.2323 62.7356 20.3429 62.2025 20.3429Z" fill="var(--fill-0, #1F1F1F)"/>
<path d="M76.3658 20.3428V7.48911H77.8286V20.3428H76.3658ZM74.0642 11.5656V10.1613H80.4033V11.5656H74.0642Z" fill="var(--fill-0, #1F1F1F)"/>
<path d="M87.3692 20.3427V5.90918H88.8321V12.3848L88.5395 12.6773C88.6825 12.1442 88.9491 11.6761 89.3392 11.273C89.7293 10.8569 90.1844 10.5318 90.7045 10.2978C91.2377 10.0637 91.7773 9.94667 92.3234 9.94667C93.1036 9.94667 93.7538 10.0962 94.2739 10.3953C94.794 10.6943 95.1776 11.156 95.4247 11.7801C95.6847 12.4043 95.8148 13.1975 95.8148 14.1597V20.3427H94.3324V14.2377C94.3324 13.5615 94.2414 13.0089 94.0594 12.5798C93.8903 12.1377 93.6237 11.8126 93.2597 11.6046C92.8956 11.3965 92.4405 11.299 91.8943 11.312C91.4652 11.312 91.0621 11.39 90.685 11.5461C90.3079 11.6891 89.9829 11.8906 89.7098 12.1507C89.4367 12.4108 89.2222 12.7098 89.0661 13.0479C88.9101 13.386 88.8321 13.7501 88.8321 14.1402V20.3427H88.1104C88.0194 20.3427 87.9154 20.3427 87.7983 20.3427C87.6813 20.3427 87.5383 20.3427 87.3692 20.3427Z" fill="var(--fill-0, #1F1F1F)"/>
<path d="M37.6302 42.2857V27.6571H45.5653C46.7214 27.6571 47.7461 27.8661 48.6395 28.2841C49.5504 28.702 50.2685 29.2732 50.794 29.9977C51.3371 30.7222 51.6086 31.5372 51.6086 32.4428C51.6086 33.3901 51.3371 34.24 50.794 34.9923C50.2685 35.7307 49.5504 36.3159 48.6395 36.7478C47.7461 37.1796 46.7214 37.3956 45.5653 37.3956H42.097V42.2857H37.6302ZM42.0181 34.2818H44.9347C45.32 34.2818 45.6704 34.2052 45.9857 34.0519C46.301 33.8987 46.555 33.6897 46.7477 33.425C46.9403 33.1603 47.0367 32.8538 47.0367 32.5055C47.0367 32.1432 46.9403 31.8367 46.7477 31.586C46.555 31.3352 46.301 31.1401 45.9857 31.0008C45.6704 30.8615 45.32 30.7918 44.9347 30.7918H42.0181V34.2818Z" fill="var(--fill-0, #1F1F1F)"/>
<path d="M58.5747 42.2859V30.4493H61.963L62.119 34.3057L61.4503 33.57C61.6286 32.931 61.9184 32.3589 62.3196 31.8536C62.7357 31.3484 63.2187 30.9471 63.7686 30.6499C64.3184 30.3527 64.9054 30.2041 65.5296 30.2041C65.7971 30.2041 66.0423 30.2264 66.2652 30.271C66.5029 30.3155 66.7184 30.3675 66.9116 30.427L65.9308 34.3725C65.7673 34.2685 65.5444 34.1868 65.2621 34.1273C64.9946 34.053 64.7122 34.0159 64.415 34.0159C64.0881 34.0159 63.7834 34.0753 63.5011 34.1942C63.2187 34.2982 62.9809 34.4543 62.7878 34.6623C62.5946 34.8704 62.4385 35.1156 62.3196 35.3979C62.2156 35.6803 62.1636 35.9998 62.1636 36.3564V42.2859H58.5747Z" fill="var(--fill-0, #1F1F1F)"/>
<path d="M80.2752 42.2857C79.0417 42.2857 77.942 42.0182 76.9761 41.4832C76.025 40.9482 75.2671 40.22 74.7024 39.2987C74.1526 38.3773 73.8776 37.3222 73.8776 36.1333C73.8776 34.9445 74.1526 33.8893 74.7024 32.968C75.2671 32.0466 76.025 31.3184 76.9761 30.7834C77.942 30.2484 79.0417 29.981 80.2752 29.981C81.5086 29.981 82.6009 30.2484 83.552 30.7834C84.5179 31.3184 85.2758 32.0466 85.8257 32.968C86.3755 33.8893 86.6505 34.9445 86.6505 36.1333C86.6505 37.3222 86.3755 38.3773 85.8257 39.2987C85.2758 40.22 84.5179 40.9482 83.552 41.4832C82.6009 42.0182 81.5086 42.2857 80.2752 42.2857ZM80.2752 39.2095C80.8102 39.2095 81.2857 39.0757 81.7018 38.8083C82.1179 38.5408 82.4449 38.1767 82.6826 37.716C82.9204 37.2553 83.0319 36.7277 83.017 36.1333C83.0319 35.5389 82.9204 35.0113 82.6826 34.5506C82.4449 34.0751 82.1179 33.7036 81.7018 33.4361C81.2857 33.1686 80.8102 33.0348 80.2752 33.0348C79.7402 33.0348 79.2572 33.1686 78.8263 33.4361C78.4102 33.7036 78.0832 34.0751 77.8455 34.5506C77.6077 35.0113 77.4962 35.5389 77.5111 36.1333C77.4962 36.7277 77.6077 37.2553 77.8455 37.716C78.0832 38.1767 78.4102 38.5408 78.8263 38.8083C79.2572 39.0757 79.7402 39.2095 80.2752 39.2095Z" fill="var(--fill-0, #1F1F1F)"/>
<path d="M102.087 42.2856L99.5681 38.4738L98.409 36.8465L93.7278 30.449H98.0077L100.437 34.0824L101.708 35.8211L106.322 42.2856H102.087ZM93.6163 42.2856L98.3867 35.6428L100.304 37.9388L97.8294 42.2856H93.6163ZM101.441 37.1363L99.5458 34.8626L101.886 30.449H106.099L101.441 37.1363Z" fill="var(--fill-0, #1F1F1F)"/>
<path d="M116.158 47.4125L118.855 41.0596L118.899 42.8874L113.193 30.449H117.228L119.724 36.4007C119.858 36.6979 119.984 37.0174 120.103 37.3592C120.222 37.701 120.311 38.028 120.371 38.34L119.88 38.6298C119.969 38.4069 120.066 38.132 120.17 37.8051C120.289 37.4633 120.415 37.0992 120.549 36.7128L122.734 30.449H126.791L121.753 42.2856L119.702 47.4125H116.158Z" fill="var(--fill-0, #1F1F1F)"/>
</g>
</svg>
