<svg width="294" height="637" viewBox="0 0 294 637" fill="none" xmlns="http://www.w3.org/2000/svg">
<g clip-path="url(#clip0_793_13051)">
<mask id="mask0_793_13051" style="mask-type:luminance" maskUnits="userSpaceOnUse" x="0" y="0" width="294" height="637">
<path d="M261 0H33C14.7746 0 0 14.7746 0 33V604C0 622.225 14.7746 637 33 637H261C279.225 637 294 622.225 294 604V33C294 14.7746 279.225 0 261 0Z" fill="white"/>
</mask>
<g mask="url(#mask0_793_13051)">
<mask id="mask1_793_13051" style="mask-type:luminance" maskUnits="userSpaceOnUse" x="0" y="0" width="294" height="858">
<path d="M293.67 0H0V857.845H293.67V0Z" fill="white"/>
</mask>
<g mask="url(#mask1_793_13051)">
<path d="M293.67 0H0V857.845H293.67V0Z" fill="white"/>
<path d="M22.4908 107.067H20.1663C20.1238 106.766 20.0371 106.499 19.9062 106.266C19.7753 106.029 19.6072 105.827 19.402 105.661C19.1968 105.494 18.9598 105.367 18.6909 105.278C18.4255 105.19 18.1372 105.146 17.8258 105.146C17.2632 105.146 16.7732 105.286 16.3557 105.565C15.9382 105.841 15.6145 106.244 15.3845 106.775C15.1545 107.302 15.0395 107.943 15.0395 108.696C15.0395 109.471 15.1545 110.122 15.3845 110.649C15.618 111.177 15.9435 111.575 16.361 111.843C16.7785 112.112 17.2615 112.247 17.8099 112.247C18.1177 112.247 18.4025 112.206 18.6643 112.125C18.9297 112.043 19.165 111.925 19.3702 111.769C19.5754 111.61 19.7452 111.417 19.8797 111.191C20.0177 110.964 20.1132 110.706 20.1663 110.416L22.4908 110.426C22.4307 110.925 22.2803 111.407 22.0397 111.87C21.8027 112.33 21.4825 112.742 21.0791 113.107C20.6793 113.467 20.2017 113.754 19.6462 113.966C19.0942 114.175 18.4697 114.279 17.7727 114.279C16.8033 114.279 15.9364 114.06 15.1722 113.621C14.4115 113.183 13.81 112.548 13.3678 111.716C12.929 110.885 12.7097 109.878 12.7097 108.696C12.7097 107.511 12.9326 106.503 13.3784 105.671C13.8242 104.84 14.4292 104.206 15.1934 103.771C15.9577 103.333 16.8174 103.113 17.7727 103.113C18.4025 103.113 18.9863 103.202 19.5241 103.378C20.0654 103.555 20.5449 103.814 20.9624 104.153C21.3799 104.489 21.7195 104.902 21.9813 105.39C22.2467 105.878 22.4165 106.437 22.4908 107.067ZM26.0208 109.418V114.131H23.76V103.262H25.9572V107.417H26.0527C26.2367 106.936 26.5339 106.559 26.9443 106.287C27.3547 106.011 27.8695 105.873 28.4887 105.873C29.0548 105.873 29.5484 105.997 29.9694 106.244C30.394 106.489 30.723 106.841 30.9565 107.301C31.1936 107.757 31.3103 108.304 31.3068 108.94V114.131H29.0459V109.344C29.0495 108.841 28.9221 108.45 28.6638 108.171C28.4091 107.891 28.0517 107.752 27.5918 107.752C27.284 107.752 27.0115 107.817 26.7745 107.948C26.5409 108.079 26.357 108.27 26.2225 108.521C26.0916 108.769 26.0244 109.068 26.0208 109.418ZM36.433 114.29C35.6086 114.29 34.8956 114.115 34.2942 113.765C33.6962 113.411 33.2345 112.919 32.909 112.289C32.5835 111.656 32.4207 110.922 32.4207 110.087C32.4207 109.245 32.5835 108.509 32.909 107.879C33.2345 107.246 33.6962 106.754 34.2942 106.404C34.8956 106.05 35.6086 105.873 36.433 105.873C37.2573 105.873 37.9685 106.05 38.5665 106.404C39.1679 106.754 39.6314 107.246 39.9569 107.879C40.2824 108.509 40.4452 109.245 40.4452 110.087C40.4452 110.922 40.2824 111.656 39.9569 112.289C39.6314 112.919 39.1679 113.411 38.5665 113.765C37.9685 114.115 37.2573 114.29 36.433 114.29ZM36.4436 112.539C36.8186 112.539 37.1317 112.433 37.3829 112.22C37.6342 112.004 37.8234 111.711 37.9508 111.339C38.0817 110.968 38.1472 110.545 38.1472 110.071C38.1472 109.597 38.0817 109.174 37.9508 108.802C37.8234 108.431 37.6342 108.137 37.3829 107.921C37.1317 107.706 36.8186 107.598 36.4436 107.598C36.065 107.598 35.7466 107.706 35.4883 107.921C35.2335 108.137 35.0407 108.431 34.9098 108.802C34.7824 109.174 34.7187 109.597 34.7187 110.071C34.7187 110.545 34.7824 110.968 34.9098 111.339C35.0407 111.711 35.2335 112.004 35.4883 112.22C35.7466 112.433 36.065 112.539 36.4436 112.539ZM45.2622 114.29C44.4378 114.29 43.7249 114.115 43.1234 113.765C42.5255 113.411 42.0637 112.919 41.7382 112.289C41.4127 111.656 41.25 110.922 41.25 110.087C41.25 109.245 41.4127 108.509 41.7382 107.879C42.0637 107.246 42.5255 106.754 43.1234 106.404C43.7249 106.05 44.4378 105.873 45.2622 105.873C46.0866 105.873 46.7978 106.05 47.3957 106.404C47.9972 106.754 48.4607 107.246 48.7862 107.879C49.1117 108.509 49.2744 109.245 49.2744 110.087C49.2744 110.922 49.1117 111.656 48.7862 112.289C48.4607 112.919 47.9972 113.411 47.3957 113.765C46.7978 114.115 46.0866 114.29 45.2622 114.29ZM45.2728 112.539C45.6479 112.539 45.961 112.433 46.2122 112.22C46.4634 112.004 46.6527 111.711 46.7801 111.339C46.911 110.968 46.9764 110.545 46.9764 110.071C46.9764 109.597 46.911 109.174 46.7801 108.802C46.6527 108.431 46.4634 108.137 46.2122 107.921C45.961 107.706 45.6479 107.598 45.2728 107.598C44.8942 107.598 44.5758 107.706 44.3175 107.921C44.0628 108.137 43.87 108.431 43.739 108.802C43.6117 109.174 43.548 109.597 43.548 110.071C43.548 110.545 43.6117 110.968 43.739 111.339C43.87 111.711 44.0628 112.004 44.3175 112.22C44.5758 112.433 44.8942 112.539 45.2728 112.539ZM57.1909 108.304L55.1211 108.431C55.0857 108.254 55.0096 108.095 54.8928 107.953C54.7761 107.808 54.6222 107.693 54.4311 107.608C54.2436 107.52 54.0189 107.476 53.7571 107.476C53.4068 107.476 53.1114 107.55 52.8708 107.699C52.6302 107.844 52.5099 108.038 52.5099 108.282C52.5099 108.477 52.5878 108.641 52.7434 108.776C52.8991 108.91 53.1662 109.018 53.5448 109.1L55.0202 109.397C55.8128 109.56 56.4036 109.821 56.7928 110.182C57.182 110.543 57.3766 111.017 57.3766 111.605C57.3766 112.139 57.2192 112.608 56.9043 113.011C56.5929 113.414 56.1648 113.729 55.6199 113.956C55.0786 114.179 54.4541 114.29 53.7465 114.29C52.6674 114.29 51.8076 114.065 51.1672 113.616C50.5303 113.163 50.1571 112.548 50.0474 111.769L52.2711 111.652C52.3383 111.981 52.5011 112.233 52.7594 112.406C53.0176 112.576 53.3485 112.661 53.7518 112.661C54.1481 112.661 54.4665 112.585 54.7071 112.433C54.9512 112.277 55.0751 112.077 55.0786 111.833C55.0751 111.628 54.9884 111.46 54.8185 111.329C54.6487 111.194 54.3869 111.092 54.0331 111.021L52.6214 110.74C51.8253 110.58 51.2327 110.304 50.8435 109.912C50.4578 109.519 50.265 109.018 50.265 108.41C50.265 107.886 50.4065 107.435 50.6896 107.056C50.9761 106.678 51.3777 106.386 51.8943 106.181C52.4144 105.975 53.0229 105.873 53.72 105.873C54.7496 105.873 55.5598 106.09 56.1506 106.526C56.7451 106.961 57.0918 107.553 57.1909 108.304ZM62.179 114.29C61.3405 114.29 60.6187 114.12 60.0137 113.781C59.4122 113.437 58.9487 112.953 58.6232 112.326C58.2977 111.697 58.135 110.952 58.135 110.092C58.135 109.254 58.2977 108.518 58.6232 107.884C58.9487 107.251 59.4069 106.757 59.9978 106.404C60.5922 106.05 61.2892 105.873 62.0888 105.873C62.6266 105.873 63.1272 105.96 63.5907 106.133C64.0578 106.303 64.4647 106.559 64.8114 106.902C65.1617 107.246 65.4341 107.677 65.6287 108.197C65.8233 108.714 65.9206 109.319 65.9206 110.012V110.633H59.0372V109.232H63.7924C63.7924 108.907 63.7217 108.618 63.5801 108.367C63.4386 108.116 63.2422 107.92 62.991 107.778C62.7434 107.633 62.455 107.561 62.126 107.561C61.7828 107.561 61.4785 107.64 61.2131 107.799C60.9513 107.955 60.7461 108.166 60.5975 108.431C60.4489 108.693 60.3728 108.985 60.3693 109.307V110.639C60.3693 111.042 60.4436 111.391 60.5922 111.684C60.7443 111.978 60.9584 112.204 61.2343 112.364C61.5103 112.523 61.8376 112.602 62.2162 112.602C62.4674 112.602 62.6974 112.567 62.9061 112.496C63.1149 112.425 63.2935 112.319 63.4421 112.178C63.5907 112.036 63.704 111.863 63.7818 111.658L65.8728 111.796C65.7667 112.298 65.5491 112.737 65.22 113.112C64.8945 113.483 64.4735 113.774 63.9569 113.982C63.4439 114.187 62.8513 114.29 62.179 114.29ZM72.4433 109.418V114.131H70.1824V103.262H72.3796V107.417H72.4751C72.6591 106.936 72.9563 106.559 73.3667 106.287C73.7772 106.011 74.292 105.873 74.9111 105.873C75.4772 105.873 75.9708 105.997 76.3918 106.244C76.8164 106.489 77.1455 106.841 77.379 107.301C77.616 107.757 77.7328 108.304 77.7292 108.94V114.131H75.4684V109.344C75.4719 108.841 75.3445 108.45 75.0863 108.171C74.8315 107.891 74.4742 107.752 74.0142 107.752C73.7064 107.752 73.434 107.817 73.1969 107.948C72.9634 108.079 72.7794 108.27 72.645 108.521C72.514 108.769 72.4468 109.068 72.4433 109.418ZM82.8554 114.29C82.031 114.29 81.3181 114.115 80.7166 113.765C80.1187 113.411 79.6569 112.919 79.3314 112.289C79.0059 111.656 78.8432 110.922 78.8432 110.087C78.8432 109.245 79.0059 108.509 79.3314 107.879C79.6569 107.246 80.1187 106.754 80.7166 106.404C81.3181 106.05 82.031 105.873 82.8554 105.873C83.6798 105.873 84.391 106.05 84.9889 106.404C85.5904 106.754 86.0539 107.246 86.3794 107.879C86.7049 108.509 86.8676 109.245 86.8676 110.087C86.8676 110.922 86.7049 111.656 86.3794 112.289C86.0539 112.919 85.5904 113.411 84.9889 113.765C84.391 114.115 83.6798 114.29 82.8554 114.29ZM82.866 112.539C83.2411 112.539 83.5542 112.433 83.8054 112.22C84.0566 112.004 84.2459 111.711 84.3733 111.339C84.5042 110.968 84.5696 110.545 84.5696 110.071C84.5696 109.597 84.5042 109.174 84.3733 108.802C84.2459 108.431 84.0566 108.137 83.8054 107.921C83.5542 107.706 83.2411 107.598 82.866 107.598C82.4874 107.598 82.169 107.706 81.9107 107.921C81.656 108.137 81.4632 108.431 81.3322 108.802C81.2049 109.174 81.1412 109.597 81.1412 110.071C81.1412 110.545 81.2049 110.968 81.3322 111.339C81.4632 111.711 81.656 112.004 81.9107 112.22C82.169 112.433 82.4874 112.539 82.866 112.539ZM89.4052 114.131L87.1868 105.979H89.4742L90.7373 111.456H90.8116L92.1278 105.979H94.3727L95.7102 111.424H95.7791L97.021 105.979H99.3031L97.09 114.131H94.6965L93.2954 109.004H93.1945L91.7934 114.131H89.4052ZM107.632 105.979V107.677H102.722V105.979H107.632ZM103.837 104.026H106.098V111.626C106.098 111.835 106.13 111.997 106.193 112.114C106.257 112.227 106.345 112.307 106.459 112.353C106.575 112.399 106.71 112.422 106.862 112.422C106.968 112.422 107.074 112.413 107.18 112.395C107.287 112.374 107.368 112.358 107.425 112.348L107.78 114.03C107.667 114.065 107.508 114.106 107.303 114.152C107.097 114.202 106.848 114.232 106.554 114.242C106.009 114.264 105.532 114.191 105.121 114.025C104.714 113.858 104.398 113.6 104.171 113.25C103.945 112.9 103.833 112.457 103.837 111.923V104.026ZM112.364 114.29C111.539 114.29 110.826 114.115 110.225 113.765C109.627 113.411 109.165 112.919 108.84 112.289C108.514 111.656 108.351 110.922 108.351 110.087C108.351 109.245 108.514 108.509 108.84 107.879C109.165 107.246 109.627 106.754 110.225 106.404C110.826 106.05 111.539 105.873 112.364 105.873C113.188 105.873 113.899 106.05 114.497 106.404C115.099 106.754 115.562 107.246 115.888 107.879C116.213 108.509 116.376 109.245 116.376 110.087C116.376 110.922 116.213 111.656 115.888 112.289C115.562 112.919 115.099 113.411 114.497 113.765C113.899 114.115 113.188 114.29 112.364 114.29ZM112.374 112.539C112.749 112.539 113.062 112.433 113.314 112.22C113.565 112.004 113.754 111.711 113.882 111.339C114.012 110.968 114.078 110.545 114.078 110.071C114.078 109.597 114.012 109.174 113.882 108.802C113.754 108.431 113.565 108.137 113.314 107.921C113.062 107.706 112.749 107.598 112.374 107.598C111.996 107.598 111.677 107.706 111.419 107.921C111.164 108.137 110.971 108.431 110.841 108.802C110.713 109.174 110.649 109.597 110.649 110.071C110.649 110.545 110.713 110.968 110.841 111.339C110.971 111.711 111.164 112.004 111.419 112.22C111.677 112.433 111.996 112.539 112.374 112.539ZM126.571 106.388C126.529 105.96 126.347 105.627 126.025 105.39C125.703 105.153 125.266 105.034 124.714 105.034C124.339 105.034 124.022 105.087 123.764 105.194C123.505 105.296 123.307 105.439 123.169 105.623C123.035 105.807 122.968 106.016 122.968 106.25C122.961 106.444 123.001 106.614 123.09 106.759C123.182 106.904 123.307 107.03 123.466 107.136C123.626 107.239 123.81 107.329 124.018 107.407C124.227 107.481 124.45 107.545 124.687 107.598L125.664 107.831C126.138 107.937 126.573 108.079 126.969 108.256C127.365 108.433 127.709 108.65 127.999 108.909C128.289 109.167 128.514 109.471 128.673 109.821C128.836 110.172 128.919 110.573 128.922 111.026C128.919 111.691 128.749 112.268 128.413 112.756C128.08 113.241 127.599 113.618 126.969 113.887C126.343 114.152 125.588 114.285 124.703 114.285C123.826 114.285 123.061 114.15 122.41 113.881C121.763 113.613 121.257 113.214 120.892 112.687C120.532 112.157 120.342 111.5 120.325 110.718H122.548C122.573 111.083 122.677 111.387 122.861 111.631C123.049 111.872 123.298 112.054 123.61 112.178C123.925 112.298 124.28 112.358 124.677 112.358C125.066 112.358 125.404 112.302 125.69 112.188C125.98 112.075 126.205 111.918 126.364 111.716C126.523 111.514 126.603 111.283 126.603 111.021C126.603 110.777 126.53 110.572 126.385 110.405C126.244 110.239 126.035 110.097 125.759 109.981C125.487 109.864 125.152 109.758 124.756 109.662L123.573 109.365C122.656 109.142 121.933 108.794 121.402 108.319C120.871 107.845 120.608 107.207 120.611 106.404C120.608 105.746 120.783 105.171 121.137 104.679C121.494 104.187 121.984 103.803 122.607 103.527C123.229 103.251 123.937 103.113 124.73 103.113C125.536 103.113 126.24 103.251 126.842 103.527C127.447 103.803 127.917 104.187 128.254 104.679C128.59 105.171 128.763 105.74 128.774 106.388H126.571ZM130.089 114.131V105.979H132.35V114.131H130.089ZM131.225 104.928C130.889 104.928 130.601 104.817 130.36 104.594C130.123 104.367 130.004 104.097 130.004 103.782C130.004 103.47 130.123 103.203 130.36 102.98C130.601 102.754 130.889 102.641 131.225 102.641C131.561 102.641 131.848 102.754 132.085 102.98C132.325 103.203 132.446 103.47 132.446 103.782C132.446 104.097 132.325 104.367 132.085 104.594C131.848 104.817 131.561 104.928 131.225 104.928ZM137.498 117.358C136.765 117.358 136.137 117.257 135.613 117.055C135.093 116.857 134.679 116.586 134.372 116.243C134.064 115.9 133.864 115.514 133.772 115.086L135.863 114.805C135.927 114.968 136.027 115.12 136.165 115.261C136.303 115.403 136.486 115.516 136.712 115.601C136.942 115.689 137.222 115.734 137.551 115.734C138.042 115.734 138.447 115.613 138.766 115.373C139.088 115.136 139.249 114.738 139.249 114.179V112.687H139.153C139.054 112.914 138.906 113.128 138.708 113.329C138.509 113.531 138.255 113.696 137.943 113.823C137.632 113.95 137.26 114.014 136.829 114.014C136.217 114.014 135.659 113.873 135.157 113.59C134.658 113.303 134.26 112.866 133.963 112.279C133.669 111.688 133.522 110.941 133.522 110.039C133.522 109.116 133.673 108.344 133.974 107.725C134.274 107.106 134.674 106.642 135.173 106.335C135.675 106.027 136.226 105.873 136.823 105.873C137.28 105.873 137.662 105.951 137.97 106.106C138.278 106.259 138.525 106.45 138.713 106.68C138.904 106.906 139.051 107.129 139.153 107.348H139.238V105.979H141.483V114.21C141.483 114.904 141.313 115.484 140.974 115.951C140.634 116.418 140.163 116.769 139.562 117.002C138.964 117.239 138.276 117.358 137.498 117.358ZM137.545 112.316C137.91 112.316 138.218 112.226 138.469 112.045C138.723 111.861 138.918 111.599 139.053 111.26C139.191 110.916 139.259 110.506 139.259 110.028C139.259 109.551 139.192 109.137 139.058 108.787C138.923 108.433 138.729 108.159 138.474 107.964C138.219 107.769 137.91 107.672 137.545 107.672C137.174 107.672 136.861 107.773 136.606 107.975C136.351 108.173 136.158 108.449 136.027 108.802C135.897 109.156 135.831 109.565 135.831 110.028C135.831 110.499 135.897 110.906 136.027 111.249C136.162 111.589 136.355 111.852 136.606 112.04C136.861 112.224 137.174 112.316 137.545 112.316ZM145.207 109.418V114.131H142.946V105.979H145.101V107.417H145.196C145.377 106.943 145.679 106.568 146.104 106.292C146.528 106.013 147.043 105.873 147.648 105.873C148.214 105.873 148.708 105.997 149.129 106.244C149.55 106.492 149.877 106.846 150.111 107.306C150.344 107.762 150.461 108.307 150.461 108.94V114.131H148.2V109.344C148.204 108.845 148.076 108.456 147.818 108.176C147.56 107.893 147.204 107.752 146.751 107.752C146.447 107.752 146.178 107.817 145.945 107.948C145.715 108.079 145.534 108.27 145.403 108.521C145.276 108.769 145.21 109.068 145.207 109.418ZM155.029 114.131V105.979H157.29V114.131H155.029ZM156.165 104.928C155.829 104.928 155.541 104.817 155.3 104.594C155.063 104.367 154.944 104.097 154.944 103.782C154.944 103.47 155.063 103.203 155.3 102.98C155.541 102.754 155.829 102.641 156.165 102.641C156.501 102.641 156.788 102.754 157.025 102.98C157.265 103.203 157.386 103.47 157.386 103.782C157.386 104.097 157.265 104.367 157.025 104.594C156.788 104.817 156.501 104.928 156.165 104.928ZM161.026 109.418V114.131H158.765V105.979H160.92V107.417H161.015C161.196 106.943 161.498 106.568 161.923 106.292C162.347 106.013 162.862 105.873 163.467 105.873C164.033 105.873 164.527 105.997 164.948 106.244C165.369 106.492 165.696 106.846 165.93 107.306C166.163 107.762 166.28 108.307 166.28 108.94V114.131H164.019V109.344C164.023 108.845 163.895 108.456 163.637 108.176C163.379 107.893 163.023 107.752 162.57 107.752C162.266 107.752 161.997 107.817 161.764 107.948C161.534 108.079 161.353 108.27 161.222 108.521C161.095 108.769 161.029 109.068 161.026 109.418Z" fill="#1F1F1F"/>
<mask id="mask2_793_13051" style="mask-type:luminance" maskUnits="userSpaceOnUse" x="11" y="130" width="269" height="563">
<path d="M261.472 130.087H29.9561C20.0149 130.087 11.9561 138.146 11.9561 148.087V674.02C11.9561 683.961 20.0149 692.02 29.9561 692.02H261.472C271.413 692.02 279.472 683.961 279.472 674.02V148.087C279.472 138.146 271.413 130.087 261.472 130.087Z" fill="white"/>
</mask>
<g mask="url(#mask2_793_13051)">
<path d="M11.9561 130.087H279.472V297.471H11.9561V130.087Z" fill="#D7D7D7" fill-opacity="0.25"/>
<mask id="mask3_793_13051" style="mask-type:luminance" maskUnits="userSpaceOnUse" x="11" y="130" width="269" height="168">
<path d="M11.9561 130.087H279.472V297.471H11.9561V130.087Z" fill="white"/>
</mask>
<g mask="url(#mask3_793_13051)">
<path d="M279.472 297.471V296.471H11.9561V297.471V298.471H279.472V297.471Z" fill="#D7D7D7"/>
</g>
<path fill-rule="evenodd" clip-rule="evenodd" d="M38.857 163.247C40.2743 162.759 41.4315 161.865 42.3285 160.564C43.2255 159.263 43.674 157.804 43.674 156.185V152.554L38.857 150.736L34.04 152.556V156.183C34.04 157.803 34.4885 159.263 35.3854 160.564C36.2825 161.865 37.4397 162.759 38.857 163.247ZM40.4623 159.976H37.2517C37.072 159.976 36.921 159.915 36.7987 159.793C36.6764 159.67 36.6152 159.519 36.6152 159.34V156.8C36.6152 156.642 36.669 156.508 36.7764 156.401C36.8838 156.294 37.0169 156.24 37.1757 156.24H37.3625V155.493C37.3625 155.082 37.5088 154.73 37.8015 154.437C38.0942 154.145 38.446 153.998 38.857 153.998C39.268 153.998 39.6198 154.145 39.9125 154.437C40.2052 154.73 40.3515 155.082 40.3515 155.493V156.24H40.5383C40.6971 156.24 40.8302 156.294 40.9377 156.401C41.0451 156.508 41.0987 156.642 41.0987 156.8V159.34C41.0987 159.519 41.0376 159.67 40.9153 159.793C40.793 159.915 40.642 159.976 40.4623 159.976Z" fill="#1F1F1F"/>
<path fill-rule="evenodd" clip-rule="evenodd" d="M38.646 164.471C38.7116 164.485 38.7821 164.492 38.8573 164.492C38.9325 164.492 39.0029 164.485 39.0686 164.471C39.1343 164.457 39.1986 164.436 39.2614 164.409C41.0074 163.823 42.3923 162.76 43.4159 161.22C44.4396 159.68 44.9515 158 44.9515 156.182V152.554C44.9515 152.281 44.8748 152.035 44.7215 151.815C44.5682 151.594 44.3678 151.437 44.1202 151.341L39.3032 149.543C39.1513 149.487 39.0026 149.459 38.8573 149.459C38.7119 149.459 38.5633 149.487 38.4114 149.543L33.5944 151.341C33.3468 151.437 33.1471 151.594 32.9953 151.815C32.8435 152.035 32.7676 152.281 32.7676 152.554V156.182C32.7676 158 33.2787 159.68 34.3009 161.22C35.323 162.76 36.7071 163.823 38.4532 164.409C38.516 164.436 38.5802 164.457 38.646 164.471ZM42.3288 160.564C41.4318 161.865 40.2746 162.759 38.8573 163.247C37.44 162.759 36.2828 161.865 35.3857 160.564C34.4888 159.263 34.0403 157.803 34.0403 156.183V152.556L38.8573 150.736L43.6743 152.554V156.185C43.6743 157.804 43.2258 159.263 42.3288 160.564Z" fill="#1F1F1F"/>
<path d="M37.9231 156.24V155.493C37.9231 155.244 38.0165 155.035 38.2033 154.867C38.3902 154.699 38.6081 154.615 38.8572 154.615C39.1063 154.615 39.3242 154.699 39.511 154.867C39.6978 155.035 39.7912 155.244 39.7912 155.493V156.24H37.9231Z" fill="#1F1F1F"/>
<path d="M58.2399 154.788C58.1978 154.394 58.0204 154.088 57.7076 153.868C57.3979 153.649 56.9949 153.539 56.4987 153.539C56.1498 153.539 55.8506 153.591 55.6009 153.697C55.3513 153.802 55.1604 153.945 55.028 154.125C54.8957 154.306 54.828 154.512 54.825 154.743C54.825 154.936 54.8686 155.103 54.9559 155.244C55.0461 155.385 55.1679 155.506 55.3213 155.605C55.4746 155.701 55.6446 155.782 55.831 155.848C56.0175 155.915 56.2054 155.97 56.3949 156.015L57.261 156.232C57.6099 156.313 57.9452 156.423 58.267 156.561C58.5918 156.7 58.882 156.874 59.1377 157.084C59.3963 157.295 59.6008 157.549 59.7512 157.847C59.9015 158.145 59.9767 158.493 59.9767 158.893C59.9767 159.435 59.8384 159.911 59.5617 160.323C59.285 160.732 58.885 161.053 58.3617 161.284C57.8415 161.513 57.2114 161.627 56.4716 161.627C55.7528 161.627 55.1288 161.516 54.5995 161.293C54.0732 161.071 53.6612 160.746 53.3634 160.319C53.0687 159.892 52.9093 159.372 52.8853 158.758H54.5318C54.5559 159.08 54.6551 159.348 54.8295 159.561C55.004 159.775 55.231 159.934 55.5107 160.039C55.7934 160.144 56.1092 160.197 56.4581 160.197C56.822 160.197 57.1407 160.143 57.4144 160.035C57.6911 159.923 57.9076 159.77 58.064 159.575C58.2204 159.376 58.3001 159.145 58.3031 158.88C58.3001 158.639 58.2294 158.441 58.0911 158.284C57.9527 158.125 57.7588 157.993 57.5091 157.887C57.2625 157.779 56.9738 157.683 56.643 157.599L55.5919 157.328C54.8311 157.133 54.2296 156.836 53.7875 156.439C53.3484 156.039 53.1289 155.509 53.1289 154.847C53.1289 154.303 53.2762 153.826 53.5709 153.417C53.8687 153.008 54.2732 152.691 54.7844 152.465C55.2957 152.237 55.8746 152.122 56.5212 152.122C57.1768 152.122 57.7512 152.237 58.2445 152.465C58.7407 152.691 59.1301 153.005 59.4128 153.408C59.6955 153.808 59.8414 154.268 59.8504 154.788H58.2399ZM64.1428 161.623C63.4481 161.623 62.8481 161.478 62.3429 161.19C61.8407 160.898 61.4542 160.486 61.1835 159.954C60.9129 159.418 60.7775 158.788 60.7775 158.063C60.7775 157.351 60.9129 156.725 61.1835 156.187C61.4572 155.645 61.8392 155.224 62.3294 154.924C62.8196 154.62 63.3955 154.468 64.0571 154.468C64.4842 154.468 64.8872 154.537 65.2661 154.676C65.648 154.811 65.9849 155.021 66.2766 155.307C66.5713 155.593 66.8029 155.957 66.9713 156.399C67.1397 156.838 67.2239 157.361 67.2239 157.969V158.469H61.5444V157.369H65.6586C65.6556 157.056 65.5879 156.778 65.4556 156.534C65.3232 156.287 65.1383 156.094 64.9007 155.952C64.6661 155.811 64.3924 155.74 64.0797 155.74C63.7459 155.74 63.4526 155.821 63.2 155.984C62.9474 156.143 62.7504 156.354 62.6091 156.615C62.4707 156.874 62.4 157.158 62.397 157.468V158.429C62.397 158.832 62.4707 159.178 62.6181 159.466C62.7654 159.752 62.9714 159.972 63.2361 160.125C63.5008 160.275 63.8105 160.351 64.1654 160.351C64.403 160.351 64.618 160.317 64.8105 160.251C65.0029 160.182 65.1698 160.081 65.3111 159.949C65.4525 159.817 65.5593 159.653 65.6315 159.457L67.1562 159.629C67.06 160.032 66.8766 160.384 66.6059 160.684C66.3382 160.982 65.9954 161.214 65.5774 161.379C65.1593 161.541 64.6812 161.623 64.1428 161.623ZM71.3066 161.623C70.6149 161.623 70.0209 161.471 69.5247 161.167C69.0315 160.863 68.651 160.444 68.3834 159.908C68.1187 159.37 67.9864 158.751 67.9864 158.05C67.9864 157.346 68.1217 156.725 68.3924 156.187C68.6631 155.645 69.045 155.224 69.5382 154.924C70.0344 154.62 70.6209 154.468 71.2975 154.468C71.8599 154.468 72.3577 154.572 72.7907 154.779C73.2268 154.984 73.5742 155.274 73.8328 155.65C74.0914 156.023 74.2388 156.459 74.2749 156.958H72.714C72.6509 156.624 72.5005 156.346 72.2629 156.124C72.0283 155.898 71.7141 155.785 71.3201 155.785C70.9863 155.785 70.6931 155.875 70.4404 156.056C70.1878 156.233 69.9908 156.489 69.8495 156.823C69.7111 157.157 69.642 157.557 69.642 158.023C69.642 158.495 69.7111 158.901 69.8495 159.241C69.9878 159.578 70.1818 159.838 70.4314 160.021C70.684 160.202 70.9803 160.292 71.3201 160.292C71.5607 160.292 71.7757 160.247 71.9652 160.157C72.1577 160.063 72.3186 159.929 72.4479 159.755C72.5772 159.581 72.6659 159.369 72.714 159.119H74.2749C74.2358 159.609 74.0914 160.044 73.8418 160.423C73.5922 160.799 73.2524 161.093 72.8223 161.307C72.3922 161.517 71.887 161.623 71.3066 161.623ZM79.7109 158.573V154.558H81.3439V161.487H79.7605V160.256H79.6883C79.5319 160.644 79.2748 160.961 78.9169 161.208C78.562 161.454 78.1245 161.578 77.6042 161.578C77.1501 161.578 76.7486 161.477 76.3997 161.275C76.0539 161.071 75.7832 160.775 75.5877 160.387C75.3922 159.996 75.2945 159.523 75.2945 158.97V154.558H76.9275V158.717C76.9275 159.157 77.0478 159.505 77.2884 159.764C77.529 160.023 77.8448 160.152 78.2357 160.152C78.4763 160.152 78.7094 160.093 78.935 159.976C79.1605 159.859 79.3455 159.684 79.4898 159.453C79.6372 159.218 79.7109 158.925 79.7109 158.573ZM82.7018 161.487V154.558H84.2852V155.713H84.3574C84.4837 155.313 84.7002 155.005 85.007 154.788C85.3168 154.569 85.6701 154.459 86.0671 154.459C86.1573 154.459 86.2581 154.464 86.3694 154.473C86.4836 154.479 86.5784 154.489 86.6536 154.504V156.006C86.5844 155.982 86.4746 155.961 86.3242 155.943C86.1769 155.922 86.034 155.912 85.8957 155.912C85.598 155.912 85.3303 155.976 85.0927 156.106C84.8581 156.232 84.6732 156.408 84.5378 156.633C84.4025 156.859 84.3348 157.119 84.3348 157.414V161.487H82.7018ZM90.1994 161.623C89.5047 161.623 88.9047 161.478 88.3995 161.19C87.8972 160.898 87.5108 160.486 87.2401 159.954C86.9694 159.418 86.8341 158.788 86.8341 158.063C86.8341 157.351 86.9694 156.725 87.2401 156.187C87.5138 155.645 87.8957 155.224 88.3859 154.924C88.8761 154.62 89.452 154.468 90.1137 154.468C90.5407 154.468 90.9437 154.537 91.3227 154.676C91.7046 154.811 92.0414 155.021 92.3331 155.307C92.6279 155.593 92.8594 155.957 93.0279 156.399C93.1963 156.838 93.2805 157.361 93.2805 157.969V158.469H87.601V157.369H91.715C91.712 157.056 91.6444 156.778 91.5121 156.534C91.3798 156.287 91.1948 156.094 90.9573 155.952C90.7227 155.811 90.449 155.74 90.1362 155.74C89.8024 155.74 89.5092 155.821 89.2566 155.984C89.0039 156.143 88.807 156.354 88.6656 156.615C88.5273 156.874 88.4566 157.158 88.4536 157.468V158.429C88.4536 158.832 88.5273 159.178 88.6746 159.466C88.822 159.752 89.028 159.972 89.2927 160.125C89.5573 160.275 89.8671 160.351 90.2219 160.351C90.4595 160.351 90.6746 160.317 90.867 160.251C91.0595 160.182 91.2264 160.081 91.3678 159.949C91.5091 159.817 91.6159 159.653 91.6881 159.457L93.2128 159.629C93.1166 160.032 92.9331 160.384 92.6625 160.684C92.3948 160.982 92.0519 161.214 91.6339 161.379C91.2159 161.541 90.7377 161.623 90.1994 161.623ZM97.1704 161.487V154.558H98.7312V155.736H98.8124C98.9568 155.339 99.1959 155.029 99.5297 154.806C99.8635 154.581 100.262 154.468 100.725 154.468C101.194 154.468 101.59 154.582 101.911 154.811C102.236 155.036 102.465 155.345 102.597 155.736H102.669C102.823 155.351 103.081 155.044 103.445 154.815C103.812 154.584 104.247 154.468 104.749 154.468C105.387 154.468 105.907 154.67 106.31 155.073C106.713 155.476 106.914 156.063 106.914 156.836V161.487H105.277V157.089C105.277 156.659 105.162 156.345 104.934 156.146C104.705 155.945 104.426 155.844 104.095 155.844C103.701 155.844 103.393 155.967 103.17 156.214C102.951 156.457 102.841 156.775 102.841 157.166V161.487H101.239V157.021C101.239 156.663 101.131 156.378 100.914 156.164C100.701 155.951 100.421 155.844 100.075 155.844C99.841 155.844 99.6274 155.904 99.435 156.024C99.2425 156.142 99.0891 156.309 98.9748 156.525C98.8605 156.739 98.8034 156.988 98.8034 157.274V161.487H97.1704ZM111.317 161.623C110.623 161.623 110.023 161.478 109.517 161.19C109.015 160.898 108.629 160.486 108.358 159.954C108.087 159.418 107.952 158.788 107.952 158.063C107.952 157.351 108.087 156.725 108.358 156.187C108.632 155.645 109.014 155.224 109.504 154.924C109.994 154.62 110.57 154.468 111.232 154.468C111.659 154.468 112.062 154.537 112.44 154.676C112.822 154.811 113.159 155.021 113.451 155.307C113.746 155.593 113.977 155.957 114.146 156.399C114.314 156.838 114.398 157.361 114.398 157.969V158.469H108.719V157.369H112.833C112.83 157.056 112.762 156.778 112.63 156.534C112.498 156.287 112.313 156.094 112.075 155.952C111.841 155.811 111.567 155.74 111.254 155.74C110.92 155.74 110.627 155.821 110.374 155.984C110.122 156.143 109.925 156.354 109.783 156.615C109.645 156.874 109.574 157.158 109.571 157.468V158.429C109.571 158.832 109.645 159.178 109.792 159.466C109.94 159.752 110.146 159.972 110.41 160.125C110.675 160.275 110.985 160.351 111.34 160.351C111.577 160.351 111.792 160.317 111.985 160.251C112.177 160.182 112.344 160.081 112.486 159.949C112.627 159.817 112.734 159.653 112.806 159.457L114.331 159.629C114.234 160.032 114.051 160.384 113.78 160.684C113.513 160.982 113.17 161.214 112.752 161.379C112.334 161.541 111.856 161.623 111.317 161.623ZM118.919 154.558V155.821H114.935V154.558H118.919ZM115.919 152.898H117.552V159.403C117.552 159.623 117.585 159.791 117.651 159.908C117.72 160.023 117.81 160.101 117.922 160.143C118.033 160.185 118.156 160.206 118.291 160.206C118.394 160.206 118.487 160.199 118.571 160.184C118.658 160.169 118.725 160.155 118.77 160.143L119.045 161.42C118.958 161.45 118.833 161.483 118.67 161.519C118.511 161.555 118.316 161.576 118.084 161.582C117.675 161.594 117.307 161.532 116.979 161.397C116.651 161.259 116.391 161.045 116.198 160.757C116.009 160.468 115.916 160.107 115.919 159.674V152.898ZM121.745 157.427V161.487H120.112V152.249H121.709V155.736H121.79C121.952 155.345 122.203 155.036 122.543 154.811C122.886 154.582 123.322 154.468 123.852 154.468C124.333 154.468 124.752 154.569 125.11 154.77C125.468 154.972 125.745 155.266 125.94 155.654C126.139 156.042 126.238 156.516 126.238 157.075V161.487H124.605V157.328C124.605 156.862 124.485 156.5 124.244 156.241C124.006 155.979 123.673 155.848 123.243 155.848C122.954 155.848 122.695 155.912 122.467 156.038C122.241 156.161 122.064 156.34 121.934 156.575C121.808 156.809 121.745 157.093 121.745 157.427ZM130.604 161.623C129.927 161.623 129.341 161.474 128.844 161.176C128.348 160.878 127.963 160.462 127.689 159.926C127.419 159.391 127.283 158.766 127.283 158.05C127.283 157.334 127.419 156.707 127.689 156.169C127.963 155.63 128.348 155.212 128.844 154.915C129.341 154.617 129.927 154.468 130.604 154.468C131.28 154.468 131.867 154.617 132.363 154.915C132.859 155.212 133.243 155.63 133.513 156.169C133.787 156.707 133.924 157.334 133.924 158.05C133.924 158.766 133.787 159.391 133.513 159.926C133.243 160.462 132.859 160.878 132.363 161.176C131.867 161.474 131.28 161.623 130.604 161.623ZM130.613 160.314C130.98 160.314 131.286 160.214 131.533 160.012C131.78 159.808 131.963 159.534 132.083 159.191C132.207 158.848 132.268 158.466 132.268 158.045C132.268 157.621 132.207 157.238 132.083 156.895C131.963 156.549 131.78 156.274 131.533 156.069C131.286 155.865 130.98 155.763 130.613 155.763C130.237 155.763 129.924 155.865 129.674 156.069C129.428 156.274 129.243 156.549 129.119 156.895C128.999 157.238 128.939 157.621 128.939 158.045C128.939 158.466 128.999 158.848 129.119 159.191C129.243 159.534 129.428 159.808 129.674 160.012C129.924 160.214 130.237 160.314 130.613 160.314ZM137.56 161.609C137.016 161.609 136.528 161.469 136.098 161.19C135.668 160.91 135.328 160.504 135.079 159.972C134.829 159.439 134.704 158.793 134.704 158.032C134.704 157.262 134.831 156.612 135.083 156.083C135.339 155.551 135.683 155.149 136.116 154.879C136.549 154.605 137.032 154.468 137.564 154.468C137.97 154.468 138.304 154.537 138.566 154.676C138.827 154.811 139.035 154.975 139.188 155.167C139.342 155.357 139.461 155.536 139.545 155.704H139.612V152.249H141.25V161.487H139.644V160.396H139.545C139.461 160.564 139.339 160.743 139.179 160.932C139.02 161.119 138.809 161.278 138.548 161.411C138.286 161.543 137.957 161.609 137.56 161.609ZM138.015 160.269C138.361 160.269 138.656 160.176 138.9 159.99C139.143 159.8 139.328 159.537 139.455 159.2C139.581 158.863 139.644 158.471 139.644 158.023C139.644 157.575 139.581 157.185 139.455 156.854C139.331 156.524 139.148 156.266 138.904 156.083C138.664 155.9 138.367 155.808 138.015 155.808C137.652 155.808 137.348 155.903 137.104 156.092C136.861 156.281 136.677 156.543 136.554 156.877C136.431 157.211 136.369 157.593 136.369 158.023C136.369 158.456 136.431 158.842 136.554 159.182C136.68 159.519 136.865 159.785 137.109 159.981C137.355 160.173 137.658 160.269 138.015 160.269ZM148.145 156.39L146.657 156.552C146.614 156.402 146.541 156.26 146.436 156.128C146.333 155.996 146.195 155.889 146.021 155.808C145.846 155.727 145.633 155.686 145.38 155.686C145.04 155.686 144.754 155.76 144.523 155.907C144.294 156.054 144.182 156.245 144.185 156.48C144.182 156.681 144.255 156.845 144.406 156.972C144.559 157.098 144.812 157.202 145.163 157.283L146.345 157.536C147.001 157.677 147.488 157.901 147.807 158.208C148.129 158.514 148.291 158.916 148.294 159.412C148.291 159.848 148.163 160.233 147.911 160.567C147.661 160.898 147.314 161.156 146.869 161.343C146.424 161.529 145.912 161.623 145.335 161.623C144.487 161.623 143.804 161.445 143.287 161.09C142.77 160.732 142.461 160.235 142.362 159.597L143.954 159.444C144.027 159.757 144.18 159.993 144.415 160.152C144.649 160.311 144.954 160.391 145.33 160.391C145.718 160.391 146.03 160.311 146.264 160.152C146.502 159.993 146.621 159.796 146.621 159.561C146.621 159.363 146.544 159.199 146.39 159.069C146.24 158.94 146.005 158.841 145.687 158.772L144.505 158.524C143.84 158.385 143.348 158.152 143.03 157.824C142.711 157.493 142.553 157.075 142.556 156.57C142.553 156.143 142.669 155.773 142.903 155.46C143.141 155.145 143.47 154.901 143.891 154.73C144.315 154.555 144.804 154.468 145.357 154.468C146.169 154.468 146.808 154.641 147.275 154.987C147.744 155.333 148.034 155.8 148.145 156.39ZM150.325 161.587C150.052 161.587 149.817 161.49 149.622 161.298C149.426 161.105 149.33 160.871 149.333 160.594C149.33 160.323 149.426 160.092 149.622 159.899C149.817 159.707 150.052 159.611 150.325 159.611C150.59 159.611 150.82 159.707 151.016 159.899C151.214 160.092 151.315 160.323 151.318 160.594C151.315 160.778 151.267 160.944 151.173 161.095C151.083 161.245 150.963 161.366 150.813 161.456C150.665 161.543 150.503 161.587 150.325 161.587ZM150.325 156.642C150.052 156.642 149.817 156.546 149.622 156.354C149.426 156.158 149.33 155.924 149.333 155.65C149.33 155.379 149.426 155.148 149.622 154.955C149.817 154.76 150.052 154.662 150.325 154.662C150.59 154.662 150.82 154.76 151.016 154.955C151.214 155.148 151.315 155.379 151.318 155.65C151.315 155.83 151.267 155.996 151.173 156.146C151.083 156.297 150.963 156.417 150.813 156.507C150.665 156.597 150.503 156.642 150.325 156.642Z" fill="#1F1F1F"/>
<path d="M248.9 154.764C248.956 154.764 249.003 154.776 249.047 154.807L249.091 154.845L252.306 158.078L252.571 158.344L256.07 154.845C256.128 154.787 256.178 154.77 256.238 154.772C256.308 154.775 256.369 154.799 256.433 154.863C256.491 154.922 256.514 154.979 256.514 155.054C256.514 155.129 256.492 155.187 256.433 155.245L252.757 158.921C252.717 158.961 252.686 158.98 252.665 158.989C252.638 159 252.607 159.007 252.571 159.007C252.553 159.007 252.536 159.005 252.521 159.002L252.478 158.989C252.457 158.981 252.426 158.961 252.385 158.921L248.691 155.227C248.636 155.171 248.616 155.12 248.619 155.049C248.622 154.969 248.648 154.906 248.71 154.845C248.768 154.786 248.825 154.764 248.9 154.764Z" fill="#1F1F1F" stroke="#1F1F1F" stroke-width="0.747252"/>
<path d="M127.23 181.273H37.912C30.3864 181.273 24.2856 187.374 24.2856 194.9V214.724C24.2856 222.25 30.3864 228.35 37.912 228.35H127.23C134.756 228.35 140.857 222.25 140.857 214.724V194.9C140.857 187.374 134.756 181.273 127.23 181.273Z" fill="white"/>
<path d="M127.23 181.273H37.912C30.3864 181.273 24.2856 187.374 24.2856 194.9V214.724C24.2856 222.25 30.3864 228.35 37.912 228.35H127.23C134.756 228.35 140.857 222.25 140.857 214.724V194.9C140.857 187.374 134.756 181.273 127.23 181.273Z" stroke="#D7D7D7" stroke-width="0.747252"/>
<path d="M55.2967 189.867H40.3517C36.2247 189.867 32.8792 193.213 32.8792 197.34V212.285C32.8792 216.412 36.2247 219.757 40.3517 219.757H55.2967C59.4237 219.757 62.7692 216.412 62.7692 212.285V197.34C62.7692 193.213 59.4237 189.867 55.2967 189.867Z" fill="#D7D7D7" fill-opacity="0.4"/>
<path d="M49.6449 198.628C49.0511 198.283 48.361 198.087 47.6273 198.087C46.5572 198.087 45.5309 198.512 44.7742 199.269C44.0175 200.025 43.5924 201.052 43.5924 202.122H42.9198C42.5631 202.122 42.221 202.264 41.9688 202.516C41.7166 202.768 41.575 203.11 41.575 203.467V210.192C41.575 210.549 41.7166 210.891 41.9688 211.144C42.221 211.396 42.5631 211.537 42.9198 211.537H52.3348C52.6916 211.537 53.0337 211.396 53.2859 211.144C53.5381 210.891 53.6797 210.549 53.6797 210.192V203.468C53.6797 203.111 53.5381 202.769 53.2859 202.516C53.0337 202.264 52.6916 202.123 52.3348 202.123L44.9374 202.122C44.9372 201.65 45.0612 201.186 45.2972 200.776C45.5332 200.367 45.8728 200.028 46.2817 199.791C46.6907 199.555 47.1548 199.431 47.6271 199.431C48.0994 199.431 48.5634 199.555 48.9724 199.791C49.0489 199.84 49.1344 199.872 49.2239 199.887C49.3134 199.902 49.405 199.898 49.493 199.877C49.5811 199.855 49.664 199.816 49.7365 199.761C49.8091 199.707 49.87 199.639 49.9154 199.56C49.9608 199.482 49.9898 199.395 50.0007 199.305C50.0117 199.215 50.0043 199.123 49.979 199.036C49.9537 198.949 49.911 198.868 49.8536 198.798C49.7962 198.728 49.7252 198.67 49.6449 198.628Z" fill="#1F1F1F"/>
<path d="M53.6018 200.293L52.9522 200.119C52.7802 200.073 52.5973 200.098 52.4436 200.187C52.2898 200.277 52.1777 200.423 52.1317 200.595C52.0858 200.767 52.1097 200.95 52.1983 201.104C52.2869 201.258 52.433 201.371 52.6045 201.418L53.2535 201.591C53.4228 201.629 53.6003 201.6 53.7488 201.511C53.8974 201.421 54.0054 201.277 54.0504 201.109C54.0954 200.942 54.0738 200.763 53.9902 200.611C53.9066 200.459 53.7675 200.345 53.6018 200.293Z" fill="#1F1F1F"/>
<path d="M52.3234 198.264C52.2533 198.21 52.1734 198.17 52.088 198.147C51.9158 198.101 51.7324 198.126 51.5781 198.215C51.4237 198.304 51.3111 198.451 51.2649 198.623L51.1775 198.948C51.1542 199.033 51.148 199.122 51.1593 199.21C51.1706 199.298 51.1991 199.383 51.2432 199.46C51.2874 199.536 51.3462 199.604 51.4165 199.658C51.4867 199.712 51.5669 199.751 51.6525 199.774C51.738 199.797 51.8273 199.803 51.9151 199.791C52.0029 199.779 52.0875 199.751 52.1641 199.706C52.2407 199.662 52.3077 199.602 52.3614 199.532C52.415 199.461 52.4542 199.381 52.4767 199.295L52.5635 198.971C52.5864 198.886 52.5922 198.797 52.5807 198.709C52.5692 198.622 52.5406 198.537 52.4964 198.461C52.4523 198.384 52.3935 198.317 52.3234 198.264Z" fill="#1F1F1F"/>
<path d="M71.1875 209.312V200.074H74.652C75.3618 200.074 75.9573 200.206 76.4384 200.471C76.9226 200.735 77.288 201.099 77.5346 201.562C77.7843 202.023 77.9091 202.546 77.9091 203.132C77.9091 203.725 77.7843 204.251 77.5346 204.711C77.285 205.171 76.9166 205.534 76.4294 205.798C75.9422 206.06 75.3422 206.191 74.6295 206.191H72.3333V204.815H74.4039C74.819 204.815 75.1588 204.743 75.4234 204.598C75.6881 204.454 75.8836 204.256 76.0099 204.003C76.1392 203.75 76.2039 203.46 76.2039 203.132C76.2039 202.804 76.1392 202.516 76.0099 202.266C75.8836 202.017 75.6866 201.823 75.4189 201.684C75.1543 201.543 74.8129 201.472 74.3949 201.472H72.8611V209.312H71.1875ZM80.8391 209.452C80.4001 209.452 80.0046 209.374 79.6527 209.218C79.3039 209.058 79.0272 208.824 78.8227 208.514C78.6212 208.204 78.5204 207.822 78.5204 207.368C78.5204 206.977 78.5926 206.654 78.737 206.398C78.8813 206.143 79.0783 205.938 79.3279 205.785C79.5775 205.631 79.8587 205.516 80.1715 205.437C80.4873 205.356 80.8136 205.298 81.1504 205.262C81.5564 205.219 81.8857 205.182 82.1383 205.149C82.391 205.113 82.5744 205.059 82.6887 204.986C82.806 204.911 82.8646 204.795 82.8646 204.639V204.612C82.8646 204.272 82.7639 204.009 82.5624 203.822C82.3609 203.636 82.0707 203.543 81.6917 203.543C81.2917 203.543 80.9745 203.63 80.7399 203.804C80.5083 203.979 80.3519 204.185 80.2707 204.422L78.746 204.206C78.8663 203.785 79.0648 203.433 79.3414 203.15C79.6181 202.865 79.9565 202.651 80.3564 202.51C80.7564 202.365 81.1985 202.293 81.6827 202.293C82.0165 202.293 82.3489 202.332 82.6797 202.411C83.0105 202.489 83.3127 202.618 83.5864 202.798C83.8601 202.976 84.0796 203.218 84.245 203.525C84.4134 203.832 84.4976 204.215 84.4976 204.675V209.312H82.9278V208.361H82.8736C82.7744 208.553 82.6346 208.734 82.4541 208.902C82.2767 209.067 82.0526 209.201 81.782 209.303C81.5143 209.403 81.2 209.452 80.8391 209.452ZM81.2632 208.252C81.591 208.252 81.8752 208.188 82.1158 208.058C82.3564 207.926 82.5413 207.752 82.6706 207.535C82.803 207.319 82.8691 207.083 82.8691 206.827V206.01C82.818 206.052 82.7308 206.092 82.6075 206.128C82.4872 206.164 82.3519 206.195 82.2015 206.222C82.0511 206.249 81.9023 206.274 81.7549 206.295C81.6075 206.316 81.4797 206.334 81.3714 206.349C81.1278 206.382 80.9098 206.436 80.7173 206.511C80.5249 206.586 80.373 206.692 80.2617 206.827C80.1504 206.959 80.0948 207.131 80.0948 207.341C80.0948 207.642 80.2046 207.869 80.4241 208.022C80.6437 208.176 80.9233 208.252 81.2632 208.252ZM91.2949 204.215L89.8062 204.377C89.7641 204.227 89.6904 204.086 89.5851 203.953C89.4829 203.821 89.3446 203.714 89.1701 203.633C88.9957 203.552 88.7822 203.511 88.5295 203.511C88.1897 203.511 87.904 203.585 87.6724 203.732C87.4439 203.88 87.3311 204.071 87.3341 204.305C87.3311 204.507 87.4048 204.671 87.5551 204.797C87.7085 204.923 87.9611 205.027 88.313 205.108L89.4949 205.361C90.1505 205.502 90.6377 205.726 90.9565 206.033C91.2783 206.34 91.4407 206.741 91.4437 207.237C91.4407 207.673 91.3129 208.058 91.0603 208.392C90.8107 208.723 90.4633 208.982 90.0182 209.168C89.5731 209.355 89.0619 209.448 88.4844 209.448C87.6363 209.448 86.9537 209.27 86.4364 208.916C85.9191 208.558 85.6109 208.06 85.5116 207.422L87.104 207.269C87.1762 207.582 87.3296 207.818 87.5642 207.977C87.7987 208.137 88.104 208.216 88.4799 208.216C88.8679 208.216 89.1791 208.137 89.4137 207.977C89.6513 207.818 89.7701 207.621 89.7701 207.386C89.7701 207.188 89.6934 207.024 89.54 206.895C89.3897 206.765 89.1551 206.666 88.8363 206.597L87.6544 206.349C86.9898 206.21 86.498 205.977 86.1793 205.649C85.8605 205.319 85.7026 204.901 85.7056 204.395C85.7026 203.968 85.8184 203.598 86.0529 203.286C86.2905 202.97 86.6198 202.726 87.0409 202.555C87.4649 202.38 87.9536 202.293 88.507 202.293C89.319 202.293 89.9581 202.466 90.4242 202.812C90.8934 203.158 91.1836 203.625 91.2949 204.215ZM97.9455 204.215L96.4568 204.377C96.4147 204.227 96.341 204.086 96.2357 203.953C96.1335 203.821 95.9952 203.714 95.8207 203.633C95.6463 203.552 95.4328 203.511 95.1801 203.511C94.8403 203.511 94.5546 203.585 94.323 203.732C94.0945 203.88 93.9817 204.071 93.9847 204.305C93.9817 204.507 94.0554 204.671 94.2057 204.797C94.3591 204.923 94.6117 205.027 94.9636 205.108L96.1455 205.361C96.8011 205.502 97.2883 205.726 97.6071 206.033C97.9289 206.34 98.0913 206.741 98.0943 207.237C98.0913 207.673 97.9635 208.058 97.7109 208.392C97.4613 208.723 97.1139 208.982 96.6688 209.168C96.2237 209.355 95.7125 209.448 95.135 209.448C94.2869 209.448 93.6043 209.27 93.087 208.916C92.5697 208.558 92.2615 208.06 92.1622 207.422L93.7546 207.269C93.8268 207.582 93.9802 207.818 94.2148 207.977C94.4493 208.137 94.7546 208.216 95.1305 208.216C95.5185 208.216 95.8297 208.137 96.0643 207.977C96.3019 207.818 96.4207 207.621 96.4207 207.386C96.4207 207.188 96.344 207.024 96.1906 206.895C96.0403 206.765 95.8057 206.666 95.4869 206.597L94.305 206.349C93.6404 206.21 93.1486 205.977 92.8299 205.649C92.5111 205.319 92.3532 204.901 92.3562 204.395C92.3532 203.968 92.469 203.598 92.7035 203.286C92.9411 202.97 93.2704 202.726 93.6915 202.555C94.1155 202.38 94.6042 202.293 95.1576 202.293C95.9696 202.293 96.6087 202.466 97.0748 202.812C97.544 203.158 97.8342 203.625 97.9455 204.215ZM102.022 209.312V200.074H103.695V204.319H103.808L107.412 200.074H109.456L105.883 204.219L109.487 209.312H107.475L104.719 205.352L103.695 206.561V209.312H102.022ZM112.784 209.448C112.089 209.448 111.489 209.303 110.984 209.015C110.482 208.723 110.095 208.311 109.825 207.779C109.554 207.243 109.419 206.613 109.419 205.889C109.419 205.176 109.554 204.55 109.825 204.012C110.098 203.471 110.48 203.05 110.971 202.749C111.461 202.445 112.037 202.293 112.698 202.293C113.125 202.293 113.528 202.362 113.907 202.501C114.289 202.636 114.626 202.847 114.918 203.132C115.212 203.418 115.444 203.782 115.612 204.224C115.781 204.663 115.865 205.186 115.865 205.794V206.295H110.186V205.194H114.3C114.297 204.881 114.229 204.603 114.097 204.359C113.964 204.113 113.779 203.919 113.542 203.777C113.307 203.636 113.034 203.565 112.721 203.565C112.387 203.565 112.094 203.647 111.841 203.809C111.589 203.968 111.392 204.179 111.25 204.441C111.112 204.699 111.041 204.983 111.038 205.293V206.254C111.038 206.657 111.112 207.003 111.259 207.292C111.407 207.577 111.613 207.797 111.877 207.95C112.142 208.101 112.452 208.176 112.807 208.176C113.044 208.176 113.259 208.143 113.452 208.076C113.644 208.007 113.811 207.907 113.952 207.774C114.094 207.642 114.201 207.478 114.273 207.283L115.797 207.454C115.701 207.857 115.518 208.209 115.247 208.51C114.979 208.807 114.637 209.039 114.219 209.204C113.801 209.367 113.322 209.448 112.784 209.448ZM117.742 211.911C117.519 211.911 117.313 211.893 117.124 211.857C116.937 211.824 116.788 211.785 116.677 211.739L117.056 210.467C117.294 210.537 117.506 210.57 117.692 210.567C117.879 210.564 118.043 210.505 118.184 210.391C118.328 210.279 118.45 210.093 118.549 209.831L118.689 209.457L116.176 202.383H117.909L119.506 207.616H119.578L121.179 202.383H122.916L120.142 210.152C120.012 210.518 119.841 210.833 119.627 211.094C119.414 211.359 119.152 211.561 118.843 211.699C118.536 211.84 118.169 211.911 117.742 211.911Z" fill="#1F1F1F"/>
<path d="M253.516 181.273H164.197C156.672 181.273 150.571 187.374 150.571 194.9V214.724C150.571 222.25 156.672 228.35 164.197 228.35H253.516C261.041 228.35 267.142 222.25 267.142 214.724V194.9C267.142 187.374 261.041 181.273 253.516 181.273Z" fill="white"/>
<path d="M253.516 181.273H164.197C156.672 181.273 150.571 187.374 150.571 194.9V214.724C150.571 222.25 156.672 228.35 164.197 228.35H253.516C261.041 228.35 267.142 222.25 267.142 214.724V194.9C267.142 187.374 261.041 181.273 253.516 181.273Z" stroke="#D7D7D7" stroke-width="0.747252"/>
<path d="M181.583 189.867H166.638C162.511 189.867 159.165 193.213 159.165 197.34V212.285C159.165 216.412 162.511 219.757 166.638 219.757H181.583C185.71 219.757 189.055 216.412 189.055 212.285V197.34C189.055 193.213 185.71 189.867 181.583 189.867Z" fill="#D7D7D7" fill-opacity="0.4"/>
<path d="M181.727 204.844C181.727 209.033 178.332 212.429 174.143 212.429C169.954 212.429 166.558 209.033 166.558 204.844C166.558 200.656 169.954 197.26 174.143 197.26C178.332 197.26 181.727 200.656 181.727 204.844ZM174.166 201.614C172.763 201.614 171.546 202.101 170.518 203.075C169.489 204.049 168.975 205.218 168.975 206.582C168.975 207.021 169.014 207.45 169.093 207.869C169.172 208.287 169.277 208.685 169.406 209.063C169.432 209.13 169.474 209.171 169.53 209.184C169.586 209.197 169.64 209.191 169.692 209.168C169.734 209.144 169.766 209.115 169.788 209.08C169.81 209.045 169.81 208.994 169.786 208.929C169.609 208.451 169.492 208.012 169.434 207.613C169.376 207.214 169.347 206.871 169.347 206.586C169.347 205.303 169.819 204.225 170.764 203.355C171.709 202.484 172.842 202.049 174.162 202.049C175.482 202.049 176.616 202.482 177.564 203.347C178.511 204.213 178.985 205.286 178.985 206.566C178.985 206.959 178.841 207.29 178.552 207.559C178.263 207.828 177.923 207.963 177.533 207.963C177.132 207.963 176.783 207.828 176.485 207.559C176.187 207.29 176.037 206.959 176.037 206.566C176.037 206.064 175.853 205.641 175.486 205.298C175.119 204.954 174.679 204.783 174.166 204.783C173.653 204.783 173.213 204.956 172.847 205.303C172.481 205.65 172.298 206.077 172.298 206.582C172.298 207.748 172.649 208.742 173.349 209.565C174.05 210.387 174.96 210.933 176.08 211.202C176.151 211.223 176.205 211.22 176.243 211.194C176.28 211.168 176.306 211.125 176.319 211.065C176.329 211.015 176.325 210.97 176.306 210.93C176.286 210.889 176.241 210.859 176.17 210.841C175.15 210.559 174.314 210.051 173.663 209.317C173.012 208.584 172.687 207.672 172.687 206.582C172.687 206.181 172.833 205.845 173.127 205.573C173.421 205.302 173.768 205.167 174.166 205.167C174.567 205.167 174.912 205.302 175.2 205.573C175.489 205.845 175.634 206.181 175.634 206.582C175.634 207.074 175.82 207.492 176.191 207.835C176.562 208.179 177.009 208.35 177.533 208.35C178.046 208.35 178.483 208.177 178.844 207.829C179.205 207.482 179.385 207.061 179.385 206.566C179.385 205.174 178.873 204 177.85 203.045C176.827 202.091 175.599 201.614 174.166 201.614ZM174.166 203.206C173.192 203.206 172.361 203.533 171.672 204.185C170.983 204.838 170.639 205.637 170.639 206.582C170.639 207.493 170.805 208.301 171.138 209.005C171.472 209.709 171.945 210.376 172.555 211.005C172.605 211.066 172.662 211.09 172.724 211.078C172.787 211.066 172.832 211.043 172.861 211.009C172.895 210.973 172.914 210.932 172.918 210.886C172.922 210.84 172.899 210.792 172.849 210.742C172.241 210.113 171.787 209.483 171.487 208.852C171.188 208.221 171.039 207.465 171.039 206.582C171.039 205.741 171.345 205.032 171.958 204.456C172.571 203.879 173.307 203.59 174.166 203.59C175.025 203.59 175.766 203.876 176.388 204.448C177.01 205.02 177.322 205.726 177.322 206.566C177.322 206.632 177.34 206.683 177.377 206.719C177.413 206.755 177.465 206.774 177.533 206.774C177.598 206.774 177.647 206.755 177.678 206.719C177.709 206.683 177.725 206.632 177.725 206.566C177.725 205.624 177.375 204.828 176.674 204.179C175.974 203.531 175.138 203.206 174.166 203.206ZM174.154 206.359C174.091 206.359 174.043 206.378 174.011 206.418C173.978 206.457 173.962 206.508 173.962 206.57C173.962 207.548 174.306 208.343 174.994 208.954C175.683 209.565 176.502 209.871 177.451 209.871C177.498 209.871 177.594 209.868 177.739 209.861C177.883 209.854 178.045 209.825 178.225 209.772C178.28 209.759 178.318 209.735 178.339 209.7C178.359 209.664 178.366 209.621 178.358 209.568C178.352 209.529 178.331 209.493 178.293 209.46C178.255 209.428 178.206 209.415 178.146 209.423C178.014 209.439 177.888 209.454 177.767 209.467C177.646 209.48 177.541 209.487 177.451 209.487C176.625 209.487 175.901 209.218 175.279 208.682C174.657 208.145 174.346 207.441 174.346 206.57C174.346 206.508 174.329 206.457 174.297 206.418C174.264 206.379 174.216 206.359 174.154 206.359ZM174.166 200.09C173.024 200.09 171.951 200.339 170.947 200.839C169.992 201.316 169.196 201.981 168.56 202.834C168.497 202.92 168.429 203.013 168.436 203.119C168.44 203.175 168.467 203.215 168.516 203.239C168.564 203.265 168.612 203.272 168.66 203.26C168.708 203.248 168.757 203.211 168.807 203.148C169.426 202.295 170.205 201.636 171.144 201.173C172.084 200.709 173.091 200.477 174.166 200.477C175.239 200.48 176.252 200.711 177.205 201.171C178.159 201.63 178.943 202.288 179.557 203.145C179.602 203.207 179.652 203.239 179.708 203.241C179.764 203.242 179.812 203.224 179.851 203.187C179.89 203.151 179.914 203.111 179.922 203.068C179.929 203.025 179.914 202.972 179.875 202.91C179.214 202.001 178.381 201.304 177.376 200.818C176.371 200.332 175.301 200.09 174.166 200.09ZM174.166 198.501C173.495 198.501 172.826 198.585 172.16 198.752C171.494 198.92 170.86 199.17 170.257 199.504C170.215 199.528 170.193 199.567 170.19 199.623V199.626C170.187 199.711 170.239 199.795 170.316 199.831C170.353 199.848 170.404 199.842 170.469 199.814C171.038 199.508 171.633 199.28 172.254 199.129C172.875 198.977 173.513 198.901 174.166 198.901C174.817 198.901 175.458 198.982 176.088 199.144C176.719 199.306 177.323 199.529 177.899 199.814C177.96 199.842 178.013 199.844 178.059 199.82C178.104 199.795 178.14 199.762 178.166 199.723C178.19 199.684 178.198 199.639 178.19 199.586C178.182 199.534 178.147 199.495 178.084 199.468C177.481 199.158 176.849 198.92 176.188 198.752C175.528 198.585 174.854 198.501 174.166 198.501Z" fill="#1F1F1F"/>
<path d="M197.65 209.312V200.074H203.569V201.477H199.324V203.985H203.163V205.388H199.324V209.312H197.65ZM206.446 200.074V209.312H204.772V200.074H206.446ZM211.068 209.312H207.937V200.074H211.131C212.048 200.074 212.836 200.259 213.495 200.629C214.156 200.996 214.664 201.523 215.019 202.212C215.374 202.901 215.552 203.725 215.552 204.684C215.552 205.646 215.373 206.474 215.015 207.165C214.66 207.857 214.147 208.388 213.477 208.758C212.809 209.128 212.006 209.312 211.068 209.312ZM209.611 207.864H210.986C211.63 207.864 212.167 207.747 212.597 207.513C213.027 207.275 213.35 206.922 213.567 206.452C213.783 205.98 213.892 205.391 213.892 204.684C213.892 203.977 213.783 203.391 213.567 202.925C213.35 202.456 213.03 202.105 212.606 201.874C212.185 201.639 211.662 201.522 211.036 201.522H209.611V207.864ZM225.076 204.693C225.076 205.689 224.889 206.541 224.516 207.251C224.147 207.958 223.641 208.499 223.001 208.875C222.363 209.251 221.64 209.439 220.831 209.439C220.022 209.439 219.297 209.251 218.657 208.875C218.019 208.496 217.514 207.953 217.141 207.246C216.771 206.537 216.586 205.686 216.586 204.693C216.586 203.698 216.771 202.847 217.141 202.14C217.514 201.43 218.019 200.887 218.657 200.511C219.297 200.135 220.022 199.947 220.831 199.947C221.64 199.947 222.363 200.135 223.001 200.511C223.641 200.887 224.147 201.43 224.516 202.14C224.889 202.847 225.076 203.698 225.076 204.693ZM223.393 204.693C223.393 203.992 223.283 203.401 223.064 202.92C222.847 202.436 222.547 202.071 222.162 201.824C221.777 201.574 221.333 201.45 220.831 201.45C220.329 201.45 219.885 201.574 219.5 201.824C219.115 202.071 218.813 202.436 218.593 202.92C218.377 203.401 218.269 203.992 218.269 204.693C218.269 205.394 218.377 205.986 218.593 206.471C218.813 206.952 219.115 207.317 219.5 207.567C219.885 207.813 220.329 207.937 220.831 207.937C221.333 207.937 221.777 207.813 222.162 207.567C222.547 207.317 222.847 206.952 223.064 206.471C223.283 205.986 223.393 205.394 223.393 204.693ZM226.247 209.312V208.104L229.454 204.959C229.761 204.65 230.016 204.374 230.221 204.134C230.425 203.893 230.579 203.66 230.681 203.435C230.783 203.209 230.834 202.968 230.834 202.713C230.834 202.421 230.768 202.171 230.636 201.964C230.504 201.753 230.322 201.591 230.09 201.477C229.858 201.362 229.595 201.305 229.301 201.305C228.997 201.305 228.731 201.368 228.502 201.495C228.274 201.618 228.096 201.794 227.97 202.023C227.846 202.251 227.785 202.523 227.785 202.839H226.192C226.192 202.253 226.326 201.743 226.594 201.31C226.862 200.877 227.23 200.541 227.699 200.304C228.171 200.066 228.713 199.947 229.323 199.947C229.943 199.947 230.487 200.063 230.956 200.295C231.425 200.526 231.789 200.844 232.048 201.247C232.309 201.65 232.44 202.11 232.44 202.627C232.44 202.973 232.374 203.313 232.242 203.647C232.109 203.98 231.876 204.35 231.543 204.756C231.212 205.162 230.747 205.654 230.149 206.231L228.556 207.851V207.914H232.58V209.312H226.247Z" fill="#1F1F1F"/>
<path d="M127.23 238.064H37.912C30.3864 238.064 24.2856 244.165 24.2856 251.691V271.515C24.2856 279.041 30.3864 285.141 37.912 285.141H127.23C134.756 285.141 140.857 279.041 140.857 271.515V251.691C140.857 244.165 134.756 238.064 127.23 238.064Z" fill="white"/>
<path d="M127.23 238.064H37.912C30.3864 238.064 24.2856 244.165 24.2856 251.691V271.515C24.2856 279.041 30.3864 285.141 37.912 285.141H127.23C134.756 285.141 140.857 279.041 140.857 271.515V251.691C140.857 244.165 134.756 238.064 127.23 238.064Z" stroke="#D7D7D7" stroke-width="0.747252"/>
<path d="M55.2967 246.658H40.3517C36.2247 246.658 32.8792 250.004 32.8792 254.131V269.076C32.8792 273.203 36.2247 276.548 40.3517 276.548H55.2967C59.4237 276.548 62.7692 273.203 62.7692 269.076V254.131C62.7692 250.004 59.4237 246.658 55.2967 246.658Z" fill="#D7D7D7" fill-opacity="0.4"/>
<path d="M47.8241 259.129C47.5623 259.129 47.3501 259.341 47.3501 259.603C47.3501 259.865 47.5623 260.077 47.8241 260.077C48.0859 260.077 48.2982 259.865 48.2982 259.603C48.2982 259.341 48.0859 259.129 47.8241 259.129Z" fill="#1F1F1F"/>
<path fill-rule="evenodd" clip-rule="evenodd" d="M47.8241 254.019C43.6352 254.019 40.2395 257.414 40.2395 261.603C40.2395 265.792 43.6352 269.188 47.8241 269.188C52.0131 269.188 55.4087 265.792 55.4087 261.603C55.4087 257.414 52.0131 254.019 47.8241 254.019ZM50.1943 259.603C50.1943 260.401 49.8003 261.106 49.1964 261.536L49.1961 264.632L49.1931 264.694C49.1788 264.838 49.1149 264.973 49.0121 265.076L48.239 265.849L48.2046 265.88C48.1233 265.945 48.0208 265.978 47.9167 265.973C47.8126 265.967 47.7143 265.923 47.6406 265.849L46.4608 264.669L46.4246 264.63C46.3428 264.529 46.3012 264.402 46.3079 264.272C46.3146 264.143 46.369 264.021 46.4608 263.929L46.9282 263.461L46.4608 262.994L46.4246 262.954C46.3428 262.854 46.3012 262.726 46.3079 262.597C46.3146 262.467 46.369 262.345 46.4608 262.253L46.9196 261.795C46.0593 261.439 45.4539 260.592 45.4539 259.603C45.4539 258.294 46.5151 257.233 47.8241 257.233C49.1331 257.233 50.1943 258.294 50.1943 259.603Z" fill="#1F1F1F"/>
<path d="M77.2284 256.865H78.902V262.901C78.902 263.562 78.7456 264.144 78.4328 264.646C78.1231 265.149 77.687 265.541 77.1246 265.824C76.5622 266.104 75.9051 266.243 75.1532 266.243C74.3984 266.243 73.7398 266.104 73.1774 265.824C72.615 265.541 72.1789 265.149 71.8692 264.646C71.5594 264.144 71.4045 263.562 71.4045 262.901V256.865H73.0781V262.761C73.0781 263.146 73.1623 263.489 73.3308 263.789C73.5022 264.09 73.7428 264.326 74.0525 264.498C74.3623 264.666 74.7292 264.75 75.1532 264.75C75.5773 264.75 75.9442 264.666 76.254 264.498C76.5667 264.326 76.8073 264.09 76.9757 263.789C77.1441 263.489 77.2284 263.146 77.2284 262.761V256.865ZM85.8041 261.006L84.3154 261.168C84.2733 261.018 84.1996 260.877 84.0944 260.744C83.9921 260.612 83.8538 260.505 83.6793 260.424C83.5049 260.343 83.2914 260.302 83.0388 260.302C82.6989 260.302 82.4132 260.376 82.1817 260.523C81.9531 260.671 81.8403 260.862 81.8433 261.096C81.8403 261.298 81.914 261.462 82.0644 261.588C82.2177 261.714 82.4704 261.818 82.8222 261.899L84.0041 262.152C84.6598 262.293 85.147 262.517 85.4657 262.824C85.7875 263.131 85.9499 263.532 85.9529 264.028C85.9499 264.464 85.8221 264.849 85.5695 265.183C85.3199 265.514 84.9725 265.773 84.5274 265.959C84.0823 266.146 83.5711 266.239 82.9936 266.239C82.1456 266.239 81.4629 266.061 80.9456 265.707C80.4283 265.349 80.1201 264.851 80.0208 264.213L81.6133 264.06C81.6854 264.373 81.8388 264.609 82.0734 264.768C82.308 264.928 82.6132 265.007 82.9891 265.007C83.3771 265.007 83.6884 264.928 83.9229 264.768C84.1605 264.609 84.2793 264.412 84.2793 264.177C84.2793 263.979 84.2026 263.815 84.0492 263.686C83.8989 263.556 83.6643 263.457 83.3455 263.388L82.1636 263.14C81.499 263.001 81.0073 262.768 80.6885 262.44C80.3697 262.11 80.2118 261.692 80.2148 261.186C80.2118 260.759 80.3276 260.389 80.5622 260.077C80.7997 259.761 81.1291 259.517 81.5501 259.346C81.9741 259.171 82.4628 259.084 83.0162 259.084C83.8282 259.084 84.4673 259.257 84.9334 259.603C85.4026 259.949 85.6928 260.417 85.8041 261.006ZM90.0457 266.239C89.351 266.239 88.7511 266.094 88.2458 265.806C87.7436 265.514 87.3571 265.102 87.0865 264.57C86.8158 264.034 86.6805 263.404 86.6805 262.68C86.6805 261.967 86.8158 261.341 87.0865 260.803C87.3601 260.262 87.7421 259.841 88.2323 259.54C88.7225 259.236 89.2984 259.084 89.96 259.084C90.3871 259.084 90.7901 259.153 91.169 259.292C91.5509 259.427 91.8878 259.638 92.1795 259.923C92.4742 260.209 92.7058 260.573 92.8742 261.015C93.0426 261.454 93.1268 261.977 93.1268 262.585V263.086H87.4473V261.985H91.5615C91.5585 261.672 91.4908 261.394 91.3585 261.15C91.2261 260.904 91.0412 260.71 90.8036 260.568C90.569 260.427 90.2954 260.356 89.9826 260.356C89.6488 260.356 89.3555 260.438 89.1029 260.6C88.8503 260.759 88.6533 260.97 88.512 261.232C88.3736 261.49 88.3029 261.774 88.2999 262.084V263.045C88.2999 263.448 88.3736 263.794 88.521 264.083C88.6683 264.368 88.8744 264.588 89.139 264.741C89.4037 264.892 89.7134 264.967 90.0683 264.967C90.3059 264.967 90.5209 264.934 90.7134 264.867C90.9059 264.798 91.0728 264.698 91.2141 264.565C91.3555 264.433 91.4622 264.269 91.5344 264.074L93.0592 264.245C92.9629 264.648 92.7795 265 92.5088 265.301C92.2411 265.598 91.8983 265.83 91.4803 265.995C91.0622 266.158 90.5841 266.239 90.0457 266.239ZM94.187 266.104V259.174H95.7704V260.329H95.8426C95.9689 259.929 96.1855 259.621 96.4922 259.405C96.802 259.185 97.1553 259.075 97.5523 259.075C97.6425 259.075 97.7433 259.08 97.8546 259.089C97.9688 259.095 98.0636 259.105 98.1388 259.12V260.623C98.0696 260.598 97.9598 260.577 97.8095 260.559C97.6621 260.538 97.5192 260.528 97.3809 260.528C97.0832 260.528 96.8155 260.592 96.5779 260.722C96.3433 260.848 96.1584 261.024 96.0231 261.25C95.8877 261.475 95.8201 261.735 95.8201 262.03V266.104H94.187ZM101.804 266.104V256.865H103.478V261.11H103.591L107.195 256.865H109.239L105.666 261.01L109.27 266.104H107.258L104.502 262.143L103.478 263.352V266.104H101.804ZM112.567 266.239C111.872 266.239 111.272 266.094 110.767 265.806C110.265 265.514 109.878 265.102 109.608 264.57C109.337 264.034 109.202 263.404 109.202 262.68C109.202 261.967 109.337 261.341 109.608 260.803C109.881 260.262 110.263 259.841 110.753 259.54C111.244 259.236 111.82 259.084 112.481 259.084C112.908 259.084 113.311 259.153 113.69 259.292C114.072 259.427 114.409 259.638 114.701 259.923C114.995 260.209 115.227 260.573 115.395 261.015C115.564 261.454 115.648 261.977 115.648 262.585V263.086H109.969V261.985H114.083C114.08 261.672 114.012 261.394 113.88 261.15C113.747 260.904 113.562 260.71 113.325 260.568C113.09 260.427 112.817 260.356 112.504 260.356C112.17 260.356 111.877 260.438 111.624 260.6C111.371 260.759 111.174 260.97 111.033 261.232C110.895 261.49 110.824 261.774 110.821 262.084V263.045C110.821 263.448 110.895 263.794 111.042 264.083C111.19 264.368 111.396 264.588 111.66 264.741C111.925 264.892 112.235 264.967 112.589 264.967C112.827 264.967 113.042 264.934 113.235 264.867C113.427 264.798 113.594 264.698 113.735 264.565C113.877 264.433 113.983 264.269 114.056 264.074L115.58 264.245C115.484 264.648 115.301 265 115.03 265.301C114.762 265.598 114.419 265.83 114.001 265.995C113.583 266.158 113.105 266.239 112.567 266.239ZM117.525 268.702C117.302 268.702 117.096 268.684 116.907 268.648C116.72 268.615 116.571 268.576 116.46 268.53L116.839 267.258C117.077 267.328 117.289 267.361 117.475 267.358C117.662 267.355 117.825 267.296 117.967 267.182C118.111 267.07 118.233 266.884 118.332 266.622L118.472 266.248L115.959 259.174H117.692L119.289 264.407H119.361L120.962 259.174H122.699L119.925 266.943C119.795 267.309 119.624 267.624 119.41 267.885C119.197 268.15 118.935 268.352 118.625 268.49C118.319 268.631 117.952 268.702 117.525 268.702Z" fill="#1F1F1F"/>
<path fill-rule="evenodd" clip-rule="evenodd" d="M190.077 273.721C191.022 273.396 191.793 272.8 192.391 271.933C192.989 271.066 193.288 270.093 193.288 269.013V266.592L190.077 265.381L186.865 266.594V269.012C186.865 270.092 187.164 271.066 187.762 271.933C188.36 272.8 189.132 273.396 190.077 273.721ZM188.591 269.135L189.566 270.11L191.572 268.104C191.641 268.034 191.732 267.996 191.845 267.992C191.957 267.988 192.05 268.021 192.125 268.091C192.199 268.162 192.237 268.251 192.237 268.359C192.237 268.467 192.197 268.56 192.119 268.638L189.829 270.928C189.744 271.015 189.645 271.058 189.53 271.058C189.415 271.058 189.315 271.015 189.228 270.928L188.019 269.707C187.943 269.625 187.904 269.529 187.904 269.419C187.904 269.309 187.943 269.215 188.019 269.137C188.098 269.059 188.194 269.02 188.307 269.02C188.42 269.02 188.514 269.058 188.591 269.135Z" fill="#1F1F1F"/>
<path fill-rule="evenodd" clip-rule="evenodd" d="M189.936 274.537C189.98 274.547 190.027 274.551 190.077 274.551C190.127 274.551 190.174 274.547 190.218 274.537C190.261 274.528 190.304 274.514 190.346 274.496C191.51 274.105 192.433 273.397 193.116 272.37C193.798 271.343 194.139 270.224 194.139 269.011V266.592C194.139 266.411 194.088 266.246 193.986 266.1C193.884 265.953 193.75 265.848 193.585 265.784L190.374 264.585C190.273 264.548 190.174 264.529 190.077 264.529C189.98 264.529 189.881 264.548 189.779 264.585L186.568 265.784C186.403 265.848 186.27 265.953 186.169 266.1C186.067 266.246 186.017 266.411 186.017 266.592V269.011C186.017 270.224 186.358 271.343 187.039 272.37C187.72 273.397 188.643 274.105 189.807 274.496C189.849 274.514 189.892 274.528 189.936 274.537ZM192.391 271.933C191.793 272.8 191.022 273.396 190.077 273.721C189.132 273.396 188.36 272.8 187.762 271.933C187.164 271.066 186.865 270.092 186.865 269.012V266.594L190.077 265.381L193.288 266.592V269.013C193.288 270.093 192.989 271.066 192.391 271.933Z" fill="#1F1F1F"/>
<path d="M199.011 265.939H200.11L202.696 272.255H202.785L205.371 265.939H206.471V273.548H205.609V267.767H205.534L203.157 273.548H202.325L199.947 267.767H199.873V273.548H199.011V265.939ZM210.459 273.667C209.944 273.667 209.492 273.544 209.103 273.299C208.717 273.054 208.414 272.711 208.196 272.27C207.981 271.829 207.873 271.314 207.873 270.724C207.873 270.13 207.981 269.611 208.196 269.168C208.414 268.724 208.717 268.38 209.103 268.135C209.492 267.89 209.944 267.767 210.459 267.767C210.974 267.767 211.425 267.89 211.811 268.135C212.2 268.38 212.502 268.724 212.718 269.168C212.936 269.611 213.045 270.13 213.045 270.724C213.045 271.314 212.936 271.829 212.718 272.27C212.502 272.711 212.2 273.054 211.811 273.299C211.425 273.544 210.974 273.667 210.459 273.667ZM210.459 272.879C210.85 272.879 211.172 272.779 211.425 272.578C211.677 272.378 211.864 272.114 211.986 271.787C212.107 271.46 212.168 271.106 212.168 270.724C212.168 270.343 212.107 269.988 211.986 269.658C211.864 269.329 211.677 269.063 211.425 268.859C211.172 268.656 210.85 268.555 210.459 268.555C210.068 268.555 209.746 268.656 209.493 268.859C209.24 269.063 209.053 269.329 208.932 269.658C208.811 269.988 208.75 270.343 208.75 270.724C208.75 271.106 208.811 271.46 208.932 271.787C209.053 272.114 209.24 272.378 209.493 272.578C209.746 272.779 210.068 272.879 210.459 272.879ZM218.367 269.12L217.579 269.342C217.529 269.211 217.456 269.084 217.36 268.96C217.266 268.833 217.137 268.729 216.973 268.648C216.81 268.566 216.601 268.525 216.346 268.525C215.996 268.525 215.705 268.606 215.473 268.767C215.242 268.925 215.127 269.127 215.127 269.372C215.127 269.59 215.206 269.762 215.365 269.889C215.523 270.015 215.771 270.12 216.108 270.204L216.955 270.412C217.465 270.536 217.845 270.726 218.095 270.981C218.345 271.233 218.471 271.559 218.471 271.958C218.471 272.285 218.376 272.577 218.188 272.835C218.002 273.092 217.742 273.295 217.408 273.444C217.074 273.592 216.685 273.667 216.242 273.667C215.66 273.667 215.178 273.54 214.796 273.288C214.415 273.035 214.174 272.666 214.072 272.181L214.904 271.973C214.983 272.28 215.133 272.51 215.354 272.664C215.577 272.817 215.868 272.894 216.227 272.894C216.635 272.894 216.96 272.807 217.2 272.634C217.443 272.458 217.564 272.248 217.564 272.002C217.564 271.804 217.495 271.638 217.356 271.505C217.217 271.368 217.004 271.267 216.717 271.2L215.766 270.977C215.243 270.853 214.86 270.661 214.614 270.401C214.372 270.139 214.25 269.811 214.25 269.417C214.25 269.095 214.341 268.81 214.521 268.562C214.705 268.315 214.954 268.12 215.268 267.979C215.585 267.838 215.944 267.767 216.346 267.767C216.91 267.767 217.354 267.891 217.676 268.139C218 268.386 218.23 268.713 218.367 269.12ZM222.214 267.842V268.585H219.257V267.842H222.214ZM220.118 266.474H220.995V271.913C220.995 272.161 221.031 272.347 221.103 272.47C221.177 272.592 221.271 272.674 221.385 272.716C221.502 272.755 221.624 272.775 221.753 272.775C221.85 272.775 221.929 272.77 221.991 272.76C222.053 272.748 222.102 272.738 222.139 272.731L222.318 273.518C222.258 273.54 222.175 273.563 222.069 273.585C221.962 273.61 221.827 273.622 221.664 273.622C221.416 273.622 221.173 273.569 220.936 273.462C220.7 273.356 220.505 273.194 220.349 272.976C220.195 272.758 220.118 272.483 220.118 272.151V266.474ZM230.4 269.12L229.613 269.342C229.563 269.211 229.49 269.084 229.393 268.96C229.299 268.833 229.171 268.729 229.007 268.648C228.844 268.566 228.634 268.525 228.379 268.525C228.03 268.525 227.739 268.606 227.506 268.767C227.276 268.925 227.161 269.127 227.161 269.372C227.161 269.59 227.24 269.762 227.398 269.889C227.557 270.015 227.805 270.12 228.141 270.204L228.988 270.412C229.499 270.536 229.879 270.726 230.129 270.981C230.379 271.233 230.504 271.559 230.504 271.958C230.504 272.285 230.41 272.577 230.222 272.835C230.036 273.092 229.776 273.295 229.442 273.444C229.107 273.592 228.719 273.667 228.275 273.667C227.693 273.667 227.211 273.54 226.83 273.288C226.449 273.035 226.207 272.666 226.106 272.181L226.938 271.973C227.017 272.28 227.167 272.51 227.387 272.664C227.61 272.817 227.901 272.894 228.26 272.894C228.669 272.894 228.993 272.807 229.234 272.634C229.476 272.458 229.598 272.248 229.598 272.002C229.598 271.804 229.528 271.638 229.39 271.505C229.251 271.368 229.038 271.267 228.751 271.2L227.8 270.977C227.277 270.853 226.893 270.661 226.648 270.401C226.405 270.139 226.284 269.811 226.284 269.417C226.284 269.095 226.374 268.81 226.555 268.562C226.738 268.315 226.987 268.12 227.302 267.979C227.619 267.838 227.978 267.767 228.379 267.767C228.944 267.767 229.387 267.891 229.709 268.139C230.034 268.386 230.264 268.713 230.4 269.12ZM234.158 273.667C233.608 273.667 233.134 273.545 232.735 273.303C232.339 273.057 232.033 272.716 231.818 272.277C231.605 271.836 231.498 271.324 231.498 270.739C231.498 270.155 231.605 269.64 231.818 269.194C232.033 268.746 232.333 268.396 232.717 268.146C233.103 267.894 233.554 267.767 234.069 267.767C234.366 267.767 234.66 267.817 234.949 267.916C235.239 268.015 235.503 268.176 235.741 268.399C235.979 268.619 236.168 268.911 236.309 269.276C236.45 269.64 236.521 270.088 236.521 270.62V270.992H232.122V270.234H235.629C235.629 269.912 235.565 269.625 235.436 269.372C235.31 269.12 235.129 268.92 234.894 268.774C234.661 268.628 234.386 268.555 234.069 268.555C233.72 268.555 233.418 268.642 233.163 268.815C232.91 268.986 232.716 269.209 232.579 269.484C232.443 269.758 232.375 270.053 232.375 270.368V270.873C232.375 271.304 232.449 271.669 232.598 271.969C232.749 272.266 232.958 272.493 233.226 272.649C233.493 272.802 233.804 272.879 234.158 272.879C234.389 272.879 234.597 272.847 234.782 272.783C234.971 272.716 235.133 272.617 235.269 272.485C235.405 272.352 235.51 272.186 235.585 271.988L236.432 272.225C236.343 272.513 236.193 272.765 235.982 272.983C235.772 273.199 235.512 273.367 235.202 273.488C234.893 273.607 234.545 273.667 234.158 273.667ZM240.115 273.667C239.58 273.667 239.119 273.54 238.733 273.288C238.346 273.035 238.049 272.687 237.841 272.244C237.633 271.801 237.529 271.294 237.529 270.724C237.529 270.145 237.635 269.633 237.848 269.19C238.064 268.744 238.364 268.396 238.747 268.146C239.134 267.894 239.585 267.767 240.1 267.767C240.501 267.767 240.862 267.842 241.184 267.99C241.506 268.139 241.77 268.347 241.976 268.614C242.181 268.882 242.309 269.194 242.358 269.55H241.482C241.415 269.29 241.266 269.06 241.036 268.859C240.808 268.656 240.501 268.555 240.115 268.555C239.773 268.555 239.473 268.644 239.215 268.822C238.96 268.998 238.761 269.247 238.617 269.569C238.476 269.889 238.406 270.264 238.406 270.695C238.406 271.136 238.475 271.519 238.614 271.846C238.755 272.173 238.953 272.427 239.208 272.608C239.466 272.789 239.768 272.879 240.115 272.879C240.342 272.879 240.549 272.839 240.735 272.76C240.921 272.681 241.078 272.567 241.207 272.418C241.336 272.27 241.427 272.092 241.482 271.883H242.358C242.309 272.22 242.186 272.524 241.991 272.794C241.797 273.061 241.541 273.274 241.222 273.433C240.905 273.589 240.536 273.667 240.115 273.667ZM247.178 271.215V267.842H248.055V273.548H247.178V272.582H247.119C246.985 272.872 246.777 273.118 246.494 273.321C246.212 273.522 245.855 273.622 245.424 273.622C245.068 273.622 244.751 273.544 244.473 273.388C244.196 273.23 243.978 272.992 243.82 272.675C243.661 272.355 243.582 271.953 243.582 271.467V267.842H244.459V271.408C244.459 271.824 244.575 272.156 244.808 272.404C245.043 272.651 245.343 272.775 245.707 272.775C245.925 272.775 246.146 272.719 246.372 272.608C246.6 272.496 246.79 272.326 246.944 272.095C247.1 271.865 247.178 271.571 247.178 271.215ZM249.602 273.548V267.842H250.449V268.703H250.509C250.613 268.421 250.801 268.192 251.073 268.016C251.346 267.84 251.653 267.752 251.995 267.752C252.059 267.752 252.14 267.754 252.236 267.756C252.333 267.759 252.406 267.762 252.455 267.767V268.659C252.426 268.651 252.358 268.64 252.251 268.625C252.147 268.608 252.037 268.599 251.92 268.599C251.643 268.599 251.395 268.658 251.177 268.774C250.962 268.888 250.791 269.046 250.665 269.25C250.541 269.45 250.479 269.679 250.479 269.937V273.548H249.602ZM255.655 273.667C255.105 273.667 254.631 273.545 254.232 273.303C253.836 273.057 253.53 272.716 253.315 272.277C253.102 271.836 252.995 271.324 252.995 270.739C252.995 270.155 253.102 269.64 253.315 269.194C253.53 268.746 253.83 268.396 254.214 268.146C254.6 267.894 255.051 267.767 255.566 267.767C255.863 267.767 256.157 267.817 256.446 267.916C256.736 268.015 257 268.176 257.238 268.399C257.476 268.619 257.665 268.911 257.806 269.276C257.947 269.64 258.018 270.088 258.018 270.62V270.992H253.619V270.234H257.126C257.126 269.912 257.062 269.625 256.933 269.372C256.807 269.12 256.626 268.92 256.391 268.774C256.158 268.628 255.883 268.555 255.566 268.555C255.217 268.555 254.915 268.642 254.66 268.815C254.407 268.986 254.213 269.209 254.076 269.484C253.94 269.758 253.872 270.053 253.872 270.368V270.873C253.872 271.304 253.946 271.669 254.095 271.969C254.246 272.266 254.455 272.493 254.723 272.649C254.99 272.802 255.301 272.879 255.655 272.879C255.886 272.879 256.094 272.847 256.279 272.783C256.468 272.716 256.63 272.617 256.766 272.485C256.902 272.352 257.007 272.186 257.082 271.988L257.929 272.225C257.84 272.513 257.69 272.765 257.479 272.983C257.269 273.199 257.009 273.367 256.699 273.488C256.39 273.607 256.042 273.667 255.655 273.667Z" fill="#1F1F1F"/>
<path d="M279.472 297.472H11.9561V692.021H279.472V297.472Z" fill="#D7D7D7" fill-opacity="0.25"/>
</g>
<path d="M261.472 130.587H29.9561C20.2911 130.587 12.4561 138.422 12.4561 148.087V674.02C12.4561 683.685 20.2911 691.52 29.9561 691.52H261.472C271.137 691.52 278.972 683.685 278.972 674.02V148.087C278.972 138.422 271.137 130.587 261.472 130.587Z" stroke="#D7D7D7"/>
<path d="M43.2746 17.5312C43.7542 17.5312 44.2091 17.6201 44.6392 17.7979C45.0692 17.9716 45.4497 18.2445 45.7805 18.6167C46.1154 18.9847 46.378 19.4582 46.5682 20.0371C46.7585 20.6119 46.8536 21.3045 46.8536 22.115V22.1274C46.8536 23.1323 46.7088 23.9924 46.4194 24.7078C46.1299 25.4232 45.7143 25.9732 45.1726 26.3577C44.635 26.7382 43.992 26.9284 43.2435 26.9284C42.6936 26.9284 42.1973 26.8291 41.7549 26.6306C41.3166 26.428 40.9527 26.151 40.6632 25.7995C40.3779 25.4438 40.1856 25.0386 40.0863 24.5837L40.0739 24.5155H41.6432L41.668 24.5775C41.7466 24.7843 41.8583 24.9662 42.003 25.1234C42.1519 25.2805 42.3297 25.4025 42.5364 25.4893C42.7473 25.572 42.983 25.6134 43.2435 25.6134C43.715 25.6134 44.0995 25.4749 44.3973 25.1978C44.6991 24.9166 44.9245 24.5424 45.0734 24.0751C45.2264 23.6037 45.3132 23.0827 45.3339 22.512C45.338 22.45 45.3401 22.39 45.3401 22.3321C45.3401 22.2701 45.3401 22.2102 45.3401 22.1523L45.061 20.6574C45.061 20.3183 44.9824 20.0102 44.8253 19.7332C44.6681 19.4561 44.4552 19.237 44.1864 19.0758C43.9217 18.9145 43.6219 18.8338 43.287 18.8338C42.9644 18.8338 42.6688 18.9123 42.4 19.0695C42.1312 19.2266 41.9162 19.4416 41.7549 19.7146C41.5936 19.9833 41.513 20.2852 41.513 20.6202V20.6327C41.513 20.98 41.5895 21.2881 41.7425 21.5569C41.8955 21.8215 42.1043 22.0303 42.369 22.1833C42.6336 22.3363 42.9355 22.4128 43.2746 22.4128C43.6136 22.4128 43.9176 22.3384 44.1864 22.1896C44.4552 22.0407 44.6681 21.8339 44.8253 21.5693C44.9824 21.3046 45.061 21.0047 45.061 20.6698V20.6574H45.4331V22.3074H45.216C45.1085 22.5431 44.9493 22.7622 44.7384 22.9648C44.5275 23.1674 44.267 23.3308 43.9569 23.4548C43.6509 23.5789 43.2911 23.6409 42.8776 23.6409C42.3069 23.6409 41.8024 23.5127 41.3641 23.2563C40.9258 23 40.5805 22.6486 40.3282 22.202C40.0801 21.7554 39.9561 21.2508 39.9561 20.6884V20.6761C39.9561 20.0682 40.0967 19.5285 40.3779 19.0571C40.6632 18.5815 41.056 18.2093 41.5564 17.9406C42.0609 17.6676 42.6336 17.5312 43.2746 17.5312ZM49.3483 25.5017C49.0671 25.5017 48.8314 25.4088 48.6412 25.2227C48.4551 25.0325 48.3621 24.8009 48.3621 24.528C48.3621 24.2509 48.4551 24.0194 48.6412 23.8333C48.8314 23.6431 49.0671 23.5479 49.3483 23.5479C49.6336 23.5479 49.8693 23.6431 50.0554 23.8333C50.2415 24.0194 50.3345 24.2509 50.3345 24.528C50.3345 24.8009 50.2415 25.0325 50.0554 25.2227C49.8693 25.4088 49.6336 25.5017 49.3483 25.5017ZM49.3483 20.8993C49.0671 20.8993 48.8314 20.8062 48.6412 20.6202C48.4551 20.4299 48.3621 20.1984 48.3621 19.9254C48.3621 19.6484 48.4551 19.4168 48.6412 19.2307C48.8314 19.0405 49.0671 18.9454 49.3483 18.9454C49.6336 18.9454 49.8693 19.0405 50.0554 19.2307C50.2415 19.4168 50.3345 19.6484 50.3345 19.9254C50.3345 20.1984 50.2415 20.4299 50.0554 20.6202C49.8693 20.8062 49.6336 20.8993 49.3483 20.8993ZM56.185 26.7051V24.9869H51.8058V23.6782C52.0415 23.2771 52.2772 22.8738 52.5129 22.4686C52.7528 22.0633 52.9947 21.6603 53.2387 21.2591C53.4868 20.8539 53.7328 20.4547 53.9768 20.0619C54.2249 19.6649 54.471 19.2743 54.7149 18.8897C54.963 18.501 55.2111 18.1225 55.4593 17.7545H57.7109V23.6658H58.9204V24.9869H57.7109V26.7051H56.185ZM53.2945 23.7029H56.2098V19.0322H56.1168C55.9348 19.3134 55.7467 19.603 55.5523 19.9007C55.3621 20.1985 55.1698 20.5024 54.9754 20.8125C54.7811 21.1227 54.5888 21.4348 54.3986 21.7491C54.2084 22.0592 54.0202 22.3714 53.8341 22.6857C53.648 22.9958 53.4682 23.3039 53.2945 23.6099V23.7029ZM62.3021 26.7051V19.33H62.1905L59.9637 20.8993V19.3982L62.3021 17.7545H63.8963V26.7051H62.3021Z" fill="#1F1F1F"/>
<mask id="mask4_793_13051" style="mask-type:luminance" maskUnits="userSpaceOnUse" x="251" y="16" width="22" height="11">
<path d="M272.052 16.8877H251.556V26.602H272.052V16.8877Z" fill="white"/>
</mask>
<g mask="url(#mask4_793_13051)">
<path d="M266.875 18.3818H254.919C253.887 18.3818 253.051 19.2182 253.051 20.25V23.239C253.051 24.2707 253.887 25.1071 254.919 25.1071H266.875C267.907 25.1071 268.743 24.2707 268.743 23.239V20.25C268.743 19.2182 267.907 18.3818 266.875 18.3818Z" fill="#1F1F1F"/>
<path opacity="0.35" d="M267.024 17.2617H254.77C253.201 17.2617 251.93 18.533 251.93 20.1013V23.3892C251.93 24.9574 253.201 26.2287 254.77 26.2287H267.024C268.593 26.2287 269.864 24.9574 269.864 23.3892V20.1013C269.864 18.533 268.593 17.2617 267.024 17.2617Z" stroke="#1F1F1F" stroke-width="0.747252"/>
<path opacity="0.4" d="M271.059 20.25V23.239C271.661 22.9859 272.052 22.397 272.052 21.7445C272.052 21.0921 271.661 20.5032 271.059 20.25Z" fill="#1F1F1F"/>
</g>
<path d="M239.653 19.1447C241.512 19.1448 243.299 19.8211 244.646 21.0338C244.748 21.1274 244.91 21.1262 245.01 21.0311L245.979 20.1045C246.03 20.0563 246.058 19.9909 246.058 19.9229C246.057 19.855 246.028 19.79 245.977 19.7423C242.442 16.5338 236.864 16.5338 233.329 19.7423C233.278 19.7899 233.249 19.8549 233.248 19.9229C233.248 19.9909 233.276 20.0562 233.327 20.1045L234.296 21.0311C234.396 21.1264 234.559 21.1275 234.66 21.0338C236.007 19.821 237.795 19.1447 239.653 19.1447ZM239.652 22.24C240.666 22.2399 241.644 22.6152 242.396 23.293C242.498 23.3892 242.658 23.3871 242.757 23.2883L243.719 22.3207C243.77 22.2699 243.798 22.2011 243.797 22.1295C243.796 22.058 243.767 21.9897 243.715 21.94C241.426 19.8198 237.88 19.8198 235.591 21.94C235.539 21.9897 235.51 22.058 235.509 22.1296C235.508 22.2012 235.536 22.27 235.587 22.3207L236.549 23.2883C236.648 23.3871 236.808 23.3892 236.91 23.293C237.661 22.6157 238.638 22.2404 239.652 22.24ZM241.46 24.4947C241.51 24.4405 241.538 24.366 241.537 24.2888C241.535 24.2115 241.505 24.1383 241.452 24.0865C240.414 23.1229 238.892 23.1229 237.854 24.0865C237.801 24.1383 237.771 24.2114 237.769 24.2887C237.768 24.366 237.795 24.4405 237.846 24.4947L239.473 26.295C239.52 26.3479 239.585 26.3777 239.653 26.3777C239.721 26.3777 239.786 26.3479 239.834 26.295L241.46 24.4947Z" fill="#1F1F1F"/>
<path d="M214.094 22.7914H214.891C215.331 22.7914 215.688 23.1761 215.688 23.6507V25.3694C215.688 25.844 215.331 26.2287 214.891 26.2287H214.094C213.654 26.2287 213.297 25.844 213.297 25.3694V23.6507C213.297 23.1761 213.654 22.7914 214.094 22.7914ZM218.054 20.998H218.851C219.292 20.998 219.648 21.3883 219.648 21.8698V25.3569C219.648 25.8384 219.292 26.2287 218.851 26.2287H218.054C217.614 26.2287 217.257 25.8384 217.257 25.3569V21.8698C217.257 21.3883 217.614 20.998 218.054 20.998ZM222.089 19.0551H222.886C223.327 19.0551 223.684 19.4405 223.684 19.916V25.3679C223.684 25.8433 223.327 26.2287 222.886 26.2287H222.089C221.649 26.2287 221.292 25.8433 221.292 25.3679V19.916C221.292 19.4405 221.649 19.0551 222.089 19.0551ZM226.847 17.2617C227.287 17.2617 227.644 17.6381 227.644 18.1024V25.3881C227.644 25.8524 227.287 26.2287 226.847 26.2287H226.05C225.61 26.2287 225.253 25.8524 225.253 25.3881V18.1024C225.253 17.6381 225.61 17.2617 226.05 17.2617H226.847Z" fill="#1F1F1F"/>
<path d="M24.2697 58.3919C24.1933 57.6213 23.8653 57.0226 23.2857 56.5959C22.7062 56.1692 21.9197 55.9559 20.9262 55.9559C20.2511 55.9559 19.6811 56.0514 19.2162 56.2425C18.7513 56.4271 18.3946 56.6851 18.1463 57.0162C17.9043 57.3474 17.7832 57.7232 17.7832 58.1435C17.7705 58.4938 17.8437 58.7995 18.003 59.0606C18.1685 59.3217 18.3946 59.5478 18.6812 59.7388C18.9678 59.9235 19.299 60.0859 19.6747 60.226C20.0505 60.3598 20.4517 60.4744 20.8784 60.5699L22.6361 60.9903C23.4895 61.1813 24.2729 61.4361 24.9862 61.7545C25.6994 62.0729 26.3172 62.4646 26.8394 62.9295C27.3617 63.3944 27.7661 63.9421 28.0527 64.5726C28.3456 65.2031 28.4953 65.9259 28.5016 66.7411C28.4953 67.9384 28.1896 68.9765 27.5846 69.8554C26.9859 70.7279 26.1198 71.4062 24.9862 71.8902C23.8589 72.3678 22.4992 72.6066 20.9071 72.6066C19.3276 72.6066 17.952 72.3646 16.7802 71.8806C15.6147 71.3966 14.704 70.6801 14.048 69.7312C13.3984 68.7759 13.0577 67.5945 13.0259 66.1871H17.0286C17.0731 66.843 17.261 67.3907 17.5922 67.8302C17.9297 68.2632 18.3787 68.5912 18.9392 68.8141C19.506 69.0307 20.146 69.1389 20.8593 69.1389C21.5598 69.1389 22.168 69.037 22.6839 68.8332C23.2061 68.6294 23.6105 68.346 23.8971 67.983C24.1837 67.62 24.327 67.2029 24.327 66.7316C24.327 66.2921 24.1965 65.9228 23.9353 65.6234C23.6806 65.3241 23.3048 65.0694 22.8081 64.8592C22.3177 64.649 21.7159 64.458 21.0026 64.286L18.8723 63.7511C17.2228 63.3498 15.9204 62.7225 14.9651 61.8691C14.0098 61.0157 13.5354 59.8662 13.5417 58.4205C13.5354 57.236 13.8506 56.2011 14.4875 55.3158C15.1307 54.4306 16.0128 53.7396 17.1336 53.2428C18.2545 52.7461 19.5282 52.4977 20.9548 52.4977C22.4069 52.4977 23.6742 52.7461 24.7569 53.2428C25.8459 53.7396 26.693 54.4306 27.298 55.3158C27.903 56.2011 28.2151 57.2264 28.2342 58.3919H24.2697ZM30.8712 72.3296V57.6563H34.9408V72.3296H30.8712ZM32.9156 55.7648C32.3106 55.7648 31.7915 55.5642 31.3584 55.163C30.9317 54.7554 30.7184 54.2682 30.7184 53.7014C30.7184 53.1409 30.9317 52.6601 31.3584 52.2589C31.7915 51.8513 32.3106 51.6475 32.9156 51.6475C33.5206 51.6475 34.0365 51.8513 34.4632 52.2589C34.8962 52.6601 35.1128 53.1409 35.1128 53.7014C35.1128 54.2682 34.8962 54.7554 34.4632 55.163C34.0365 55.5642 33.5206 55.7648 32.9156 55.7648ZM44.4751 78.1378C43.1568 78.1378 42.0264 77.9563 41.0838 77.5933C40.1476 77.2366 39.4025 76.7494 38.8484 76.1317C38.2944 75.5139 37.9345 74.8197 37.7689 74.0491L41.5328 73.5428C41.6474 73.8358 41.8289 74.1096 42.0773 74.3644C42.3257 74.6191 42.6537 74.8229 43.0613 74.9758C43.4752 75.135 43.9784 75.2146 44.5706 75.2146C45.4559 75.2146 46.1851 74.9981 46.7583 74.565C47.3378 74.1383 47.6276 73.4218 47.6276 72.4156V69.7312H47.4556C47.2773 70.1388 47.0098 70.5241 46.6532 70.8871C46.2965 71.2501 45.838 71.5463 45.2776 71.7755C44.7171 72.0048 44.0484 72.1194 43.2714 72.1194C42.1697 72.1194 41.1666 71.8647 40.2623 71.3552C39.3643 70.8393 38.6478 70.0528 38.1128 68.9956C37.5843 67.9321 37.32 66.5883 37.32 64.9643C37.32 63.3021 37.5906 61.9137 38.132 60.7992C38.6733 59.6847 39.3929 58.8504 40.2909 58.2963C41.1953 57.7423 42.1856 57.4652 43.2619 57.4652C44.0834 57.4652 44.7712 57.6053 45.3253 57.8856C45.8794 58.1594 46.3252 58.5033 46.6627 58.9173C47.0066 59.3249 47.2709 59.7261 47.4556 60.1209H47.6085V57.6563H51.6494V72.4729C51.6494 73.7211 51.3437 74.7656 50.7323 75.6063C50.1209 76.4469 49.2739 77.0774 48.1912 77.4977C47.1149 77.9244 45.8762 78.1378 44.4751 78.1378ZM44.5611 69.0625C45.2171 69.0625 45.7711 68.9001 46.2233 68.5753C46.6818 68.2441 47.0321 67.7729 47.2741 67.1615C47.5225 66.5437 47.6467 65.8049 47.6467 64.9452C47.6467 64.0854 47.5257 63.3403 47.2837 62.7098C47.0417 62.0729 46.6914 61.5794 46.2328 61.2291C45.7743 60.8788 45.2171 60.7037 44.5611 60.7037C43.8924 60.7037 43.3288 60.8852 42.8702 61.2482C42.4117 61.6048 42.0646 62.1016 41.8289 62.7385C41.5933 63.3753 41.4755 64.1109 41.4755 64.9452C41.4755 65.7922 41.5933 66.5246 41.8289 67.1424C42.0709 67.7537 42.418 68.2282 42.8702 68.5657C43.3288 68.8969 43.8924 69.0625 44.5611 69.0625ZM58.6211 63.8466V72.3296H54.5515V57.6563H58.43V60.2451H58.602C58.9268 59.3917 59.4713 58.7167 60.2355 58.2199C60.9998 57.7168 61.9264 57.4652 63.0154 57.4652C64.0344 57.4652 64.9228 57.6881 65.6807 58.1339C66.4386 58.5797 67.0277 59.2166 67.448 60.0445C67.8683 60.8661 68.0785 61.8468 68.0785 62.9868V72.3296H64.009V63.7129C64.0153 62.8149 63.786 62.1143 63.3211 61.6112C62.8562 61.1017 62.2162 60.847 61.401 60.847C60.8533 60.847 60.3693 60.9648 59.949 61.2004C59.535 61.4361 59.2102 61.78 58.9746 62.2321C58.7453 62.678 58.6275 63.2161 58.6211 63.8466ZM76.8395 72.3296V57.6563H80.909V72.3296H76.8395ZM78.8838 55.7648C78.2788 55.7648 77.7598 55.5642 77.3267 55.163C76.9 54.7554 76.6867 54.2682 76.6867 53.7014C76.6867 53.1409 76.9 52.6601 77.3267 52.2589C77.7598 51.8513 78.2788 51.6475 78.8838 51.6475C79.4888 51.6475 80.0047 51.8513 80.4314 52.2589C80.8645 52.6601 81.081 53.1409 81.081 53.7014C81.081 54.2682 80.8645 54.7554 80.4314 55.163C80.0047 55.5642 79.4888 55.7648 78.8838 55.7648ZM87.9023 63.8466V72.3296H83.8327V57.6563H87.7112V60.2451H87.8832C88.208 59.3917 88.7525 58.7167 89.5167 58.2199C90.281 57.7168 91.2076 57.4652 92.2966 57.4652C93.3156 57.4652 94.204 57.6881 94.9619 58.1339C95.7198 58.5797 96.3089 59.2166 96.7292 60.0445C97.1495 60.8661 97.3597 61.8468 97.3597 62.9868V72.3296H93.2901V63.7129C93.2965 62.8149 93.0672 62.1143 92.6023 61.6112C92.1374 61.1017 91.4974 60.847 90.6822 60.847C90.1345 60.847 89.6505 60.9648 89.2301 61.2004C88.8162 61.4361 88.4914 61.78 88.2557 62.2321C88.0265 62.678 87.9086 63.2161 87.9023 63.8466Z" fill="#1F1F1F"/>
</g>
</g>
<path d="M261 0.5H33C15.0507 0.5 0.5 15.0507 0.5 33V604C0.5 621.949 15.0507 636.5 33 636.5H261C278.949 636.5 293.5 621.949 293.5 604V33C293.5 15.0507 278.949 0.5 261 0.5Z" stroke="#1F1F1F"/>
</g>
<defs>
<clipPath id="clip0_793_13051">
<rect width="294" height="637" fill="white"/>
</clipPath>
</defs>
</svg>
