<svg preserveAspectRatio="none" width="100%" height="100%" overflow="visible" style="display: block;" viewBox="0 0 30 30" fill="none" xmlns="http://www.w3.org/2000/svg">
<g id="SSE">
<path d="M12.5 23.75C12.5 27.2018 9.70178 30 6.25 30C2.79822 30 -1.50882e-07 27.2018 0 23.75C7.05667e-08 22.1356 0.612136 20.6644 1.61693 19.5554C2.79751 18.2525 4 16.7582 4 15C4 13.2418 2.79751 11.7475 1.61693 10.4446C0.612136 9.33564 6.94384e-07 7.86438 7.64951e-07 6.25C9.15833e-07 2.79822 2.79822 -1.50882e-07 6.25 0C9.70178 1.50882e-07 12.5 2.79822 12.5 6.25C12.5 7.86438 11.8879 9.33564 10.8831 10.4446C9.70249 11.7475 8.5 13.2418 8.5 15C8.5 16.7582 9.70249 18.2525 10.8831 19.5554C11.8879 20.6644 12.5 22.1356 12.5 23.75Z" fill="var(--fill-0, #1F1F1F)"/>
<path d="M30 15C30 18.4518 27.2018 21.25 23.75 21.25C20.2982 21.25 17.5 18.4518 17.5 15C17.5 11.5482 20.2982 8.75 23.75 8.75C27.2018 8.75 30 11.5482 30 15Z" fill="var(--fill-0, #1F1F1F)"/>
</g>
</svg>
