<svg preserveAspectRatio="none" width="100%" height="100%" overflow="visible" style="display: block;" viewBox="0 0 30 30" fill="none" xmlns="http://www.w3.org/2000/svg">
<g id="File">
<path d="M17.5 6.25C17.5 9.70178 20.2982 12.5 23.75 12.5C27.2018 12.5 30 9.70178 30 6.25C30 2.79822 27.2018 -1.50882e-07 23.75 0C20.2982 1.50882e-07 17.5 2.79822 17.5 6.25Z" fill="var(--fill-0, #1F1F1F)"/>
<path d="M17.5 23.75C17.5 27.2018 20.2982 30 23.75 30C27.2018 30 30 27.2018 30 23.75C30 20.2982 27.2018 17.5 23.75 17.5C20.2982 17.5 17.5 20.2982 17.5 23.75Z" fill="var(--fill-0, #1F1F1F)"/>
<path d="M0 23.75C1.50882e-07 27.2018 2.79822 30 6.25 30C9.70178 30 12.5 27.2018 12.5 23.75C12.5 22.1356 11.8879 20.6644 10.8831 19.5554C9.70249 18.2525 8.5 16.7582 8.5 15C8.5 13.2418 9.70249 11.7475 10.8831 10.4446C11.8879 9.33564 12.5 7.86438 12.5 6.25C12.5 2.79822 9.70178 6.14067e-07 6.25 7.64949e-07C2.79822 9.15831e-07 -1.50882e-07 2.79822 0 6.25C7.05667e-08 7.86438 0.612135 9.33564 1.61693 10.4446C2.79751 11.7475 4 13.2418 4 15C4 16.7582 2.79751 18.2525 1.61693 19.5554C0.612136 20.6644 -7.05667e-08 22.1356 0 23.75Z" fill="var(--fill-0, #1F1F1F)"/>
</g>
</svg>
