<svg preserveAspectRatio="none" width="100%" height="100%" overflow="visible" style="display: block;" viewBox="0 0 30 30" fill="none" xmlns="http://www.w3.org/2000/svg">
<g id="MCP">
<path d="M19.2641 19.2641C16.9091 21.619 16.9091 25.4372 19.2641 27.7922C21.619 30.1472 25.4372 30.1472 27.7922 27.7922C30.1472 25.4372 30.1472 21.619 27.7922 19.2641C25.4372 16.9091 21.619 16.9091 19.2641 19.2641Z" fill="var(--fill-0, #1F1F1F)"/>
<path d="M2.20779 17.132C-0.735932 20.0758 -0.735931 24.8485 2.20779 27.7922C5.15152 30.7359 9.92424 30.7359 12.868 27.7922C14.2447 26.4154 14.9774 24.6387 15.0662 22.8361C15.1706 20.7181 15.4194 18.4183 16.9188 16.9188C18.4183 15.4194 20.7181 15.1706 22.8361 15.0662C24.6387 14.9774 26.4154 14.2447 27.7922 12.868C30.7359 9.92424 30.7359 5.15152 27.7922 2.20779C24.8485 -0.735931 20.0758 -0.735931 17.132 2.20779C15.7553 3.58456 15.0226 5.36132 14.9338 7.16394C14.8294 9.28191 14.5806 11.5817 13.0812 13.0812C11.5817 14.5806 9.28191 14.8294 7.16394 14.9338C5.36132 15.0226 3.58456 15.7553 2.20779 17.132Z" fill="var(--fill-0, #1F1F1F)"/>
</g>
</svg>
