<svg preserveAspectRatio="none" width="100%" height="100%" overflow="visible" style="display: block;" viewBox="0 0 53.0833 53.0833" fill="none" xmlns="http://www.w3.org/2000/svg">
<g id="Icon">
<rect x="0.541667" y="0.541667" width="52" height="52" rx="13" stroke="var(--stroke-0, #1F1F1F)" stroke-width="1.08333"/>
<path id="Subtract" fill-rule="evenodd" clip-rule="evenodd" d="M39.5417 4.87467C44.328 4.87472 48.2086 8.7553 48.2087 13.5417V39.5417C48.2087 44.3281 44.3281 48.2086 39.5417 48.2087H13.5417C8.7552 48.2087 4.87467 44.3281 4.87467 39.5417V13.5417C4.87476 8.75527 8.75525 4.87467 13.5417 4.87467H39.5417ZM36.8053 30.2809C36.4721 30.1699 36.1113 30.1699 35.778 30.2809L30.903 31.9059C30.5793 32.0137 30.2978 32.221 30.0983 32.4977C29.8989 32.7744 29.7917 33.1069 29.7917 33.4479V36.1637C29.7914 37.9018 30.4324 39.5795 31.5915 40.8747C32.7505 42.1696 34.3466 42.9913 36.0739 43.1833C36.2201 43.1995 36.3649 43.1995 36.5094 43.1833C38.2367 42.9913 39.8328 42.1697 40.9919 40.8747C42.151 39.5795 42.7919 37.9019 42.7917 36.1637V33.4479C42.7917 33.1069 42.6844 32.7744 42.485 32.4977C42.2856 32.221 42.0039 32.0138 41.6803 31.9059L36.8053 30.2809ZM37.3737 10.2917C36.0957 10.2917 34.8586 10.7434 33.8815 11.5671C32.9044 12.3909 32.2499 13.534 32.0339 14.7936C31.8178 16.0532 32.0542 17.3486 32.7008 18.4508C33.3476 19.5531 34.3631 20.3921 35.568 20.818V21.1247C35.568 22.0823 35.1875 23.0003 34.5104 23.6774C33.8333 24.3545 32.9152 24.735 31.9577 24.735H21.1257C19.858 24.733 18.6117 25.0662 17.5143 25.7008V20.818C18.4503 20.4871 19.2782 19.9046 19.9059 19.1354C20.5334 18.3664 20.9373 17.4397 21.0739 16.4567C21.2104 15.4734 21.0737 14.4713 20.6794 13.5602C20.2849 12.6491 19.648 11.8631 18.8376 11.2897C18.0271 10.7164 17.074 10.3769 16.0837 10.3083C15.0934 10.2397 14.1031 10.4451 13.2214 10.901C12.3397 11.3571 11.6 12.0464 11.0837 12.8942C10.5673 13.7421 10.2941 14.7159 10.2936 15.7087C10.2933 16.829 10.6403 17.9217 11.2868 18.8366C11.9334 19.7516 12.8477 20.4443 13.904 20.818V32.2633C12.6989 32.6892 11.6836 33.5282 11.0368 34.6305C10.3901 35.7329 10.1538 37.0281 10.3698 38.2878C10.5858 39.5474 11.2403 40.6905 12.2174 41.5143C13.1945 42.338 14.4317 42.7897 15.7096 42.7897C16.9876 42.7897 18.2247 42.3381 19.2018 41.5143C20.179 40.6905 20.8334 39.5475 21.0495 38.2878C21.2655 37.0282 21.0291 35.7328 20.3825 34.6305C19.7357 33.5282 18.7194 32.6892 17.5143 32.2633V31.9567C17.5143 30.9993 17.8951 30.0811 18.5719 29.404C19.2491 28.7269 20.1681 28.3464 21.1257 28.3464H31.9577C33.8729 28.3463 35.7099 27.5853 37.0641 26.2311C38.4184 24.8768 39.1794 23.0399 39.1794 21.1247V20.818C40.3843 20.3921 41.3998 19.5531 42.0465 18.4508C42.6932 17.3486 42.9296 16.0532 42.7135 14.7936C42.4975 13.5339 41.843 12.3909 40.8659 11.5671C39.8888 10.7433 38.6517 10.2917 37.3737 10.2917Z" fill="var(--fill-0, #1F1F1F)"/>
</g>
</svg>
