<svg preserveAspectRatio="none" width="100%" height="100%" overflow="visible" style="display: block;" viewBox="0 0 53.0833 53.0833" fill="none" xmlns="http://www.w3.org/2000/svg">
<g id="Icon">
<rect x="0.541667" y="0.541667" width="52" height="52" rx="13" stroke="var(--stroke-0, #1F1F1F)" stroke-width="1.08333"/>
<g id="Subtract">
<path d="M26.5417 17.0632C29.0556 17.0632 31.4662 18.0619 33.2438 19.8395C35.0214 21.6171 36.0202 24.0278 36.0202 26.5417C36.0202 26.7572 35.9343 26.9635 35.7819 27.1159C35.6295 27.2682 35.4231 27.3542 35.2077 27.3542C34.9922 27.3541 34.7858 27.2682 34.6335 27.1159C34.4811 26.9635 34.3952 26.7571 34.3952 26.5417C34.3952 25.5103 34.1922 24.4887 33.7975 23.5358C33.4028 22.5831 32.8246 21.7171 32.0954 20.988C31.3662 20.2588 30.5002 19.6805 29.5475 19.2858C28.5947 18.8911 27.573 18.6882 26.5417 18.6882C25.5103 18.6882 24.4887 18.8911 23.5358 19.2858C22.5831 19.6805 21.7171 20.2588 20.988 20.988C20.2588 21.7171 19.6805 22.5831 19.2858 23.5358C18.8911 24.4887 18.6882 25.5103 18.6882 26.5417C18.6854 28.8859 19.1827 31.2038 20.1471 33.3405C21.1116 35.4771 22.5209 37.3838 24.2809 38.9323C24.4425 39.0749 24.5409 39.2758 24.5544 39.4909C24.5678 39.706 24.4958 39.9181 24.3532 40.0798C24.2105 40.2414 24.0088 40.3398 23.7936 40.3532C23.5786 40.3665 23.3672 40.2936 23.2057 40.151C19.4406 36.8279 17.0632 31.961 17.0632 26.5417C17.0632 24.0278 18.0619 21.6171 19.8395 19.8395C21.6171 18.0619 24.0278 17.0632 26.5417 17.0632Z" fill="var(--fill-0, #1F1F1F)"/>
<path d="M26.5417 12.7292C30.205 12.7292 33.7179 14.1847 36.3083 16.7751C38.8986 19.3654 40.3542 22.8784 40.3542 26.5417C40.3542 27.9066 39.8115 29.2152 38.8464 30.1803C37.8812 31.1454 36.5726 31.6882 35.2077 31.6882C34.0065 31.6879 32.8438 31.2616 31.9274 30.485C31.0111 29.7085 30.4001 28.6317 30.2028 27.4469L29.944 25.903C29.6677 24.2391 28.2284 23.0202 26.5417 23.0202C24.5965 23.0202 23.0202 24.5965 23.0202 26.5417C23.02 29.0711 23.8069 31.5377 25.2712 33.6003C26.7353 35.6627 28.8042 37.2193 31.1921 38.0534C31.3904 38.1281 31.5524 38.2774 31.6423 38.4694C31.7319 38.6613 31.7431 38.8807 31.6735 39.0807C31.6037 39.2809 31.4579 39.4461 31.2682 39.5407C31.0786 39.6351 30.8596 39.6522 30.6579 39.5876C27.9515 38.6426 25.6056 36.8791 23.946 34.5417C22.2864 32.2043 21.3951 29.4083 21.3952 26.5417C21.3952 25.1768 21.9379 23.8681 22.903 22.903C23.8681 21.9379 25.1768 21.3952 26.5417 21.3952C27.7432 21.395 28.9061 21.8217 29.8229 22.5983C30.7395 23.3749 31.3511 24.4514 31.5485 25.6364L31.8053 27.1803C31.9396 27.9858 32.3551 28.7179 32.9782 29.2458C33.6012 29.7734 34.3912 30.0631 35.2077 30.0632C37.1528 30.0632 38.7292 28.4868 38.7292 26.5417C38.7292 23.3093 37.4454 20.2091 35.1598 17.9235C32.8742 15.6379 29.774 14.3542 26.5417 14.3542C23.3093 14.3542 20.2091 15.6379 17.9235 17.9235C15.6379 20.2091 14.3542 23.3093 14.3542 26.5417C14.3514 28.9095 14.7528 31.2609 15.5407 33.4938C15.6123 33.6969 15.6004 33.9206 15.5075 34.1149C15.4145 34.3092 15.2477 34.4582 15.0446 34.5299C14.8414 34.6017 14.6179 34.5897 14.4235 34.4967C14.2294 34.4038 14.0802 34.2377 14.0085 34.0348C13.1797 31.69 12.7292 29.1677 12.7292 26.5417C12.7292 22.8784 14.1847 19.3654 16.7751 16.7751C19.3654 14.1847 22.8784 12.7292 26.5417 12.7292Z" fill="var(--fill-0, #1F1F1F)"/>
<path d="M26.5417 25.7292C26.7572 25.7292 26.9635 25.8151 27.1159 25.9674C27.2683 26.1198 27.3542 26.3262 27.3542 26.5417C27.3537 27.6842 27.6029 28.8129 28.0837 29.8493C28.5645 30.8858 29.2657 31.8051 30.1383 32.5426C31.011 33.2802 32.0343 33.8184 33.1364 34.1198C34.2384 34.4211 35.3928 34.4785 36.5192 34.2878C36.7291 34.2578 36.9428 34.311 37.1139 34.4362C37.2851 34.5614 37.4002 34.7495 37.4352 34.9587C37.4701 35.1677 37.4224 35.3823 37.3014 35.5563C37.1804 35.7303 36.9959 35.8502 36.7878 35.8903C35.4284 36.12 34.0345 36.0502 32.7048 35.6862C31.3753 35.3222 30.1412 34.6727 29.0885 33.7829C28.0357 32.8928 27.1892 31.7835 26.609 30.5329C26.029 29.2823 25.7288 27.9202 25.7292 26.5417C25.7292 26.3262 25.8151 26.1198 25.9674 25.9674C26.1198 25.8151 26.3262 25.7292 26.5417 25.7292Z" fill="var(--fill-0, #1F1F1F)"/>
<path fill-rule="evenodd" clip-rule="evenodd" d="M39.5417 4.87565C44.328 4.87583 48.2077 8.75628 48.2077 13.5426V39.5426C48.2075 44.3289 44.3279 48.2085 39.5417 48.2087H13.5417C8.75531 48.2087 4.87485 44.329 4.87467 39.5426V13.5426C4.87467 8.75618 8.7552 4.87565 13.5417 4.87565H39.5417ZM26.5417 10.2917C17.5668 10.2917 10.2917 17.5668 10.2917 26.5417C10.2917 35.5165 17.5668 42.7917 26.5417 42.7917C35.5165 42.7917 42.7917 35.5165 42.7917 26.5417C42.7917 17.5668 35.5165 10.2917 26.5417 10.2917Z" fill="var(--fill-0, #1F1F1F)"/>
</g>
</g>
</svg>
