<svg preserveAspectRatio="none" width="100%" height="100%" overflow="visible" style="display: block;" viewBox="0 0 53.0833 53.0833" fill="none" xmlns="http://www.w3.org/2000/svg">
<g id="Icon">
<rect x="0.541667" y="0.541667" width="52" height="52" rx="13" stroke="var(--stroke-0, #1F1F1F)" stroke-width="1.08333"/>
<g id="Subtract">
<path d="M35.4792 33.4479C36.601 33.4479 37.5104 34.3573 37.5104 35.4792C37.5104 36.601 36.601 37.5104 35.4792 37.5104C34.3573 37.5104 33.4479 36.601 33.4479 35.4792C33.4479 34.3573 34.3573 33.4479 35.4792 33.4479Z" fill="var(--fill-0, #1F1F1F)"/>
<path d="M15.3698 18.6198C15.9307 18.6198 16.3854 19.0745 16.3854 19.6354C16.3854 20.1963 15.9307 20.651 15.3698 20.651C14.8089 20.651 14.3542 20.1963 14.3542 19.6354C14.3542 19.0745 14.8089 18.6198 15.3698 18.6198Z" fill="var(--fill-0, #1F1F1F)"/>
<path d="M19.6354 18.6198C20.1963 18.6198 20.651 19.0745 20.651 19.6354C20.651 20.1963 20.1963 20.651 19.6354 20.651C19.0745 20.651 18.6198 20.1963 18.6198 19.6354C18.6198 19.0745 19.0745 18.6198 19.6354 18.6198Z" fill="var(--fill-0, #1F1F1F)"/>
<path d="M15.3698 14.3542C15.9307 14.3542 16.3854 14.8089 16.3854 15.3698C16.3854 15.9307 15.9307 16.3854 15.3698 16.3854C14.8089 16.3854 14.3542 15.9307 14.3542 15.3698C14.3542 14.8089 14.8089 14.3542 15.3698 14.3542Z" fill="var(--fill-0, #1F1F1F)"/>
<path d="M19.6354 14.3542C20.1963 14.3542 20.651 14.8089 20.651 15.3698C20.651 15.9307 20.1963 16.3854 19.6354 16.3854C19.0745 16.3854 18.6198 15.9307 18.6198 15.3698C18.6198 14.8089 19.0745 14.3542 19.6354 14.3542Z" fill="var(--fill-0, #1F1F1F)"/>
<path fill-rule="evenodd" clip-rule="evenodd" d="M39.5417 4.87467C44.328 4.87472 48.2086 8.7553 48.2087 13.5417V39.5417C48.2087 44.3281 44.3281 48.2086 39.5417 48.2087H13.5417C8.7552 48.2087 4.87467 44.3281 4.87467 39.5417V13.5417C4.87476 8.75527 8.75525 4.87467 13.5417 4.87467H39.5417ZM10.2917 28.3473V39.1803C10.2917 40.1381 10.6721 41.0568 11.3493 41.734C12.0265 42.4113 12.9453 42.7917 13.903 42.7917H24.736V28.3473H10.2917ZM28.3473 28.3473V42.7917H39.1803C40.1381 42.7917 41.0568 42.4113 41.734 41.734C42.4113 41.0568 42.7917 40.1381 42.7917 39.1803V28.3473H28.3473ZM13.903 10.2917C12.9453 10.2917 12.0265 10.6721 11.3493 11.3493C10.6721 12.0265 10.2917 12.9453 10.2917 13.903V24.736H24.736V10.2917H13.903ZM28.3473 10.2917V24.736H42.7917V13.903C42.7917 12.9453 42.4113 12.0265 41.734 11.3493C41.0568 10.6721 40.1381 10.2917 39.1803 10.2917H28.3473Z" fill="var(--fill-0, #1F1F1F)"/>
</g>
</g>
</svg>
