<svg preserveAspectRatio="none" width="100%" height="100%" overflow="visible" style="display: block;" viewBox="0 0 53.0833 53.0833" fill="none" xmlns="http://www.w3.org/2000/svg">
<g id="Icon">
<rect x="0.541667" y="0.541667" width="52" height="52" rx="13" stroke="var(--stroke-0, #1F1F1F)" stroke-width="1.08333"/>
<path id="Subtract" fill-rule="evenodd" clip-rule="evenodd" d="M39.5417 4.87467C44.328 4.87472 48.2086 8.7553 48.2087 13.5417V39.5417C48.2087 44.3281 44.3281 48.2086 39.5417 48.2087H13.5417C8.7552 48.2087 4.87467 44.3281 4.87467 39.5417V13.5417C4.87476 8.75527 8.75525 4.87467 13.5417 4.87467H39.5417ZM21.1012 35.9821C21.4359 37.3551 21.8393 38.6061 22.2975 39.7028C22.785 40.8727 23.316 41.8317 23.862 42.571C25.6361 42.8655 27.4472 42.8655 29.2214 42.571C29.2263 42.5642 29.231 42.5572 29.236 42.5505C27.6791 40.8082 26.747 38.606 26.5719 36.2907C26.5619 36.2907 26.5517 36.2907 26.5417 36.2907C24.665 36.2907 22.8398 36.1836 21.1012 35.9821ZM36.8053 29.8747C36.472 29.7637 36.1113 29.7637 35.778 29.8747L30.903 31.4997C30.5793 31.6075 30.2978 31.8147 30.0983 32.0915C29.8989 32.3682 29.7917 32.7006 29.7917 33.0417V35.7575C29.7914 37.4956 30.4324 39.1732 31.5915 40.4684C32.7505 41.7634 34.3466 42.5851 36.0739 42.777C36.2201 42.7933 36.3648 42.7933 36.5094 42.777C38.2368 42.5851 39.8328 41.7634 40.9919 40.4684C42.151 39.1732 42.7919 37.4956 42.7917 35.7575V33.0417C42.7917 32.7006 42.6844 32.3682 42.485 32.0915C42.2855 31.8147 42.004 31.6075 41.6803 31.4997L36.8053 29.8747ZM11.9567 33.7135C13.545 36.9325 16.1509 39.5384 19.3698 41.1266L19.2965 40.9538C18.6223 39.3355 18.065 37.4717 17.6491 35.4342C15.9801 35.1023 14.341 34.634 12.7487 34.0339L11.9567 33.7135ZM26.5417 20.0426C24.4002 20.0426 22.3561 20.1919 20.4616 20.4616C20.1792 22.4759 20.0394 24.5076 20.0426 26.5417C20.0426 28.6832 20.1919 30.7272 20.4616 32.6217C22.3561 32.8915 24.4002 33.0407 26.5417 33.0407V31.4176C26.5415 30.906 26.7025 30.407 27.0016 29.9919C27.3008 29.5768 27.7232 29.2659 28.2087 29.1042L33.0309 27.4967C33.0375 27.1807 33.0407 26.8622 33.0407 26.5417C33.0407 24.4002 32.8931 22.3561 32.6217 20.4616C30.6074 20.1792 28.5757 20.0394 26.5417 20.0426ZM17.1012 21.1012C15.7283 21.4359 14.4773 21.8393 13.3805 22.2975C12.2107 22.785 11.2517 23.316 10.5124 23.862C10.2179 25.6361 10.2179 27.4472 10.5124 29.2214C11.2533 29.7673 12.2104 30.3003 13.3786 30.7878C14.477 31.2443 15.7282 31.649 17.1012 31.9821C16.8937 30.1762 16.7908 28.3594 16.7926 26.5417C16.7926 24.665 16.8998 22.8398 17.1012 21.1012ZM35.9821 21.1012C36.1836 22.8398 36.2907 24.665 36.2907 26.5417C36.5511 26.5416 36.8119 26.5833 37.0622 26.6667L42.6696 28.5358C42.8604 26.9824 42.8277 25.4082 42.571 23.862C41.8317 23.316 40.8727 22.785 39.7028 22.2975C38.4952 21.8036 37.2513 21.4033 35.9821 21.1012ZM19.3708 11.9557C16.1521 13.544 13.5469 16.1491 11.9587 19.3678L12.1305 19.2946C13.7485 18.6204 15.612 18.0631 17.6491 17.6471C17.9813 15.978 18.4509 14.3391 19.0514 12.7467L19.3708 11.9557ZM34.0358 12.7448C34.6361 14.3377 35.1043 15.9775 35.4362 17.6471C37.4737 18.0631 39.3374 18.6193 40.9557 19.2936L41.1276 19.3659C39.5393 16.1472 36.9342 13.542 33.7155 11.9538L34.0358 12.7448ZM29.2214 10.5124C27.4472 10.2179 25.6361 10.2179 23.862 10.5124C23.3161 11.2533 22.7833 12.2104 22.2975 13.3786C21.8393 14.477 21.436 15.7282 21.1012 17.1012C22.8398 16.8998 24.665 16.7926 26.5417 16.7926C28.4184 16.7926 30.2435 16.8998 31.9821 17.1012C31.6806 15.8321 31.2812 14.5881 30.7878 13.3805C30.3003 12.2107 29.7673 11.2517 29.2214 10.5124Z" fill="var(--fill-0, #1F1F1F)"/>
</g>
</svg>
