<svg preserveAspectRatio="none" width="100%" height="100%" overflow="visible" style="display: block;" viewBox="0 0 53.0833 53.0833" fill="none" xmlns="http://www.w3.org/2000/svg">
<g id="Icon">
<rect x="0.541667" y="0.541667" width="52" height="52" rx="13" stroke="var(--stroke-0, #1F1F1F)" stroke-width="1.08333"/>
<path id="Subtract" fill-rule="evenodd" clip-rule="evenodd" d="M39.5417 4.87467C44.328 4.87472 48.2086 8.7553 48.2087 13.5417V39.5417C48.2087 44.3281 44.3281 48.2086 39.5417 48.2087H13.5417C8.7552 48.2087 4.87467 44.3281 4.87467 39.5417V13.5417C4.87476 8.75527 8.75525 4.87467 13.5417 4.87467H39.5417ZM26.5417 10.2917C25.2626 10.2898 24.0241 10.7404 23.0456 11.5641C22.0672 12.3877 21.4123 13.5312 21.196 14.7917C20.9797 16.0522 21.216 17.3492 21.8639 18.4518C22.512 19.5545 23.5295 20.3926 24.736 20.8171V24.734H19.32C17.8837 24.7341 16.5065 25.3054 15.4909 26.321C14.4752 27.3367 13.904 28.7146 13.904 30.151V32.2624C12.6989 32.6883 11.6836 33.5272 11.0368 34.6296C10.3901 35.7319 10.1538 37.0272 10.3698 38.2868C10.5858 39.5465 11.2403 40.6895 12.2174 41.5133C13.1946 42.3371 14.4316 42.7887 15.7096 42.7887C16.9877 42.7887 18.2247 42.3371 19.2018 41.5133C20.179 40.6895 20.8334 39.5465 21.0495 38.2868C21.2655 37.0272 21.0292 35.7318 20.3825 34.6296C19.7357 33.5273 18.7203 32.6883 17.5153 32.2624V30.151C17.5153 29.6722 17.7051 29.2123 18.0436 28.8737C18.3821 28.5353 18.8413 28.3454 19.32 28.3454H33.7633C34.242 28.3454 34.7012 28.5353 35.0397 28.8737C35.3783 29.2123 35.568 29.6722 35.568 30.151V32.2624C34.3631 32.6883 33.3476 33.5273 32.7008 34.6296C32.0542 35.7318 31.8178 37.0272 32.0339 38.2868C32.2499 39.5465 32.9043 40.6895 33.8815 41.5133C34.8586 42.3371 36.0956 42.7887 37.3737 42.7887C38.6517 42.7887 39.8887 42.3371 40.8659 41.5133C41.843 40.6895 42.4975 39.5465 42.7135 38.2868C42.9296 37.0272 42.6933 35.7319 42.0465 34.6296C41.3998 33.5272 40.3844 32.6883 39.1794 32.2624V30.151C39.1794 28.7146 38.6082 27.3367 37.5924 26.321C36.5768 25.3054 35.1996 24.7341 33.7633 24.734H28.3473V20.8171C29.5517 20.3907 30.5663 19.552 31.2126 18.4499C31.8588 17.3477 32.0946 16.0529 31.8786 14.7936C31.6626 13.5344 31.0085 12.3918 30.0319 11.568C29.0553 10.7444 27.8192 10.2923 26.5417 10.2917Z" fill="var(--fill-0, #1F1F1F)"/>
</g>
</svg>
