<svg preserveAspectRatio="none" width="100%" height="100%" overflow="visible" style="display: block;" viewBox="0 0 210.527 121.971" fill="none" xmlns="http://www.w3.org/2000/svg">
<g id="base-face">
<path d="M94.8713 2.98528C100.611 -0.328427 109.916 -0.328427 115.656 2.98528L205.723 54.9853C211.462 58.299 211.462 63.6716 205.723 66.9853L115.656 118.985C109.916 122.299 100.611 122.299 94.8713 118.985L4.80463 66.9853C-0.934878 63.6716 -0.934878 58.299 4.80463 54.9853L94.8713 2.98528Z" fill="var(--fill-0, white)"/>
<path d="M94.8713 2.98528C100.611 -0.328427 109.916 -0.328427 115.656 2.98528L205.723 54.9853C211.462 58.299 211.462 63.6716 205.723 66.9853L115.656 118.985C109.916 122.299 100.611 122.299 94.8713 118.985L4.80463 66.9853C-0.934878 63.6716 -0.934878 58.299 4.80463 54.9853L94.8713 2.98528Z" fill="url(#paint0_linear_0_20)"/>
<path d="M94.8713 2.98528C100.611 -0.328427 109.916 -0.328427 115.656 2.98528L205.723 54.9853C211.462 58.299 211.462 63.6716 205.723 66.9853L115.656 118.985C109.916 122.299 100.611 122.299 94.8713 118.985L4.80463 66.9853C-0.934878 63.6716 -0.934878 58.299 4.80463 54.9853L94.8713 2.98528Z" stroke="var(--stroke-0, #1F1F1F)"/>
</g>
<defs>
<linearGradient id="paint0_linear_0_20" x1="105.264" y1="0.5" x2="105.264" y2="121.471" gradientUnits="userSpaceOnUse">
<stop stop-color="#1F1F1F" stop-opacity="0.1"/>
<stop offset="1" stop-color="#F4F4F4" stop-opacity="0.1"/>
</linearGradient>
</defs>
</svg>
