<svg preserveAspectRatio="none" width="100%" height="100%" overflow="visible" style="display: block;" viewBox="0 0 83.9644 53.8995" fill="none" xmlns="http://www.w3.org/2000/svg">
<g id="Group">
<g id="Vector">
<path d="M35.92 1.94975C39.2681 0.0167505 44.6963 0.0167512 48.0444 1.94975L80.9533 20.9497C84.3014 22.8827 84.3014 26.0168 80.9533 27.9497L48.0444 46.9497C44.6963 48.8827 39.2681 48.8827 35.92 46.9497L3.01104 27.9497C-0.337013 26.0168 -0.337011 22.8827 3.01104 20.9497L35.92 1.94975Z" fill="white"/>
<path d="M35.92 1.94975C39.2681 0.0167505 44.6963 0.0167512 48.0444 1.94975L80.9533 20.9497C84.3014 22.8827 84.3014 26.0168 80.9533 27.9497L48.0444 46.9497C44.6963 48.8827 39.2681 48.8827 35.92 46.9497L3.01104 27.9497C-0.337013 26.0168 -0.337011 22.8827 3.01104 20.9497L35.92 1.94975Z" fill="url(#paint0_linear_0_11)"/>
<path d="M3.01104 27.9497L35.92 46.9497V51.9497L3.01104 32.9497L3.01104 27.9497Z" fill="url(#paint1_linear_0_11)"/>
<path d="M48.0444 46.9497L80.9533 27.9497L80.9533 32.9497L48.0444 51.9497L48.0444 46.9497Z" fill="url(#paint2_linear_0_11)"/>
<path d="M0.500001 24.4497C0.500001 25.8166 1.45959 27.054 3.01104 27.9497L3.01104 32.9497C1.45959 32.054 0.500001 30.8166 0.500001 29.4497V24.4497Z" fill="url(#paint3_linear_0_11)"/>
<path d="M35.92 46.9497C39.2681 48.8827 44.6963 48.8827 48.0444 46.9497L48.0444 51.9497C44.6963 53.8827 39.2681 53.8827 35.92 51.9497V46.9497Z" fill="url(#paint4_linear_0_11)"/>
<path d="M83.4644 24.4497C83.4644 25.8166 82.5048 27.054 80.9533 27.9497L80.9533 32.9497C82.5048 32.054 83.4644 30.8166 83.4644 29.4497V24.4497Z" fill="url(#paint5_linear_0_11)"/>
<path d="M3.01104 27.9497L35.92 46.9497M3.01104 27.9497C-0.337013 26.0168 -0.337011 22.8827 3.01104 20.9497L35.92 1.94975C39.2681 0.0167505 44.6963 0.0167512 48.0444 1.94975L80.9533 20.9497C84.3014 22.8827 84.3014 26.0168 80.9533 27.9497M3.01104 27.9497L3.01104 32.9497M3.01104 27.9497C1.45959 27.054 0.500001 25.8166 0.500001 24.4497V29.4497C0.500001 30.8166 1.45959 32.054 3.01104 32.9497M48.0444 46.9497L80.9533 27.9497M48.0444 46.9497C44.6963 48.8827 39.2681 48.8827 35.92 46.9497M48.0444 46.9497L48.0444 51.9497M35.92 46.9497V51.9497M80.9533 27.9497L80.9533 32.9497M80.9533 27.9497C82.5048 27.054 83.4644 25.8166 83.4644 24.4497V29.4497C83.4644 30.8166 82.5048 32.054 80.9533 32.9497M35.92 51.9497L3.01104 32.9497M35.92 51.9497C39.2681 53.8827 44.6963 53.8827 48.0444 51.9497M80.9533 32.9497L48.0444 51.9497" stroke="var(--stroke-0, #1F1F1F)"/>
</g>
<g id="Vector_2">
<path d="M32.8889 24.9663C32.9133 24.9792 32.9371 24.9925 32.9617 25.0054C32.9894 25.0199 33.0165 25.0349 33.0445 25.0493L33.0437 25.0459C33.2835 25.1692 33.5308 25.2876 33.7862 25.4004L33.7871 25.4028C33.8114 25.4135 33.8362 25.4239 33.8607 25.4346C33.899 25.4512 33.9387 25.4669 33.9774 25.4834C34.0848 25.529 34.193 25.574 34.303 25.6177C34.3531 25.6376 34.4029 25.6577 34.4535 25.6772C34.4795 25.6872 34.5053 25.6976 34.5313 25.7075L34.5305 25.7051C34.7728 25.7971 35.0205 25.8846 35.2739 25.9673L35.2747 25.9687C35.3029 25.9779 35.3318 25.9865 35.3601 25.9956C35.424 26.0161 35.4876 26.0368 35.5521 26.0566C35.7035 26.1033 35.8563 26.1487 36.0113 26.1919C36.256 26.26 36.5061 26.3221 36.759 26.3813L36.7598 26.3828C37.0039 26.4399 37.2528 26.4934 37.5041 26.542L37.5032 26.5395C37.7477 26.5868 37.995 26.6305 38.2458 26.6694L38.2466 26.6709C38.2694 26.6744 38.2923 26.6777 38.3151 26.6811C38.3612 26.6881 38.4075 26.6949 38.4538 26.7017C38.5079 26.7095 38.5618 26.7177 38.6162 26.7251L38.9892 26.7725C39.2338 26.8015 39.4813 26.8253 39.7309 26.8462L39.7317 26.8476C39.8958 26.8614 40.0612 26.8728 40.2273 26.8828C40.2611 26.8849 40.2949 26.8868 40.3288 26.8887C40.3774 26.8914 40.4264 26.8946 40.4751 26.897L40.4743 26.8955C40.7202 26.9077 40.968 26.9153 41.2176 26.9194L41.2185 26.9219C41.3415 26.9239 41.465 26.9248 41.5889 26.9248C41.7131 26.9248 41.8377 26.9239 41.961 26.9219L41.9602 26.9184L42.2511 26.9145C42.4027 26.9101 42.5534 26.9029 42.7036 26.8955L42.7044 26.897C42.7378 26.8953 42.771 26.8929 42.8042 26.8911C42.8469 26.8888 42.8894 26.8863 42.9319 26.8838C43.1045 26.8735 43.2766 26.8624 43.447 26.8481C43.6974 26.8272 43.944 26.8001 44.1895 26.771L44.1904 26.7725C44.3348 26.7553 44.4782 26.7362 44.6209 26.7163C44.6443 26.713 44.6676 26.7094 44.6911 26.706C44.772 26.6945 44.8535 26.6838 44.9338 26.6714L44.9329 26.6689C45.1832 26.6301 45.4306 26.5877 45.6746 26.5405L45.6755 26.542C45.703 26.5367 45.7309 26.5308 45.7584 26.5254C45.7847 26.5202 45.8108 26.5146 45.837 26.5093C45.9809 26.4802 46.1235 26.4494 46.265 26.4175C46.3027 26.409 46.3407 26.4008 46.3783 26.3921C46.3917 26.389 46.4055 26.3864 46.4189 26.3833C46.6712 26.3242 46.9174 26.2588 47.1614 26.1909L47.1623 26.1934C47.2253 26.1758 47.2876 26.1568 47.35 26.1387C47.3805 26.1298 47.4111 26.1213 47.4414 26.1123C47.5977 26.066 47.7532 26.019 47.9057 25.9692C48.1592 25.8866 48.4049 25.7972 48.6474 25.7051L48.6482 25.7075C48.7148 25.6822 48.7795 25.6549 48.8453 25.6289C48.8774 25.6162 48.9098 25.6037 48.9417 25.5908C49.0755 25.5368 49.2075 25.4816 49.3375 25.4248C49.352 25.4185 49.367 25.4126 49.3815 25.4062C49.3844 25.405 49.3879 25.4041 49.3908 25.4028C49.6462 25.2901 49.8926 25.1711 50.1325 25.0478C50.1431 25.0424 50.154 25.0367 50.1646 25.0312C50.2134 25.006 50.262 24.9807 50.3101 24.9551C52.1224 26.1395 53.2244 27.6947 53.2244 29.3994C53.2244 33.1094 48.0156 36.1167 41.5898 36.1167C35.1639 36.1167 29.9551 33.1094 29.9551 29.3994C29.9551 27.6949 31.0558 26.1395 32.8678 24.9551C32.8748 24.9588 32.8819 24.9626 32.8889 24.9663Z" fill="var(--fill-0, #1F1F1F)"/>
<path d="M49.3891 24.4155C49.4107 24.4268 49.4319 24.4383 49.4533 24.4497C49.4322 24.4609 49.4112 24.4723 49.3899 24.4834L49.3891 24.4155Z" fill="var(--fill-0, #1F1F1F)"/>
<path d="M29.9551 19.5C29.9551 15.79 35.1639 12.7827 41.5898 12.7827C48.0156 12.7827 53.2244 15.79 53.2244 19.5C53.2244 21.2049 52.1212 22.7598 50.3084 23.9443C50.26 23.9185 50.212 23.8925 50.1629 23.8672C50.1529 23.862 50.1434 23.8562 50.1333 23.8511L50.1325 23.8525C49.8926 23.7293 49.6454 23.6108 49.3899 23.498L49.3908 23.4966C49.3728 23.4886 49.3538 23.4815 49.3358 23.4736C49.2833 23.4507 49.2299 23.4287 49.1768 23.4062C49.0771 23.3641 48.9768 23.3223 48.8749 23.2817C48.8248 23.2618 48.7749 23.2417 48.7243 23.2222C48.6988 23.2123 48.6738 23.2016 48.6482 23.1919L48.6474 23.1943C48.4054 23.1024 48.1578 23.0151 47.9048 22.9326L47.9057 22.9302C47.8673 22.9176 47.8276 22.9064 47.789 22.894C47.7384 22.8779 47.6877 22.8619 47.6367 22.8462C47.6034 22.8359 47.5705 22.8251 47.5369 22.8149L47.1623 22.706C46.9189 22.6384 46.6696 22.5774 46.418 22.5185L46.4189 22.5161C46.175 22.459 45.9266 22.406 45.6755 22.3574L45.6746 22.3599C45.4303 22.3126 45.1835 22.2683 44.9329 22.2295L44.9338 22.228C44.9033 22.2233 44.8722 22.2194 44.8416 22.2148C44.8011 22.2087 44.7604 22.2031 44.7198 22.1973C44.668 22.1898 44.6163 22.1819 44.5642 22.1748L44.1904 22.1269C43.9448 22.0978 43.6966 22.0736 43.4461 22.0527L43.447 22.0513C43.2832 22.0376 43.118 22.0266 42.9522 22.0166C42.9168 22.0144 42.8812 22.0127 42.8457 22.0107C42.7986 22.0081 42.7516 22.0048 42.7044 22.0024L42.7036 22.0039C42.4577 21.9917 42.2099 21.9841 41.9602 21.98L41.961 21.9775C41.8377 21.9755 41.7131 21.9746 41.5889 21.9746C41.465 21.9746 41.3415 21.9755 41.2185 21.9775L41.2176 21.98C40.968 21.9841 40.7202 21.9917 40.4743 22.0039L40.4751 22.0024C40.4264 22.0048 40.3773 22.008 40.3288 22.0107C40.2949 22.0126 40.2611 22.0145 40.2273 22.0166C40.0612 22.0266 39.8958 22.038 39.7317 22.0518L39.7309 22.0532C39.4689 22.0751 39.2093 22.1005 38.9528 22.1313C38.7852 22.1515 38.6189 22.1739 38.4538 22.1977C38.4075 22.2045 38.3612 22.2113 38.3151 22.2183C38.2923 22.2217 38.2694 22.225 38.2466 22.2285L38.2458 22.23C37.995 22.2689 37.7477 22.3126 37.5032 22.3599L37.5041 22.3574C37.2528 22.406 37.0039 22.4595 36.7598 22.5166L36.759 22.5181C36.5061 22.5773 36.256 22.6394 36.0113 22.7075C35.8563 22.7507 35.7035 22.7961 35.5521 22.8428C35.4876 22.8626 35.424 22.8833 35.3601 22.9038C35.3318 22.9129 35.3029 22.9215 35.2747 22.9307L35.2739 22.9321C35.0205 23.0148 34.7728 23.1023 34.5305 23.1943L34.5313 23.1919C34.5053 23.2018 34.4795 23.2122 34.4535 23.2222C34.4029 23.2417 34.3531 23.2618 34.303 23.2817C34.193 23.3254 34.0848 23.3704 33.9774 23.416C33.9387 23.4324 33.899 23.4482 33.8607 23.4648C33.8362 23.4755 33.8114 23.4859 33.7871 23.4966L33.7862 23.499C33.5308 23.6118 33.2835 23.7302 33.0437 23.8535L33.0445 23.8501C33.0141 23.8657 32.9842 23.8817 32.954 23.8975C32.9425 23.9035 32.9317 23.91 32.9202 23.916C32.9025 23.9253 32.8854 23.9349 32.8678 23.9443C31.0558 22.7599 29.9551 21.2045 29.9551 19.5Z" fill="var(--fill-0, #1F1F1F)"/>
<path d="M47.904 23.7593C48.1586 23.8545 48.407 23.9545 48.6474 24.0605V24.8389C48.4073 24.9448 48.1591 25.0445 47.9048 25.1396L47.904 23.7593Z" fill="var(--fill-0, #1F1F1F)"/>
<path d="M46.418 23.2881C46.6705 23.3547 46.9191 23.425 47.1614 23.5015V25.3979C46.9191 25.4744 46.6705 25.5447 46.418 25.6113V23.2881Z" fill="var(--fill-0, #1F1F1F)"/>
<path d="M44.9329 22.9648C45.1838 23.0082 45.4312 23.0562 45.6746 23.1089V25.7905C45.4312 25.8432 45.1838 25.8912 44.9329 25.9346V22.9648Z" fill="var(--fill-0, #1F1F1F)"/>
<path d="M43.4461 22.7685C43.6968 22.7918 43.9445 22.8197 44.1895 22.852V26.0474C43.9445 26.0797 43.6968 26.1076 43.4461 26.1309V22.7685Z" fill="var(--fill-0, #1F1F1F)"/>
<path d="M41.9594 22.6875C42.2095 22.692 42.4576 22.7004 42.7036 22.7139V26.1855C42.4579 26.199 42.2101 26.2069 41.9602 26.2114L41.9594 22.6875Z" fill="var(--fill-0, #1F1F1F)"/>
<path d="M40.4743 22.7139C40.7197 22.7004 40.9672 22.692 41.2168 22.6875L41.2176 26.2114C40.9678 26.2069 40.7199 26.199 40.4743 26.1855V22.7139Z" fill="var(--fill-0, #1F1F1F)"/>
<path d="M38.9883 22.852C39.2331 22.8198 39.4805 22.7913 39.7309 22.7681V26.1313C39.4805 26.1081 39.2331 26.0796 38.9883 26.0474V22.852Z" fill="var(--fill-0, #1F1F1F)"/>
<path d="M37.5032 23.1089C37.747 23.0561 37.9945 23.0078 38.2458 22.9643V25.9351C37.9945 25.8916 37.747 25.8433 37.5032 25.7905V23.1089Z" fill="var(--fill-0, #1F1F1F)"/>
<path d="M36.0164 23.5015C36.2584 23.4251 36.5069 23.3551 36.759 23.2886V25.6108C36.5069 25.5443 36.2584 25.4743 36.0164 25.3979V23.5015Z" fill="var(--fill-0, #1F1F1F)"/>
<path d="M34.5296 24.061C34.7703 23.9548 35.019 23.8546 35.2739 23.7593V25.1401C35.0193 25.0449 34.7708 24.945 34.5305 24.8389L34.5296 24.061Z" fill="var(--fill-0, #1F1F1F)"/>
<path d="M33.7245 24.4497C33.7448 24.4389 33.765 24.4281 33.7854 24.4175L33.7862 24.4824C33.7655 24.4716 33.7451 24.4606 33.7245 24.4497Z" fill="var(--fill-0, #1F1F1F)"/>
<path fill-rule="evenodd" clip-rule="evenodd" d="M34.6616 8.4497C38.4879 6.24056 44.6916 6.24056 48.518 8.4497L69.3026 20.4497C73.1289 22.6588 73.1289 26.2406 69.3026 28.4497L48.518 40.4497C44.6916 42.6588 38.4879 42.6588 34.6616 40.4497L13.877 28.4497C10.0506 26.2406 10.0506 22.6588 13.877 20.4497L34.6616 8.4497ZM41.5898 12.0757C34.7096 12.0757 29.0912 15.1948 28.7465 19.1177L28.7305 19.5C28.7305 21.4018 29.9693 23.1361 32.006 24.4497C29.9693 25.7633 28.7305 27.4976 28.7305 29.3994C28.7305 33.4999 34.4875 36.8237 41.5898 36.8237C48.692 36.8237 54.4491 33.4999 54.4491 29.3994C54.449 27.4974 53.209 25.7634 51.1719 24.4497C53.0718 23.2245 54.2784 21.6337 54.4321 19.8818L54.4491 19.5C54.4491 15.5276 49.046 12.2842 42.2511 12.0854L41.5898 12.0757Z" fill="var(--fill-0, #1F1F1F)"/>
</g>
</g>
<defs>
<linearGradient id="paint0_linear_0_11" x1="64.4987" y1="12.5927" x2="38.4655" y2="53.4215" gradientUnits="userSpaceOnUse">
<stop stop-color="#1F1F1F" stop-opacity="0.1"/>
<stop offset="1" stop-color="#F0F0F0" stop-opacity="0.1"/>
</linearGradient>
<linearGradient id="paint1_linear_0_11" x1="0.493077" y1="6.01256" x2="83.464" y2="6.01256" gradientUnits="userSpaceOnUse">
<stop stop-color="#F0F0F0"/>
<stop offset="0.8" stop-color="#1F1F1F"/>
</linearGradient>
<linearGradient id="paint2_linear_0_11" x1="0.493077" y1="47.898" x2="83.464" y2="47.898" gradientUnits="userSpaceOnUse">
<stop stop-color="#F0F0F0"/>
<stop offset="0.8" stop-color="#1F1F1F"/>
</linearGradient>
<linearGradient id="paint3_linear_0_11" x1="0.489351" y1="26.9763" x2="83.4603" y2="26.9763" gradientUnits="userSpaceOnUse">
<stop stop-color="#1F1F1F"/>
<stop offset="1" stop-color="#F0F0F0"/>
</linearGradient>
<linearGradient id="paint4_linear_0_11" x1="0.493385" y1="26.9763" x2="83.4644" y2="26.9763" gradientUnits="userSpaceOnUse">
<stop stop-color="#1F1F1F"/>
<stop offset="1" stop-color="#F0F0F0"/>
</linearGradient>
<linearGradient id="paint5_linear_0_11" x1="80.9531" y1="28.704" x2="83.4643" y2="28.704" gradientUnits="userSpaceOnUse">
<stop stop-color="#1F1F1F"/>
<stop offset="1" stop-color="#F0F0F0"/>
</linearGradient>
</defs>
</svg>
