<svg preserveAspectRatio="none" width="100%" height="100%" overflow="visible" style="display: block;" viewBox="0 0 83.9644 53.8995" fill="none" xmlns="http://www.w3.org/2000/svg">
<g id="Group">
<g id="Vector">
<path d="M35.92 1.94975C39.2681 0.0167505 44.6963 0.0167512 48.0444 1.94975L80.9533 20.9497C84.3014 22.8827 84.3014 26.0168 80.9533 27.9497L48.0444 46.9497C44.6963 48.8827 39.268 48.8827 35.92 46.9497L3.01104 27.9497C-0.337013 26.0168 -0.337011 22.8827 3.01104 20.9497L35.92 1.94975Z" fill="white"/>
<path d="M35.92 1.94975C39.2681 0.0167505 44.6963 0.0167512 48.0444 1.94975L80.9533 20.9497C84.3014 22.8827 84.3014 26.0168 80.9533 27.9497L48.0444 46.9497C44.6963 48.8827 39.268 48.8827 35.92 46.9497L3.01104 27.9497C-0.337013 26.0168 -0.337011 22.8827 3.01104 20.9497L35.92 1.94975Z" fill="url(#paint0_linear_0_7)"/>
<path d="M3.01104 27.9497L35.92 46.9497V51.9497L3.01104 32.9497L3.01104 27.9497Z" fill="url(#paint1_linear_0_7)"/>
<path d="M48.0444 46.9497L80.9533 27.9497V32.9497L48.0444 51.9497V46.9497Z" fill="url(#paint2_linear_0_7)"/>
<path d="M0.500002 24.4497C0.500002 25.8166 1.45959 27.054 3.01104 27.9497L3.01104 32.9497C1.45959 32.054 0.500002 30.8166 0.500002 29.4497V24.4497Z" fill="url(#paint3_linear_0_7)"/>
<path d="M35.92 46.9497C39.268 48.8827 44.6963 48.8827 48.0444 46.9497V51.9497C44.6963 53.8827 39.268 53.8827 35.92 51.9497V46.9497Z" fill="url(#paint4_linear_0_7)"/>
<path d="M83.4644 24.4497C83.4644 25.8166 82.5048 27.054 80.9533 27.9497V32.9497C82.5048 32.054 83.4644 30.8166 83.4644 29.4497V24.4497Z" fill="url(#paint5_linear_0_7)"/>
<path d="M3.01104 27.9497L35.92 46.9497M3.01104 27.9497C-0.337013 26.0168 -0.337011 22.8827 3.01104 20.9497L35.92 1.94975C39.2681 0.0167505 44.6963 0.0167512 48.0444 1.94975L80.9533 20.9497C84.3014 22.8827 84.3014 26.0168 80.9533 27.9497M3.01104 27.9497L3.01104 32.9497M3.01104 27.9497C1.45959 27.054 0.500002 25.8166 0.500002 24.4497V29.4497C0.500002 30.8166 1.45959 32.054 3.01104 32.9497M48.0444 46.9497L80.9533 27.9497M48.0444 46.9497C44.6963 48.8827 39.268 48.8827 35.92 46.9497M48.0444 46.9497V51.9497M35.92 46.9497V51.9497M80.9533 27.9497V32.9497M80.9533 27.9497C82.5048 27.054 83.4644 25.8166 83.4644 24.4497V29.4497C83.4644 30.8166 82.5048 32.054 80.9533 32.9497M35.92 51.9497L3.01104 32.9497M35.92 51.9497C39.268 53.8827 44.6963 53.8827 48.0444 51.9497M80.9533 32.9497L48.0444 51.9497" stroke="var(--stroke-0, #1F1F1F)"/>
</g>
<g id="Vector_2">
<path d="M50.2475 19.4512L49.8982 25.0015L46.9838 25.063L47.2282 21.1943L40.5275 21.3354L40.6341 19.6528L50.2475 19.4512Z" fill="var(--fill-0, #1F1F1F)"/>
<path fill-rule="evenodd" clip-rule="evenodd" d="M34.6616 8.4497C38.4879 6.24056 44.6916 6.24056 48.518 8.4497L69.3026 20.4497C73.1289 22.6588 73.1289 26.2406 69.3026 28.4497L48.518 40.4497C44.6916 42.6588 38.4879 42.6588 34.6616 40.4497L13.877 28.4497C10.0506 26.2406 10.0506 22.6588 13.877 20.4497L34.6616 8.4497ZM36.3479 21.4233L29.2531 21.5723L28.5994 31.9497L44.4839 31.6157L44.6361 29.2026L32.9321 29.4482L33.2813 23.8979L42.8956 23.6958L42.8042 25.1509L38.1933 25.2476L38.0419 27.6611L53.9264 27.3271L54.5801 16.9497L36.6059 17.3271L36.3479 21.4233Z" fill="var(--fill-0, #1F1F1F)"/>
</g>
</g>
<defs>
<linearGradient id="paint0_linear_0_7" x1="64.4987" y1="12.5927" x2="38.4655" y2="53.4215" gradientUnits="userSpaceOnUse">
<stop stop-color="#1F1F1F" stop-opacity="0.1"/>
<stop offset="1" stop-color="#F0F0F0" stop-opacity="0.1"/>
</linearGradient>
<linearGradient id="paint1_linear_0_7" x1="0.493077" y1="6.01256" x2="83.4641" y2="6.01256" gradientUnits="userSpaceOnUse">
<stop stop-color="#F0F0F0"/>
<stop offset="0.8" stop-color="#1F1F1F"/>
</linearGradient>
<linearGradient id="paint2_linear_0_7" x1="0.493077" y1="47.898" x2="83.4641" y2="47.898" gradientUnits="userSpaceOnUse">
<stop stop-color="#F0F0F0"/>
<stop offset="0.8" stop-color="#1F1F1F"/>
</linearGradient>
<linearGradient id="paint3_linear_0_7" x1="80.9529" y1="28.704" x2="83.4642" y2="28.704" gradientUnits="userSpaceOnUse">
<stop stop-color="#1F1F1F"/>
<stop offset="1" stop-color="#F0F0F0"/>
</linearGradient>
<linearGradient id="paint4_linear_0_7" x1="0.493384" y1="26.9763" x2="83.4644" y2="26.9763" gradientUnits="userSpaceOnUse">
<stop stop-color="#1F1F1F"/>
<stop offset="1" stop-color="#F0F0F0"/>
</linearGradient>
<linearGradient id="paint5_linear_0_7" x1="80.9529" y1="28.704" x2="83.4642" y2="28.704" gradientUnits="userSpaceOnUse">
<stop stop-color="#1F1F1F"/>
<stop offset="1" stop-color="#F0F0F0"/>
</linearGradient>
</defs>
</svg>
