<svg preserveAspectRatio="none" width="100%" height="100%" overflow="visible" style="display: block;" viewBox="0 0 83.9644 53.8995" fill="none" xmlns="http://www.w3.org/2000/svg">
<g id="Group">
<g id="Vector">
<path d="M35.92 1.94975C39.2681 0.0167505 44.6963 0.0167512 48.0444 1.94975L80.9533 20.9497C84.3014 22.8827 84.3014 26.0168 80.9533 27.9497L48.0444 46.9497C44.6963 48.8827 39.2681 48.8827 35.92 46.9497L3.01104 27.9497C-0.337012 26.0168 -0.337012 22.8827 3.01104 20.9497L35.92 1.94975Z" fill="white"/>
<path d="M35.92 1.94975C39.2681 0.0167505 44.6963 0.0167512 48.0444 1.94975L80.9533 20.9497C84.3014 22.8827 84.3014 26.0168 80.9533 27.9497L48.0444 46.9497C44.6963 48.8827 39.2681 48.8827 35.92 46.9497L3.01104 27.9497C-0.337012 26.0168 -0.337012 22.8827 3.01104 20.9497L35.92 1.94975Z" fill="url(#paint0_linear_0_14)"/>
<path d="M3.01104 27.9497L35.92 46.9497V51.9497L3.01104 32.9497L3.01104 27.9497Z" fill="url(#paint1_linear_0_14)"/>
<path d="M48.0444 46.9497L80.9533 27.9497V32.9497L48.0444 51.9497V46.9497Z" fill="url(#paint2_linear_0_14)"/>
<path d="M0.500001 24.4497C0.500001 25.8166 1.45959 27.054 3.01104 27.9497L3.01104 32.9497C1.45959 32.054 0.500001 30.8166 0.500001 29.4497V24.4497Z" fill="url(#paint3_linear_0_14)"/>
<path d="M35.92 46.9497C39.2681 48.8827 44.6963 48.8827 48.0444 46.9497V51.9497C44.6963 53.8827 39.2681 53.8827 35.92 51.9497V46.9497Z" fill="url(#paint4_linear_0_14)"/>
<path d="M83.4644 24.4497C83.4644 25.8166 82.5048 27.054 80.9533 27.9497V32.9497C82.5048 32.054 83.4644 30.8166 83.4644 29.4497V24.4497Z" fill="url(#paint5_linear_0_14)"/>
<path d="M80.9533 27.9497C84.3014 26.0168 84.3014 22.8827 80.9533 20.9497L48.0444 1.94975C44.6963 0.0167512 39.2681 0.0167505 35.92 1.94975L3.01104 20.9497C-0.337012 22.8827 -0.337012 26.0168 3.01104 27.9497M80.9533 27.9497L48.0444 46.9497M80.9533 27.9497V32.9497M80.9533 27.9497C82.5048 27.054 83.4644 25.8166 83.4644 24.4497V29.4497C83.4644 30.8166 82.5048 32.054 80.9533 32.9497M48.0444 46.9497C44.6963 48.8827 39.2681 48.8827 35.92 46.9497M48.0444 46.9497V51.9497M35.92 46.9497L3.01104 27.9497M35.92 46.9497V51.9497M3.01104 27.9497L3.01104 32.9497M3.01104 27.9497C1.45959 27.054 0.500001 25.8166 0.500001 24.4497V29.4497C0.500001 30.8166 1.45959 32.054 3.01104 32.9497M35.92 51.9497L3.01104 32.9497M35.92 51.9497C39.2681 53.8827 44.6963 53.8827 48.0444 51.9497M80.9533 32.9497L48.0444 51.9497" stroke="var(--stroke-0, #1F1F1F)"/>
</g>
<g id="Vector_2">
<path d="M32.4003 26.5054L49.8173 29.1997L45.1505 19.144L46.65 18.2783L52.4153 30.6997L30.9009 27.3711L32.4003 26.5054Z" fill="var(--fill-0, #1F1F1F)"/>
<path d="M34.9003 25.062L45.4871 26.6997L42.6506 20.5874L44.15 19.7217L48.0852 28.1997L33.4008 25.9277L34.9003 25.062Z" fill="var(--fill-0, #1F1F1F)"/>
<path d="M28.0702 24.0054L33.5345 24.8506L32.035 25.7163L26.5707 24.8711L28.0702 24.0054Z" fill="var(--fill-0, #1F1F1F)"/>
<path d="M42.3199 15.7783L43.7838 18.9331L42.2844 19.7988L40.8204 16.644L42.3199 15.7783Z" fill="var(--fill-0, #1F1F1F)"/>
<path fill-rule="evenodd" clip-rule="evenodd" d="M34.6618 8.4497C38.4882 6.24056 44.6919 6.24056 48.5182 8.4497L69.3028 20.4497C73.1292 22.6588 73.1292 26.2406 69.3028 28.4497L48.5182 40.4497C44.6919 42.6588 38.4882 42.6588 34.6618 40.4497L13.8772 28.4497C10.0509 26.2406 10.0509 22.6588 13.8772 20.4497L34.6618 8.4497ZM19.8743 22.7373L26.7044 23.7939L24.2044 25.2373L31.0345 26.2939L28.5345 27.7373L54.1474 31.6997L47.2843 16.9121L44.7843 18.3555L42.9542 14.4121L40.4542 15.8555L38.624 11.9121L19.8743 22.7373Z" fill="var(--fill-0, #1F1F1F)"/>
</g>
</g>
<defs>
<linearGradient id="paint0_linear_0_14" x1="64.4988" y1="12.5927" x2="38.4657" y2="53.4215" gradientUnits="userSpaceOnUse">
<stop stop-color="#1F1F1F" stop-opacity="0.1"/>
<stop offset="1" stop-color="#F0F0F0" stop-opacity="0.1"/>
</linearGradient>
<linearGradient id="paint1_linear_0_14" x1="0.493385" y1="6.01256" x2="83.4644" y2="6.01256" gradientUnits="userSpaceOnUse">
<stop stop-color="#F0F0F0"/>
<stop offset="0.8" stop-color="#1F1F1F"/>
</linearGradient>
<linearGradient id="paint2_linear_0_14" x1="0.493385" y1="47.898" x2="83.4644" y2="47.898" gradientUnits="userSpaceOnUse">
<stop stop-color="#F0F0F0"/>
<stop offset="0.8" stop-color="#1F1F1F"/>
</linearGradient>
<linearGradient id="paint3_linear_0_14" x1="0.493385" y1="26.9763" x2="83.4644" y2="26.9763" gradientUnits="userSpaceOnUse">
<stop stop-color="#1F1F1F"/>
<stop offset="1" stop-color="#F0F0F0"/>
</linearGradient>
<linearGradient id="paint4_linear_0_14" x1="0.49422" y1="26.9763" x2="83.4652" y2="26.9763" gradientUnits="userSpaceOnUse">
<stop stop-color="#1F1F1F"/>
<stop offset="1" stop-color="#F0F0F0"/>
</linearGradient>
<linearGradient id="paint5_linear_0_14" x1="80.9533" y1="28.704" x2="83.4645" y2="28.704" gradientUnits="userSpaceOnUse">
<stop stop-color="#1F1F1F"/>
<stop offset="1" stop-color="#F0F0F0"/>
</linearGradient>
</defs>
</svg>
