<svg preserveAspectRatio="none" width="100%" height="100%" overflow="visible" style="display: block;" viewBox="0 0 32.909 25.1828" fill="none" xmlns="http://www.w3.org/2000/svg">
<g id="Vector">
<path d="M4.33013 24.5914C1.93866 25.9721 -1.04534e-07 24.8528 0 22.0914C1.04534e-07 19.33 1.93866 15.9721 4.33013 14.5914C6.72159 13.2107 8.66025 14.33 8.66025 17.0914C8.66025 19.8528 6.72159 23.2107 4.33013 24.5914Z" fill="#7B9D89"/>
<path d="M16.4545 17.5914C14.063 18.9721 12.1244 17.8528 12.1244 15.0914C12.1244 12.33 14.063 8.97211 16.4545 7.59139C18.8459 6.21068 20.7846 7.32997 20.7846 10.0914C20.7846 12.8528 18.8459 16.2107 16.4545 17.5914Z" fill="#EE585A"/>
<path d="M28.5788 10.5914C26.1874 11.9721 24.2487 10.8528 24.2487 8.09139C24.2487 5.32997 26.1874 1.97211 28.5788 0.591394C30.9703 -0.789317 32.909 0.329971 32.909 3.09139C32.909 5.85282 30.9703 9.21068 28.5788 10.5914Z" fill="var(--fill-0, #1F1F1F)"/>
<path d="M4.58008 15.0244C5.68442 14.3868 6.56722 14.3894 7.1416 14.7207C7.71597 15.0523 8.16016 15.8163 8.16016 17.0918C8.16006 18.364 7.71025 19.8081 6.95898 21.1094C6.20766 22.4107 5.18186 23.5221 4.08008 24.1582C2.97564 24.7959 2.09293 24.7933 1.51855 24.4619C0.944244 24.1303 0.500093 23.3671 0.5 22.0918C0.5 20.8195 0.949827 19.3746 1.70117 18.0732C2.45249 16.772 3.47833 15.6605 4.58008 15.0244ZM16.7041 8.02441C17.8087 7.38665 18.6922 7.38909 19.2666 7.7207C19.841 8.05232 20.2842 8.81628 20.2842 10.0918C20.2841 11.364 19.8343 12.8081 19.083 14.1094C18.3317 15.4106 17.3059 16.5221 16.2041 17.1582C15.0996 17.7958 14.2169 17.7935 13.6426 17.4619C13.0683 17.1303 12.6241 16.3671 12.624 15.0918C12.624 13.8195 13.0739 12.3746 13.8252 11.0732C14.5765 9.77203 15.6024 8.66057 16.7041 8.02441ZM28.8291 1.02441C29.9335 0.386847 30.8163 0.389242 31.3906 0.720703C31.965 1.05232 32.4092 1.81627 32.4092 3.0918C32.4091 4.36399 31.9593 5.80815 31.208 7.10938C30.4567 8.41062 29.4308 9.52203 28.3291 10.1582C27.2245 10.796 26.341 10.7935 25.7666 10.4619C25.1924 10.1303 24.7491 9.36695 24.749 8.0918C24.749 6.81951 25.1989 5.37461 25.9502 4.07324C26.7015 2.77204 27.7274 1.6605 28.8291 1.02441Z" stroke="var(--stroke-0, #1F1F1F)"/>
</g>
</svg>
