<svg width="222" height="173" viewBox="0 0 222 173" fill="none" xmlns="http://www.w3.org/2000/svg">
<path d="M100.459 5.99993C106.199 2.68622 115.504 2.68622 121.244 5.99993L211.311 57.9999C217.05 61.3136 217.05 66.6862 211.311 69.9999L121.244 122C115.504 125.314 106.199 125.314 100.459 122L10.3925 69.9999C4.65302 66.6862 4.65301 61.3136 10.3925 57.9999L100.459 5.99993Z" fill="url(#paint0_radial_282_5646)" stroke="#1F1F1F"/>
<path d="M52.8966 35.1314C56.2446 33.1984 61.6729 33.1984 65.0209 35.1314L97.9299 54.1314C101.278 56.0644 101.278 59.1984 97.9299 61.1314L65.0209 80.1314C61.6729 82.0644 56.2446 82.0644 52.8966 80.1314L19.9876 61.1314C16.6395 59.1984 16.6396 56.0644 19.9876 54.1314L52.8966 35.1314Z" fill="#1F1F1F"/>
<path d="M19.9883 61.1313L52.8973 80.1313V85.1313L19.9883 66.1313V61.1313Z" fill="url(#paint1_linear_282_5646)"/>
<path d="M65.0215 80.1313L97.9305 61.1313V66.1313L65.0215 85.1313V80.1313Z" fill="url(#paint2_linear_282_5646)"/>
<path d="M17.4766 57.6313C17.4766 58.9981 18.4362 60.2356 19.9876 61.1313V66.1313C18.4362 65.2356 17.4766 63.9981 17.4766 62.6313V57.6313Z" fill="url(#paint3_linear_282_5646)"/>
<path d="M52.8965 80.1313C56.2445 82.0643 61.6728 82.0643 65.0208 80.1313V85.1313C61.6728 87.0643 56.2445 87.0643 52.8965 85.1313V80.1313Z" fill="url(#paint4_linear_282_5646)"/>
<path d="M100.441 57.6313C100.441 58.9981 99.4811 60.2356 97.9297 61.1313V66.1313C99.4811 65.2356 100.441 63.9981 100.441 62.6313V57.6313Z" fill="url(#paint5_linear_282_5646)"/>
<path d="M97.9299 61.1314C101.278 59.1984 101.278 56.0644 97.9299 54.1314L65.0209 35.1314C61.6729 33.1984 56.2446 33.1984 52.8966 35.1314L19.9876 54.1314C16.6396 56.0644 16.6395 59.1984 19.9876 61.1314M97.9299 61.1314L65.0209 80.1314M97.9299 61.1314V66.1314M97.9299 61.1314C99.4813 60.2357 100.441 58.9982 100.441 57.6314V62.6314C100.441 63.9982 99.4813 65.2357 97.9299 66.1314M19.9876 61.1314L52.8966 80.1314M19.9876 61.1314V66.1314M19.9876 61.1314C18.4362 60.2357 17.4766 58.9982 17.4766 57.6314V62.6314C17.4766 63.9982 18.4362 65.2357 19.9876 66.1314M65.0209 80.1314C61.6729 82.0644 56.2446 82.0644 52.8966 80.1314M65.0209 80.1314V85.1314M97.9299 66.1314L65.0209 85.1314M52.8966 80.1314V85.1314M65.0209 85.1314C61.6729 87.0644 56.2446 87.0644 52.8966 85.1314M52.8966 85.1314L19.9876 66.1314" stroke="#1F1F1F"/>
<path d="M104.897 5.13139C108.245 3.19839 113.673 3.19839 117.021 5.13139L149.93 24.1314C153.278 26.0644 153.278 29.1984 149.93 31.1314L117.021 50.1314C113.673 52.0644 108.245 52.0644 104.897 50.1314L71.9876 31.1314C68.6395 29.1984 68.6396 26.0644 71.9876 24.1314L104.897 5.13139Z" fill="white"/>
<path d="M104.897 5.13139C108.245 3.19839 113.673 3.19839 117.021 5.13139L149.93 24.1314C153.278 26.0644 153.278 29.1984 149.93 31.1314L117.021 50.1314C113.673 52.0644 108.245 52.0644 104.897 50.1314L71.9876 31.1314C68.6395 29.1984 68.6396 26.0644 71.9876 24.1314L104.897 5.13139Z" fill="url(#paint6_linear_282_5646)"/>
<path d="M71.9883 31.1313L104.898 50.1313V55.1313L71.9883 36.1313V31.1313Z" fill="url(#paint7_linear_282_5646)"/>
<path d="M117.021 50.1313L149.93 31.1313V36.1313L117.021 55.1313V50.1313Z" fill="url(#paint8_linear_282_5646)"/>
<path d="M69.4766 27.6313C69.4766 28.9981 70.4362 30.2356 71.9876 31.1313V36.1313C70.4362 35.2356 69.4766 33.9981 69.4766 32.6313V27.6313Z" fill="url(#paint9_linear_282_5646)"/>
<path d="M104.896 50.1313C108.244 52.0643 113.672 52.0643 117.02 50.1313V55.1313C113.672 57.0643 108.244 57.0643 104.896 55.1313V50.1313Z" fill="url(#paint10_linear_282_5646)"/>
<path d="M152.441 27.6313C152.441 28.9981 151.481 30.2356 149.93 31.1313V36.1313C151.481 35.2356 152.441 33.9981 152.441 32.6313V27.6313Z" fill="url(#paint11_linear_282_5646)"/>
<path d="M71.9876 31.1314L104.897 50.1314M71.9876 31.1314C68.6395 29.1984 68.6396 26.0644 71.9876 24.1314L104.897 5.13139C108.245 3.19839 113.673 3.19839 117.021 5.13139L149.93 24.1314C153.278 26.0644 153.278 29.1984 149.93 31.1314M71.9876 31.1314V36.1314M71.9876 31.1314C70.4362 30.2357 69.4766 28.9982 69.4766 27.6314V32.6314C69.4766 33.9982 70.4362 35.2357 71.9876 36.1314M104.897 50.1314C108.245 52.0644 113.673 52.0644 117.021 50.1314M104.897 50.1314V55.1314M149.93 31.1314L117.021 50.1314M149.93 31.1314V36.1314M149.93 31.1314C151.481 30.2357 152.441 28.9982 152.441 27.6314V32.6314C152.441 33.9982 151.481 35.2357 149.93 36.1314M71.9876 36.1314L104.897 55.1314M117.021 50.1314V55.1314M117.021 55.1314C113.673 57.0644 108.245 57.0644 104.897 55.1314M117.021 55.1314L149.93 36.1314" stroke="#1F1F1F"/>
<path d="M104.885 65.1314C108.233 63.1984 113.661 63.1984 117.009 65.1314L149.918 84.1314C153.266 86.0644 153.266 89.1984 149.918 91.1314L117.009 110.131C113.661 112.064 108.233 112.064 104.885 110.131L71.9759 91.1314C68.6278 89.1984 68.6278 86.0644 71.9759 84.1314L104.885 65.1314Z" fill="#EE585A"/>
<path d="M71.9766 91.1313L104.886 110.131V115.131L71.9766 96.1313V91.1313Z" fill="url(#paint12_linear_282_5646)"/>
<path d="M117.01 110.131L149.919 91.1313V96.1313L117.01 115.131V110.131Z" fill="url(#paint13_linear_282_5646)"/>
<path d="M69.4648 87.6313C69.4648 88.9981 70.4244 90.2356 71.9759 91.1313V96.1313C70.4244 95.2356 69.4648 93.9981 69.4648 92.6313V87.6313Z" fill="url(#paint14_linear_282_5646)"/>
<path d="M104.885 110.131C108.233 112.064 113.661 112.064 117.009 110.131V115.131C113.661 117.064 108.233 117.064 104.885 115.131V110.131Z" fill="url(#paint15_linear_282_5646)"/>
<path d="M152.429 87.6313C152.429 88.9981 151.47 90.2356 149.918 91.1313V96.1313C151.47 95.2356 152.429 93.9981 152.429 92.6313V87.6313Z" fill="url(#paint16_linear_282_5646)"/>
<path d="M71.9759 91.1314L104.885 110.131M71.9759 91.1314C68.6278 89.1984 68.6278 86.0644 71.9759 84.1314L104.885 65.1314C108.233 63.1984 113.661 63.1984 117.009 65.1314L149.918 84.1314C153.266 86.0644 153.266 89.1984 149.918 91.1314M71.9759 91.1314V96.1314M71.9759 91.1314C70.4244 90.2357 69.4648 88.9982 69.4648 87.6314V92.6314C69.4648 93.9982 70.4244 95.2357 71.9759 96.1314M104.885 110.131C108.233 112.064 113.661 112.064 117.009 110.131M104.885 110.131V115.131M149.918 91.1314L117.009 110.131M149.918 91.1314V96.1314M149.918 91.1314C151.47 90.2357 152.429 88.9982 152.429 87.6314V92.6314C152.429 93.9982 151.47 95.2357 149.918 96.1314M71.9759 96.1314L104.885 115.131M117.009 110.131V115.131M117.009 115.131C113.661 117.064 108.233 117.064 104.885 115.131M117.009 115.131L149.918 96.1314" stroke="#1F1F1F"/>
<path d="M156.881 35.1314C160.229 33.1984 165.657 33.1984 169.005 35.1314L201.914 54.1314C205.262 56.0644 205.262 59.1984 201.914 61.1314L169.005 80.1314C165.657 82.0644 160.229 82.0644 156.881 80.1314L123.972 61.1314C120.624 59.1984 120.624 56.0644 123.972 54.1314L156.881 35.1314Z" fill="#7B9D89"/>
<path d="M123.973 61.1313L156.882 80.1313V85.1313L123.973 66.1313V61.1313Z" fill="url(#paint17_linear_282_5646)"/>
<path d="M169.006 80.1313L201.915 61.1313V66.1313L169.006 85.1313V80.1313Z" fill="url(#paint18_linear_282_5646)"/>
<path d="M121.461 57.6313C121.461 58.9981 122.421 60.2356 123.972 61.1313V66.1313C122.421 65.2356 121.461 63.9981 121.461 62.6313V57.6313Z" fill="url(#paint19_linear_282_5646)"/>
<path d="M156.881 80.1313C160.229 82.0643 165.657 82.0643 169.005 80.1313V85.1313C165.657 87.0643 160.229 87.0643 156.881 85.1313V80.1313Z" fill="url(#paint20_linear_282_5646)"/>
<path d="M204.425 57.6313C204.425 58.9981 203.466 60.2356 201.914 61.1313V66.1313C203.466 65.2356 204.425 63.9981 204.425 62.6313V57.6313Z" fill="url(#paint21_linear_282_5646)"/>
<path d="M123.972 61.1314L156.881 80.1314M123.972 61.1314C120.624 59.1984 120.624 56.0644 123.972 54.1314L156.881 35.1314C160.229 33.1984 165.657 33.1984 169.005 35.1314L201.914 54.1314C205.262 56.0644 205.262 59.1984 201.914 61.1314M123.972 61.1314V66.1314M123.972 61.1314C122.421 60.2357 121.461 58.9982 121.461 57.6314V62.6314C121.461 63.9982 122.421 65.2357 123.972 66.1314M156.881 80.1314C160.229 82.0644 165.657 82.0644 169.005 80.1314M156.881 80.1314V85.1314M201.914 61.1314L169.005 80.1314M201.914 61.1314V66.1314M201.914 61.1314C203.466 60.2357 204.425 58.9982 204.425 57.6314V62.6314C204.425 63.9982 203.466 65.2357 201.914 66.1314M123.972 66.1314L156.881 85.1314M169.005 80.1314V85.1314M169.005 85.1314C165.657 87.0644 160.229 87.0644 156.881 85.1314M169.005 85.1314L201.914 66.1314" stroke="#1F1F1F"/>
<path d="M100.459 122L10.3926 70V118L100.459 170V122Z" fill="url(#paint22_radial_282_5646)" stroke="#1F1F1F"/>
<path d="M18.623 103.504V96.88L19.5687 97.426V96.334L22.4994 98.026V99.118L23.4555 99.67V103.03L22.4994 102.478V103.57L19.6727 101.938V104.11L18.623 103.504ZM19.6727 100.726L22.3954 102.298V99.178L19.6727 97.606V100.726ZM25.1453 107.27V100.646L26.091 101.192V100.1L29.0216 101.792V102.884L29.9777 103.436V106.796L29.0216 106.244V107.336L28.5644 107.072V108.044L29.4997 108.584V109.784L28.4604 109.184V108.104L27.5043 107.552V106.46L26.1949 105.704V107.876L25.1453 107.27ZM26.1949 104.492L28.9177 106.064V102.944L26.1949 101.372V104.492ZM32.6132 111.581V110.501L31.6675 109.955V104.411L32.6132 104.957V103.865L35.5439 105.557V106.649L36.5 107.201V112.745L35.5439 112.193V113.273L32.6132 111.581ZM32.7172 110.441L35.44 112.013V106.709L32.7172 105.137V110.441ZM37.8752 114.619V113.419L38.8209 113.965V111.781L39.7562 112.321V111.361L38.8209 110.821V108.661L37.8752 108.115V106.903L38.9248 107.509V108.601L39.8601 109.141V111.313L40.7123 111.805V109.633L41.6476 110.173V109.081L42.7076 109.693V110.905L41.7515 110.353V112.513L40.8162 111.973V112.933L41.7515 113.473V115.657L42.7076 116.209V117.409L41.6476 116.797V115.717L40.7123 115.177V112.993L39.8601 112.501V114.685L38.9248 114.145V115.225L37.8752 114.619ZM46.2784 119.471V115.127L45.3431 114.587V113.507L44.3974 112.961V110.669L45.4471 111.275V113.447L46.3824 113.987V115.079L47.2345 115.571V114.479L48.1698 115.019V112.847L49.2299 113.459V115.751L48.2738 115.199V116.279L47.3385 115.739V120.083L46.2784 119.471ZM50.4021 121.708V120.496L53.7484 122.428V123.64L50.4021 121.708Z" fill="#1F1F1F"/>
<path d="M211.311 70L121.244 122V170L211.311 118V70Z" fill="url(#paint23_radial_282_5646)" stroke="#1F1F1F"/>
<path d="M150.284 130.325C150.284 132.81 152.029 133.818 154.181 132.575C156.333 131.332 158.078 128.31 158.078 125.825C158.078 123.34 156.333 122.332 154.181 123.575C152.029 124.818 150.284 127.84 150.284 130.325Z" fill="#7B9D89" stroke="#1F1F1F"/>
<path d="M162.409 123.325C162.409 125.81 164.154 126.818 166.306 125.575C168.458 124.332 170.203 121.31 170.203 118.825C170.203 116.34 168.458 115.332 166.306 116.575C164.154 117.818 162.409 120.84 162.409 123.325Z" fill="#EE585A" stroke="#1F1F1F"/>
<path d="M174.532 116.325C174.532 118.81 176.277 119.818 178.429 118.575C180.581 117.332 182.326 114.31 182.326 111.825C182.326 109.34 180.581 108.332 178.429 109.575C176.277 110.818 174.532 113.84 174.532 116.325Z" fill="#1F1F1F" stroke="#1F1F1F"/>
<path d="M6.08789 64C6.08789 66.3431 7.7329 68.4645 10.3925 70V118C7.7329 116.464 6.08789 114.343 6.08789 112V64Z" fill="url(#paint24_radial_282_5646)" stroke="#1F1F1F"/>
<path d="M100.459 122C106.198 125.314 115.504 125.314 121.244 122V170C115.504 173.314 106.198 173.314 100.459 170V122Z" fill="url(#paint25_radial_282_5646)" stroke="#1F1F1F"/>
<path d="M215.615 64C215.615 66.3431 213.97 68.4645 211.311 70V118C213.97 116.464 215.615 114.343 215.615 112V64Z" fill="url(#paint26_radial_282_5646)" stroke="#1F1F1F"/>
<defs>
<radialGradient id="paint0_radial_282_5646" cx="0" cy="0" r="1" gradientTransform="matrix(115.81 -66.8632 112.639 27.7016 110.852 63.9999)" gradientUnits="userSpaceOnUse">
<stop offset="0.375" stop-color="white"/>
<stop offset="1" stop-color="#D7D7D7"/>
</radialGradient>
<linearGradient id="paint1_linear_282_5646" x1="17.4706" y1="39.1941" x2="100.442" y2="39.1941" gradientUnits="userSpaceOnUse">
<stop stop-color="#F0F0F0"/>
<stop offset="0.8" stop-color="#1F1F1F"/>
</linearGradient>
<linearGradient id="paint2_linear_282_5646" x1="17.4705" y1="81.0795" x2="100.442" y2="81.0795" gradientUnits="userSpaceOnUse">
<stop stop-color="#F0F0F0"/>
<stop offset="0.8" stop-color="#1F1F1F"/>
</linearGradient>
<linearGradient id="paint3_linear_282_5646" x1="17.4699" y1="60.1579" x2="100.441" y2="60.1579" gradientUnits="userSpaceOnUse">
<stop stop-color="#1F1F1F"/>
<stop offset="1" stop-color="#F0F0F0"/>
</linearGradient>
<linearGradient id="paint4_linear_282_5646" x1="17.4707" y1="60.1579" x2="100.442" y2="60.1579" gradientUnits="userSpaceOnUse">
<stop stop-color="#1F1F1F"/>
<stop offset="1" stop-color="#F0F0F0"/>
</linearGradient>
<linearGradient id="paint5_linear_282_5646" x1="97.9297" y1="61.8855" x2="100.441" y2="61.8855" gradientUnits="userSpaceOnUse">
<stop stop-color="#1F1F1F"/>
<stop offset="1" stop-color="#F0F0F0"/>
</linearGradient>
<linearGradient id="paint6_linear_282_5646" x1="133.475" y1="15.7743" x2="107.442" y2="56.6032" gradientUnits="userSpaceOnUse">
<stop stop-color="#1F1F1F" stop-opacity="0.1"/>
<stop offset="1" stop-color="#F0F0F0" stop-opacity="0.1"/>
</linearGradient>
<linearGradient id="paint7_linear_282_5646" x1="69.4703" y1="9.19415" x2="152.442" y2="9.19415" gradientUnits="userSpaceOnUse">
<stop stop-color="#F0F0F0"/>
<stop offset="0.8" stop-color="#1F1F1F"/>
</linearGradient>
<linearGradient id="paint8_linear_282_5646" x1="69.4701" y1="51.0795" x2="152.441" y2="51.0795" gradientUnits="userSpaceOnUse">
<stop stop-color="#F0F0F0"/>
<stop offset="0.8" stop-color="#1F1F1F"/>
</linearGradient>
<linearGradient id="paint9_linear_282_5646" x1="69.4659" y1="30.1579" x2="152.437" y2="30.1579" gradientUnits="userSpaceOnUse">
<stop stop-color="#1F1F1F"/>
<stop offset="1" stop-color="#F0F0F0"/>
</linearGradient>
<linearGradient id="paint10_linear_282_5646" x1="69.4694" y1="30.1579" x2="152.44" y2="30.1579" gradientUnits="userSpaceOnUse">
<stop stop-color="#1F1F1F"/>
<stop offset="1" stop-color="#F0F0F0"/>
</linearGradient>
<linearGradient id="paint11_linear_282_5646" x1="149.93" y1="31.8855" x2="152.441" y2="31.8855" gradientUnits="userSpaceOnUse">
<stop stop-color="#1F1F1F"/>
<stop offset="1" stop-color="#F0F0F0"/>
</linearGradient>
<linearGradient id="paint12_linear_282_5646" x1="69.4586" y1="69.1942" x2="152.43" y2="69.1942" gradientUnits="userSpaceOnUse">
<stop stop-color="#F0F0F0"/>
<stop offset="0.8" stop-color="#1F1F1F"/>
</linearGradient>
<linearGradient id="paint13_linear_282_5646" x1="69.4587" y1="111.08" x2="152.43" y2="111.08" gradientUnits="userSpaceOnUse">
<stop stop-color="#F0F0F0"/>
<stop offset="0.8" stop-color="#1F1F1F"/>
</linearGradient>
<linearGradient id="paint14_linear_282_5646" x1="149.918" y1="91.8855" x2="152.429" y2="91.8855" gradientUnits="userSpaceOnUse">
<stop stop-color="#1F1F1F"/>
<stop offset="1" stop-color="#F0F0F0"/>
</linearGradient>
<linearGradient id="paint15_linear_282_5646" x1="69.458" y1="90.1581" x2="152.429" y2="90.1581" gradientUnits="userSpaceOnUse">
<stop stop-color="#1F1F1F"/>
<stop offset="1" stop-color="#F0F0F0"/>
</linearGradient>
<linearGradient id="paint16_linear_282_5646" x1="149.918" y1="91.8855" x2="152.429" y2="91.8855" gradientUnits="userSpaceOnUse">
<stop stop-color="#1F1F1F"/>
<stop offset="1" stop-color="#F0F0F0"/>
</linearGradient>
<linearGradient id="paint17_linear_282_5646" x1="121.455" y1="39.1941" x2="204.426" y2="39.1941" gradientUnits="userSpaceOnUse">
<stop stop-color="#F0F0F0"/>
<stop offset="0.8" stop-color="#1F1F1F"/>
</linearGradient>
<linearGradient id="paint18_linear_282_5646" x1="121.455" y1="81.0795" x2="204.426" y2="81.0795" gradientUnits="userSpaceOnUse">
<stop stop-color="#F0F0F0"/>
<stop offset="0.8" stop-color="#1F1F1F"/>
</linearGradient>
<linearGradient id="paint19_linear_282_5646" x1="121.454" y1="60.1579" x2="204.425" y2="60.1579" gradientUnits="userSpaceOnUse">
<stop stop-color="#1F1F1F"/>
<stop offset="1" stop-color="#F0F0F0"/>
</linearGradient>
<linearGradient id="paint20_linear_282_5646" x1="121.454" y1="60.1579" x2="204.425" y2="60.1579" gradientUnits="userSpaceOnUse">
<stop stop-color="#1F1F1F"/>
<stop offset="1" stop-color="#F0F0F0"/>
</linearGradient>
<linearGradient id="paint21_linear_282_5646" x1="201.914" y1="61.8855" x2="204.425" y2="61.8855" gradientUnits="userSpaceOnUse">
<stop stop-color="#1F1F1F"/>
<stop offset="1" stop-color="#F0F0F0"/>
</linearGradient>
<radialGradient id="paint22_radial_282_5646" cx="0" cy="0" r="1" gradientTransform="matrix(7.12116e-07 -50.1474 65.2518 23.6741 55.4259 120)" gradientUnits="userSpaceOnUse">
<stop offset="0.375" stop-color="white"/>
<stop offset="1" stop-color="#D7D7D7"/>
</radialGradient>
<radialGradient id="paint23_radial_282_5646" cx="0" cy="0" r="1" gradientTransform="matrix(7.12116e-07 -50.1474 65.2518 -51.6722 166.277 120)" gradientUnits="userSpaceOnUse">
<stop offset="0.375" stop-color="white"/>
<stop offset="1" stop-color="#D7D7D7"/>
</radialGradient>
<radialGradient id="paint24_radial_282_5646" cx="0" cy="0" r="1" gradientTransform="matrix(3.40348e-08 -56.4158 3.11863 -15.7489 8.24021 91)" gradientUnits="userSpaceOnUse">
<stop offset="0.375" stop-color="white"/>
<stop offset="1" stop-color="#D7D7D7"/>
</radialGradient>
<radialGradient id="paint25_radial_282_5646" cx="0" cy="0" r="1" gradientTransform="matrix(1.64335e-07 -52.7438 15.0581 -14.7238 110.851 147.243)" gradientUnits="userSpaceOnUse">
<stop offset="0.375" stop-color="white"/>
<stop offset="1" stop-color="#D7D7D7"/>
</radialGradient>
<radialGradient id="paint26_radial_282_5646" cx="0" cy="0" r="1" gradientTransform="matrix(3.40348e-08 -56.4158 3.11863 -15.7489 213.463 91)" gradientUnits="userSpaceOnUse">
<stop offset="0.375" stop-color="white"/>
<stop offset="1" stop-color="#D7D7D7"/>
</radialGradient>
</defs>
</svg>
