<svg width="222" height="173" viewBox="0 0 222 173" fill="none" xmlns="http://www.w3.org/2000/svg">
<path d="M100.459 5.99993C106.199 2.68622 115.504 2.68622 121.244 5.99993L211.311 57.9999C217.05 61.3136 217.05 66.6862 211.311 69.9999L121.244 122C115.504 125.314 106.199 125.314 100.459 122L10.3925 69.9999C4.65302 66.6862 4.65301 61.3136 10.3925 57.9999L100.459 5.99993Z" fill="url(#paint0_radial_282_5757)" stroke="#1F1F1F"/>
<path d="M100.459 122L10.3926 70V118L100.459 170V122Z" fill="url(#paint1_radial_282_5757)" stroke="#1F1F1F"/>
<path d="M18.623 103.504V95.7881L19.6727 96.3941V97.4861L20.608 98.0261V99.1061L21.5641 99.6581V102.91L22.3954 103.39V97.9661L23.4555 98.5781V106.294L22.3954 105.682V104.602L21.4601 104.062V102.97L20.504 102.418V99.1661L19.6727 98.6861V104.11L18.623 103.504ZM26.091 107.816V106.736L25.1453 106.19V100.646L26.091 101.192V100.1L29.0216 101.792V102.884L29.9777 103.436V108.98L29.0216 108.428V109.508L26.091 107.816ZM26.1949 106.676L28.9177 108.248V102.944L26.1949 101.372V106.676ZM33.3456 112.004V105.5L32.5142 105.02V106.1L31.4646 105.494V104.294L32.4103 104.84V103.748L35.3409 105.44V106.532L36.297 107.084V108.284L35.237 107.672V106.592L34.4056 106.112V112.616L33.3456 112.004ZM37.9868 114.684V113.484L38.9325 114.03V108.726L37.9868 108.18V106.968L40.9278 108.666V109.878L39.9718 109.326V114.63L40.9278 115.182V116.382L37.9868 114.684ZM42.6214 117.359V109.643L46.4977 111.881V112.973L47.4538 113.525V114.725L46.3938 114.113V113.033L43.671 111.461V113.513L45.5624 114.605V115.793L43.671 114.701V117.965L42.6214 117.359ZM49.9879 121.613V120.533L49.0422 119.986V118.774L50.0918 119.381V120.472L52.8146 122.044V119.98L49.9879 118.348V117.268L49.0422 116.722V114.442L49.9879 114.988V113.896L52.9185 115.588V116.68L53.8746 117.232V118.432L52.8146 117.82V116.74L50.0918 115.168V117.22L52.9185 118.852V119.921L53.8746 120.473V122.777L52.9185 122.225V123.305L49.9879 121.613ZM55.5644 124.688V123.476L58.9108 125.408V126.62L55.5644 124.688Z" fill="#1F1F1F"/>
<path d="M211.311 70L121.244 122V170L211.311 118V70Z" fill="url(#paint2_radial_282_5757)" stroke="#1F1F1F"/>
<path d="M150.286 129.84C150.286 132.325 152.031 133.333 154.183 132.09C156.335 130.847 158.08 127.825 158.08 125.34C158.08 122.855 156.335 121.847 154.183 123.09C152.031 124.333 150.286 127.355 150.286 129.84Z" fill="#7B9D89" stroke="#1F1F1F"/>
<path d="M162.411 122.84C162.411 125.325 164.156 126.333 166.308 125.09C168.46 123.847 170.205 120.825 170.205 118.34C170.205 115.855 168.46 114.847 166.308 116.09C164.156 117.333 162.411 120.355 162.411 122.84Z" fill="#EE585A" stroke="#1F1F1F"/>
<path d="M174.534 115.84C174.534 118.325 176.279 119.333 178.431 118.09C180.583 116.847 182.328 113.825 182.328 111.34C182.328 108.855 180.583 107.847 178.431 109.09C176.279 110.333 174.534 113.355 174.534 115.84Z" fill="#1F1F1F" stroke="#1F1F1F"/>
<path d="M6.08789 64C6.08789 66.3431 7.7329 68.4645 10.3925 70V118C7.7329 116.464 6.08789 114.343 6.08789 112V64Z" fill="url(#paint3_radial_282_5757)" stroke="#1F1F1F"/>
<path d="M100.459 122C106.198 125.314 115.504 125.314 121.244 122V170C115.504 173.314 106.198 173.314 100.459 170V122Z" fill="url(#paint4_radial_282_5757)" stroke="#1F1F1F"/>
<path d="M215.615 64C215.615 66.3431 213.97 68.4645 211.311 70V118C213.97 116.464 215.615 114.343 215.615 112V64Z" fill="url(#paint5_radial_282_5757)" stroke="#1F1F1F"/>
<defs>
<radialGradient id="paint0_radial_282_5757" cx="0" cy="0" r="1" gradientTransform="matrix(115.81 -66.8632 112.639 27.7016 110.852 63.9999)" gradientUnits="userSpaceOnUse">
<stop offset="0.375" stop-color="white"/>
<stop offset="1" stop-color="#D7D7D7"/>
</radialGradient>
<radialGradient id="paint1_radial_282_5757" cx="0" cy="0" r="1" gradientTransform="matrix(7.12116e-07 -50.1474 65.2518 23.6741 55.4259 120)" gradientUnits="userSpaceOnUse">
<stop offset="0.375" stop-color="white"/>
<stop offset="1" stop-color="#D7D7D7"/>
</radialGradient>
<radialGradient id="paint2_radial_282_5757" cx="0" cy="0" r="1" gradientTransform="matrix(7.12116e-07 -50.1474 65.2518 -51.6722 166.277 120)" gradientUnits="userSpaceOnUse">
<stop offset="0.375" stop-color="white"/>
<stop offset="1" stop-color="#D7D7D7"/>
</radialGradient>
<radialGradient id="paint3_radial_282_5757" cx="0" cy="0" r="1" gradientTransform="matrix(3.40348e-08 -56.4158 3.11863 -15.7489 8.24021 91)" gradientUnits="userSpaceOnUse">
<stop offset="0.375" stop-color="white"/>
<stop offset="1" stop-color="#D7D7D7"/>
</radialGradient>
<radialGradient id="paint4_radial_282_5757" cx="0" cy="0" r="1" gradientTransform="matrix(1.64335e-07 -52.7438 15.0581 -14.7238 110.851 147.243)" gradientUnits="userSpaceOnUse">
<stop offset="0.375" stop-color="white"/>
<stop offset="1" stop-color="#D7D7D7"/>
</radialGradient>
<radialGradient id="paint5_radial_282_5757" cx="0" cy="0" r="1" gradientTransform="matrix(3.40348e-08 -56.4158 3.11863 -15.7489 213.463 91)" gradientUnits="userSpaceOnUse">
<stop offset="0.375" stop-color="white"/>
<stop offset="1" stop-color="#D7D7D7"/>
</radialGradient>
</defs>
</svg>
