<svg preserveAspectRatio="none" width="100%" height="100%" overflow="visible" style="display: block;" viewBox="0 0 1152 466" fill="none" xmlns="http://www.w3.org/2000/svg">
<g id="authproxy-flow_1" clip-path="url(#clip0_0_97)">
<path id="Vector" d="M-23 246L1068 246" stroke="var(--stroke-0, #D7D7D7)" stroke-width="2"/>
<path id="Vector_2" d="M850 231.5C858.008 231.5 864.5 237.992 864.5 246C864.5 254.008 858.008 260.5 850 260.5C841.992 260.5 835.5 254.008 835.5 246C835.5 237.992 841.992 231.5 850 231.5Z" fill="var(--fill-0, #1F1F1F)" stroke="var(--stroke-0, #1F1F1F)"/>
<path id="Vector_3" d="M850 284C870.987 284 888 266.987 888 246C888 225.013 870.987 208 850 208C829.013 208 812 225.013 812 246C812 266.987 829.013 284 850 284Z" stroke="var(--stroke-0, #1F1F1F)" stroke-width="2"/>
<path id="Vector_4" opacity="0.95" d="M850 288C873.196 288 892 269.196 892 246C892 222.804 873.196 204 850 204C826.804 204 808 222.804 808 246C808 269.196 826.804 288 850 288Z" stroke="var(--stroke-0, #1F1F1F)" stroke-width="2"/>
<path id="Vector_5" d="M1068 246C1105 246 1132 241 1163 232" stroke="var(--stroke-0, #D7D7D7)" stroke-width="2"/>
<path id="Vector_6" d="M1068 246C1105 246 1132 246 1163 246" stroke="var(--stroke-0, #D7D7D7)" stroke-width="2"/>
<path id="Vector_7" d="M1068 246C1105 246 1132 251 1163 260" stroke="var(--stroke-0, #D7D7D7)" stroke-width="2"/>
</g>
<defs>
<clipPath id="clip0_0_97">
<rect width="1152" height="466" fill="white"/>
</clipPath>
</defs>
</svg>
