<svg preserveAspectRatio="none" width="100%" height="100%" overflow="visible" style="display: block;" viewBox="0 0 1152 466" fill="none" xmlns="http://www.w3.org/2000/svg">
<g id="authproxy-flow 3" clip-path="url(#clip0_0_18)">
<path id="Vector" d="M-15 246H400" stroke="var(--stroke-0, #D7D7D7)" stroke-width="2"/>
<path id="Vector_2" d="M751 246H1166" stroke="var(--stroke-0, #D7D7D7)" stroke-width="2"/>
<path id="Vector_3" opacity="0" d="M471 246C521 246 564 246 607 246" stroke="var(--stroke-0, #D7D7D7)" stroke-width="2"/>
<g id="Group">
<path id="Vector_4" d="M575.5 268C587.65 268 597.5 258.15 597.5 246C597.5 233.85 587.65 224 575.5 224C563.35 224 553.5 233.85 553.5 246C553.5 258.15 563.35 268 575.5 268Z" fill="var(--fill-0, #1F1F1F)"/>
<path id="Vector_5" d="M555.5 258C562.127 258 567.5 252.627 567.5 246C567.5 239.373 562.127 234 555.5 234C548.873 234 543.5 239.373 543.5 246C543.5 252.627 548.873 258 555.5 258Z" fill="var(--fill-0, #1F1F1F)"/>
<path id="Vector_6" d="M595.5 258C602.127 258 607.5 252.627 607.5 246C607.5 239.373 602.127 234 595.5 234C588.873 234 583.5 239.373 583.5 246C583.5 252.627 588.873 258 595.5 258Z" fill="var(--fill-0, #1F1F1F)"/>
<path id="Vector_7" d="M575.5 238C582.127 238 587.5 232.627 587.5 226C587.5 219.373 582.127 214 575.5 214C568.873 214 563.5 219.373 563.5 226C563.5 232.627 568.873 238 575.5 238Z" fill="var(--fill-0, #1F1F1F)"/>
<path id="Vector_8" d="M575.5 278C582.127 278 587.5 272.627 587.5 266C587.5 259.373 582.127 254 575.5 254C568.873 254 563.5 259.373 563.5 266C563.5 272.627 568.873 278 575.5 278Z" fill="var(--fill-0, #1F1F1F)"/>
<path id="Vector_9" d="M527.5 256C533.023 256 537.5 251.523 537.5 246C537.5 240.477 533.023 236 527.5 236C521.977 236 517.5 240.477 517.5 246C517.5 251.523 521.977 256 527.5 256Z" fill="var(--fill-0, #1F1F1F)"/>
<path id="Vector_10" d="M623.5 256C629.023 256 633.5 251.523 633.5 246C633.5 240.477 629.023 236 623.5 236C617.977 236 613.5 240.477 613.5 246C613.5 251.523 617.977 256 623.5 256Z" fill="var(--fill-0, #1F1F1F)"/>
<path id="Vector_11" d="M575.5 208C581.023 208 585.5 203.523 585.5 198C585.5 192.477 581.023 188 575.5 188C569.977 188 565.5 192.477 565.5 198C565.5 203.523 569.977 208 575.5 208Z" fill="var(--fill-0, #1F1F1F)"/>
<path id="Vector_12" d="M575.5 304C581.023 304 585.5 299.523 585.5 294C585.5 288.477 581.023 284 575.5 284C569.977 284 565.5 288.477 565.5 294C565.5 299.523 569.977 304 575.5 304Z" fill="var(--fill-0, #1F1F1F)"/>
<path id="Vector_13" d="M541.5 221C546.471 221 550.5 216.971 550.5 212C550.5 207.029 546.471 203 541.5 203C536.529 203 532.5 207.029 532.5 212C532.5 216.971 536.529 221 541.5 221Z" fill="var(--fill-0, #1F1F1F)"/>
<path id="Vector_14" d="M609.5 221C614.471 221 618.5 216.971 618.5 212C618.5 207.029 614.471 203 609.5 203C604.529 203 600.5 207.029 600.5 212C600.5 216.971 604.529 221 609.5 221Z" fill="var(--fill-0, #1F1F1F)"/>
<path id="Vector_15" d="M541.5 289C546.471 289 550.5 284.971 550.5 280C550.5 275.029 546.471 271 541.5 271C536.529 271 532.5 275.029 532.5 280C532.5 284.971 536.529 289 541.5 289Z" fill="var(--fill-0, #1F1F1F)"/>
<path id="Vector_16" d="M609.5 289C614.471 289 618.5 284.971 618.5 280C618.5 275.029 614.471 271 609.5 271C604.529 271 600.5 275.029 600.5 280C600.5 284.971 604.529 289 609.5 289Z" fill="var(--fill-0, #1F1F1F)"/>
<path id="Vector_17" d="M495.5 254C499.918 254 503.5 250.418 503.5 246C503.5 241.582 499.918 238 495.5 238C491.082 238 487.5 241.582 487.5 246C487.5 250.418 491.082 254 495.5 254Z" fill="var(--fill-0, #1F1F1F)"/>
<path id="Vector_18" d="M655.5 254C659.918 254 663.5 250.418 663.5 246C663.5 241.582 659.918 238 655.5 238C651.082 238 647.5 241.582 647.5 246C647.5 250.418 651.082 254 655.5 254Z" fill="var(--fill-0, #1F1F1F)"/>
<path id="Vector_19" d="M575.5 174C579.918 174 583.5 170.418 583.5 166C583.5 161.582 579.918 158 575.5 158C571.082 158 567.5 161.582 567.5 166C567.5 170.418 571.082 174 575.5 174Z" fill="var(--fill-0, #1F1F1F)"/>
<path id="Vector_20" d="M575.5 334C579.918 334 583.5 330.418 583.5 326C583.5 321.582 579.918 318 575.5 318C571.082 318 567.5 321.582 567.5 326C567.5 330.418 571.082 334 575.5 334Z" fill="var(--fill-0, #1F1F1F)"/>
<path id="Vector_21" d="M518.5 196C522.366 196 525.5 192.866 525.5 189C525.5 185.134 522.366 182 518.5 182C514.634 182 511.5 185.134 511.5 189C511.5 192.866 514.634 196 518.5 196Z" fill="var(--fill-0, #1F1F1F)"/>
<path id="Vector_22" d="M632.5 196C636.366 196 639.5 192.866 639.5 189C639.5 185.134 636.366 182 632.5 182C628.634 182 625.5 185.134 625.5 189C625.5 192.866 628.634 196 632.5 196Z" fill="var(--fill-0, #1F1F1F)"/>
<path id="Vector_23" d="M518.5 310C522.366 310 525.5 306.866 525.5 303C525.5 299.134 522.366 296 518.5 296C514.634 296 511.5 299.134 511.5 303C511.5 306.866 514.634 310 518.5 310Z" fill="var(--fill-0, #1F1F1F)"/>
<path id="Vector_24" d="M632.5 310C636.366 310 639.5 306.866 639.5 303C639.5 299.134 636.366 296 632.5 296C628.634 296 625.5 299.134 625.5 303C625.5 306.866 628.634 310 632.5 310Z" fill="var(--fill-0, #1F1F1F)"/>
<path id="Vector_25" d="M499.5 224C502.814 224 505.5 221.314 505.5 218C505.5 214.686 502.814 212 499.5 212C496.186 212 493.5 214.686 493.5 218C493.5 221.314 496.186 224 499.5 224Z" fill="var(--fill-0, #1F1F1F)"/>
<path id="Vector_26" d="M499.5 280C502.814 280 505.5 277.314 505.5 274C505.5 270.686 502.814 268 499.5 268C496.186 268 493.5 270.686 493.5 274C493.5 277.314 496.186 280 499.5 280Z" fill="var(--fill-0, #1F1F1F)"/>
<path id="Vector_27" d="M651.5 224C654.814 224 657.5 221.314 657.5 218C657.5 214.686 654.814 212 651.5 212C648.186 212 645.5 214.686 645.5 218C645.5 221.314 648.186 224 651.5 224Z" fill="var(--fill-0, #1F1F1F)"/>
<path id="Vector_28" d="M651.5 280C654.814 280 657.5 277.314 657.5 274C657.5 270.686 654.814 268 651.5 268C648.186 268 645.5 270.686 645.5 274C645.5 277.314 648.186 280 651.5 280Z" fill="var(--fill-0, #1F1F1F)"/>
<path id="Vector_29" d="M547.5 176C550.814 176 553.5 173.314 553.5 170C553.5 166.686 550.814 164 547.5 164C544.186 164 541.5 166.686 541.5 170C541.5 173.314 544.186 176 547.5 176Z" fill="var(--fill-0, #1F1F1F)"/>
<path id="Vector_30" d="M603.5 176C606.814 176 609.5 173.314 609.5 170C609.5 166.686 606.814 164 603.5 164C600.186 164 597.5 166.686 597.5 170C597.5 173.314 600.186 176 603.5 176Z" fill="var(--fill-0, #1F1F1F)"/>
<path id="Vector_31" d="M547.5 328C550.814 328 553.5 325.314 553.5 322C553.5 318.686 550.814 316 547.5 316C544.186 316 541.5 318.686 541.5 322C541.5 325.314 544.186 328 547.5 328Z" fill="var(--fill-0, #1F1F1F)"/>
<path id="Vector_32" d="M603.5 328C606.814 328 609.5 325.314 609.5 322C609.5 318.686 606.814 316 603.5 316C600.186 316 597.5 318.686 597.5 322C597.5 325.314 600.186 328 603.5 328Z" fill="var(--fill-0, #1F1F1F)"/>
<path id="Vector_33" opacity="0.95" d="M463.5 252C466.814 252 469.5 249.314 469.5 246C469.5 242.686 466.814 240 463.5 240C460.186 240 457.5 242.686 457.5 246C457.5 249.314 460.186 252 463.5 252Z" fill="var(--fill-0, #1F1F1F)"/>
<path id="Vector_34" opacity="0.95" d="M687.5 252C690.814 252 693.5 249.314 693.5 246C693.5 242.686 690.814 240 687.5 240C684.186 240 681.5 242.686 681.5 246C681.5 249.314 684.186 252 687.5 252Z" fill="var(--fill-0, #1F1F1F)"/>
<path id="Vector_35" opacity="0.95" d="M575.5 140C578.814 140 581.5 137.314 581.5 134C581.5 130.686 578.814 128 575.5 128C572.186 128 569.5 130.686 569.5 134C569.5 137.314 572.186 140 575.5 140Z" fill="var(--fill-0, #1F1F1F)"/>
<path id="Vector_36" opacity="0.95" d="M575.5 364C578.814 364 581.5 361.314 581.5 358C581.5 354.686 578.814 352 575.5 352C572.186 352 569.5 354.686 569.5 358C569.5 361.314 572.186 364 575.5 364Z" fill="var(--fill-0, #1F1F1F)"/>
<path id="Vector_37" opacity="0.95" d="M496.5 172.5C499.538 172.5 502 170.038 502 167C502 163.962 499.538 161.5 496.5 161.5C493.462 161.5 491 163.962 491 167C491 170.038 493.462 172.5 496.5 172.5Z" fill="var(--fill-0, #1F1F1F)"/>
<path id="Vector_38" opacity="0.95" d="M654.5 172.5C657.538 172.5 660 170.038 660 167C660 163.962 657.538 161.5 654.5 161.5C651.462 161.5 649 163.962 649 167C649 170.038 651.462 172.5 654.5 172.5Z" fill="var(--fill-0, #1F1F1F)"/>
<path id="Vector_39" opacity="0.95" d="M496.5 330.5C499.538 330.5 502 328.038 502 325C502 321.962 499.538 319.5 496.5 319.5C493.462 319.5 491 321.962 491 325C491 328.038 493.462 330.5 496.5 330.5Z" fill="var(--fill-0, #1F1F1F)"/>
<path id="Vector_40" opacity="0.95" d="M654.5 330.5C657.538 330.5 660 328.038 660 325C660 321.962 657.538 319.5 654.5 319.5C651.462 319.5 649 321.962 649 325C649 328.038 651.462 330.5 654.5 330.5Z" fill="var(--fill-0, #1F1F1F)"/>
<path id="Vector_41" opacity="0.95" d="M469.5 213C472.261 213 474.5 210.761 474.5 208C474.5 205.239 472.261 203 469.5 203C466.739 203 464.5 205.239 464.5 208C464.5 210.761 466.739 213 469.5 213Z" fill="var(--fill-0, #1F1F1F)"/>
<path id="Vector_42" opacity="0.95" d="M469.5 289C472.261 289 474.5 286.761 474.5 284C474.5 281.239 472.261 279 469.5 279C466.739 279 464.5 281.239 464.5 284C464.5 286.761 466.739 289 469.5 289Z" fill="var(--fill-0, #1F1F1F)"/>
<path id="Vector_43" opacity="0.95" d="M681.5 213C684.261 213 686.5 210.761 686.5 208C686.5 205.239 684.261 203 681.5 203C678.739 203 676.5 205.239 676.5 208C676.5 210.761 678.739 213 681.5 213Z" fill="var(--fill-0, #1F1F1F)"/>
<path id="Vector_44" opacity="0.95" d="M681.5 289C684.261 289 686.5 286.761 686.5 284C686.5 281.239 684.261 279 681.5 279C678.739 279 676.5 281.239 676.5 284C676.5 286.761 678.739 289 681.5 289Z" fill="var(--fill-0, #1F1F1F)"/>
<path id="Vector_45" opacity="0.95" d="M537.5 145C540.261 145 542.5 142.761 542.5 140C542.5 137.239 540.261 135 537.5 135C534.739 135 532.5 137.239 532.5 140C532.5 142.761 534.739 145 537.5 145Z" fill="var(--fill-0, #1F1F1F)"/>
<path id="Vector_46" opacity="0.95" d="M613.5 145C616.261 145 618.5 142.761 618.5 140C618.5 137.239 616.261 135 613.5 135C610.739 135 608.5 137.239 608.5 140C608.5 142.761 610.739 145 613.5 145Z" fill="var(--fill-0, #1F1F1F)"/>
<path id="Vector_47" opacity="0.95" d="M537.5 357C540.261 357 542.5 354.761 542.5 352C542.5 349.239 540.261 347 537.5 347C534.739 347 532.5 349.239 532.5 352C532.5 354.761 534.739 357 537.5 357Z" fill="var(--fill-0, #1F1F1F)"/>
<path id="Vector_48" opacity="0.95" d="M613.5 357C616.261 357 618.5 354.761 618.5 352C618.5 349.239 616.261 347 613.5 347C610.739 347 608.5 349.239 608.5 352C608.5 354.761 610.739 357 613.5 357Z" fill="var(--fill-0, #1F1F1F)"/>
<path id="Vector_49" opacity="0.8" d="M431.5 250.5C433.985 250.5 436 248.485 436 246C436 243.515 433.985 241.5 431.5 241.5C429.015 241.5 427 243.515 427 246C427 248.485 429.015 250.5 431.5 250.5Z" fill="var(--fill-0, #1F1F1F)"/>
<path id="Vector_50" opacity="0.8" d="M719.5 250.5C721.985 250.5 724 248.485 724 246C724 243.515 721.985 241.5 719.5 241.5C717.015 241.5 715 243.515 715 246C715 248.485 717.015 250.5 719.5 250.5Z" fill="var(--fill-0, #1F1F1F)"/>
<path id="Vector_51" opacity="0.8" d="M575.5 106.5C577.985 106.5 580 104.485 580 102C580 99.5147 577.985 97.5 575.5 97.5C573.015 97.5 571 99.5147 571 102C571 104.485 573.015 106.5 575.5 106.5Z" fill="var(--fill-0, #1F1F1F)"/>
<path id="Vector_52" opacity="0.8" d="M575.5 394.5C577.985 394.5 580 392.485 580 390C580 387.515 577.985 385.5 575.5 385.5C573.015 385.5 571 387.515 571 390C571 392.485 573.015 394.5 575.5 394.5Z" fill="var(--fill-0, #1F1F1F)"/>
<path id="Vector_53" opacity="0.8" d="M473.5 148.25C475.847 148.25 477.75 146.347 477.75 144C477.75 141.653 475.847 139.75 473.5 139.75C471.153 139.75 469.25 141.653 469.25 144C469.25 146.347 471.153 148.25 473.5 148.25Z" fill="var(--fill-0, #1F1F1F)"/>
<path id="Vector_54" opacity="0.8" d="M677.5 148.25C679.847 148.25 681.75 146.347 681.75 144C681.75 141.653 679.847 139.75 677.5 139.75C675.153 139.75 673.25 141.653 673.25 144C673.25 146.347 675.153 148.25 677.5 148.25Z" fill="var(--fill-0, #1F1F1F)"/>
<path id="Vector_55" opacity="0.8" d="M473.5 352.25C475.847 352.25 477.75 350.347 477.75 348C477.75 345.653 475.847 343.75 473.5 343.75C471.153 343.75 469.25 345.653 469.25 348C469.25 350.347 471.153 352.25 473.5 352.25Z" fill="var(--fill-0, #1F1F1F)"/>
<path id="Vector_56" opacity="0.8" d="M677.5 352.25C679.847 352.25 681.75 350.347 681.75 348C681.75 345.653 679.847 343.75 677.5 343.75C675.153 343.75 673.25 345.653 673.25 348C673.25 350.347 675.153 352.25 677.5 352.25Z" fill="var(--fill-0, #1F1F1F)"/>
<path id="Vector_57" opacity="0.75" d="M439.5 202C441.709 202 443.5 200.209 443.5 198C443.5 195.791 441.709 194 439.5 194C437.291 194 435.5 195.791 435.5 198C435.5 200.209 437.291 202 439.5 202Z" fill="var(--fill-0, #1F1F1F)"/>
<path id="Vector_58" opacity="0.75" d="M439.5 298C441.709 298 443.5 296.209 443.5 294C443.5 291.791 441.709 290 439.5 290C437.291 290 435.5 291.791 435.5 294C435.5 296.209 437.291 298 439.5 298Z" fill="var(--fill-0, #1F1F1F)"/>
<path id="Vector_59" opacity="0.75" d="M711.5 202C713.709 202 715.5 200.209 715.5 198C715.5 195.791 713.709 194 711.5 194C709.291 194 707.5 195.791 707.5 198C707.5 200.209 709.291 202 711.5 202Z" fill="var(--fill-0, #1F1F1F)"/>
<path id="Vector_60" opacity="0.75" d="M711.5 298C713.709 298 715.5 296.209 715.5 294C715.5 291.791 713.709 290 711.5 290C709.291 290 707.5 291.791 707.5 294C707.5 296.209 709.291 298 711.5 298Z" fill="var(--fill-0, #1F1F1F)"/>
<path id="Vector_61" opacity="0.75" d="M527.5 114C529.709 114 531.5 112.209 531.5 110C531.5 107.791 529.709 106 527.5 106C525.291 106 523.5 107.791 523.5 110C523.5 112.209 525.291 114 527.5 114Z" fill="var(--fill-0, #1F1F1F)"/>
<path id="Vector_62" opacity="0.75" d="M623.5 114C625.709 114 627.5 112.209 627.5 110C627.5 107.791 625.709 106 623.5 106C621.291 106 619.5 107.791 619.5 110C619.5 112.209 621.291 114 623.5 114Z" fill="var(--fill-0, #1F1F1F)"/>
<path id="Vector_63" opacity="0.75" d="M527.5 386C529.709 386 531.5 384.209 531.5 382C531.5 379.791 529.709 378 527.5 378C525.291 378 523.5 379.791 523.5 382C523.5 384.209 525.291 386 527.5 386Z" fill="var(--fill-0, #1F1F1F)"/>
<path id="Vector_64" opacity="0.75" d="M623.5 386C625.709 386 627.5 384.209 627.5 382C627.5 379.791 625.709 378 623.5 378C621.291 378 619.5 379.791 619.5 382C619.5 384.209 621.291 386 623.5 386Z" fill="var(--fill-0, #1F1F1F)"/>
</g>
</g>
<defs>
<clipPath id="clip0_0_18">
<rect width="1152" height="466" fill="white"/>
</clipPath>
</defs>
</svg>
