<svg preserveAspectRatio="none" width="100%" height="100%" overflow="visible" style="display: block;" viewBox="0 0 1152 466" fill="none" xmlns="http://www.w3.org/2000/svg">
<g id="authproxy-flow 2" clip-path="url(#clip0_0_84)">
<path id="Vector" d="M-11 212C54 185 110 149 182 149H243" stroke="var(--stroke-0, #D7D7D7)" stroke-width="2"/>
<path id="Vector_2" d="M-11 246H243" stroke="var(--stroke-0, #D7D7D7)" stroke-width="2"/>
<path id="Vector_3" d="M-11 280C54 307 110 343 182 343H243" stroke="var(--stroke-0, #D7D7D7)" stroke-width="2"/>
<path id="Vector_4" d="M343 149H477C532 149 581 151 641 188" stroke="var(--stroke-0, #D7D7D7)" stroke-width="2"/>
<path id="Vector_5" d="M343 246H641" stroke="var(--stroke-0, #D7D7D7)" stroke-width="2"/>
<path id="Vector_6" d="M343 343H477C532 343 581 341 641 304" stroke="var(--stroke-0, #D7D7D7)" stroke-width="2"/>
<path id="Vector_7" d="M668 198C732 224 776 246 840 246" stroke="var(--stroke-0, #D7D7D7)" stroke-width="2"/>
<path id="Vector_8" d="M668 246H1175" stroke="var(--stroke-0, #D7D7D7)" stroke-width="2"/>
<path id="Vector_9" d="M668 294C732 268 776 246 840 246" stroke="var(--stroke-0, #D7D7D7)" stroke-width="2"/>
<path id="Vector_10" opacity="0" d="M1154 246C1204 246 1247 246 1290 246" stroke="var(--stroke-0, #D7D7D7)" stroke-width="2"/>
</g>
<defs>
<clipPath id="clip0_0_84">
<rect width="1152" height="466" fill="white"/>
</clipPath>
</defs>
</svg>
