<svg width="480" height="480" viewBox="0 0 480 480" fill="none" xmlns="http://www.w3.org/2000/svg">
  <path d="M96 0V480" stroke="#D7D7D7"/>
  <path d="M192 0V480" stroke="#D7D7D7"/>
  <path d="M288 0V480" stroke="#D7D7D7"/>
  <path d="M384 0V480" stroke="#D7D7D7"/>
  <path d="M0 96H480" stroke="#D7D7D7"/>
  <path d="M0 192H480" stroke="#D7D7D7"/>
  <path d="M0 288H480" stroke="#D7D7D7"/>
  <path d="M0 384H480" stroke="#D7D7D7"/>
  <path d="M95 192H384" stroke="#ED585A"/>
  <path d="M95 288H384" stroke="#ED585A"/>
  <path d="M95 384H288" stroke="#ED585A"/>
  <path d="M95 192V385" stroke="#ED585A"/>
  <path d="M383 191V289" stroke="#ED585A"/>
  <path d="M287 288V385" stroke="#ED585A"/>
  <circle cx="95" cy="192" r="5.5" fill="#ED585A"/>
  <circle cx="95" cy="288" r="5.5" fill="#ED585A"/>
  <circle cx="95" cy="384" r="5.5" fill="#ED585A"/>
  <circle cx="383" cy="192" r="5.5" fill="#ED585A"/>
  <circle cx="383" cy="288" r="5.5" fill="#ED585A"/>
  <circle cx="287" cy="384" r="5.5" fill="#ED585A"/>
</svg>
