<svg preserveAspectRatio="none" width="100%" height="100%" overflow="visible" style="display: block;" viewBox="0 0 480 480" fill="none" xmlns="http://www.w3.org/2000/svg">
<g id="Group_1" clip-path="url(#clip0_0_4)">
<g id="Mask group">
<mask id="mask0_0_4" style="mask-type:luminance" maskUnits="userSpaceOnUse" x="0" y="384" width="96" height="96">
<g id="Group">
<path id="Vector" d="M0 480H96V384H0V480Z" fill="var(--fill-0, white)"/>
</g>
</mask>
<g mask="url(#mask0_0_4)">
<path id="Vector_2" d="M96 480H95V384H96H97V480H96Z" fill="var(--fill-0, #D7D7D7)"/>
</g>
</g>
<g id="Mask group_2">
<mask id="mask1_0_4" style="mask-type:luminance" maskUnits="userSpaceOnUse" x="96" y="384" width="96" height="96">
<g id="Group_2">
<path id="Vector_3" d="M96 480H192V384H96V480Z" fill="var(--fill-0, white)"/>
</g>
</mask>
<g mask="url(#mask1_0_4)">
<path id="Vector_4" d="M192 480H191V384H192H193V480H192Z" fill="var(--fill-0, #D7D7D7)"/>
</g>
</g>
<g id="Mask group_3">
<mask id="mask2_0_4" style="mask-type:luminance" maskUnits="userSpaceOnUse" x="192" y="384" width="96" height="96">
<g id="Group_3">
<path id="Vector_5" d="M192 480H288V384H192V480Z" fill="var(--fill-0, white)"/>
</g>
</mask>
<g mask="url(#mask2_0_4)">
<path id="Vector_6" d="M288 480H287V384H288H289V480H288Z" fill="var(--fill-0, #D7D7D7)"/>
</g>
</g>
<g id="Mask group_4">
<mask id="mask3_0_4" style="mask-type:luminance" maskUnits="userSpaceOnUse" x="288" y="384" width="96" height="96">
<g id="Group_4">
<path id="Vector_7" d="M288 480H384V384H288V480Z" fill="var(--fill-0, white)"/>
</g>
</mask>
<g mask="url(#mask3_0_4)">
<path id="Vector_8" d="M384 480H383V384H384H385V480H384Z" fill="var(--fill-0, #D7D7D7)"/>
</g>
</g>
<g id="Mask group_5">
<mask id="mask4_0_4" style="mask-type:luminance" maskUnits="userSpaceOnUse" x="0" y="288" width="96" height="96">
<g id="Group_5">
<path id="Vector_9" d="M0 384H96V288H0V384Z" fill="var(--fill-0, white)"/>
</g>
</mask>
<g mask="url(#mask4_0_4)">
<path id="Vector_10" d="M96 384H97V385H96V384ZM0 384V383H96V384V385H0V384ZM96 384H95V288H96H97V384H96Z" fill="var(--fill-0, #D7D7D7)"/>
</g>
</g>
<g id="Mask group_6">
<mask id="mask5_0_4" style="mask-type:luminance" maskUnits="userSpaceOnUse" x="96" y="288" width="96" height="96">
<g id="Group_6">
<path id="Vector_11" d="M96 384H192V288H96V384Z" fill="var(--fill-0, white)"/>
</g>
</mask>
<g mask="url(#mask5_0_4)">
<path id="Vector_12" d="M192 384H193V385H192V384ZM96 384V383H192V384V385H96V384ZM192 384H191V288H192H193V384H192Z" fill="var(--fill-0, #EE585A)"/>
</g>
</g>
<g id="Mask group_7">
<mask id="mask6_0_4" style="mask-type:luminance" maskUnits="userSpaceOnUse" x="192" y="288" width="96" height="96">
<g id="Group_7">
<path id="Vector_13" d="M192 384H288V288H192V384Z" fill="var(--fill-0, white)"/>
</g>
</mask>
<g mask="url(#mask6_0_4)">
<path id="Vector_14" d="M288 384H289V385H288V384ZM192 384V383H288V384V385H192V384ZM288 384H287V288H288H289V384H288Z" fill="var(--fill-0, #D7D7D7)"/>
</g>
</g>
<g id="Mask group_8">
<mask id="mask7_0_4" style="mask-type:luminance" maskUnits="userSpaceOnUse" x="288" y="288" width="96" height="96">
<g id="Group_8">
<path id="Vector_15" d="M288 384H384V288H288V384Z" fill="var(--fill-0, white)"/>
</g>
</mask>
<g mask="url(#mask7_0_4)">
<path id="Vector_16" d="M384 384H385V385H384V384ZM288 384V383H384V384V385H288V384ZM384 384H383V288H384H385V384H384Z" fill="var(--fill-0, #D7D7D7)"/>
</g>
</g>
<g id="Mask group_9">
<mask id="mask8_0_4" style="mask-type:luminance" maskUnits="userSpaceOnUse" x="384" y="288" width="96" height="96">
<g id="Group_9">
<path id="Vector_17" d="M384 384H480V288H384V384Z" fill="var(--fill-0, white)"/>
</g>
</mask>
<g mask="url(#mask8_0_4)">
<path id="Vector_18" d="M384 384V383H480V384V385H384V384Z" fill="var(--fill-0, #D7D7D7)"/>
</g>
</g>
<g id="Mask group_10">
<mask id="mask9_0_4" style="mask-type:luminance" maskUnits="userSpaceOnUse" x="0" y="192" width="96" height="96">
<g id="Group_10">
<path id="Vector_19" d="M0 288H96V192H0V288Z" fill="var(--fill-0, white)"/>
</g>
</mask>
<g mask="url(#mask9_0_4)">
<path id="Vector_20" d="M96 288H97V289H96V288ZM0 288V287H96V288V289H0V288ZM96 288H95V192H96H97V288H96Z" fill="var(--fill-0, #D7D7D7)"/>
</g>
</g>
<g id="Mask group_11">
<mask id="mask10_0_4" style="mask-type:luminance" maskUnits="userSpaceOnUse" x="96" y="192" width="96" height="96">
<g id="Group_11">
<path id="Vector_21" d="M96 288H192V192H96V288Z" fill="var(--fill-0, white)"/>
</g>
</mask>
<g mask="url(#mask10_0_4)">
<path id="Vector_22" d="M192 288H193V289H192V288ZM96 288V287H192V288V289H96V288ZM192 288H191V192H192H193V288H192Z" fill="var(--fill-0, #D7D7D7)"/>
</g>
</g>
<g id="Mask group_12">
<mask id="mask11_0_4" style="mask-type:luminance" maskUnits="userSpaceOnUse" x="192" y="192" width="96" height="96">
<g id="Group_12">
<path id="Vector_23" d="M192 288H288V192H192V288Z" fill="var(--fill-0, white)"/>
</g>
</mask>
<g mask="url(#mask11_0_4)">
<path id="Vector_24" d="M288 288H289V289H288V288ZM192 288V287H288V288V289H192V288ZM288 288H287V192H288H289V288H288Z" fill="var(--fill-0, #ED585A)"/>
</g>
</g>
<g id="Mask group_13">
<mask id="mask12_0_4" style="mask-type:luminance" maskUnits="userSpaceOnUse" x="288" y="192" width="96" height="96">
<g id="Group_13">
<path id="Vector_25" d="M288 288H384V192H288V288Z" fill="var(--fill-0, white)"/>
</g>
</mask>
<g mask="url(#mask12_0_4)">
<path id="Vector_26" d="M384 288H385V289H384V288ZM384 192V191H385V192H384ZM288 288V287H384V288V289H288V288ZM384 288H383V192H384H385V288H384ZM384 192V193H288V192V191H384V192Z" fill="var(--fill-0, #EE585A)"/>
</g>
</g>
<g id="Mask group_14">
<mask id="mask13_0_4" style="mask-type:luminance" maskUnits="userSpaceOnUse" x="384" y="192" width="96" height="96">
<g id="Group_14">
<path id="Vector_27" d="M384 288H480V192H384V288Z" fill="var(--fill-0, white)"/>
</g>
</mask>
<g mask="url(#mask13_0_4)">
<path id="Vector_28" d="M384 288V287H480V288V289H384V288Z" fill="var(--fill-0, #D7D7D7)"/>
</g>
</g>
<g id="Mask group_15">
<mask id="mask14_0_4" style="mask-type:luminance" maskUnits="userSpaceOnUse" x="0" y="96" width="96" height="96">
<g id="Group_15">
<path id="Vector_29" d="M0 192H96V96H0V192Z" fill="var(--fill-0, white)"/>
</g>
</mask>
<g mask="url(#mask14_0_4)">
<path id="Vector_30" d="M96 192H97V193H96V192ZM0 192V191H96V192V193H0V192ZM96 192H95V96H96H97V192H96Z" fill="var(--fill-0, #D7D7D7)"/>
</g>
</g>
<g id="Mask group_16">
<mask id="mask15_0_4" style="mask-type:luminance" maskUnits="userSpaceOnUse" x="96" y="96" width="96" height="96">
<g id="Group_16">
<path id="Vector_31" d="M96 192H192V96H96V192Z" fill="var(--fill-0, white)"/>
</g>
</mask>
<g mask="url(#mask15_0_4)">
<path id="Vector_32" d="M192 192H193V193H192V192ZM96 192V191H192V192V193H96V192ZM192 192H191V96H192H193V192H192Z" fill="var(--fill-0, #D7D7D7)"/>
</g>
</g>
<g id="Mask group_17">
<mask id="mask16_0_4" style="mask-type:luminance" maskUnits="userSpaceOnUse" x="192" y="96" width="96" height="96">
<g id="Group_17">
<path id="Vector_33" d="M192 192H288V96H192V192Z" fill="var(--fill-0, white)"/>
</g>
</mask>
<g mask="url(#mask16_0_4)">
<path id="Vector_34" d="M288 192H289V193H288V192ZM192 192V191H288V192V193H192V192ZM288 192H287V96H288H289V192H288Z" fill="var(--fill-0, #EE585A)"/>
</g>
</g>
<g id="Mask group_18">
<mask id="mask17_0_4" style="mask-type:luminance" maskUnits="userSpaceOnUse" x="288" y="96" width="96" height="96">
<g id="Group_18">
<path id="Vector_35" d="M288 192H384V96H288V192Z" fill="var(--fill-0, white)"/>
</g>
</mask>
<g mask="url(#mask17_0_4)">
<path id="Vector_36" d="M384 192H383V96H384H385V192H384Z" fill="var(--fill-0, #D7D7D7)"/>
</g>
</g>
<g id="Mask group_19">
<mask id="mask18_0_4" style="mask-type:luminance" maskUnits="userSpaceOnUse" x="384" y="96" width="96" height="96">
<g id="Group_19">
<path id="Vector_37" d="M384 192H480V96H384V192Z" fill="var(--fill-0, white)"/>
</g>
</mask>
<g mask="url(#mask18_0_4)">
<path id="Vector_38" d="M384 192V191H480V192V193H384V192Z" fill="var(--fill-0, #D7D7D7)"/>
</g>
</g>
<g id="Mask group_20">
<mask id="mask19_0_4" style="mask-type:luminance" maskUnits="userSpaceOnUse" x="0" y="0" width="96" height="96">
<g id="Group_20">
<path id="Vector_39" d="M0 96H96V0H0V96Z" fill="var(--fill-0, white)"/>
</g>
</mask>
<g mask="url(#mask19_0_4)">
<path id="Vector_40" d="M96 96H97V97H96V96ZM0 96V95H96V96V97H0V96ZM96 96H95V0H96H97V96H96Z" fill="var(--fill-0, #D7D7D7)"/>
</g>
</g>
<g id="Mask group_21">
<mask id="mask20_0_4" style="mask-type:luminance" maskUnits="userSpaceOnUse" x="96" y="0" width="96" height="96">
<g id="Group_21">
<path id="Vector_41" d="M96 96H192V0H96V96Z" fill="var(--fill-0, white)"/>
</g>
</mask>
<g mask="url(#mask20_0_4)">
<path id="Vector_42" d="M192 96H193V97H192V96ZM96 96V95H192V96V97H96V96ZM192 96H191V0H192H193V96H192Z" fill="var(--fill-0, #D7D7D7)"/>
</g>
</g>
<g id="Mask group_22">
<mask id="mask21_0_4" style="mask-type:luminance" maskUnits="userSpaceOnUse" x="192" y="0" width="96" height="96">
<g id="Group_22">
<path id="Vector_43" d="M192 96H288V0H192V96Z" fill="var(--fill-0, white)"/>
</g>
</mask>
<g mask="url(#mask21_0_4)">
<path id="Vector_44" d="M288 96H289V97H288V96ZM192 96V95H288V96V97H192V96ZM288 96H287V0H288H289V96H288Z" fill="var(--fill-0, #D7D7D7)"/>
</g>
</g>
<g id="Mask group_23">
<mask id="mask22_0_4" style="mask-type:luminance" maskUnits="userSpaceOnUse" x="288" y="0" width="96" height="96">
<g id="Group_23">
<path id="Vector_45" d="M288 96H384V0H288V96Z" fill="var(--fill-0, white)"/>
</g>
</mask>
<g mask="url(#mask22_0_4)">
<path id="Vector_46" d="M384 96H385V97H384V96ZM288 96V95H384V96V97H288V96ZM384 96H383V0H384H385V96H384Z" fill="var(--fill-0, #D7D7D7)"/>
</g>
</g>
<g id="Mask group_24">
<mask id="mask23_0_4" style="mask-type:luminance" maskUnits="userSpaceOnUse" x="384" y="0" width="96" height="96">
<g id="Group_24">
<path id="Vector_47" d="M384 96H480V0H384V96Z" fill="var(--fill-0, white)"/>
</g>
</mask>
<g mask="url(#mask23_0_4)">
<path id="Vector_48" d="M384 96V95H480V96V97H384V96Z" fill="var(--fill-0, #D7D7D7)"/>
</g>
</g>
<path id="Vector_49" d="M95.4671 377.066C99.0388 377.066 101.934 379.961 101.934 383.533C101.934 387.105 99.0388 390 95.4671 390C91.8954 390 89 387.105 89 383.533C89 379.961 91.8954 377.066 95.4671 377.066Z" fill="var(--fill-0, #ED585A)"/>
<path id="Vector_50" d="M383.467 281.066C387.039 281.066 389.934 283.961 389.934 287.533C389.934 291.105 387.039 294 383.467 294C379.895 294 377 291.105 377 287.533C377 283.961 379.895 281.066 383.467 281.066Z" fill="var(--fill-0, #ED585A)"/>
<path id="Vector_51" d="M383.467 185.066C387.039 185.066 389.934 187.961 389.934 191.533C389.934 195.105 387.039 198 383.467 198C379.895 198 377 195.105 377 191.533C377 187.961 379.895 185.066 383.467 185.066Z" fill="var(--fill-0, #ED585A)"/>
<path id="Vector_52" d="M287.467 89.0658C291.039 89.0658 293.934 91.9612 293.934 95.5329C293.934 99.1046 291.039 102 287.467 102C283.895 102 281 99.1046 281 95.5329C281 91.9612 283.895 89.0658 287.467 89.0658Z" fill="var(--fill-0, #ED585A)"/>
</g>
<defs>
<clipPath id="clip0_0_4">
<rect width="480" height="480" fill="white"/>
</clipPath>
</defs>
</svg>
