<svg width="480" height="480" viewBox="0 0 480 480" fill="none" xmlns="http://www.w3.org/2000/svg">
  <g stroke="#D7D7D7" stroke-width="1" shape-rendering="geometricPrecision">
    <path d="M0 0H480" />
    <path d="M0 96H480" />
    <path d="M0 192H480" />
    <path d="M0 288H480" />
    <path d="M0 384H480" />
    <path d="M0 0V480" />
    <path d="M96 0V480" />
    <path d="M192 0V480" />
    <path d="M288 0V480" />
    <path d="M384 0V480" />
  </g>

  <g stroke="#EE585A" stroke-width="1" shape-rendering="geometricPrecision">
    <path d="M0 96H96" />
    <path d="M96 96V192" />
    <path d="M192 192H288" />
    <path d="M288 192V288" />
    <path d="M96 288H288" />
    <path d="M192 288V384" />
  </g>

  <g fill="#EE585A">
    <circle cx="0" cy="96" r="6.467" />
    <circle cx="288" cy="192" r="6.467" />
    <circle cx="288" cy="288" r="6.467" />
    <circle cx="192" cy="384" r="6.467" />
  </g>
</svg>
