<svg preserveAspectRatio="none" width="100%" height="100%" overflow="visible" style="display: block;" viewBox="0 0 222 173" fill="none" xmlns="http://www.w3.org/2000/svg">
<g id="System-node-notifs">
<path id="Vector" d="M100.459 6C106.199 2.68629 115.504 2.68629 121.244 6L211.311 58C217.05 61.3137 217.05 66.6863 211.311 70L121.244 122C115.504 125.314 106.199 125.314 100.459 122L10.3926 70C4.65311 66.6863 4.6531 61.3137 10.3926 58L100.459 6Z" fill="url(#paint0_radial_0_4)" stroke="var(--stroke-0, #1F1F1F)"/>
<path id="Vector_2" d="M100.459 122L10.3926 70V118L100.459 170V122Z" fill="url(#paint1_radial_0_4)" stroke="var(--stroke-0, #1F1F1F)"/>
<path id="Vector_3" d="M18.6235 103.504V95.788L19.6732 96.394V97.486L20.6085 98.026V99.106L21.5646 99.658V102.91L22.3959 103.39V97.966L23.456 98.578V106.294L22.3959 105.682V104.602L21.4606 104.062V102.97L20.5045 102.418V99.166L19.6732 98.686V104.11L18.6235 103.504ZM26.0915 107.816V106.736L25.1458 106.19V100.646L26.0915 101.192V100.1L29.0221 101.792V102.884L29.9782 103.436V108.98L29.0221 108.428V109.508L26.0915 107.816ZM26.1954 106.676L28.9182 108.248V102.944L26.1954 101.372V106.676ZM33.3461 112.004V105.5L32.5147 105.02V106.1L31.4651 105.494V104.294L32.4108 104.84V103.748L35.3414 105.44V106.532L36.2975 107.084V108.284L35.2375 107.672V106.592L34.4061 106.112V112.616L33.3461 112.004ZM37.9873 114.684V113.484L38.933 114.03V108.726L37.9873 108.18V106.968L40.9283 108.666V109.878L39.9723 109.326V114.63L40.9283 115.182V116.382L37.9873 114.684ZM42.6219 117.359V109.643L46.4982 111.881V112.973L47.4543 113.525V114.725L46.3943 114.113V113.033L43.6715 111.461V113.513L45.5629 114.605V115.793L43.6715 114.701V117.965L42.6219 117.359ZM49.9884 121.613V120.533L49.0427 119.986V118.774L50.0923 119.381V120.472L52.8151 122.044V119.98L49.9884 118.348V117.268L49.0427 116.722V114.442L49.9884 114.988V113.896L52.919 115.588V116.68L53.8751 117.232V118.432L52.8151 117.82V116.74L50.0923 115.168V117.22L52.919 118.852V119.921L53.8751 120.473V122.777L52.919 122.225V123.305L49.9884 121.613ZM55.5649 124.688V123.476L58.9113 125.408V126.62L55.5649 124.688Z" fill="var(--fill-0, #1F1F1F)"/>
<path id="Vector_4" d="M211.311 70L121.244 122V170L211.311 118V70Z" fill="url(#paint2_radial_0_4)" stroke="var(--stroke-0, #1F1F1F)"/>
<path id="Vector_5" d="M150.287 129.84C150.287 132.325 152.032 133.333 154.184 132.09C156.336 130.847 158.081 127.825 158.081 125.34C158.081 122.855 156.336 121.847 154.184 123.09C152.032 124.333 150.287 127.355 150.287 129.84Z" fill="var(--fill-0, #7B9D89)" stroke="var(--stroke-0, #1F1F1F)"/>
<path id="Vector_6" d="M162.412 122.84C162.412 125.325 164.157 126.333 166.309 125.09C168.461 123.847 170.206 120.825 170.206 118.34C170.206 115.855 168.461 114.847 166.309 116.09C164.157 117.333 162.412 120.355 162.412 122.84Z" fill="var(--fill-0, #EE585A)" stroke="var(--stroke-0, #1F1F1F)"/>
<path id="Vector_7" d="M174.535 115.84C174.535 118.325 176.28 119.333 178.432 118.09C180.584 116.847 182.329 113.825 182.329 111.34C182.329 108.855 180.584 107.847 178.432 109.09C176.28 110.333 174.535 113.355 174.535 115.84Z" fill="var(--fill-0, #1F1F1F)" stroke="var(--stroke-0, #1F1F1F)"/>
<path id="Vector_8" d="M6.08789 64C6.08789 66.3431 7.7329 68.4645 10.3925 70V118C7.7329 116.464 6.08789 114.343 6.08789 112V64Z" fill="url(#paint3_radial_0_4)" stroke="var(--stroke-0, #1F1F1F)"/>
<path id="Vector_9" d="M100.459 122C106.198 125.314 115.504 125.314 121.244 122V170C115.504 173.314 106.198 173.314 100.459 170V122Z" fill="url(#paint4_radial_0_4)" stroke="var(--stroke-0, #1F1F1F)"/>
<path id="Vector_10" d="M215.615 64C215.615 66.3431 213.97 68.4645 211.311 70V118C213.97 116.464 215.615 114.343 215.615 112V64Z" fill="url(#paint5_radial_0_4)" stroke="var(--stroke-0, #1F1F1F)"/>
</g>
<defs>
<radialGradient id="paint0_radial_0_4" cx="0" cy="0" r="1" gradientTransform="matrix(115.81 -66.8632 112.639 27.7016 110.852 64)" gradientUnits="userSpaceOnUse">
<stop offset="0.375" stop-color="white"/>
<stop offset="1" stop-color="#D7D7D7"/>
</radialGradient>
<radialGradient id="paint1_radial_0_4" cx="0" cy="0" r="1" gradientTransform="matrix(7.12116e-07 -50.1474 65.2518 23.6741 55.4259 120)" gradientUnits="userSpaceOnUse">
<stop offset="0.375" stop-color="white"/>
<stop offset="1" stop-color="#D7D7D7"/>
</radialGradient>
<radialGradient id="paint2_radial_0_4" cx="0" cy="0" r="1" gradientTransform="matrix(7.12116e-07 -50.1474 65.2518 -51.6722 166.277 120)" gradientUnits="userSpaceOnUse">
<stop offset="0.375" stop-color="white"/>
<stop offset="1" stop-color="#D7D7D7"/>
</radialGradient>
<radialGradient id="paint3_radial_0_4" cx="0" cy="0" r="1" gradientTransform="matrix(3.40348e-08 -56.4158 3.11863 -15.7489 8.24021 91)" gradientUnits="userSpaceOnUse">
<stop offset="0.375" stop-color="white"/>
<stop offset="1" stop-color="#D7D7D7"/>
</radialGradient>
<radialGradient id="paint4_radial_0_4" cx="0" cy="0" r="1" gradientTransform="matrix(1.64335e-07 -52.7438 15.0581 -14.7238 110.851 147.243)" gradientUnits="userSpaceOnUse">
<stop offset="0.375" stop-color="white"/>
<stop offset="1" stop-color="#D7D7D7"/>
</radialGradient>
<radialGradient id="paint5_radial_0_4" cx="0" cy="0" r="1" gradientTransform="matrix(3.40348e-08 -56.4158 3.11863 -15.7489 213.463 91)" gradientUnits="userSpaceOnUse">
<stop offset="0.375" stop-color="white"/>
<stop offset="1" stop-color="#D7D7D7"/>
</radialGradient>
</defs>
</svg>
