<svg width="213" height="125" viewBox="0 0 213 125" fill="none" xmlns="http://www.w3.org/2000/svg">
<g clip-path="url(#clip0_282_5612)">
<path d="M94.2101 4.33022C98.3523 1.93876 105.068 1.93875 109.21 4.33022L174.21 41.858C178.352 44.2494 178.352 48.1268 174.21 50.5182L109.21 88.046C105.068 90.4374 98.3523 90.4374 94.2101 88.046L29.2102 50.5182C25.068 48.1268 25.068 44.2494 29.2102 41.858L94.2101 4.33022Z" fill="url(#paint0_radial_282_5612)" stroke="#1F1F1F" stroke-width="0.721688"/>
<path d="M94.501 39.5048C92.7607 38.5 92.4598 36.964 92.4067 35.5434C92.3568 34.2078 91.4491 32.8809 89.6838 31.8617C86.0503 29.7639 80.1593 29.7639 76.5259 31.8617C72.8924 33.9594 72.8924 37.3606 76.5259 39.4584C78.2912 40.4776 80.5894 41.0016 82.9028 41.0304C85.3634 41.0611 88.0239 41.2348 89.7642 42.2396L90.1297 42.4506C91.87 43.4554 92.1709 44.9914 92.224 46.4121C92.2719 47.6922 91.9835 49.0699 90.4153 49.9753L89.7642 50.3512C88.0239 51.356 85.3634 51.5297 82.9028 51.5604C80.5894 51.5892 78.2912 52.1132 76.5259 53.1325C72.8924 55.2302 72.8924 58.6314 76.5259 60.7292C80.1593 62.8269 86.0503 62.8269 89.6838 60.7292C91.4491 59.71 92.3567 58.3831 92.4067 57.0475C92.4598 55.6268 92.7607 54.0908 94.501 53.086L95.1521 52.7101C96.7203 51.8047 99.1066 51.6382 101.324 51.6658C103.785 51.6965 106.445 51.8702 108.186 52.875L108.551 53.086C110.292 54.0908 110.592 55.6268 110.646 57.0475C110.695 58.3831 111.603 59.7099 113.368 60.7292C117.002 62.8269 122.893 62.8269 126.526 60.7292C130.16 58.6314 130.16 55.2302 126.526 53.1324C124.761 52.1132 122.463 51.5892 120.149 51.5604C117.689 51.5297 115.028 51.356 113.288 50.3512L112.923 50.1402C111.182 49.1354 110.881 47.5994 110.828 46.1788C110.778 44.8431 109.871 43.5163 108.105 42.4971C106.34 41.4778 104.042 40.9538 101.728 40.925C99.2673 40.8943 96.6068 40.7206 94.8665 39.7158L94.501 39.5048Z" fill="#1F1F1F"/>
<path d="M102.478 32.0325L94.748 21.3399L96.5397 20.3054L115.019 24.7915L113.308 25.7794L101.353 22.8522C101.022 22.7694 100.639 22.6726 100.206 22.5619C99.7742 22.4362 99.322 22.3147 98.8503 22.1974C98.3795 22.065 97.9212 21.9399 97.4755 21.822C97.0431 21.6963 96.655 21.5885 96.3111 21.4984L96.7137 21.2659C96.9188 21.5083 97.1235 21.7582 97.3277 22.0156C97.5329 22.258 97.7374 22.5079 97.9417 22.7653C98.1334 23.0154 98.3252 23.2656 98.5169 23.5157C98.7086 23.7659 98.9002 24.0161 99.0919 24.2662L104.088 31.1026L102.478 32.0325ZM101.154 28.6182L100.313 27.4584L106.976 23.6113L109.045 24.0621L101.154 28.6182Z" fill="#1F1F1F"/>
<path d="M146.035 49.4647C145.093 50.0087 144.053 50.4185 142.915 50.6941C141.777 50.9696 140.608 51.1145 139.409 51.1286C138.209 51.1427 137.041 51.0191 135.902 50.7577C134.764 50.4821 133.724 50.0723 132.782 49.5283C131.84 48.9842 131.136 48.3872 130.671 47.7372C130.206 47.073 129.973 46.4018 129.973 45.7235C129.986 45.0382 130.23 44.374 130.708 43.7311C131.185 43.074 131.882 42.4805 132.8 41.9506C133.449 41.5761 134.177 41.2617 134.985 41.0073C135.805 40.7459 136.637 40.5622 137.481 40.4562C138.326 40.3502 139.115 40.3255 139.849 40.382L139.867 41.4948C139.17 41.4878 138.479 41.5337 137.793 41.6326C137.108 41.7315 136.453 41.8764 135.829 42.0671C135.217 42.2509 134.679 42.4769 134.214 42.7454C133.492 43.1623 132.947 43.6251 132.58 44.1338C132.225 44.6354 132.048 45.1548 132.048 45.6917C132.035 46.2216 132.219 46.7445 132.598 47.2603C132.965 47.769 133.522 48.2388 134.269 48.6698C134.991 49.0867 135.798 49.4046 136.692 49.6237C137.585 49.8286 138.509 49.931 139.464 49.931C140.418 49.9169 141.342 49.8003 142.236 49.5813C143.129 49.3623 143.943 49.0408 144.677 48.6168C145.252 48.2848 145.705 47.9244 146.035 47.5358C146.378 47.1402 146.586 46.7445 146.659 46.3488C146.721 45.9461 146.647 45.5646 146.439 45.2042C146.231 44.8439 145.888 44.5259 145.411 44.2504L144.769 43.8794L145.43 43.9218L140.914 46.529L139.5 45.7129L145.154 42.4487C145.264 42.4981 145.393 42.5582 145.54 42.6289C145.674 42.6924 145.809 42.7631 145.944 42.8408C146.078 42.9044 146.201 42.968 146.311 43.0316C147.106 43.4908 147.694 43.9996 148.073 44.5577C148.44 45.1088 148.605 45.6776 148.569 46.264C148.532 46.8363 148.305 47.398 147.889 47.9492C147.461 48.4932 146.843 48.9984 146.035 49.4647Z" fill="#1F1F1F"/>
<path d="M120.916 42.6772L107.791 35.0995L114.911 30.9891C115.948 30.3902 117.055 29.9676 118.231 29.7214C119.424 29.466 120.58 29.3899 121.702 29.4929C122.839 29.5869 123.814 29.8685 124.626 30.3376C125.476 30.8283 125.995 31.4092 126.183 32.0802C126.374 32.7349 126.255 33.41 125.825 34.1056C125.411 34.7921 124.685 35.4348 123.648 36.0337L120.536 37.8303L124.924 40.3634L120.916 42.6772ZM117.672 36.2581L120.288 34.7473C120.634 34.5477 120.88 34.3265 121.025 34.0838C121.171 33.8411 121.211 33.6013 121.146 33.3644C121.082 33.1274 120.893 32.9187 120.581 32.7383C120.256 32.5507 119.894 32.4418 119.496 32.4117C119.099 32.3816 118.696 32.4122 118.288 32.5033C117.88 32.5945 117.503 32.7399 117.157 32.9395L114.54 34.4503L117.672 36.2581Z" fill="#1F1F1F"/>
<path d="M94.2109 88.0461L29.2109 50.5183V85.1593L94.2109 122.687V88.0461Z" fill="url(#paint1_radial_282_5612)" stroke="#1F1F1F" stroke-width="0.721688"/>
<path d="M52.875 73.6121L52.875 73.6121C51.3217 72.7153 50.0625 73.4423 50.0625 75.2359V85.3395C50.0625 87.1331 51.3217 89.3141 52.875 90.2109C54.4283 91.1077 55.6875 90.3807 55.6875 88.5871V78.4835C55.6875 76.6899 54.4283 74.5089 52.875 73.6121Z" fill="url(#paint2_linear_282_5612)" fill-opacity="0.3"/>
<path d="M52.875 73.6121L52.875 73.6121C54.4283 74.5089 55.6875 76.6899 55.6875 78.4835V88.5871C55.6875 90.3807 54.4283 91.1077 52.875 90.2109L52.875 90.2109C51.3217 89.3141 50.0625 87.1331 50.0625 85.3395V75.2359C50.0625 73.4423 51.3217 72.7153 52.875 73.6121Z" stroke="#1F1F1F" stroke-width="0.721688"/>
<path d="M61.625 78.6638L61.625 78.6638C60.0717 77.767 58.8125 78.494 58.8125 80.2876V90.3912C58.8125 92.1848 60.0717 94.3658 61.625 95.2626C63.1783 96.1594 64.4375 95.4324 64.4375 93.6388V83.5352C64.4375 81.7416 63.1783 79.5606 61.625 78.6638Z" fill="url(#paint3_linear_282_5612)" fill-opacity="0.3"/>
<path d="M61.625 78.6638L61.625 78.6638C63.1783 79.5606 64.4375 81.7416 64.4375 83.5352V93.6388C64.4375 95.4324 63.1783 96.1594 61.625 95.2626L61.625 95.2626C60.0717 94.3658 58.8125 92.1848 58.8125 90.3912V80.2876C58.8125 78.494 60.0717 77.767 61.625 78.6638Z" stroke="#1F1F1F" stroke-width="0.721688"/>
<path d="M70.375 83.7156L70.375 83.7156C68.8217 82.8188 67.5625 83.5458 67.5625 85.3394V95.443C67.5625 97.2366 68.8217 99.4176 70.375 100.314C71.9283 101.211 73.1875 100.484 73.1875 98.6906V88.587C73.1875 86.7934 71.9283 84.6124 70.375 83.7156Z" fill="url(#paint4_linear_282_5612)" fill-opacity="0.3"/>
<path d="M70.375 83.7156L70.375 83.7156C71.9283 84.6124 73.1875 86.7934 73.1875 88.587V98.6906C73.1875 100.484 71.9283 101.211 70.375 100.314L70.375 100.314C68.8217 99.4176 67.5625 97.2366 67.5625 95.443V85.3394C67.5625 83.5458 68.8217 82.8188 70.375 83.7156Z" stroke="#1F1F1F" stroke-width="0.721688"/>
<path d="M174.211 50.5182L109.211 88.0459V122.687L174.211 85.1591V50.5182Z" fill="url(#paint5_radial_282_5612)" stroke="#1F1F1F" stroke-width="0.721688"/>
<path d="M26.1055 46.188C26.1055 47.879 27.2927 49.4099 29.2121 50.5181V85.1591C27.2927 84.0509 26.1055 82.52 26.1055 80.829V46.188Z" fill="url(#paint6_radial_282_5612)" stroke="#1F1F1F" stroke-width="0.721688"/>
<path d="M94.2109 88.0459C98.3531 90.4374 105.069 90.4374 109.211 88.0459V122.687C105.069 125.078 98.3531 125.078 94.2109 122.687V88.0459Z" fill="url(#paint7_radial_282_5612)" stroke="#1F1F1F" stroke-width="0.721688"/>
<path d="M177.318 46.188C177.318 47.879 176.13 49.4099 174.211 50.5181V85.1591C176.13 84.0509 177.318 82.52 177.318 80.829V46.188Z" fill="url(#paint8_radial_282_5612)" stroke="#1F1F1F" stroke-width="0.721688"/>
<path d="M130.17 92.9173C130.17 94.7109 131.429 95.4379 132.982 94.5411C134.536 93.6443 135.795 91.4633 135.795 89.6697C135.795 87.8761 134.536 87.1491 132.982 88.0459C131.429 88.9427 130.17 91.1237 130.17 92.9173Z" fill="#7B9D89" stroke="#1F1F1F" stroke-width="0.721688"/>
<path d="M138.92 87.8655C138.92 89.6591 140.179 90.3861 141.732 89.4893C143.286 88.5925 144.545 86.4115 144.545 84.618C144.545 82.8244 143.286 82.0974 141.732 82.9942C140.179 83.891 138.92 86.0719 138.92 87.8655Z" fill="#EE585A" stroke="#1F1F1F" stroke-width="0.721688"/>
<path d="M147.67 82.8135C147.67 84.6071 148.929 85.3341 150.482 84.4373C152.036 83.5405 153.295 81.3595 153.295 79.5659C153.295 77.7724 152.036 77.0454 150.482 77.9422C148.929 78.839 147.67 81.0199 147.67 82.8135Z" fill="#1F1F1F" stroke="#1F1F1F" stroke-width="0.721688"/>
<path d="M28.1842 38.8244C14.3047 46.5311 5.03433 55.0481 1.54539 63.2984C-1.94355 71.5487 0.505638 79.1618 8.58323 85.1749C16.6608 91.188 30.004 95.331 46.9255 97.0801C63.847 98.8291 83.5868 98.1057 103.649 95.0012C123.711 91.8967 143.194 86.5506 159.634 79.6389C176.074 72.7273 188.733 64.5605 196.01 56.1714C203.287 47.7822 204.855 39.5474 200.517 32.5084C196.178 25.4694 186.127 19.9423 171.635 16.626L170.22 17.4114C184.42 20.6608 194.269 26.0765 198.52 32.9737C202.771 39.8708 201.235 47.9396 194.104 56.1597C186.974 64.3797 174.57 72.3819 158.461 79.1542C142.352 85.9266 123.262 91.1649 103.605 94.2068C83.947 97.2488 64.6051 97.9576 48.0247 96.2438C31.4443 94.53 18.37 90.4705 10.4552 84.5786C2.54043 78.6867 0.140613 71.2271 3.55923 63.1431C6.97785 55.0591 16.0614 46.7137 29.6611 39.1623L28.1842 38.8244Z" fill="#EE585A"/>
<path d="M184.451 42.8244C198.331 50.5311 207.601 59.0481 211.09 67.2984C214.579 75.5487 212.13 83.1618 204.052 89.1749C195.975 95.188 182.631 99.331 165.71 101.08C148.788 102.829 129.049 102.106 108.987 99.0012C88.9246 95.8967 69.4418 90.5506 53.0017 83.6389C36.5616 76.7273 23.9026 68.5605 16.6255 60.1714C9.34835 51.7822 7.78004 43.5474 12.1188 36.5084C16.4576 29.4694 26.5086 23.9423 41.0008 20.626L42.4152 21.4114C28.2152 24.6608 18.3668 30.0765 14.1155 36.9737C9.8641 43.8708 11.4008 51.9396 18.5312 60.1597C25.6617 68.3797 38.0655 76.3819 54.1742 83.1542C70.283 89.9266 89.3731 95.1649 109.031 98.2068C128.688 101.249 148.03 101.958 164.611 100.244C181.191 98.53 194.265 94.4705 202.18 88.5786C210.095 82.6867 212.495 75.2271 209.076 67.1431C205.658 59.0591 196.574 50.7137 182.974 43.1623L184.451 42.8244Z" fill="#EE585A"/>
</g>
<defs>
<radialGradient id="paint0_radial_282_5612" cx="0" cy="0" r="1" gradientTransform="matrix(83.5789 -48.2543 81.2903 19.9919 101.71 46.1881)" gradientUnits="userSpaceOnUse">
<stop offset="0.375" stop-color="white"/>
<stop offset="1" stop-color="#D7D7D7"/>
</radialGradient>
<radialGradient id="paint1_radial_282_5612" cx="0" cy="0" r="1" gradientTransform="matrix(5.13925e-07 -36.1907 47.0914 17.0853 61.7109 86.6027)" gradientUnits="userSpaceOnUse">
<stop offset="0.375" stop-color="white"/>
<stop offset="1" stop-color="#D7D7D7"/>
</radialGradient>
<linearGradient id="paint2_linear_282_5612" x1="49.7914" y1="79.9594" x2="56.0419" y2="79.9594" gradientUnits="userSpaceOnUse">
<stop stop-color="#1F1F1F"/>
<stop offset="1" stop-color="#F4F4F4"/>
</linearGradient>
<linearGradient id="paint3_linear_282_5612" x1="58.5414" y1="85.0112" x2="64.7919" y2="85.0112" gradientUnits="userSpaceOnUse">
<stop stop-color="#1F1F1F"/>
<stop offset="1" stop-color="#F4F4F4"/>
</linearGradient>
<linearGradient id="paint4_linear_282_5612" x1="67.2914" y1="90.0629" x2="73.5419" y2="90.0629" gradientUnits="userSpaceOnUse">
<stop stop-color="#1F1F1F"/>
<stop offset="1" stop-color="#F4F4F4"/>
</linearGradient>
<radialGradient id="paint5_radial_282_5612" cx="0" cy="0" r="1" gradientTransform="matrix(5.13925e-07 -36.1907 47.0914 -37.2911 141.711 86.6025)" gradientUnits="userSpaceOnUse">
<stop offset="0.375" stop-color="white"/>
<stop offset="1" stop-color="#D7D7D7"/>
</radialGradient>
<radialGradient id="paint6_radial_282_5612" cx="0" cy="0" r="1" gradientTransform="matrix(2.45625e-08 -40.7146 2.25068 -11.3658 27.6588 65.6736)" gradientUnits="userSpaceOnUse">
<stop offset="0.375" stop-color="white"/>
<stop offset="1" stop-color="#D7D7D7"/>
</radialGradient>
<radialGradient id="paint7_radial_282_5612" cx="0" cy="0" r="1" gradientTransform="matrix(1.18598e-07 -38.0646 10.8672 -10.626 101.711 106.263)" gradientUnits="userSpaceOnUse">
<stop offset="0.375" stop-color="white"/>
<stop offset="1" stop-color="#D7D7D7"/>
</radialGradient>
<radialGradient id="paint8_radial_282_5612" cx="0" cy="0" r="1" gradientTransform="matrix(2.45625e-08 -40.7146 2.25068 -11.3658 175.764 65.6736)" gradientUnits="userSpaceOnUse">
<stop offset="0.375" stop-color="white"/>
<stop offset="1" stop-color="#D7D7D7"/>
</radialGradient>
<clipPath id="clip0_282_5612">
<rect width="213" height="125" fill="white"/>
</clipPath>
</defs>
</svg>
