<svg preserveAspectRatio="none" width="100%" height="100%" overflow="visible" style="display: block;" viewBox="0 0 264.527 269.971" fill="none" xmlns="http://www.w3.org/2000/svg">
<g id="System-node" filter="url(#filter0_dddd_0_4)">
<g clip-path="url(#clip0_0_4)">
<path id="Vector" d="M116.871 7.98528C122.611 4.67157 131.916 4.67157 137.656 7.98528L227.723 59.9853C233.462 63.299 233.462 68.6716 227.723 71.9853L137.656 123.985C131.916 127.299 122.611 127.299 116.871 123.985L26.8046 71.9853C21.0651 68.6716 21.0651 63.299 26.8046 59.9853L116.871 7.98528Z" fill="var(--fill-0, white)"/>
<path id="Vector_2" d="M116.871 7.98528C122.611 4.67157 131.916 4.67157 137.656 7.98528L227.723 59.9853C233.462 63.299 233.462 68.6716 227.723 71.9853L137.656 123.985C131.916 127.299 122.611 127.299 116.871 123.985L26.8046 71.9853C21.0651 68.6716 21.0651 63.299 26.8046 59.9853L116.871 7.98528Z" fill="url(#paint0_linear_0_4)"/>
<path id="Vector_3" d="M116.871 7.98528C122.611 4.67157 131.916 4.67157 137.656 7.98528L227.723 59.9853C233.462 63.299 233.462 68.6716 227.723 71.9853L137.656 123.985C131.916 127.299 122.611 127.299 116.871 123.985L26.8046 71.9853C21.0651 68.6716 21.0651 63.299 26.8046 59.9853L116.871 7.98528Z" stroke="var(--stroke-0, #1F1F1F)"/>
<path id="Vector_4" d="M69.3829 38.4853C72.7309 36.5523 78.1592 36.5523 81.5072 38.4853L114.416 57.4853C117.764 59.4183 117.764 62.5523 114.416 64.4853L81.5072 83.4853C78.1592 85.4183 72.7309 85.4183 69.3829 83.4853L36.4739 64.4853C33.1259 62.5523 33.1259 59.4183 36.4739 57.4853L69.3829 38.4853Z" fill="var(--fill-0, white)"/>
<path id="Vector_5" d="M69.3829 38.4853C72.7309 36.5523 78.1592 36.5523 81.5072 38.4853L114.416 57.4853C117.764 59.4183 117.764 62.5523 114.416 64.4853L81.5072 83.4853C78.1592 85.4183 72.7309 85.4183 69.3829 83.4853L36.4739 64.4853C33.1259 62.5523 33.1259 59.4183 36.4739 57.4853L69.3829 38.4853Z" fill="url(#paint1_linear_0_4)"/>
<path id="Vector_6" d="M36.4739 64.4853L69.3829 83.4853V88.4853L36.4739 69.4853V64.4853Z" fill="url(#paint2_linear_0_4)"/>
<path id="Vector_7" d="M81.5072 83.4853L114.416 64.4853V69.4853L81.5072 88.4853V83.4853Z" fill="url(#paint3_linear_0_4)"/>
<path id="Vector_8" d="M33.9629 60.9853C33.9629 62.3521 34.9225 63.5895 36.4739 64.4853V69.4853C34.9225 68.5895 33.9629 67.3521 33.9629 65.9853V60.9853Z" fill="url(#paint4_linear_0_4)"/>
<path id="Vector_9" d="M69.3829 83.4853C72.7309 85.4183 78.1592 85.4183 81.5072 83.4853V88.4853C78.1592 90.4183 72.7309 90.4183 69.3829 88.4853V83.4853Z" fill="url(#paint5_linear_0_4)"/>
<path id="Vector_10" d="M116.927 60.9853C116.927 62.3521 115.968 63.5895 114.416 64.4853V69.4853C115.968 68.5895 116.927 67.3521 116.927 65.9853V60.9853Z" fill="url(#paint6_linear_0_4)"/>
<path id="Vector_11" d="M114.416 64.4853C117.764 62.5523 117.764 59.4183 114.416 57.4853L81.5072 38.4853C78.1592 36.5523 72.7309 36.5523 69.3829 38.4853L36.4739 57.4853C33.1259 59.4183 33.1259 62.5523 36.4739 64.4853M114.416 64.4853L81.5072 83.4853M114.416 64.4853V69.4853M114.416 64.4853C115.968 63.5895 116.927 62.3521 116.927 60.9853V65.9853C116.927 67.3521 115.968 68.5895 114.416 69.4853M36.4739 64.4853L69.3829 83.4853M36.4739 64.4853V69.4853M36.4739 64.4853C34.9225 63.5895 33.9629 62.3521 33.9629 60.9853V65.9853C33.9629 67.3521 34.9225 68.5895 36.4739 69.4853M81.5072 83.4853C78.1592 85.4183 72.7309 85.4183 69.3829 83.4853M81.5072 83.4853V88.4853M114.416 69.4853L81.5072 88.4853M69.3829 83.4853V88.4853M81.5072 88.4853C78.1592 90.4183 72.7309 90.4183 69.3829 88.4853M69.3829 88.4853L36.4739 69.4853" stroke="var(--stroke-0, #1F1F1F)"/>
<path id="Vector_12" d="M65.8636 63.0409L83.2805 65.7352L78.6138 55.6796L80.1133 54.8138L85.8786 67.2352L64.3641 63.9066L65.8636 63.0409Z" fill="var(--fill-0, #1F1F1F)"/>
<path id="Vector_13" d="M68.3636 61.5975L78.9504 63.2352L76.1138 57.1229L77.6133 56.2572L81.5485 64.7352L66.8641 62.4632L68.3636 61.5975Z" fill="var(--fill-0, #1F1F1F)"/>
<path id="Vector_14" d="M61.5335 60.5409L66.9977 61.3861L65.4982 62.2518L60.034 61.4066L61.5335 60.5409Z" fill="var(--fill-0, #1F1F1F)"/>
<path id="Vector_15" d="M75.7831 52.3138L77.2471 55.4686L75.7476 56.3343L74.2837 53.1796L75.7831 52.3138Z" fill="var(--fill-0, #1F1F1F)"/>
<path id="Vector_16" fill-rule="evenodd" clip-rule="evenodd" d="M68.1251 44.9852C71.9514 42.7761 78.1551 42.7761 81.9815 44.9852L102.766 56.9852C106.592 59.1944 106.592 62.7761 102.766 64.9852L81.9815 76.9852C78.1551 79.1944 71.9514 79.1944 68.1251 76.9852L47.3405 64.9852C43.5141 62.7761 43.5141 59.1944 47.3405 56.9852L68.1251 44.9852ZM53.3375 59.2728L60.1676 60.3295L57.6676 61.7728L64.4977 62.8295L61.9978 64.2728L87.6106 68.2352L80.7476 53.4476L78.2476 54.891L76.4174 50.9476L73.9175 52.391L72.0873 48.4476L53.3375 59.2728Z" fill="var(--fill-0, #1F1F1F)"/>
<path id="Vector_17" d="M121.383 8.48527C124.731 6.55227 130.159 6.55227 133.507 8.48527L166.416 27.4853C169.764 29.4183 169.764 32.5523 166.416 34.4853L133.507 53.4853C130.159 55.4183 124.731 55.4183 121.383 53.4853L88.4739 34.4853C85.1259 32.5523 85.1259 29.4183 88.4739 27.4853L121.383 8.48527Z" fill="var(--fill-0, white)"/>
<path id="Vector_18" d="M121.383 8.48527C124.731 6.55227 130.159 6.55227 133.507 8.48527L166.416 27.4853C169.764 29.4183 169.764 32.5523 166.416 34.4853L133.507 53.4853C130.159 55.4183 124.731 55.4183 121.383 53.4853L88.4739 34.4853C85.1259 32.5523 85.1259 29.4183 88.4739 27.4853L121.383 8.48527Z" fill="url(#paint7_linear_0_4)"/>
<path id="Vector_19" d="M88.4739 34.4853L121.383 53.4853V58.4853L88.4739 39.4853V34.4853Z" fill="url(#paint8_linear_0_4)"/>
<path id="Vector_20" d="M133.507 53.4853L166.416 34.4853V39.4853L133.507 58.4853V53.4853Z" fill="url(#paint9_linear_0_4)"/>
<path id="Vector_21" d="M85.9629 30.9853C85.9629 32.3521 86.9225 33.5895 88.4739 34.4853V39.4853C86.9225 38.5895 85.9629 37.3521 85.9629 35.9853V30.9853Z" fill="url(#paint10_linear_0_4)"/>
<path id="Vector_22" d="M121.383 53.4853C124.731 55.4183 130.159 55.4183 133.507 53.4853V58.4853C130.159 60.4183 124.731 60.4183 121.383 58.4853V53.4853Z" fill="url(#paint11_linear_0_4)"/>
<path id="Vector_23" d="M168.927 30.9853C168.927 32.3521 167.968 33.5895 166.416 34.4853V39.4853C167.968 38.5895 168.927 37.3521 168.927 35.9853V30.9853Z" fill="url(#paint12_linear_0_4)"/>
<path id="Vector_24" d="M88.4739 34.4853L121.383 53.4853M88.4739 34.4853C85.1259 32.5523 85.1259 29.4183 88.4739 27.4853L121.383 8.48527C124.731 6.55227 130.159 6.55227 133.507 8.48527L166.416 27.4853C169.764 29.4183 169.764 32.5523 166.416 34.4853M88.4739 34.4853V39.4853M88.4739 34.4853C86.9225 33.5895 85.9629 32.3521 85.9629 30.9853V35.9853C85.9629 37.3521 86.9225 38.5895 88.4739 39.4853M121.383 53.4853C124.731 55.4183 130.159 55.4183 133.507 53.4853M121.383 53.4853V58.4853M166.416 34.4853L133.507 53.4853M166.416 34.4853V39.4853M166.416 34.4853C167.968 33.5895 168.927 32.3521 168.927 30.9853V35.9853C168.927 37.3521 167.968 38.5895 166.416 39.4853M88.4739 39.4853L121.383 58.4853M133.507 53.4853V58.4853M133.507 58.4853C130.159 60.4183 124.731 60.4183 121.383 58.4853M133.507 58.4853L166.416 39.4853" stroke="var(--stroke-0, #1F1F1F)"/>
<path id="Vector_25" d="M118.352 31.5018C118.377 31.5148 118.401 31.5281 118.425 31.5409C118.453 31.5554 118.48 31.5704 118.508 31.5848L118.507 31.5814C118.747 31.7047 118.994 31.8231 119.25 31.9359L119.251 31.9383C119.275 31.9491 119.3 31.9595 119.324 31.9701C119.363 31.9868 119.402 32.0025 119.441 32.0189C119.548 32.0645 119.657 32.1095 119.767 32.1532C119.817 32.1731 119.866 32.1932 119.917 32.2128C119.943 32.2228 119.969 32.2331 119.995 32.243L119.994 32.2406C120.236 32.3327 120.484 32.4202 120.737 32.5028L120.738 32.5043C120.766 32.5135 120.795 32.522 120.824 32.5311C120.888 32.5516 120.951 32.5723 121.016 32.5922C121.167 32.6388 121.32 32.6843 121.475 32.7274C121.72 32.7955 121.97 32.8576 122.222 32.9169L122.223 32.9183C122.467 32.9755 122.716 33.0289 122.968 33.0775L122.967 33.0751C123.211 33.1224 123.458 33.1661 123.709 33.2049L123.71 33.2064C123.733 33.2099 123.756 33.2132 123.779 33.2167C123.825 33.2237 123.871 33.2305 123.917 33.2372C123.971 33.245 124.025 33.2532 124.08 33.2606L124.453 33.308C124.697 33.337 124.945 33.3608 125.194 33.3817L125.195 33.3832C125.359 33.3969 125.525 33.4083 125.691 33.4183C125.725 33.4204 125.758 33.4223 125.792 33.4242C125.841 33.4269 125.89 33.4301 125.939 33.4325L125.938 33.431C126.184 33.4432 126.431 33.4509 126.681 33.4549L126.682 33.4574C126.805 33.4594 126.929 33.4603 127.052 33.4603C127.177 33.4603 127.301 33.4594 127.425 33.4574L127.424 33.454L127.715 33.4501C127.866 33.4456 128.017 33.4385 128.167 33.431L128.168 33.4325C128.201 33.4308 128.234 33.4284 128.268 33.4266C128.31 33.4243 128.353 33.4219 128.395 33.4193C128.568 33.4091 128.74 33.3979 128.91 33.3837C129.161 33.3628 129.408 33.3356 129.653 33.3065L129.654 33.308C129.798 33.2909 129.942 33.2717 130.084 33.2518C130.108 33.2485 130.131 33.2449 130.155 33.2416C130.235 33.23 130.317 33.2194 130.397 33.2069L130.396 33.2045C130.647 33.1656 130.894 33.1232 131.138 33.076L131.139 33.0775C131.167 33.0722 131.194 33.0663 131.222 33.0609C131.248 33.0557 131.274 33.0501 131.301 33.0448C131.444 33.0157 131.587 32.9849 131.728 32.953C131.766 32.9445 131.804 32.9363 131.842 32.9276C131.855 32.9245 131.869 32.9219 131.882 32.9188C132.135 32.8598 132.381 32.7943 132.625 32.7264L132.626 32.7289C132.689 32.7114 132.751 32.6923 132.814 32.6742C132.844 32.6654 132.875 32.6568 132.905 32.6478C133.061 32.6015 133.217 32.5545 133.369 32.5048C133.623 32.4221 133.868 32.3327 134.111 32.2406L134.112 32.243C134.178 32.2177 134.243 32.1904 134.309 32.1644C134.341 32.1517 134.373 32.1392 134.405 32.1263C134.539 32.0724 134.671 32.0171 134.801 31.9603C134.815 31.954 134.831 31.9481 134.845 31.9418C134.848 31.9405 134.851 31.9396 134.854 31.9383C135.11 31.8256 135.356 31.7066 135.596 31.5834C135.607 31.5779 135.617 31.5723 135.628 31.5668C135.677 31.5415 135.725 31.5162 135.774 31.4906C137.586 32.6751 138.688 34.2302 138.688 35.9349C138.688 39.6449 133.479 42.6522 127.053 42.6522C120.627 42.6522 115.419 39.6449 115.419 35.9349C115.419 34.2304 116.519 32.675 118.331 31.4906C118.338 31.4943 118.345 31.4981 118.352 31.5018Z" fill="var(--fill-0, #1F1F1F)"/>
<path id="Vector_26" d="M134.853 30.951C134.874 30.9623 134.895 30.9739 134.917 30.9852C134.896 30.9964 134.875 31.0078 134.853 31.0189V30.951Z" fill="var(--fill-0, #1F1F1F)"/>
<path id="Vector_27" d="M115.419 26.0355C115.419 22.3255 120.627 19.3182 127.053 19.3182C133.479 19.3182 138.688 22.3255 138.688 26.0355C138.688 27.7405 137.585 29.2953 135.772 30.4799C135.723 30.4541 135.675 30.4281 135.626 30.4027C135.616 30.3975 135.607 30.3918 135.597 30.3866L135.596 30.3881C135.356 30.2648 135.109 30.1463 134.853 30.0336L134.854 30.0321C134.836 30.0242 134.817 30.017 134.799 30.0091C134.747 29.9863 134.693 29.9642 134.64 29.9418C134.541 29.8996 134.44 29.8578 134.338 29.8173C134.288 29.7973 134.238 29.7772 134.188 29.7577C134.162 29.7478 134.137 29.7371 134.112 29.7274L134.111 29.7299C133.869 29.6379 133.621 29.5507 133.368 29.4681L133.369 29.4657C133.331 29.4532 133.291 29.4419 133.252 29.4296C133.202 29.4135 133.151 29.3974 133.1 29.3817C133.067 29.3714 133.034 29.3606 133 29.3505L132.626 29.2416C132.382 29.1739 132.133 29.113 131.882 29.0541V29.0516C131.638 28.9945 131.39 28.9415 131.139 28.8929L131.138 28.8954C130.894 28.8481 130.647 28.8039 130.396 28.765L130.397 28.7635C130.367 28.7588 130.336 28.755 130.305 28.7504C130.265 28.7443 130.224 28.7386 130.183 28.7328C130.131 28.7253 130.08 28.7174 130.028 28.7103L129.654 28.6625C129.408 28.6334 129.16 28.6092 128.91 28.5883V28.5868C128.747 28.5731 128.582 28.5621 128.416 28.5521C128.38 28.55 128.345 28.5482 128.309 28.5463C128.262 28.5436 128.215 28.5403 128.168 28.538L128.167 28.5394C127.921 28.5272 127.673 28.5196 127.424 28.5155L127.425 28.5131C127.301 28.511 127.177 28.5101 127.052 28.5101C126.929 28.5101 126.805 28.511 126.682 28.5131L126.681 28.5155C126.431 28.5196 126.184 28.5272 125.938 28.5394L125.939 28.538C125.89 28.5404 125.841 28.5436 125.792 28.5463C125.758 28.5482 125.725 28.5501 125.691 28.5521C125.525 28.5621 125.359 28.5736 125.195 28.5873L125.194 28.5887C124.932 28.6106 124.673 28.636 124.416 28.6669C124.249 28.687 124.082 28.7094 123.917 28.7333C123.871 28.74 123.825 28.7468 123.779 28.7538C123.756 28.7572 123.733 28.7605 123.71 28.764L123.709 28.7655C123.458 28.8044 123.211 28.8481 122.967 28.8954L122.968 28.8929C122.716 28.9415 122.467 28.995 122.223 29.0521L122.222 29.0536C121.97 29.1128 121.72 29.1749 121.475 29.243C121.32 29.2862 121.167 29.3316 121.016 29.3783C120.951 29.3981 120.888 29.4189 120.824 29.4393C120.795 29.4484 120.766 29.457 120.738 29.4662L120.737 29.4676C120.484 29.5503 120.236 29.6378 119.994 29.7299L119.995 29.7274C119.969 29.7373 119.943 29.7477 119.917 29.7577C119.866 29.7772 119.817 29.7973 119.767 29.8173C119.657 29.8609 119.548 29.906 119.441 29.9515C119.402 29.968 119.363 29.9837 119.324 30.0004C119.3 30.011 119.275 30.0214 119.251 30.0321L119.25 30.0345C118.994 30.1473 118.747 30.2657 118.507 30.389L118.508 30.3856C118.478 30.4012 118.448 30.4172 118.418 30.433C118.406 30.439 118.395 30.4455 118.384 30.4515C118.366 30.4609 118.349 30.4705 118.331 30.4799C116.519 29.2954 115.419 27.74 115.419 26.0355Z" fill="var(--fill-0, #1F1F1F)"/>
<path id="Vector_28" d="M133.367 30.2948C133.622 30.39 133.87 30.49 134.111 30.5961V31.3744C133.871 31.4803 133.623 31.5801 133.368 31.6752L133.367 30.2948Z" fill="var(--fill-0, #1F1F1F)"/>
<path id="Vector_29" d="M131.882 29.8236C132.134 29.8902 132.383 29.9605 132.625 30.037V31.9335C132.383 32.0099 132.134 32.0803 131.882 32.1468V29.8236Z" fill="var(--fill-0, #1F1F1F)"/>
<path id="Vector_30" d="M130.396 29.5004C130.647 29.5438 130.895 29.5917 131.138 29.6444V32.326C130.895 32.3788 130.647 32.4267 130.396 32.4701V29.5004Z" fill="var(--fill-0, #1F1F1F)"/>
<path id="Vector_31" d="M128.91 29.3041C129.16 29.3273 129.408 29.3553 129.653 29.3876V32.5829C129.408 32.6152 129.16 32.6432 128.91 32.6664V29.3041Z" fill="var(--fill-0, #1F1F1F)"/>
<path id="Vector_32" d="M127.423 29.223C127.673 29.2275 127.921 29.2359 128.167 29.2494V32.7211C127.921 32.7345 127.674 32.7424 127.424 32.7469L127.423 29.223Z" fill="var(--fill-0, #1F1F1F)"/>
<path id="Vector_33" d="M125.938 29.2494C126.183 29.2359 126.431 29.2276 126.68 29.223L126.681 32.7469C126.431 32.7424 126.183 32.7346 125.938 32.7211V29.2494Z" fill="var(--fill-0, #1F1F1F)"/>
<path id="Vector_34" d="M124.452 29.3876C124.697 29.3553 124.944 29.3268 125.194 29.3036V32.6669C124.944 32.6436 124.697 32.6152 124.452 32.5829V29.3876Z" fill="var(--fill-0, #1F1F1F)"/>
<path id="Vector_35" d="M122.967 29.6444C123.21 29.5916 123.458 29.5433 123.709 29.4999V32.4706C123.458 32.4271 123.21 32.3789 122.967 32.326V29.6444Z" fill="var(--fill-0, #1F1F1F)"/>
<path id="Vector_36" d="M121.48 30.037C121.722 29.9606 121.97 29.8906 122.222 29.8241V32.1464C121.97 32.0798 121.722 32.0099 121.48 31.9335V30.037Z" fill="var(--fill-0, #1F1F1F)"/>
<path id="Vector_37" d="M119.993 30.5965C120.234 30.4903 120.482 30.3901 120.737 30.2948V31.6757C120.483 31.5804 120.234 31.4805 119.994 31.3744L119.993 30.5965Z" fill="var(--fill-0, #1F1F1F)"/>
<path id="Vector_38" d="M119.188 30.9852C119.208 30.9745 119.229 30.9637 119.249 30.953L119.25 31.0179C119.229 31.0071 119.209 30.9961 119.188 30.9852Z" fill="var(--fill-0, #1F1F1F)"/>
<path id="Vector_39" fill-rule="evenodd" clip-rule="evenodd" d="M120.125 14.9852C123.951 12.7761 130.155 12.7761 133.981 14.9852L154.766 26.9852C158.592 29.1944 158.592 32.7761 154.766 34.9852L133.981 46.9852C130.155 49.1944 123.951 49.1944 120.125 46.9852L99.3405 34.9852C95.5141 32.7761 95.5141 29.1944 99.3405 26.9852L120.125 14.9852ZM127.053 18.6112C120.173 18.6112 114.555 21.7304 114.21 25.6532L114.194 26.0355C114.194 27.9373 115.433 29.6716 117.47 30.9852C115.433 32.2988 114.194 34.0331 114.194 35.9349C114.194 40.0354 119.951 43.3592 127.053 43.3592C134.156 43.3592 139.913 40.0354 139.913 35.9349C139.913 34.0329 138.672 32.2989 136.635 30.9852C138.535 29.76 139.742 28.1692 139.896 26.4174L139.913 26.0355C139.913 22.0631 134.51 18.8197 127.715 18.621L127.053 18.6112Z" fill="var(--fill-0, #1F1F1F)"/>
<path id="Vector_40" d="M121.385 68.4853C124.733 66.5523 130.161 66.5523 133.509 68.4853L166.418 87.4853C169.766 89.4183 169.766 92.5523 166.418 94.4853L133.509 113.485C130.161 115.418 124.733 115.418 121.385 113.485L88.4759 94.4853C85.1278 92.5523 85.1278 89.4183 88.4759 87.4853L121.385 68.4853Z" fill="var(--fill-0, white)"/>
<path id="Vector_41" d="M121.385 68.4853C124.733 66.5523 130.161 66.5523 133.509 68.4853L166.418 87.4853C169.766 89.4183 169.766 92.5523 166.418 94.4853L133.509 113.485C130.161 115.418 124.733 115.418 121.385 113.485L88.4759 94.4853C85.1278 92.5523 85.1278 89.4183 88.4759 87.4853L121.385 68.4853Z" fill="url(#paint13_linear_0_4)"/>
<path id="Vector_42" d="M88.4759 94.4853L121.385 113.485V118.485L88.4759 99.4853V94.4853Z" fill="url(#paint14_linear_0_4)"/>
<path id="Vector_43" d="M133.509 113.485L166.418 94.4853V99.4853L133.509 118.485V113.485Z" fill="url(#paint15_linear_0_4)"/>
<path id="Vector_44" d="M85.9648 90.9853C85.9648 92.3521 86.9244 93.5895 88.4759 94.4853V99.4853C86.9244 98.5895 85.9648 97.3521 85.9648 95.9853V90.9853Z" fill="url(#paint16_linear_0_4)"/>
<path id="Vector_45" d="M121.385 113.485C124.733 115.418 130.161 115.418 133.509 113.485V118.485C130.161 120.418 124.733 120.418 121.385 118.485V113.485Z" fill="url(#paint17_linear_0_4)"/>
<path id="Vector_46" d="M168.929 90.9853C168.929 92.3521 167.97 93.5895 166.418 94.4853V99.4853C167.97 98.5895 168.929 97.3521 168.929 95.9853V90.9853Z" fill="url(#paint18_linear_0_4)"/>
<path id="Vector_47" d="M88.4759 94.4853L121.385 113.485M88.4759 94.4853C85.1278 92.5523 85.1278 89.4183 88.4759 87.4853L121.385 68.4853C124.733 66.5523 130.161 66.5523 133.509 68.4853L166.418 87.4853C169.766 89.4183 169.766 92.5523 166.418 94.4853M88.4759 94.4853V99.4853M88.4759 94.4853C86.9244 93.5895 85.9648 92.3521 85.9648 90.9853V95.9853C85.9648 97.3521 86.9244 98.5895 88.4759 99.4853M121.385 113.485C124.733 115.418 130.161 115.418 133.509 113.485M121.385 113.485V118.485M166.418 94.4853L133.509 113.485M166.418 94.4853V99.4853M166.418 94.4853C167.97 93.5895 168.929 92.3521 168.929 90.9853V95.9853C168.929 97.3521 167.97 98.5895 166.418 99.4853M88.4759 99.4853L121.385 118.485M133.509 113.485V118.485M133.509 118.485C130.161 120.418 124.733 120.418 121.385 118.485M133.509 118.485L166.418 99.4853" stroke="var(--stroke-0, #1F1F1F)"/>
<path id="Vector_48" d="M135.713 85.9867L135.364 91.537L132.449 91.5985L132.694 87.7299L125.993 87.871L126.1 86.1883L135.713 85.9867Z" fill="var(--fill-0, #1F1F1F)"/>
<path id="Vector_49" fill-rule="evenodd" clip-rule="evenodd" d="M120.127 74.9852C123.953 72.7761 130.157 72.7761 133.983 74.9852L154.768 86.9852C158.594 89.1944 158.594 92.7761 154.768 94.9852L133.983 106.985C130.157 109.194 123.953 109.194 120.127 106.985L99.3424 94.9852C95.5161 92.7761 95.5161 89.1944 99.3424 86.9852L120.127 74.9852ZM121.813 87.9589L114.719 88.1078L114.065 98.4852L129.949 98.1512L130.102 95.7382L118.397 95.9838L118.747 90.4335L128.361 90.2313L128.27 91.6864L123.659 91.7831L123.507 94.1966L139.392 93.8627L140.046 83.4852L122.071 83.8627L121.813 87.9589Z" fill="var(--fill-0, #1F1F1F)"/>
<path id="Vector_50" d="M173.383 38.4853C176.731 36.5523 182.159 36.5523 185.507 38.4853L218.416 57.4853C221.764 59.4183 221.764 62.5523 218.416 64.4853L185.507 83.4853C182.159 85.4183 176.731 85.4183 173.383 83.4853L140.474 64.4853C137.126 62.5523 137.126 59.4183 140.474 57.4853L173.383 38.4853Z" fill="var(--fill-0, white)"/>
<path id="Vector_51" d="M173.383 38.4853C176.731 36.5523 182.159 36.5523 185.507 38.4853L218.416 57.4853C221.764 59.4183 221.764 62.5523 218.416 64.4853L185.507 83.4853C182.159 85.4183 176.731 85.4183 173.383 83.4853L140.474 64.4853C137.126 62.5523 137.126 59.4183 140.474 57.4853L173.383 38.4853Z" fill="url(#paint19_linear_0_4)"/>
<path id="Vector_52" d="M140.474 64.4853L173.383 83.4853V88.4853L140.474 69.4853V64.4853Z" fill="url(#paint20_linear_0_4)"/>
<path id="Vector_53" d="M185.507 83.4853L218.416 64.4853V69.4853L185.507 88.4853V83.4853Z" fill="url(#paint21_linear_0_4)"/>
<path id="Vector_54" d="M137.963 60.9853C137.963 62.3521 138.922 63.5895 140.474 64.4853V69.4853C138.922 68.5895 137.963 67.3521 137.963 65.9853V60.9853Z" fill="url(#paint22_linear_0_4)"/>
<path id="Vector_55" d="M173.383 83.4853C176.731 85.4183 182.159 85.4183 185.507 83.4853V88.4853C182.159 90.4183 176.731 90.4183 173.383 88.4853V83.4853Z" fill="url(#paint23_linear_0_4)"/>
<path id="Vector_56" d="M220.927 60.9853C220.927 62.3521 219.968 63.5895 218.416 64.4853V69.4853C219.968 68.5895 220.927 67.3521 220.927 65.9853V60.9853Z" fill="url(#paint24_linear_0_4)"/>
<path id="Vector_57" d="M140.474 64.4853L173.383 83.4853M140.474 64.4853C137.126 62.5523 137.126 59.4183 140.474 57.4853L173.383 38.4853C176.731 36.5523 182.159 36.5523 185.507 38.4853L218.416 57.4853C221.764 59.4183 221.764 62.5523 218.416 64.4853M140.474 64.4853V69.4853M140.474 64.4853C138.922 63.5895 137.963 62.3521 137.963 60.9853V65.9853C137.963 67.3521 138.922 68.5895 140.474 69.4853M173.383 83.4853C176.731 85.4183 182.159 85.4183 185.507 83.4853M173.383 83.4853V88.4853M218.416 64.4853L185.507 83.4853M218.416 64.4853V69.4853M218.416 64.4853C219.968 63.5895 220.927 62.3521 220.927 60.9853V65.9853C220.927 67.3521 219.968 68.5895 218.416 69.4853M140.474 69.4853L173.383 88.4853M185.507 83.4853V88.4853M185.507 88.4853C182.159 90.4183 176.731 90.4183 173.383 88.4853M185.507 88.4853L218.416 69.4853" stroke="var(--stroke-0, #1F1F1F)"/>
<path id="Vector_58" fill-rule="evenodd" clip-rule="evenodd" d="M172.125 44.9852C175.951 42.7761 182.155 42.7761 185.981 44.9852L206.766 56.9852C210.592 59.1944 210.592 62.7761 206.766 64.9852L185.981 76.9852C182.155 79.1944 175.951 79.1944 172.125 76.9852L151.34 64.9852C147.514 62.7761 147.514 59.1944 151.34 56.9852L172.125 44.9852ZM184.249 72.9852L189.446 69.9852L184.249 66.9852L179.053 69.9852L184.249 72.9852ZM194.642 66.9852L199.838 63.9852L194.642 60.9852L189.446 63.9852L194.642 66.9852ZM173.857 72.9852L179.053 69.9852L173.857 66.9852L168.661 69.9852L173.857 72.9852ZM184.249 66.9852L189.446 63.9852L184.249 60.9852L179.053 63.9852L184.249 66.9852ZM194.642 60.9852L199.838 57.9852L194.642 54.9852L189.446 57.9852L194.642 60.9852ZM173.857 66.9852L179.053 63.9852L173.857 60.9852L168.661 63.9852L173.857 66.9852ZM184.249 60.9852L189.446 57.9852L184.249 54.9852L179.053 57.9852L184.249 60.9852ZM163.465 66.9852L168.661 63.9852L163.465 60.9852L158.269 63.9852L163.465 66.9852ZM173.857 60.9852L179.053 57.9852L173.857 54.9852L168.661 57.9852L173.857 60.9852ZM184.249 54.9852L189.446 51.9852L184.249 48.9852L179.053 51.9852L184.249 54.9852ZM163.465 60.9852L168.661 57.9852L163.465 54.9852L158.269 57.9852L163.465 60.9852ZM173.857 54.9852L179.053 51.9852L173.857 48.9852L168.661 51.9852L173.857 54.9852Z" fill="var(--fill-0, #1F1F1F)"/>
<path id="Vector_59" d="M116.871 123.985L26.8047 71.9852V119.985L116.871 171.985V123.985Z" fill="var(--fill-0, white)"/>
<path id="Vector_60" d="M116.871 123.985L26.8047 71.9852V119.985L116.871 171.985V123.985Z" fill="url(#paint25_linear_0_4)"/>
<path id="Vector_61" d="M116.871 123.985L26.8047 71.9852V119.985L116.871 171.985V123.985Z" stroke="var(--stroke-0, #1F1F1F)"/>
<path id="Vector_62" d="M227.723 71.985L137.656 123.985V171.985L227.723 119.985V71.985Z" fill="var(--fill-0, white)"/>
<path id="Vector_63" d="M227.723 71.985L137.656 123.985V171.985L227.723 119.985V71.985Z" fill="url(#paint26_linear_0_4)"/>
<path id="Vector_64" d="M227.723 71.985L137.656 123.985V171.985L227.723 119.985V71.985Z" stroke="var(--stroke-0, #1F1F1F)"/>
<path id="Vector_65" d="M22.5 65.9852C22.5 68.3284 24.145 70.4497 26.8046 71.9852V119.985C24.145 118.45 22.5 116.328 22.5 113.985V65.9852Z" fill="var(--fill-0, white)"/>
<path id="Vector_66" d="M22.5 65.9852C22.5 68.3284 24.145 70.4497 26.8046 71.9852V119.985C24.145 118.45 22.5 116.328 22.5 113.985V65.9852Z" fill="url(#paint27_linear_0_4)"/>
<path id="Vector_67" d="M22.5 65.9852C22.5 68.3284 24.145 70.4497 26.8046 71.9852V119.985C24.145 118.45 22.5 116.328 22.5 113.985V65.9852Z" stroke="var(--stroke-0, #1F1F1F)"/>
<path id="Vector_68" d="M116.871 123.985C122.611 127.299 131.916 127.299 137.656 123.985V171.985C131.916 175.299 122.611 175.299 116.871 171.985V123.985Z" fill="var(--fill-0, white)"/>
<path id="Vector_69" d="M116.871 123.985C122.611 127.299 131.916 127.299 137.656 123.985V171.985C131.916 175.299 122.611 175.299 116.871 171.985V123.985Z" fill="url(#paint28_linear_0_4)"/>
<path id="Vector_70" d="M116.871 123.985C122.611 127.299 131.916 127.299 137.656 123.985V171.985C131.916 175.299 122.611 175.299 116.871 171.985V123.985Z" stroke="var(--stroke-0, #1F1F1F)"/>
<path id="Vector_71" d="M232.027 65.9852C232.027 68.3284 230.382 70.4497 227.723 71.9852V119.985C230.382 118.45 232.027 116.328 232.027 113.985V65.9852Z" fill="var(--fill-0, white)"/>
<path id="Vector_72" d="M232.027 65.9852C232.027 68.3284 230.382 70.4497 227.723 71.9852V119.985C230.382 118.45 232.027 116.328 232.027 113.985V65.9852Z" fill="url(#paint29_linear_0_4)"/>
<path id="Vector_73" d="M232.027 65.9852C232.027 68.3284 230.382 70.4497 227.723 71.9852V119.985C230.382 118.45 232.027 116.328 232.027 113.985V65.9852Z" stroke="var(--stroke-0, #1F1F1F)"/>
<path id="Vector_74" d="M170.594 133.485C168.202 134.866 166.264 133.747 166.264 130.985C166.264 128.224 168.202 124.866 170.594 123.485C172.985 122.105 174.924 123.224 174.924 125.985C174.924 128.747 172.985 132.105 170.594 133.485Z" fill="var(--fill-0, #7B9D89)"/>
<path id="Vector_75" d="M182.718 126.485C180.327 127.866 178.388 126.747 178.388 123.985C178.388 121.224 180.327 117.866 182.718 116.485C185.11 115.105 187.048 116.224 187.048 118.985C187.048 121.747 185.11 125.105 182.718 126.485Z" fill="var(--fill-0, #EE585A)"/>
<path id="Vector_76" d="M194.843 119.485C192.451 120.866 190.512 119.747 190.512 116.985C190.512 114.224 192.451 110.866 194.843 109.485C197.234 108.105 199.173 109.224 199.173 111.985C199.173 114.747 197.234 118.105 194.843 119.485Z" fill="var(--fill-0, #1F1F1F)"/>
<path id="Vector_77" d="M170.844 123.918C171.948 123.281 172.831 123.283 173.405 123.615C173.98 123.946 174.424 124.71 174.424 125.986C174.424 127.258 173.974 128.702 173.223 130.003C172.471 131.305 171.446 132.416 170.344 133.052C169.239 133.69 168.357 133.687 167.782 133.356C167.208 133.024 166.764 132.261 166.764 130.986C166.764 129.713 167.213 128.269 167.965 126.967C168.716 125.666 169.742 124.554 170.844 123.918ZM182.968 116.918C184.072 116.281 184.956 116.283 185.53 116.615C186.105 116.946 186.548 117.71 186.548 118.986C186.548 120.258 186.098 121.702 185.347 123.003C184.595 124.305 183.57 125.416 182.468 126.052C181.363 126.69 180.481 126.687 179.906 126.356C179.332 126.024 178.888 125.261 178.888 123.986C178.888 122.713 179.338 121.269 180.089 119.967C180.84 118.666 181.866 117.554 182.968 116.918ZM195.093 109.918C196.197 109.281 197.08 109.283 197.654 109.615C198.229 109.946 198.673 110.71 198.673 111.986C198.673 113.258 198.223 114.702 197.472 116.003C196.72 117.305 195.694 118.416 194.593 119.052C193.488 119.69 192.605 119.687 192.03 119.356C191.456 119.024 191.013 118.261 191.013 116.986C191.013 115.713 191.463 114.269 192.214 112.967C192.965 111.666 193.991 110.554 195.093 109.918Z" stroke="var(--stroke-0, #1F1F1F)"/>
</g>
</g>
<defs>
<filter id="filter0_dddd_0_4" x="0" y="0" width="265" height="270" filterUnits="userSpaceOnUse" color-interpolation-filters="sRGB">
<feFlood flood-opacity="0" result="BackgroundImageFix"/>
<feColorMatrix in="SourceAlpha" type="matrix" values="0 0 0 0 0 0 0 0 0 0 0 0 0 0 0 0 0 0 127 0" result="hardAlpha"/>
<feOffset dy="4"/>
<feGaussianBlur stdDeviation="4.5"/>
<feColorMatrix type="matrix" values="0 0 0 0 0 0 0 0 0 0 0 0 0 0 0 0 0 0 0.1 0"/>
<feBlend mode="normal" in2="BackgroundImageFix" result="effect1_dropShadow_0_4"/>
<feColorMatrix in="SourceAlpha" type="matrix" values="0 0 0 0 0 0 0 0 0 0 0 0 0 0 0 0 0 0 127 0" result="hardAlpha"/>
<feOffset dx="1" dy="17"/>
<feGaussianBlur stdDeviation="8.5"/>
<feColorMatrix type="matrix" values="0 0 0 0 0 0 0 0 0 0 0 0 0 0 0 0 0 0 0.09 0"/>
<feBlend mode="normal" in2="effect1_dropShadow_0_4" result="effect2_dropShadow_0_4"/>
<feColorMatrix in="SourceAlpha" type="matrix" values="0 0 0 0 0 0 0 0 0 0 0 0 0 0 0 0 0 0 127 0" result="hardAlpha"/>
<feOffset dx="3" dy="38"/>
<feGaussianBlur stdDeviation="11.5"/>
<feColorMatrix type="matrix" values="0 0 0 0 0 0 0 0 0 0 0 0 0 0 0 0 0 0 0.05 0"/>
<feBlend mode="normal" in2="effect2_dropShadow_0_4" result="effect3_dropShadow_0_4"/>
<feColorMatrix in="SourceAlpha" type="matrix" values="0 0 0 0 0 0 0 0 0 0 0 0 0 0 0 0 0 0 127 0" result="hardAlpha"/>
<feOffset dx="5" dy="68"/>
<feGaussianBlur stdDeviation="13.5"/>
<feColorMatrix type="matrix" values="0 0 0 0 0 0 0 0 0 0 0 0 0 0 0 0 0 0 0.01 0"/>
<feBlend mode="normal" in2="effect3_dropShadow_0_4" result="effect4_dropShadow_0_4"/>
<feBlend mode="normal" in="SourceGraphic" in2="effect4_dropShadow_0_4" result="shape"/>
</filter>
<linearGradient id="paint0_linear_0_4" x1="127.264" y1="5.5" x2="127.264" y2="126.471" gradientUnits="userSpaceOnUse">
<stop stop-color="#1F1F1F" stop-opacity="0.1"/>
<stop offset="1" stop-color="#F4F4F4" stop-opacity="0.1"/>
</linearGradient>
<linearGradient id="paint1_linear_0_4" x1="97.9617" y1="49.1282" x2="71.9286" y2="89.9571" gradientUnits="userSpaceOnUse">
<stop stop-color="#1F1F1F" stop-opacity="0.1"/>
<stop offset="1" stop-color="#F0F0F0" stop-opacity="0.1"/>
</linearGradient>
<linearGradient id="paint2_linear_0_4" x1="33.9563" y1="42.5481" x2="116.927" y2="42.5481" gradientUnits="userSpaceOnUse">
<stop stop-color="#F0F0F0"/>
<stop offset="0.8" stop-color="#1F1F1F"/>
</linearGradient>
<linearGradient id="paint3_linear_0_4" x1="33.9563" y1="84.4335" x2="116.927" y2="84.4335" gradientUnits="userSpaceOnUse">
<stop stop-color="#F0F0F0"/>
<stop offset="0.8" stop-color="#1F1F1F"/>
</linearGradient>
<linearGradient id="paint4_linear_0_4" x1="33.9563" y1="63.5118" x2="116.927" y2="63.5118" gradientUnits="userSpaceOnUse">
<stop stop-color="#1F1F1F"/>
<stop offset="1" stop-color="#F0F0F0"/>
</linearGradient>
<linearGradient id="paint5_linear_0_4" x1="33.9571" y1="63.5118" x2="116.928" y2="63.5118" gradientUnits="userSpaceOnUse">
<stop stop-color="#1F1F1F"/>
<stop offset="1" stop-color="#F0F0F0"/>
</linearGradient>
<linearGradient id="paint6_linear_0_4" x1="114.416" y1="65.2395" x2="116.927" y2="65.2395" gradientUnits="userSpaceOnUse">
<stop stop-color="#1F1F1F"/>
<stop offset="1" stop-color="#F0F0F0"/>
</linearGradient>
<linearGradient id="paint7_linear_0_4" x1="149.962" y1="19.1282" x2="123.928" y2="59.9571" gradientUnits="userSpaceOnUse">
<stop stop-color="#1F1F1F" stop-opacity="0.1"/>
<stop offset="1" stop-color="#F0F0F0" stop-opacity="0.1"/>
</linearGradient>
<linearGradient id="paint8_linear_0_4" x1="85.956" y1="12.5481" x2="168.927" y2="12.5481" gradientUnits="userSpaceOnUse">
<stop stop-color="#F0F0F0"/>
<stop offset="0.8" stop-color="#1F1F1F"/>
</linearGradient>
<linearGradient id="paint9_linear_0_4" x1="85.956" y1="54.4335" x2="168.927" y2="54.4335" gradientUnits="userSpaceOnUse">
<stop stop-color="#F0F0F0"/>
<stop offset="0.8" stop-color="#1F1F1F"/>
</linearGradient>
<linearGradient id="paint10_linear_0_4" x1="85.9522" y1="33.5118" x2="168.923" y2="33.5118" gradientUnits="userSpaceOnUse">
<stop stop-color="#1F1F1F"/>
<stop offset="1" stop-color="#F0F0F0"/>
</linearGradient>
<linearGradient id="paint11_linear_0_4" x1="85.9563" y1="33.5118" x2="168.927" y2="33.5118" gradientUnits="userSpaceOnUse">
<stop stop-color="#1F1F1F"/>
<stop offset="1" stop-color="#F0F0F0"/>
</linearGradient>
<linearGradient id="paint12_linear_0_4" x1="166.416" y1="35.2395" x2="168.927" y2="35.2395" gradientUnits="userSpaceOnUse">
<stop stop-color="#1F1F1F"/>
<stop offset="1" stop-color="#F0F0F0"/>
</linearGradient>
<linearGradient id="paint13_linear_0_4" x1="149.964" y1="79.1282" x2="123.93" y2="119.957" gradientUnits="userSpaceOnUse">
<stop stop-color="#1F1F1F" stop-opacity="0.1"/>
<stop offset="1" stop-color="#F0F0F0" stop-opacity="0.1"/>
</linearGradient>
<linearGradient id="paint14_linear_0_4" x1="85.9579" y1="72.5481" x2="168.929" y2="72.5481" gradientUnits="userSpaceOnUse">
<stop stop-color="#F0F0F0"/>
<stop offset="0.8" stop-color="#1F1F1F"/>
</linearGradient>
<linearGradient id="paint15_linear_0_4" x1="85.9579" y1="114.434" x2="168.929" y2="114.434" gradientUnits="userSpaceOnUse">
<stop stop-color="#F0F0F0"/>
<stop offset="0.8" stop-color="#1F1F1F"/>
</linearGradient>
<linearGradient id="paint16_linear_0_4" x1="166.418" y1="95.2395" x2="168.929" y2="95.2395" gradientUnits="userSpaceOnUse">
<stop stop-color="#1F1F1F"/>
<stop offset="1" stop-color="#F0F0F0"/>
</linearGradient>
<linearGradient id="paint17_linear_0_4" x1="85.9582" y1="93.5118" x2="168.929" y2="93.5118" gradientUnits="userSpaceOnUse">
<stop stop-color="#1F1F1F"/>
<stop offset="1" stop-color="#F0F0F0"/>
</linearGradient>
<linearGradient id="paint18_linear_0_4" x1="166.418" y1="95.2395" x2="168.929" y2="95.2395" gradientUnits="userSpaceOnUse">
<stop stop-color="#1F1F1F"/>
<stop offset="1" stop-color="#F0F0F0"/>
</linearGradient>
<linearGradient id="paint19_linear_0_4" x1="201.962" y1="49.1282" x2="175.929" y2="89.9571" gradientUnits="userSpaceOnUse">
<stop stop-color="#1F1F1F" stop-opacity="0.1"/>
<stop offset="1" stop-color="#F0F0F0" stop-opacity="0.1"/>
</linearGradient>
<linearGradient id="paint20_linear_0_4" x1="137.956" y1="42.5481" x2="220.927" y2="42.5481" gradientUnits="userSpaceOnUse">
<stop stop-color="#F0F0F0"/>
<stop offset="0.8" stop-color="#1F1F1F"/>
</linearGradient>
<linearGradient id="paint21_linear_0_4" x1="137.956" y1="84.4335" x2="220.927" y2="84.4335" gradientUnits="userSpaceOnUse">
<stop stop-color="#F0F0F0"/>
<stop offset="0.8" stop-color="#1F1F1F"/>
</linearGradient>
<linearGradient id="paint22_linear_0_4" x1="137.956" y1="63.5118" x2="220.927" y2="63.5118" gradientUnits="userSpaceOnUse">
<stop stop-color="#1F1F1F"/>
<stop offset="1" stop-color="#F0F0F0"/>
</linearGradient>
<linearGradient id="paint23_linear_0_4" x1="137.956" y1="63.5118" x2="220.927" y2="63.5118" gradientUnits="userSpaceOnUse">
<stop stop-color="#1F1F1F"/>
<stop offset="1" stop-color="#F0F0F0"/>
</linearGradient>
<linearGradient id="paint24_linear_0_4" x1="218.416" y1="65.2395" x2="220.927" y2="65.2395" gradientUnits="userSpaceOnUse">
<stop stop-color="#1F1F1F"/>
<stop offset="1" stop-color="#F0F0F0"/>
</linearGradient>
<linearGradient id="paint25_linear_0_4" x1="71.838" y1="97.9852" x2="51.0534" y2="133.985" gradientUnits="userSpaceOnUse">
<stop stop-color="#F0F0F0" stop-opacity="0.1"/>
<stop offset="1" stop-color="#1F1F1F" stop-opacity="0.2"/>
</linearGradient>
<linearGradient id="paint26_linear_0_4" x1="182.689" y1="97.985" x2="203.474" y2="133.985" gradientUnits="userSpaceOnUse">
<stop stop-color="#F0F0F0" stop-opacity="0.1"/>
<stop offset="1" stop-color="#1F1F1F" stop-opacity="0.2"/>
</linearGradient>
<linearGradient id="paint27_linear_0_4" x1="24.6523" y1="65.9852" x2="24.6523" y2="119.985" gradientUnits="userSpaceOnUse">
<stop stop-color="#F0F0F0" stop-opacity="0.1"/>
<stop offset="1" stop-color="#1F1F1F" stop-opacity="0.2"/>
</linearGradient>
<linearGradient id="paint28_linear_0_4" x1="127.263" y1="123.985" x2="127.263" y2="174.471" gradientUnits="userSpaceOnUse">
<stop stop-color="#F0F0F0" stop-opacity="0.1"/>
<stop offset="1" stop-color="#1F1F1F" stop-opacity="0.2"/>
</linearGradient>
<linearGradient id="paint29_linear_0_4" x1="229.875" y1="65.9852" x2="229.875" y2="119.985" gradientUnits="userSpaceOnUse">
<stop stop-color="#F0F0F0" stop-opacity="0.1"/>
<stop offset="1" stop-color="#1F1F1F" stop-opacity="0.2"/>
</linearGradient>
<clipPath id="clip0_0_4">
<rect width="211" height="170" fill="white" transform="translate(22 5)"/>
</clipPath>
</defs>
</svg>
