<svg preserveAspectRatio="none" width="100%" height="100%" overflow="visible" style="display: block;" viewBox="0 0 222 173" fill="none" xmlns="http://www.w3.org/2000/svg">
<g id="System-node-proxy">
<path id="Vector" d="M100.459 6C106.199 2.68629 115.504 2.68629 121.244 6L211.311 58C217.05 61.3137 217.05 66.6863 211.311 70L121.244 122C115.504 125.314 106.199 125.314 100.459 122L10.3926 70C4.65311 66.6863 4.6531 61.3137 10.3926 58L100.459 6Z" fill="url(#paint0_radial_0_4)" stroke="var(--stroke-0, #1F1F1F)"/>
<path id="Vector_2" d="M52.8966 35.1314C56.2446 33.1984 61.6729 33.1984 65.0209 35.1314L97.9299 54.1314C101.278 56.0644 101.278 59.1984 97.9299 61.1314L65.0209 80.1314C61.6729 82.0644 56.2446 82.0644 52.8966 80.1314L19.9876 61.1314C16.6395 59.1984 16.6396 56.0644 19.9876 54.1314L52.8966 35.1314Z" fill="var(--fill-0, #1F1F1F)"/>
<path id="Vector_3" d="M19.9876 61.1314L52.8966 80.1314V85.1314L19.9876 66.1314V61.1314Z" fill="url(#paint1_linear_0_4)"/>
<path id="Vector_4" d="M65.0209 80.1314L97.9299 61.1314V66.1314L65.0209 85.1314V80.1314Z" fill="url(#paint2_linear_0_4)"/>
<path id="Vector_5" d="M17.4766 57.6314C17.4766 58.9982 18.4362 60.2357 19.9876 61.1314V66.1314C18.4362 65.2357 17.4766 63.9982 17.4766 62.6314V57.6314Z" fill="url(#paint3_linear_0_4)"/>
<path id="Vector_6" d="M52.8966 80.1314C56.2446 82.0644 61.6729 82.0644 65.0209 80.1314V85.1314C61.6729 87.0644 56.2446 87.0644 52.8966 85.1314V80.1314Z" fill="url(#paint4_linear_0_4)"/>
<path id="Vector_7" d="M100.441 57.6314C100.441 58.9982 99.4813 60.2357 97.9299 61.1314V66.1314C99.4813 65.2357 100.441 63.9982 100.441 62.6314V57.6314Z" fill="url(#paint5_linear_0_4)"/>
<path id="Vector_8" d="M97.9299 61.1314C101.278 59.1984 101.278 56.0644 97.9299 54.1314L65.0209 35.1314C61.6729 33.1984 56.2446 33.1984 52.8966 35.1314L19.9876 54.1314C16.6396 56.0644 16.6395 59.1984 19.9876 61.1314M97.9299 61.1314L65.0209 80.1314M97.9299 61.1314V66.1314M97.9299 61.1314C99.4813 60.2357 100.441 58.9982 100.441 57.6314V62.6314C100.441 63.9982 99.4813 65.2357 97.9299 66.1314M19.9876 61.1314L52.8966 80.1314M19.9876 61.1314V66.1314M19.9876 61.1314C18.4362 60.2357 17.4766 58.9982 17.4766 57.6314V62.6314C17.4766 63.9982 18.4362 65.2357 19.9876 66.1314M65.0209 80.1314C61.6729 82.0644 56.2446 82.0644 52.8966 80.1314M65.0209 80.1314V85.1314M97.9299 66.1314L65.0209 85.1314M52.8966 80.1314V85.1314M65.0209 85.1314C61.6729 87.0644 56.2446 87.0644 52.8966 85.1314M52.8966 85.1314L19.9876 66.1314" stroke="var(--stroke-0, #1F1F1F)"/>
<path id="Vector_9" d="M104.897 5.13139C108.245 3.19839 113.673 3.19839 117.021 5.13139L149.93 24.1314C153.278 26.0644 153.278 29.1984 149.93 31.1314L117.021 50.1314C113.673 52.0644 108.245 52.0644 104.897 50.1314L71.9876 31.1314C68.6395 29.1984 68.6396 26.0644 71.9876 24.1314L104.897 5.13139Z" fill="var(--fill-0, white)"/>
<path id="Vector_10" d="M104.897 5.13139C108.245 3.19839 113.673 3.19839 117.021 5.13139L149.93 24.1314C153.278 26.0644 153.278 29.1984 149.93 31.1314L117.021 50.1314C113.673 52.0644 108.245 52.0644 104.897 50.1314L71.9876 31.1314C68.6395 29.1984 68.6396 26.0644 71.9876 24.1314L104.897 5.13139Z" fill="url(#paint6_linear_0_4)"/>
<path id="Vector_11" d="M71.9876 31.1314L104.897 50.1314V55.1314L71.9876 36.1314V31.1314Z" fill="url(#paint7_linear_0_4)"/>
<path id="Vector_12" d="M117.021 50.1314L149.93 31.1314V36.1314L117.021 55.1314V50.1314Z" fill="url(#paint8_linear_0_4)"/>
<path id="Vector_13" d="M69.4766 27.6314C69.4766 28.9982 70.4362 30.2357 71.9876 31.1314V36.1314C70.4362 35.2357 69.4766 33.9982 69.4766 32.6314V27.6314Z" fill="url(#paint9_linear_0_4)"/>
<path id="Vector_14" d="M104.897 50.1314C108.245 52.0644 113.673 52.0644 117.021 50.1314V55.1314C113.673 57.0644 108.245 57.0644 104.897 55.1314V50.1314Z" fill="url(#paint10_linear_0_4)"/>
<path id="Vector_15" d="M152.441 27.6314C152.441 28.9982 151.481 30.2357 149.93 31.1314V36.1314C151.481 35.2357 152.441 33.9982 152.441 32.6314V27.6314Z" fill="url(#paint11_linear_0_4)"/>
<path id="Vector_16" d="M71.9876 31.1314L104.897 50.1314M71.9876 31.1314C68.6395 29.1984 68.6396 26.0644 71.9876 24.1314L104.897 5.13139C108.245 3.19839 113.673 3.19839 117.021 5.13139L149.93 24.1314C153.278 26.0644 153.278 29.1984 149.93 31.1314M71.9876 31.1314V36.1314M71.9876 31.1314C70.4362 30.2357 69.4766 28.9982 69.4766 27.6314V32.6314C69.4766 33.9982 70.4362 35.2357 71.9876 36.1314M104.897 50.1314C108.245 52.0644 113.673 52.0644 117.021 50.1314M104.897 50.1314V55.1314M149.93 31.1314L117.021 50.1314M149.93 31.1314V36.1314M149.93 31.1314C151.481 30.2357 152.441 28.9982 152.441 27.6314V32.6314C152.441 33.9982 151.481 35.2357 149.93 36.1314M71.9876 36.1314L104.897 55.1314M117.021 50.1314V55.1314M117.021 55.1314C113.673 57.0644 108.245 57.0644 104.897 55.1314M117.021 55.1314L149.93 36.1314" stroke="var(--stroke-0, #1F1F1F)"/>
<path id="Vector_17" d="M104.885 65.1314C108.233 63.1984 113.661 63.1984 117.009 65.1314L149.918 84.1314C153.266 86.0644 153.266 89.1984 149.918 91.1314L117.009 110.131C113.661 112.064 108.233 112.064 104.885 110.131L71.9759 91.1314C68.6278 89.1984 68.6278 86.0644 71.9759 84.1314L104.885 65.1314Z" fill="var(--fill-0, #EE585A)"/>
<path id="Vector_18" d="M71.9759 91.1314L104.885 110.131V115.131L71.9759 96.1314V91.1314Z" fill="url(#paint12_linear_0_4)"/>
<path id="Vector_19" d="M117.009 110.131L149.918 91.1314V96.1314L117.009 115.131V110.131Z" fill="url(#paint13_linear_0_4)"/>
<path id="Vector_20" d="M69.4648 87.6314C69.4648 88.9982 70.4244 90.2357 71.9759 91.1314V96.1314C70.4244 95.2357 69.4648 93.9982 69.4648 92.6314V87.6314Z" fill="url(#paint14_linear_0_4)"/>
<path id="Vector_21" d="M104.885 110.131C108.233 112.064 113.661 112.064 117.009 110.131V115.131C113.661 117.064 108.233 117.064 104.885 115.131V110.131Z" fill="url(#paint15_linear_0_4)"/>
<path id="Vector_22" d="M152.429 87.6314C152.429 88.9982 151.47 90.2357 149.918 91.1314V96.1314C151.47 95.2357 152.429 93.9982 152.429 92.6314V87.6314Z" fill="url(#paint16_linear_0_4)"/>
<path id="Vector_23" d="M71.9759 91.1314L104.885 110.131M71.9759 91.1314C68.6278 89.1984 68.6278 86.0644 71.9759 84.1314L104.885 65.1314C108.233 63.1984 113.661 63.1984 117.009 65.1314L149.918 84.1314C153.266 86.0644 153.266 89.1984 149.918 91.1314M71.9759 91.1314V96.1314M71.9759 91.1314C70.4244 90.2357 69.4648 88.9982 69.4648 87.6314V92.6314C69.4648 93.9982 70.4244 95.2357 71.9759 96.1314M104.885 110.131C108.233 112.064 113.661 112.064 117.009 110.131M104.885 110.131V115.131M149.918 91.1314L117.009 110.131M149.918 91.1314V96.1314M149.918 91.1314C151.47 90.2357 152.429 88.9982 152.429 87.6314V92.6314C152.429 93.9982 151.47 95.2357 149.918 96.1314M71.9759 96.1314L104.885 115.131M117.009 110.131V115.131M117.009 115.131C113.661 117.064 108.233 117.064 104.885 115.131M117.009 115.131L149.918 96.1314" stroke="var(--stroke-0, #1F1F1F)"/>
<path id="Vector_24" d="M156.881 35.1314C160.229 33.1984 165.657 33.1984 169.005 35.1314L201.914 54.1314C205.262 56.0644 205.262 59.1984 201.914 61.1314L169.005 80.1314C165.657 82.0644 160.229 82.0644 156.881 80.1314L123.972 61.1314C120.624 59.1984 120.624 56.0644 123.972 54.1314L156.881 35.1314Z" fill="var(--fill-0, #7B9D89)"/>
<path id="Vector_25" d="M123.972 61.1314L156.881 80.1314V85.1314L123.972 66.1314V61.1314Z" fill="url(#paint17_linear_0_4)"/>
<path id="Vector_26" d="M169.005 80.1314L201.914 61.1314V66.1314L169.005 85.1314V80.1314Z" fill="url(#paint18_linear_0_4)"/>
<path id="Vector_27" d="M121.461 57.6314C121.461 58.9982 122.421 60.2357 123.972 61.1314V66.1314C122.421 65.2357 121.461 63.9982 121.461 62.6314V57.6314Z" fill="url(#paint19_linear_0_4)"/>
<path id="Vector_28" d="M156.881 80.1314C160.229 82.0644 165.657 82.0644 169.005 80.1314V85.1314C165.657 87.0644 160.229 87.0644 156.881 85.1314V80.1314Z" fill="url(#paint20_linear_0_4)"/>
<path id="Vector_29" d="M204.425 57.6314C204.425 58.9982 203.466 60.2357 201.914 61.1314V66.1314C203.466 65.2357 204.425 63.9982 204.425 62.6314V57.6314Z" fill="url(#paint21_linear_0_4)"/>
<path id="Vector_30" d="M123.972 61.1314L156.881 80.1314M123.972 61.1314C120.624 59.1984 120.624 56.0644 123.972 54.1314L156.881 35.1314C160.229 33.1984 165.657 33.1984 169.005 35.1314L201.914 54.1314C205.262 56.0644 205.262 59.1984 201.914 61.1314M123.972 61.1314V66.1314M123.972 61.1314C122.421 60.2357 121.461 58.9982 121.461 57.6314V62.6314C121.461 63.9982 122.421 65.2357 123.972 66.1314M156.881 80.1314C160.229 82.0644 165.657 82.0644 169.005 80.1314M156.881 80.1314V85.1314M201.914 61.1314L169.005 80.1314M201.914 61.1314V66.1314M201.914 61.1314C203.466 60.2357 204.425 58.9982 204.425 57.6314V62.6314C204.425 63.9982 203.466 65.2357 201.914 66.1314M123.972 66.1314L156.881 85.1314M169.005 80.1314V85.1314M169.005 85.1314C165.657 87.0644 160.229 87.0644 156.881 85.1314M169.005 85.1314L201.914 66.1314" stroke="var(--stroke-0, #1F1F1F)"/>
<path id="Vector_31" d="M100.459 122L10.3926 70V118L100.459 170V122Z" fill="url(#paint22_radial_0_4)" stroke="var(--stroke-0, #1F1F1F)"/>
<path id="Vector_32" d="M18.6235 103.504V96.88L19.5692 97.426V96.334L22.4999 98.026V99.118L23.456 99.67V103.03L22.4999 102.478V103.57L19.6732 101.938V104.11L18.6235 103.504ZM19.6732 100.726L22.3959 102.298V99.178L19.6732 97.606V100.726ZM25.1458 107.27V100.646L26.0915 101.192V100.1L29.0221 101.792V102.884L29.9782 103.436V106.796L29.0221 106.244V107.336L28.5649 107.072V108.044L29.5002 108.584V109.784L28.4609 109.184V108.104L27.5048 107.552V106.46L26.1954 105.704V107.876L25.1458 107.27ZM26.1954 104.492L28.9182 106.064V102.944L26.1954 101.372V104.492ZM32.6137 111.581V110.501L31.668 109.955V104.411L32.6137 104.957V103.865L35.5444 105.557V106.649L36.5005 107.201V112.745L35.5444 112.193V113.273L32.6137 111.581ZM32.7177 110.441L35.4405 112.013V106.709L32.7177 105.137V110.441ZM37.8757 114.619V113.419L38.8214 113.965V111.781L39.7567 112.321V111.361L38.8214 110.821V108.661L37.8757 108.115V106.903L38.9253 107.509V108.601L39.8606 109.141V111.313L40.7128 111.805V109.633L41.6481 110.173V109.081L42.7081 109.693V110.905L41.752 110.353V112.513L40.8167 111.973V112.933L41.752 113.473V115.657L42.7081 116.209V117.409L41.6481 116.797V115.717L40.7128 115.177V112.993L39.8606 112.501V114.685L38.9253 114.145V115.225L37.8757 114.619ZM46.2789 119.471V115.127L45.3436 114.587V113.507L44.3979 112.961V110.669L45.4476 111.275V113.447L46.3829 113.987V115.079L47.235 115.571V114.479L48.1703 115.019V112.847L49.2304 113.459V115.751L48.2743 115.199V116.279L47.339 115.739V120.083L46.2789 119.471ZM50.4026 121.708V120.496L53.7489 122.428V123.64L50.4026 121.708Z" fill="var(--fill-0, #1F1F1F)"/>
<path id="Vector_33" d="M211.311 70L121.244 122V170L211.311 118V70Z" fill="url(#paint23_radial_0_4)" stroke="var(--stroke-0, #1F1F1F)"/>
<path id="Vector_34" d="M150.285 130.325C150.285 132.81 152.03 133.818 154.182 132.575C156.334 131.332 158.079 128.31 158.079 125.825C158.079 123.34 156.334 122.332 154.182 123.575C152.03 124.818 150.285 127.84 150.285 130.325Z" fill="var(--fill-0, #7B9D89)" stroke="var(--stroke-0, #1F1F1F)"/>
<path id="Vector_35" d="M162.41 123.325C162.41 125.81 164.155 126.818 166.307 125.575C168.459 124.332 170.204 121.31 170.204 118.825C170.204 116.34 168.459 115.332 166.307 116.575C164.155 117.818 162.41 120.84 162.41 123.325Z" fill="var(--fill-0, #EE585A)" stroke="var(--stroke-0, #1F1F1F)"/>
<path id="Vector_36" d="M174.533 116.325C174.533 118.81 176.278 119.818 178.43 118.575C180.582 117.332 182.327 114.31 182.327 111.825C182.327 109.34 180.582 108.332 178.43 109.575C176.278 110.818 174.533 113.84 174.533 116.325Z" fill="var(--fill-0, #1F1F1F)" stroke="var(--stroke-0, #1F1F1F)"/>
<path id="Vector_37" d="M6.08789 64C6.08789 66.3431 7.7329 68.4645 10.3925 70V118C7.7329 116.464 6.08789 114.343 6.08789 112V64Z" fill="url(#paint24_radial_0_4)" stroke="var(--stroke-0, #1F1F1F)"/>
<path id="Vector_38" d="M100.459 122C106.198 125.314 115.504 125.314 121.244 122V170C115.504 173.314 106.198 173.314 100.459 170V122Z" fill="url(#paint25_radial_0_4)" stroke="var(--stroke-0, #1F1F1F)"/>
<path id="Vector_39" d="M215.615 64C215.615 66.3431 213.97 68.4645 211.311 70V118C213.97 116.464 215.615 114.343 215.615 112V64Z" fill="url(#paint26_radial_0_4)" stroke="var(--stroke-0, #1F1F1F)"/>
</g>
<defs>
<radialGradient id="paint0_radial_0_4" cx="0" cy="0" r="1" gradientTransform="matrix(115.81 -66.8632 112.639 27.7016 110.852 64)" gradientUnits="userSpaceOnUse">
<stop offset="0.375" stop-color="white"/>
<stop offset="1" stop-color="#D7D7D7"/>
</radialGradient>
<linearGradient id="paint1_linear_0_4" x1="17.4699" y1="39.1942" x2="100.441" y2="39.1942" gradientUnits="userSpaceOnUse">
<stop stop-color="#F0F0F0"/>
<stop offset="0.8" stop-color="#1F1F1F"/>
</linearGradient>
<linearGradient id="paint2_linear_0_4" x1="17.4699" y1="81.0796" x2="100.441" y2="81.0796" gradientUnits="userSpaceOnUse">
<stop stop-color="#F0F0F0"/>
<stop offset="0.8" stop-color="#1F1F1F"/>
</linearGradient>
<linearGradient id="paint3_linear_0_4" x1="17.4699" y1="60.158" x2="100.441" y2="60.158" gradientUnits="userSpaceOnUse">
<stop stop-color="#1F1F1F"/>
<stop offset="1" stop-color="#F0F0F0"/>
</linearGradient>
<linearGradient id="paint4_linear_0_4" x1="17.4708" y1="60.158" x2="100.442" y2="60.158" gradientUnits="userSpaceOnUse">
<stop stop-color="#1F1F1F"/>
<stop offset="1" stop-color="#F0F0F0"/>
</linearGradient>
<linearGradient id="paint5_linear_0_4" x1="97.9299" y1="61.8856" x2="100.441" y2="61.8856" gradientUnits="userSpaceOnUse">
<stop stop-color="#1F1F1F"/>
<stop offset="1" stop-color="#F0F0F0"/>
</linearGradient>
<linearGradient id="paint6_linear_0_4" x1="133.475" y1="15.7743" x2="107.442" y2="56.6032" gradientUnits="userSpaceOnUse">
<stop stop-color="#1F1F1F" stop-opacity="0.1"/>
<stop offset="1" stop-color="#F0F0F0" stop-opacity="0.1"/>
</linearGradient>
<linearGradient id="paint7_linear_0_4" x1="69.4696" y1="9.1942" x2="152.441" y2="9.1942" gradientUnits="userSpaceOnUse">
<stop stop-color="#F0F0F0"/>
<stop offset="0.8" stop-color="#1F1F1F"/>
</linearGradient>
<linearGradient id="paint8_linear_0_4" x1="69.4696" y1="51.0796" x2="152.441" y2="51.0796" gradientUnits="userSpaceOnUse">
<stop stop-color="#F0F0F0"/>
<stop offset="0.8" stop-color="#1F1F1F"/>
</linearGradient>
<linearGradient id="paint9_linear_0_4" x1="69.4659" y1="30.158" x2="152.437" y2="30.158" gradientUnits="userSpaceOnUse">
<stop stop-color="#1F1F1F"/>
<stop offset="1" stop-color="#F0F0F0"/>
</linearGradient>
<linearGradient id="paint10_linear_0_4" x1="69.4699" y1="30.158" x2="152.441" y2="30.158" gradientUnits="userSpaceOnUse">
<stop stop-color="#1F1F1F"/>
<stop offset="1" stop-color="#F0F0F0"/>
</linearGradient>
<linearGradient id="paint11_linear_0_4" x1="149.93" y1="31.8856" x2="152.441" y2="31.8856" gradientUnits="userSpaceOnUse">
<stop stop-color="#1F1F1F"/>
<stop offset="1" stop-color="#F0F0F0"/>
</linearGradient>
<linearGradient id="paint12_linear_0_4" x1="69.4579" y1="69.1942" x2="152.429" y2="69.1942" gradientUnits="userSpaceOnUse">
<stop stop-color="#F0F0F0"/>
<stop offset="0.8" stop-color="#1F1F1F"/>
</linearGradient>
<linearGradient id="paint13_linear_0_4" x1="69.4579" y1="111.08" x2="152.429" y2="111.08" gradientUnits="userSpaceOnUse">
<stop stop-color="#F0F0F0"/>
<stop offset="0.8" stop-color="#1F1F1F"/>
</linearGradient>
<linearGradient id="paint14_linear_0_4" x1="149.918" y1="91.8856" x2="152.429" y2="91.8856" gradientUnits="userSpaceOnUse">
<stop stop-color="#1F1F1F"/>
<stop offset="1" stop-color="#F0F0F0"/>
</linearGradient>
<linearGradient id="paint15_linear_0_4" x1="69.4582" y1="90.158" x2="152.429" y2="90.158" gradientUnits="userSpaceOnUse">
<stop stop-color="#1F1F1F"/>
<stop offset="1" stop-color="#F0F0F0"/>
</linearGradient>
<linearGradient id="paint16_linear_0_4" x1="149.918" y1="91.8856" x2="152.429" y2="91.8856" gradientUnits="userSpaceOnUse">
<stop stop-color="#1F1F1F"/>
<stop offset="1" stop-color="#F0F0F0"/>
</linearGradient>
<linearGradient id="paint17_linear_0_4" x1="121.454" y1="39.1942" x2="204.425" y2="39.1942" gradientUnits="userSpaceOnUse">
<stop stop-color="#F0F0F0"/>
<stop offset="0.8" stop-color="#1F1F1F"/>
</linearGradient>
<linearGradient id="paint18_linear_0_4" x1="121.454" y1="81.0796" x2="204.425" y2="81.0796" gradientUnits="userSpaceOnUse">
<stop stop-color="#F0F0F0"/>
<stop offset="0.8" stop-color="#1F1F1F"/>
</linearGradient>
<linearGradient id="paint19_linear_0_4" x1="121.454" y1="60.158" x2="204.425" y2="60.158" gradientUnits="userSpaceOnUse">
<stop stop-color="#1F1F1F"/>
<stop offset="1" stop-color="#F0F0F0"/>
</linearGradient>
<linearGradient id="paint20_linear_0_4" x1="121.454" y1="60.158" x2="204.425" y2="60.158" gradientUnits="userSpaceOnUse">
<stop stop-color="#1F1F1F"/>
<stop offset="1" stop-color="#F0F0F0"/>
</linearGradient>
<linearGradient id="paint21_linear_0_4" x1="201.914" y1="61.8856" x2="204.425" y2="61.8856" gradientUnits="userSpaceOnUse">
<stop stop-color="#1F1F1F"/>
<stop offset="1" stop-color="#F0F0F0"/>
</linearGradient>
<radialGradient id="paint22_radial_0_4" cx="0" cy="0" r="1" gradientTransform="matrix(7.12116e-07 -50.1474 65.2518 23.6741 55.4259 120)" gradientUnits="userSpaceOnUse">
<stop offset="0.375" stop-color="white"/>
<stop offset="1" stop-color="#D7D7D7"/>
</radialGradient>
<radialGradient id="paint23_radial_0_4" cx="0" cy="0" r="1" gradientTransform="matrix(7.12116e-07 -50.1474 65.2518 -51.6722 166.277 120)" gradientUnits="userSpaceOnUse">
<stop offset="0.375" stop-color="white"/>
<stop offset="1" stop-color="#D7D7D7"/>
</radialGradient>
<radialGradient id="paint24_radial_0_4" cx="0" cy="0" r="1" gradientTransform="matrix(3.40348e-08 -56.4158 3.11863 -15.7489 8.24021 91)" gradientUnits="userSpaceOnUse">
<stop offset="0.375" stop-color="white"/>
<stop offset="1" stop-color="#D7D7D7"/>
</radialGradient>
<radialGradient id="paint25_radial_0_4" cx="0" cy="0" r="1" gradientTransform="matrix(1.64335e-07 -52.7438 15.0581 -14.7238 110.851 147.243)" gradientUnits="userSpaceOnUse">
<stop offset="0.375" stop-color="white"/>
<stop offset="1" stop-color="#D7D7D7"/>
</radialGradient>
<radialGradient id="paint26_radial_0_4" cx="0" cy="0" r="1" gradientTransform="matrix(3.40348e-08 -56.4158 3.11863 -15.7489 213.463 91)" gradientUnits="userSpaceOnUse">
<stop offset="0.375" stop-color="white"/>
<stop offset="1" stop-color="#D7D7D7"/>
</radialGradient>
</defs>
</svg>
