<svg preserveAspectRatio="none" width="100%" height="100%" overflow="visible" style="display: block;" viewBox="0 0 211 170" fill="none" xmlns="http://www.w3.org/2000/svg">
<g id="Sources 1" clip-path="url(#clip0_0_4)">
<path id="Vector" d="M94.8713 2.98528C100.611 -0.328427 109.916 -0.328427 115.656 2.98528L205.723 54.9853C211.462 58.299 211.462 63.6716 205.723 66.9853L115.656 118.985C109.916 122.299 100.611 122.299 94.8713 118.985L4.80463 66.9853C-0.934878 63.6716 -0.934878 58.299 4.80463 54.9853L94.8713 2.98528Z" fill="var(--fill-0, white)"/>
<path id="Vector_2" d="M94.8713 2.98528C100.611 -0.328427 109.916 -0.328427 115.656 2.98528L205.723 54.9853C211.462 58.299 211.462 63.6716 205.723 66.9853L115.656 118.985C109.916 122.299 100.611 122.299 94.8713 118.985L4.80463 66.9853C-0.934878 63.6716 -0.934878 58.299 4.80463 54.9853L94.8713 2.98528Z" fill="url(#paint0_linear_0_4)"/>
<path id="Vector_3" d="M94.8713 2.98528C100.611 -0.328427 109.916 -0.328427 115.656 2.98528L205.723 54.9853C211.462 58.299 211.462 63.6716 205.723 66.9853L115.656 118.985C109.916 122.299 100.611 122.299 94.8713 118.985L4.80463 66.9853C-0.934878 63.6716 -0.934878 58.299 4.80463 54.9853L94.8713 2.98528Z" stroke="var(--stroke-0, #1F1F1F)"/>
<path id="Vector_4" d="M47.3829 33.4853C50.7309 31.5523 56.1592 31.5523 59.5072 33.4853L92.4162 52.4853C95.7643 54.4183 95.7643 57.5523 92.4162 59.4853L59.5072 78.4853C56.1592 80.4183 50.7309 80.4183 47.3829 78.4853L14.4739 59.4853C11.1259 57.5523 11.1259 54.4183 14.4739 52.4853L47.3829 33.4853Z" fill="var(--fill-0, white)"/>
<path id="Vector_5" d="M47.3829 33.4853C50.7309 31.5523 56.1592 31.5523 59.5072 33.4853L92.4162 52.4853C95.7643 54.4183 95.7643 57.5523 92.4162 59.4853L59.5072 78.4853C56.1592 80.4183 50.7309 80.4183 47.3829 78.4853L14.4739 59.4853C11.1259 57.5523 11.1259 54.4183 14.4739 52.4853L47.3829 33.4853Z" fill="url(#paint1_linear_0_4)"/>
<path id="Vector_6" d="M14.4739 59.4853L47.3829 78.4853V83.4853L14.4739 64.4853V59.4853Z" fill="url(#paint2_linear_0_4)"/>
<path id="Vector_7" d="M59.5072 78.4853L92.4162 59.4853V64.4853L59.5072 83.4853V78.4853Z" fill="url(#paint3_linear_0_4)"/>
<path id="Vector_8" d="M11.9629 55.9853C11.9629 57.3521 12.9225 58.5895 14.4739 59.4853V64.4853C12.9225 63.5895 11.9629 62.3521 11.9629 60.9853V55.9853Z" fill="url(#paint4_linear_0_4)"/>
<path id="Vector_9" d="M47.3829 78.4853C50.7309 80.4183 56.1592 80.4183 59.5072 78.4853V83.4853C56.1592 85.4183 50.7309 85.4183 47.3829 83.4853V78.4853Z" fill="url(#paint5_linear_0_4)"/>
<path id="Vector_10" d="M94.9272 55.9853C94.9272 57.3521 93.9677 58.5895 92.4162 59.4853V64.4853C93.9677 63.5895 94.9272 62.3521 94.9272 60.9853V55.9853Z" fill="url(#paint6_linear_0_4)"/>
<path id="Vector_11" d="M92.4162 59.4853C95.7643 57.5523 95.7643 54.4183 92.4162 52.4853L59.5072 33.4853C56.1592 31.5523 50.7309 31.5523 47.3829 33.4853L14.4739 52.4853C11.1259 54.4183 11.1259 57.5523 14.4739 59.4853M92.4162 59.4853L59.5072 78.4853M92.4162 59.4853V64.4853M92.4162 59.4853C93.9677 58.5895 94.9272 57.3521 94.9272 55.9853V60.9853C94.9272 62.3521 93.9677 63.5895 92.4162 64.4853M14.4739 59.4853L47.3829 78.4853M14.4739 59.4853V64.4853M14.4739 59.4853C12.9225 58.5895 11.9629 57.3521 11.9629 55.9853V60.9853C11.9629 62.3521 12.9225 63.5895 14.4739 64.4853M59.5072 78.4853C56.1592 80.4183 50.7309 80.4183 47.3829 78.4853M59.5072 78.4853V83.4853M92.4162 64.4853L59.5072 83.4853M47.3829 78.4853V83.4853M59.5072 83.4853C56.1592 85.4183 50.7309 85.4183 47.3829 83.4853M47.3829 83.4853L14.4739 64.4853" stroke="var(--stroke-0, #1F1F1F)"/>
<path id="Vector_12" d="M43.8636 58.0409L61.2805 60.7352L56.6138 50.6796L58.1133 49.8138L63.8786 62.2352L42.3641 58.9066L43.8636 58.0409Z" fill="var(--fill-0, #1F1F1F)"/>
<path id="Vector_13" d="M46.3636 56.5975L56.9504 58.2352L54.1138 52.1229L55.6133 51.2572L59.5485 59.7352L44.8641 57.4632L46.3636 56.5975Z" fill="var(--fill-0, #1F1F1F)"/>
<path id="Vector_14" d="M39.5335 55.5409L44.9977 56.3861L43.4982 57.2518L38.034 56.4066L39.5335 55.5409Z" fill="var(--fill-0, #1F1F1F)"/>
<path id="Vector_15" d="M53.7831 47.3138L55.2471 50.4686L53.7476 51.3343L52.2837 48.1796L53.7831 47.3138Z" fill="var(--fill-0, #1F1F1F)"/>
<path id="Vector_16" fill-rule="evenodd" clip-rule="evenodd" d="M46.1251 39.9852C49.9514 37.7761 56.1551 37.7761 59.9815 39.9852L80.7661 51.9852C84.5924 54.1944 84.5924 57.7761 80.7661 59.9852L59.9815 71.9852C56.1551 74.1944 49.9514 74.1944 46.1251 71.9852L25.3405 59.9852C21.5141 57.7761 21.5141 54.1944 25.3405 51.9852L46.1251 39.9852ZM31.3375 54.2728L38.1676 55.3295L35.6676 56.7728L42.4977 57.8295L39.9978 59.2728L65.6106 63.2352L58.7476 48.4476L56.2476 49.891L54.4174 45.9476L51.9175 47.391L50.0873 43.4476L31.3375 54.2728Z" fill="var(--fill-0, #1F1F1F)"/>
<path id="Vector_17" d="M99.3829 3.48527C102.731 1.55227 108.159 1.55227 111.507 3.48527L144.416 22.4853C147.764 24.4183 147.764 27.5523 144.416 29.4853L111.507 48.4853C108.159 50.4183 102.731 50.4183 99.3829 48.4853L66.4739 29.4853C63.1259 27.5523 63.1259 24.4183 66.4739 22.4853L99.3829 3.48527Z" fill="var(--fill-0, white)"/>
<path id="Vector_18" d="M99.3829 3.48527C102.731 1.55227 108.159 1.55227 111.507 3.48527L144.416 22.4853C147.764 24.4183 147.764 27.5523 144.416 29.4853L111.507 48.4853C108.159 50.4183 102.731 50.4183 99.3829 48.4853L66.4739 29.4853C63.1259 27.5523 63.1259 24.4183 66.4739 22.4853L99.3829 3.48527Z" fill="url(#paint7_linear_0_4)"/>
<path id="Vector_19" d="M66.4739 29.4853L99.3829 48.4853V53.4853L66.4739 34.4853V29.4853Z" fill="url(#paint8_linear_0_4)"/>
<path id="Vector_20" d="M111.507 48.4853L144.416 29.4853V34.4853L111.507 53.4853V48.4853Z" fill="url(#paint9_linear_0_4)"/>
<path id="Vector_21" d="M63.9629 25.9853C63.9629 27.3521 64.9225 28.5895 66.4739 29.4853V34.4853C64.9225 33.5895 63.9629 32.3521 63.9629 30.9853V25.9853Z" fill="url(#paint10_linear_0_4)"/>
<path id="Vector_22" d="M99.3829 48.4853C102.731 50.4183 108.159 50.4183 111.507 48.4853V53.4853C108.159 55.4183 102.731 55.4183 99.3829 53.4853V48.4853Z" fill="url(#paint11_linear_0_4)"/>
<path id="Vector_23" d="M146.927 25.9853C146.927 27.3521 145.968 28.5895 144.416 29.4853V34.4853C145.968 33.5895 146.927 32.3521 146.927 30.9853V25.9853Z" fill="url(#paint12_linear_0_4)"/>
<path id="Vector_24" d="M66.4739 29.4853L99.3829 48.4853M66.4739 29.4853C63.1259 27.5523 63.1259 24.4183 66.4739 22.4853L99.3829 3.48527C102.731 1.55227 108.159 1.55227 111.507 3.48527L144.416 22.4853C147.764 24.4183 147.764 27.5523 144.416 29.4853M66.4739 29.4853V34.4853M66.4739 29.4853C64.9225 28.5895 63.9629 27.3521 63.9629 25.9853V30.9853C63.9629 32.3521 64.9225 33.5895 66.4739 34.4853M99.3829 48.4853C102.731 50.4183 108.159 50.4183 111.507 48.4853M99.3829 48.4853V53.4853M144.416 29.4853L111.507 48.4853M144.416 29.4853V34.4853M144.416 29.4853C145.968 28.5895 146.927 27.3521 146.927 25.9853V30.9853C146.927 32.3521 145.968 33.5895 144.416 34.4853M66.4739 34.4853L99.3829 53.4853M111.507 48.4853V53.4853M111.507 53.4853C108.159 55.4183 102.731 55.4183 99.3829 53.4853M111.507 53.4853L144.416 34.4853" stroke="var(--stroke-0, #1F1F1F)"/>
<path id="Vector_25" d="M96.3524 26.5018C96.3768 26.5148 96.4006 26.5281 96.4252 26.5409C96.4529 26.5554 96.48 26.5704 96.508 26.5848L96.5072 26.5814C96.747 26.7047 96.9943 26.8231 97.2497 26.9359L97.2506 26.9383C97.2749 26.9491 97.2997 26.9595 97.3242 26.9701C97.3625 26.9868 97.4022 27.0025 97.4409 27.0189C97.5483 27.0645 97.6565 27.1095 97.7665 27.1532C97.8166 27.1731 97.8664 27.1932 97.917 27.2128C97.943 27.2228 97.9688 27.2331 97.9948 27.243L97.994 27.2406C98.2363 27.3327 98.484 27.4202 98.7374 27.5028L98.7382 27.5043C98.7664 27.5135 98.7953 27.522 98.8236 27.5311C98.8875 27.5516 98.9511 27.5723 99.0156 27.5922C99.167 27.6388 99.3198 27.6843 99.4748 27.7274C99.7195 27.7955 99.9696 27.8576 100.222 27.9169L100.223 27.9183C100.467 27.9755 100.716 28.0289 100.968 28.0775L100.967 28.0751C101.211 28.1224 101.458 28.1661 101.709 28.2049L101.71 28.2064C101.733 28.2099 101.756 28.2132 101.779 28.2167C101.825 28.2237 101.871 28.2305 101.917 28.2372C101.971 28.245 102.025 28.2532 102.08 28.2606L102.453 28.308C102.697 28.337 102.945 28.3608 103.194 28.3817L103.195 28.3832C103.359 28.3969 103.525 28.4083 103.691 28.4183C103.725 28.4204 103.758 28.4223 103.792 28.4242C103.841 28.4269 103.89 28.4301 103.939 28.4325L103.938 28.431C104.184 28.4432 104.431 28.4509 104.681 28.4549L104.682 28.4574C104.805 28.4594 104.929 28.4603 105.052 28.4603C105.177 28.4603 105.301 28.4594 105.425 28.4574L105.424 28.454L105.715 28.4501C105.866 28.4456 106.017 28.4385 106.167 28.431L106.168 28.4325C106.201 28.4308 106.234 28.4284 106.268 28.4266C106.31 28.4243 106.353 28.4219 106.395 28.4193C106.568 28.4091 106.74 28.3979 106.91 28.3837C107.161 28.3628 107.408 28.3356 107.653 28.3065L107.654 28.308C107.798 28.2909 107.942 28.2717 108.084 28.2518C108.108 28.2485 108.131 28.2449 108.155 28.2416C108.235 28.23 108.317 28.2194 108.397 28.2069L108.396 28.2045C108.647 28.1656 108.894 28.1232 109.138 28.076L109.139 28.0775C109.167 28.0722 109.194 28.0663 109.222 28.0609C109.248 28.0557 109.274 28.0501 109.301 28.0448C109.444 28.0157 109.587 27.9849 109.728 27.953C109.766 27.9445 109.804 27.9363 109.842 27.9276C109.855 27.9245 109.869 27.9219 109.882 27.9188C110.135 27.8598 110.381 27.7943 110.625 27.7264L110.626 27.7289C110.689 27.7114 110.751 27.6923 110.814 27.6742C110.844 27.6654 110.875 27.6568 110.905 27.6478C111.061 27.6015 111.217 27.5545 111.369 27.5048C111.623 27.4221 111.868 27.3327 112.111 27.2406L112.112 27.243C112.178 27.2177 112.243 27.1904 112.309 27.1644C112.341 27.1517 112.373 27.1392 112.405 27.1263C112.539 27.0724 112.671 27.0171 112.801 26.9603C112.815 26.954 112.831 26.9481 112.845 26.9418C112.848 26.9405 112.851 26.9396 112.854 26.9383C113.11 26.8256 113.356 26.7066 113.596 26.5834C113.607 26.5779 113.617 26.5723 113.628 26.5668C113.677 26.5415 113.725 26.5162 113.774 26.4906C115.586 27.6751 116.688 29.2302 116.688 30.9349C116.688 34.6449 111.479 37.6522 105.053 37.6522C98.6274 37.6522 93.4186 34.6449 93.4186 30.9349C93.4186 29.2304 94.5193 27.675 96.3313 26.4906C96.3383 26.4943 96.3454 26.4981 96.3524 26.5018Z" fill="var(--fill-0, #1F1F1F)"/>
<path id="Vector_26" d="M112.853 25.951C112.874 25.9623 112.895 25.9739 112.917 25.9852C112.896 25.9964 112.875 26.0078 112.853 26.0189V25.951Z" fill="var(--fill-0, #1F1F1F)"/>
<path id="Vector_27" d="M93.4186 21.0355C93.4186 17.3255 98.6274 14.3182 105.053 14.3182C111.479 14.3182 116.688 17.3255 116.688 21.0355C116.688 22.7405 115.585 24.2953 113.772 25.4799C113.723 25.4541 113.675 25.4281 113.626 25.4027C113.616 25.3975 113.607 25.3918 113.597 25.3866L113.596 25.3881C113.356 25.2648 113.109 25.1463 112.853 25.0336L112.854 25.0321C112.836 25.0242 112.817 25.017 112.799 25.0091C112.747 24.9863 112.693 24.9642 112.64 24.9418C112.541 24.8996 112.44 24.8578 112.338 24.8173C112.288 24.7973 112.238 24.7772 112.188 24.7577C112.162 24.7478 112.137 24.7371 112.112 24.7274L112.111 24.7299C111.869 24.6379 111.621 24.5507 111.368 24.4681L111.369 24.4657C111.331 24.4532 111.291 24.4419 111.252 24.4296C111.202 24.4135 111.151 24.3974 111.1 24.3817C111.067 24.3714 111.034 24.3606 111 24.3505L110.626 24.2416C110.382 24.1739 110.133 24.113 109.882 24.0541V24.0516C109.638 23.9945 109.39 23.9415 109.139 23.8929L109.138 23.8954C108.894 23.8481 108.647 23.8039 108.396 23.765L108.397 23.7635C108.367 23.7588 108.336 23.755 108.305 23.7504C108.265 23.7443 108.224 23.7386 108.183 23.7328C108.131 23.7253 108.08 23.7174 108.028 23.7103L107.654 23.6625C107.408 23.6334 107.16 23.6092 106.91 23.5883V23.5868C106.747 23.5731 106.582 23.5621 106.416 23.5521C106.38 23.55 106.345 23.5482 106.309 23.5463C106.262 23.5436 106.215 23.5403 106.168 23.538L106.167 23.5394C105.921 23.5272 105.673 23.5196 105.424 23.5155L105.425 23.5131C105.301 23.511 105.177 23.5101 105.052 23.5101C104.929 23.5101 104.805 23.511 104.682 23.5131L104.681 23.5155C104.431 23.5196 104.184 23.5272 103.938 23.5394L103.939 23.538C103.89 23.5404 103.841 23.5436 103.792 23.5463C103.758 23.5482 103.725 23.5501 103.691 23.5521C103.525 23.5621 103.359 23.5736 103.195 23.5873L103.194 23.5887C102.932 23.6106 102.673 23.636 102.416 23.6669C102.249 23.687 102.082 23.7094 101.917 23.7333C101.871 23.74 101.825 23.7468 101.779 23.7538C101.756 23.7572 101.733 23.7605 101.71 23.764L101.709 23.7655C101.458 23.8044 101.211 23.8481 100.967 23.8954L100.968 23.8929C100.716 23.9415 100.467 23.995 100.223 24.0521L100.222 24.0536C99.9696 24.1128 99.7195 24.1749 99.4748 24.243C99.3198 24.2862 99.167 24.3316 99.0156 24.3783C98.9511 24.3981 98.8875 24.4189 98.8236 24.4393C98.7953 24.4484 98.7664 24.457 98.7382 24.4662L98.7374 24.4676C98.484 24.5503 98.2363 24.6378 97.994 24.7299L97.9948 24.7274C97.9688 24.7373 97.943 24.7477 97.917 24.7577C97.8664 24.7772 97.8166 24.7973 97.7665 24.8173C97.6565 24.8609 97.5483 24.906 97.4409 24.9515C97.4022 24.968 97.3625 24.9837 97.3242 25.0004C97.2997 25.011 97.2749 25.0214 97.2506 25.0321L97.2497 25.0345C96.9943 25.1473 96.747 25.2657 96.5072 25.389L96.508 25.3856C96.4776 25.4012 96.4477 25.4172 96.4175 25.433C96.406 25.439 96.3952 25.4455 96.3837 25.4515C96.366 25.4609 96.3489 25.4705 96.3313 25.4799C94.5193 24.2954 93.4186 22.74 93.4186 21.0355Z" fill="var(--fill-0, #1F1F1F)"/>
<path id="Vector_28" d="M111.367 25.2948C111.622 25.39 111.87 25.49 112.111 25.5961V26.3744C111.871 26.4803 111.623 26.5801 111.368 26.6752L111.367 25.2948Z" fill="var(--fill-0, #1F1F1F)"/>
<path id="Vector_29" d="M109.882 24.8236C110.134 24.8902 110.383 24.9605 110.625 25.037V26.9335C110.383 27.0099 110.134 27.0803 109.882 27.1468V24.8236Z" fill="var(--fill-0, #1F1F1F)"/>
<path id="Vector_30" d="M108.396 24.5004C108.647 24.5438 108.895 24.5917 109.138 24.6444V27.326C108.895 27.3788 108.647 27.4267 108.396 27.4701V24.5004Z" fill="var(--fill-0, #1F1F1F)"/>
<path id="Vector_31" d="M106.91 24.3041C107.16 24.3273 107.408 24.3553 107.653 24.3876V27.5829C107.408 27.6152 107.16 27.6432 106.91 27.6664V24.3041Z" fill="var(--fill-0, #1F1F1F)"/>
<path id="Vector_32" d="M105.423 24.223C105.673 24.2275 105.921 24.2359 106.167 24.2494V27.7211C105.921 27.7345 105.674 27.7424 105.424 27.7469L105.423 24.223Z" fill="var(--fill-0, #1F1F1F)"/>
<path id="Vector_33" d="M103.938 24.2494C104.183 24.2359 104.431 24.2276 104.68 24.223L104.681 27.7469C104.431 27.7424 104.183 27.7346 103.938 27.7211V24.2494Z" fill="var(--fill-0, #1F1F1F)"/>
<path id="Vector_34" d="M102.452 24.3876C102.697 24.3553 102.944 24.3268 103.194 24.3036V27.6669C102.944 27.6436 102.697 27.6152 102.452 27.5829V24.3876Z" fill="var(--fill-0, #1F1F1F)"/>
<path id="Vector_35" d="M100.967 24.6444C101.21 24.5916 101.458 24.5433 101.709 24.4999V27.4706C101.458 27.4271 101.21 27.3789 100.967 27.326V24.6444Z" fill="var(--fill-0, #1F1F1F)"/>
<path id="Vector_36" d="M99.4799 25.037C99.7219 24.9606 99.9704 24.8906 100.222 24.8241V27.1464C99.9704 27.0798 99.7219 27.0099 99.4799 26.9335V25.037Z" fill="var(--fill-0, #1F1F1F)"/>
<path id="Vector_37" d="M97.9931 25.5965C98.2338 25.4903 98.4825 25.3901 98.7374 25.2948V26.6757C98.4828 26.5804 98.2343 26.4805 97.994 26.3744L97.9931 25.5965Z" fill="var(--fill-0, #1F1F1F)"/>
<path id="Vector_38" d="M97.188 25.9852C97.2083 25.9745 97.2285 25.9637 97.2489 25.953L97.2497 26.0179C97.229 26.0071 97.2086 25.9961 97.188 25.9852Z" fill="var(--fill-0, #1F1F1F)"/>
<path id="Vector_39" fill-rule="evenodd" clip-rule="evenodd" d="M98.1251 9.98522C101.951 7.77608 108.155 7.77608 111.981 9.98522L132.766 21.9852C136.592 24.1944 136.592 27.7761 132.766 29.9852L111.981 41.9852C108.155 44.1944 101.951 44.1944 98.1251 41.9852L77.3405 29.9852C73.5141 27.7761 73.5141 24.1944 77.3405 21.9852L98.1251 9.98522ZM105.053 13.6112C98.1731 13.6112 92.5547 16.7304 92.21 20.6532L92.194 21.0355C92.194 22.9373 93.4328 24.6716 95.4695 25.9852C93.4328 27.2988 92.194 29.0331 92.194 30.9349C92.194 35.0354 97.951 38.3592 105.053 38.3592C112.156 38.3592 117.913 35.0354 117.913 30.9349C117.913 29.0329 116.672 27.2989 114.635 25.9852C116.535 24.76 117.742 23.1692 117.896 21.4174L117.913 21.0355C117.913 17.0631 112.51 13.8197 105.715 13.621L105.053 13.6112Z" fill="var(--fill-0, #1F1F1F)"/>
<path id="Vector_40" d="M99.3848 63.4853C102.733 61.5523 108.161 61.5523 111.509 63.4853L144.418 82.4853C147.766 84.4183 147.766 87.5523 144.418 89.4853L111.509 108.485C108.161 110.418 102.733 110.418 99.3848 108.485L66.4759 89.4853C63.1278 87.5523 63.1278 84.4183 66.4759 82.4853L99.3848 63.4853Z" fill="var(--fill-0, white)"/>
<path id="Vector_41" d="M99.3848 63.4853C102.733 61.5523 108.161 61.5523 111.509 63.4853L144.418 82.4853C147.766 84.4183 147.766 87.5523 144.418 89.4853L111.509 108.485C108.161 110.418 102.733 110.418 99.3848 108.485L66.4759 89.4853C63.1278 87.5523 63.1278 84.4183 66.4759 82.4853L99.3848 63.4853Z" fill="url(#paint13_linear_0_4)"/>
<path id="Vector_42" d="M66.4759 89.4853L99.3848 108.485V113.485L66.4759 94.4853V89.4853Z" fill="url(#paint14_linear_0_4)"/>
<path id="Vector_43" d="M111.509 108.485L144.418 89.4853V94.4853L111.509 113.485V108.485Z" fill="url(#paint15_linear_0_4)"/>
<path id="Vector_44" d="M63.9648 85.9853C63.9648 87.3521 64.9244 88.5895 66.4759 89.4853V94.4853C64.9244 93.5895 63.9648 92.3521 63.9648 90.9853V85.9853Z" fill="url(#paint16_linear_0_4)"/>
<path id="Vector_45" d="M99.3848 108.485C102.733 110.418 108.161 110.418 111.509 108.485V113.485C108.161 115.418 102.733 115.418 99.3848 113.485V108.485Z" fill="url(#paint17_linear_0_4)"/>
<path id="Vector_46" d="M146.929 85.9853C146.929 87.3521 145.97 88.5895 144.418 89.4853V94.4853C145.97 93.5895 146.929 92.3521 146.929 90.9853V85.9853Z" fill="url(#paint18_linear_0_4)"/>
<path id="Vector_47" d="M66.4759 89.4853L99.3848 108.485M66.4759 89.4853C63.1278 87.5523 63.1278 84.4183 66.4759 82.4853L99.3848 63.4853C102.733 61.5523 108.161 61.5523 111.509 63.4853L144.418 82.4853C147.766 84.4183 147.766 87.5523 144.418 89.4853M66.4759 89.4853V94.4853M66.4759 89.4853C64.9244 88.5895 63.9648 87.3521 63.9648 85.9853V90.9853C63.9648 92.3521 64.9244 93.5895 66.4759 94.4853M99.3848 108.485C102.733 110.418 108.161 110.418 111.509 108.485M99.3848 108.485V113.485M144.418 89.4853L111.509 108.485M144.418 89.4853V94.4853M144.418 89.4853C145.97 88.5895 146.929 87.3521 146.929 85.9853V90.9853C146.929 92.3521 145.97 93.5895 144.418 94.4853M66.4759 94.4853L99.3848 113.485M111.509 108.485V113.485M111.509 113.485C108.161 115.418 102.733 115.418 99.3848 113.485M111.509 113.485L144.418 94.4853" stroke="var(--stroke-0, #1F1F1F)"/>
<path id="Vector_48" d="M113.713 80.9867L113.364 86.537L110.449 86.5985L110.694 82.7299L103.993 82.871L104.1 81.1883L113.713 80.9867Z" fill="var(--fill-0, #1F1F1F)"/>
<path id="Vector_49" fill-rule="evenodd" clip-rule="evenodd" d="M98.127 69.9852C101.953 67.7761 108.157 67.7761 111.983 69.9852L132.768 81.9852C136.594 84.1944 136.594 87.7761 132.768 89.9852L111.983 101.985C108.157 104.194 101.953 104.194 98.127 101.985L77.3424 89.9852C73.5161 87.7761 73.5161 84.1944 77.3424 81.9852L98.127 69.9852ZM99.8134 82.9589L92.7186 83.1078L92.0648 93.4852L107.949 93.1512L108.102 90.7382L96.3975 90.9838L96.7468 85.4335L106.361 85.2313L106.27 86.6864L101.659 86.7831L101.507 89.1966L117.392 88.8627L118.046 78.4852L100.071 78.8627L99.8134 82.9589Z" fill="var(--fill-0, #1F1F1F)"/>
<path id="Vector_50" d="M151.383 33.4853C154.731 31.5523 160.159 31.5523 163.507 33.4853L196.416 52.4853C199.764 54.4183 199.764 57.5523 196.416 59.4853L163.507 78.4853C160.159 80.4183 154.731 80.4183 151.383 78.4853L118.474 59.4853C115.126 57.5523 115.126 54.4183 118.474 52.4853L151.383 33.4853Z" fill="var(--fill-0, white)"/>
<path id="Vector_51" d="M151.383 33.4853C154.731 31.5523 160.159 31.5523 163.507 33.4853L196.416 52.4853C199.764 54.4183 199.764 57.5523 196.416 59.4853L163.507 78.4853C160.159 80.4183 154.731 80.4183 151.383 78.4853L118.474 59.4853C115.126 57.5523 115.126 54.4183 118.474 52.4853L151.383 33.4853Z" fill="url(#paint19_linear_0_4)"/>
<path id="Vector_52" d="M118.474 59.4853L151.383 78.4853V83.4853L118.474 64.4853V59.4853Z" fill="url(#paint20_linear_0_4)"/>
<path id="Vector_53" d="M163.507 78.4853L196.416 59.4853V64.4853L163.507 83.4853V78.4853Z" fill="url(#paint21_linear_0_4)"/>
<path id="Vector_54" d="M115.963 55.9853C115.963 57.3521 116.922 58.5895 118.474 59.4853V64.4853C116.922 63.5895 115.963 62.3521 115.963 60.9853V55.9853Z" fill="url(#paint22_linear_0_4)"/>
<path id="Vector_55" d="M151.383 78.4853C154.731 80.4183 160.159 80.4183 163.507 78.4853V83.4853C160.159 85.4183 154.731 85.4183 151.383 83.4853V78.4853Z" fill="url(#paint23_linear_0_4)"/>
<path id="Vector_56" d="M198.927 55.9853C198.927 57.3521 197.968 58.5895 196.416 59.4853V64.4853C197.968 63.5895 198.927 62.3521 198.927 60.9853V55.9853Z" fill="url(#paint24_linear_0_4)"/>
<path id="Vector_57" d="M118.474 59.4853L151.383 78.4853M118.474 59.4853C115.126 57.5523 115.126 54.4183 118.474 52.4853L151.383 33.4853C154.731 31.5523 160.159 31.5523 163.507 33.4853L196.416 52.4853C199.764 54.4183 199.764 57.5523 196.416 59.4853M118.474 59.4853V64.4853M118.474 59.4853C116.922 58.5895 115.963 57.3521 115.963 55.9853V60.9853C115.963 62.3521 116.922 63.5895 118.474 64.4853M151.383 78.4853C154.731 80.4183 160.159 80.4183 163.507 78.4853M151.383 78.4853V83.4853M196.416 59.4853L163.507 78.4853M196.416 59.4853V64.4853M196.416 59.4853C197.968 58.5895 198.927 57.3521 198.927 55.9853V60.9853C198.927 62.3521 197.968 63.5895 196.416 64.4853M118.474 64.4853L151.383 83.4853M163.507 78.4853V83.4853M163.507 83.4853C160.159 85.4183 154.731 85.4183 151.383 83.4853M163.507 83.4853L196.416 64.4853" stroke="var(--stroke-0, #1F1F1F)"/>
<path id="Vector_58" fill-rule="evenodd" clip-rule="evenodd" d="M150.125 39.9852C153.951 37.7761 160.155 37.7761 163.981 39.9852L184.766 51.9852C188.592 54.1944 188.592 57.7761 184.766 59.9852L163.981 71.9852C160.155 74.1944 153.951 74.1944 150.125 71.9852L129.34 59.9852C125.514 57.7761 125.514 54.1944 129.34 51.9852L150.125 39.9852ZM162.249 67.9852L167.446 64.9852L162.249 61.9852L157.053 64.9852L162.249 67.9852ZM172.642 61.9852L177.838 58.9852L172.642 55.9852L167.446 58.9852L172.642 61.9852ZM151.857 67.9852L157.053 64.9852L151.857 61.9852L146.661 64.9852L151.857 67.9852ZM162.249 61.9852L167.446 58.9852L162.249 55.9852L157.053 58.9852L162.249 61.9852ZM172.642 55.9852L177.838 52.9852L172.642 49.9852L167.446 52.9852L172.642 55.9852ZM151.857 61.9852L157.053 58.9852L151.857 55.9852L146.661 58.9852L151.857 61.9852ZM162.249 55.9852L167.446 52.9852L162.249 49.9852L157.053 52.9852L162.249 55.9852ZM141.465 61.9852L146.661 58.9852L141.465 55.9852L136.269 58.9852L141.465 61.9852ZM151.857 55.9852L157.053 52.9852L151.857 49.9852L146.661 52.9852L151.857 55.9852ZM162.249 49.9852L167.446 46.9852L162.249 43.9852L157.053 46.9852L162.249 49.9852ZM141.465 55.9852L146.661 52.9852L141.465 49.9852L136.269 52.9852L141.465 55.9852ZM151.857 49.9852L157.053 46.9852L151.857 43.9852L146.661 46.9852L151.857 49.9852Z" fill="var(--fill-0, #1F1F1F)"/>
<path id="Vector_59" d="M94.8713 118.985L4.80469 66.9852V114.985L94.8713 166.985V118.985Z" fill="var(--fill-0, white)"/>
<path id="Vector_60" d="M94.8713 118.985L4.80469 66.9852V114.985L94.8713 166.985V118.985Z" fill="url(#paint25_linear_0_4)"/>
<path id="Vector_61" d="M94.8713 118.985L4.80469 66.9852V114.985L94.8713 166.985V118.985Z" stroke="var(--stroke-0, #1F1F1F)"/>
<path id="Vector_62" d="M39.4909 104.235C39.4909 101.75 37.7461 98.7279 35.5938 97.4853C33.4415 96.2427 31.6967 97.25 31.6967 99.7353V113.735C31.6967 116.221 33.4415 119.243 35.5938 120.485C37.7461 121.728 39.4909 120.721 39.4909 118.235V104.235Z" fill="var(--fill-0, #EE585A)" stroke="var(--stroke-0, #1F1F1F)"/>
<path id="Vector_63" d="M51.6159 111.236C51.6159 108.75 49.8711 105.728 47.7188 104.486C45.5665 103.243 43.8217 104.25 43.8217 106.736V120.736C43.8217 123.221 45.5665 126.243 47.7188 127.486C49.8711 128.728 51.6159 127.721 51.6159 125.236V111.236Z" fill="var(--fill-0, #EE585A)" stroke="var(--stroke-0, #1F1F1F)"/>
<path id="Vector_64" d="M63.7389 118.236C63.7389 115.75 61.9941 112.728 59.8418 111.486C57.6895 110.243 55.9447 111.25 55.9447 113.736V127.736C55.9447 130.221 57.6895 133.243 59.8418 134.486C61.9941 135.728 63.7389 134.721 63.7389 132.236V118.236Z" fill="var(--fill-0, #EE585A)" stroke="var(--stroke-0, #1F1F1F)"/>
<path id="Vector_65" d="M205.723 66.985L115.656 118.985V166.985L205.723 114.985V66.985Z" fill="var(--fill-0, white)"/>
<path id="Vector_66" d="M205.723 66.985L115.656 118.985V166.985L205.723 114.985V66.985Z" fill="url(#paint26_linear_0_4)"/>
<path id="Vector_67" d="M205.723 66.985L115.656 118.985V166.985L205.723 114.985V66.985Z" stroke="var(--stroke-0, #1F1F1F)"/>
<path id="Vector_68" d="M0.5 60.9852C0.5 63.3284 2.14501 65.4497 4.80463 66.9852V114.985C2.14501 113.45 0.5 111.328 0.5 108.985V60.9852Z" fill="var(--fill-0, white)"/>
<path id="Vector_69" d="M0.5 60.9852C0.5 63.3284 2.14501 65.4497 4.80463 66.9852V114.985C2.14501 113.45 0.5 111.328 0.5 108.985V60.9852Z" fill="url(#paint27_linear_0_4)"/>
<path id="Vector_70" d="M0.5 60.9852C0.5 63.3284 2.14501 65.4497 4.80463 66.9852V114.985C2.14501 113.45 0.5 111.328 0.5 108.985V60.9852Z" stroke="var(--stroke-0, #1F1F1F)"/>
<path id="Vector_71" d="M94.8711 118.985C100.611 122.299 109.916 122.299 115.656 118.985V166.985C109.916 170.299 100.611 170.299 94.8711 166.985V118.985Z" fill="var(--fill-0, white)"/>
<path id="Vector_72" d="M94.8711 118.985C100.611 122.299 109.916 122.299 115.656 118.985V166.985C109.916 170.299 100.611 170.299 94.8711 166.985V118.985Z" fill="url(#paint28_linear_0_4)"/>
<path id="Vector_73" d="M94.8711 118.985C100.611 122.299 109.916 122.299 115.656 118.985V166.985C109.916 170.299 100.611 170.299 94.8711 166.985V118.985Z" stroke="var(--stroke-0, #1F1F1F)"/>
<path id="Vector_74" d="M210.027 60.9852C210.027 63.3284 208.382 65.4497 205.723 66.9852V114.985C208.382 113.45 210.027 111.328 210.027 108.985V60.9852Z" fill="var(--fill-0, white)"/>
<path id="Vector_75" d="M210.027 60.9852C210.027 63.3284 208.382 65.4497 205.723 66.9852V114.985C208.382 113.45 210.027 111.328 210.027 108.985V60.9852Z" fill="url(#paint29_linear_0_4)"/>
<path id="Vector_76" d="M210.027 60.9852C210.027 63.3284 208.382 65.4497 205.723 66.9852V114.985C208.382 113.45 210.027 111.328 210.027 108.985V60.9852Z" stroke="var(--stroke-0, #1F1F1F)"/>
<path id="Vector_77" d="M148.594 128.485C146.202 129.866 144.264 128.747 144.264 125.985C144.264 123.224 146.202 119.866 148.594 118.485C150.985 117.105 152.924 118.224 152.924 120.985C152.924 123.747 150.985 127.105 148.594 128.485Z" fill="var(--fill-0, #7B9D89)"/>
<path id="Vector_78" d="M160.718 121.485C158.327 122.866 156.388 121.747 156.388 118.985C156.388 116.224 158.327 112.866 160.718 111.485C163.11 110.105 165.048 111.224 165.048 113.985C165.048 116.747 163.11 120.105 160.718 121.485Z" fill="var(--fill-0, #EE585A)"/>
<path id="Vector_79" d="M172.843 114.485C170.451 115.866 168.512 114.747 168.512 111.985C168.512 109.224 170.451 105.866 172.843 104.485C175.234 103.105 177.173 104.224 177.173 106.985C177.173 109.747 175.234 113.105 172.843 114.485Z" fill="var(--fill-0, #1F1F1F)"/>
<path id="Vector_80" d="M148.844 118.918C149.948 118.281 150.831 118.283 151.405 118.615C151.98 118.946 152.424 119.71 152.424 120.986C152.424 122.258 151.974 123.702 151.223 125.003C150.471 126.305 149.446 127.416 148.344 128.052C147.239 128.69 146.357 128.687 145.782 128.356C145.208 128.024 144.764 127.261 144.764 125.986C144.764 124.713 145.213 123.269 145.965 121.967C146.716 120.666 147.742 119.554 148.844 118.918ZM160.968 111.918C162.072 111.281 162.956 111.283 163.53 111.615C164.105 111.946 164.548 112.71 164.548 113.986C164.548 115.258 164.098 116.702 163.347 118.003C162.595 119.305 161.57 120.416 160.468 121.052C159.363 121.69 158.481 121.687 157.906 121.356C157.332 121.024 156.888 120.261 156.888 118.986C156.888 117.713 157.338 116.269 158.089 114.967C158.84 113.666 159.866 112.554 160.968 111.918ZM173.093 104.918C174.197 104.281 175.08 104.283 175.654 104.615C176.229 104.946 176.673 105.71 176.673 106.986C176.673 108.258 176.223 109.702 175.472 111.003C174.72 112.305 173.694 113.416 172.593 114.052C171.488 114.69 170.605 114.687 170.03 114.356C169.456 114.024 169.013 113.261 169.013 111.986C169.013 110.713 169.463 109.269 170.214 107.967C170.965 106.666 171.991 105.554 173.093 104.918Z" stroke="var(--stroke-0, #1F1F1F)"/>
</g>
<defs>
<linearGradient id="paint0_linear_0_4" x1="105.264" y1="0.5" x2="105.264" y2="121.471" gradientUnits="userSpaceOnUse">
<stop stop-color="#1F1F1F" stop-opacity="0.1"/>
<stop offset="1" stop-color="#F4F4F4" stop-opacity="0.1"/>
</linearGradient>
<linearGradient id="paint1_linear_0_4" x1="75.9617" y1="44.1282" x2="49.9286" y2="84.9571" gradientUnits="userSpaceOnUse">
<stop stop-color="#1F1F1F" stop-opacity="0.1"/>
<stop offset="1" stop-color="#F0F0F0" stop-opacity="0.1"/>
</linearGradient>
<linearGradient id="paint2_linear_0_4" x1="11.9563" y1="37.5481" x2="94.9272" y2="37.5481" gradientUnits="userSpaceOnUse">
<stop stop-color="#F0F0F0"/>
<stop offset="0.8" stop-color="#1F1F1F"/>
</linearGradient>
<linearGradient id="paint3_linear_0_4" x1="11.9563" y1="79.4335" x2="94.9272" y2="79.4335" gradientUnits="userSpaceOnUse">
<stop stop-color="#F0F0F0"/>
<stop offset="0.8" stop-color="#1F1F1F"/>
</linearGradient>
<linearGradient id="paint4_linear_0_4" x1="11.9563" y1="58.5118" x2="94.9273" y2="58.5118" gradientUnits="userSpaceOnUse">
<stop stop-color="#1F1F1F"/>
<stop offset="1" stop-color="#F0F0F0"/>
</linearGradient>
<linearGradient id="paint5_linear_0_4" x1="11.9571" y1="58.5118" x2="94.9281" y2="58.5118" gradientUnits="userSpaceOnUse">
<stop stop-color="#1F1F1F"/>
<stop offset="1" stop-color="#F0F0F0"/>
</linearGradient>
<linearGradient id="paint6_linear_0_4" x1="92.4162" y1="60.2395" x2="94.9274" y2="60.2395" gradientUnits="userSpaceOnUse">
<stop stop-color="#1F1F1F"/>
<stop offset="1" stop-color="#F0F0F0"/>
</linearGradient>
<linearGradient id="paint7_linear_0_4" x1="127.962" y1="14.1282" x2="101.928" y2="54.9571" gradientUnits="userSpaceOnUse">
<stop stop-color="#1F1F1F" stop-opacity="0.1"/>
<stop offset="1" stop-color="#F0F0F0" stop-opacity="0.1"/>
</linearGradient>
<linearGradient id="paint8_linear_0_4" x1="63.956" y1="7.54808" x2="146.927" y2="7.54808" gradientUnits="userSpaceOnUse">
<stop stop-color="#F0F0F0"/>
<stop offset="0.8" stop-color="#1F1F1F"/>
</linearGradient>
<linearGradient id="paint9_linear_0_4" x1="63.956" y1="49.4335" x2="146.927" y2="49.4335" gradientUnits="userSpaceOnUse">
<stop stop-color="#F0F0F0"/>
<stop offset="0.8" stop-color="#1F1F1F"/>
</linearGradient>
<linearGradient id="paint10_linear_0_4" x1="63.9522" y1="28.5118" x2="146.923" y2="28.5118" gradientUnits="userSpaceOnUse">
<stop stop-color="#1F1F1F"/>
<stop offset="1" stop-color="#F0F0F0"/>
</linearGradient>
<linearGradient id="paint11_linear_0_4" x1="63.9563" y1="28.5118" x2="146.927" y2="28.5118" gradientUnits="userSpaceOnUse">
<stop stop-color="#1F1F1F"/>
<stop offset="1" stop-color="#F0F0F0"/>
</linearGradient>
<linearGradient id="paint12_linear_0_4" x1="144.416" y1="30.2395" x2="146.927" y2="30.2395" gradientUnits="userSpaceOnUse">
<stop stop-color="#1F1F1F"/>
<stop offset="1" stop-color="#F0F0F0"/>
</linearGradient>
<linearGradient id="paint13_linear_0_4" x1="127.964" y1="74.1282" x2="101.93" y2="114.957" gradientUnits="userSpaceOnUse">
<stop stop-color="#1F1F1F" stop-opacity="0.1"/>
<stop offset="1" stop-color="#F0F0F0" stop-opacity="0.1"/>
</linearGradient>
<linearGradient id="paint14_linear_0_4" x1="63.9579" y1="67.5481" x2="146.929" y2="67.5481" gradientUnits="userSpaceOnUse">
<stop stop-color="#F0F0F0"/>
<stop offset="0.8" stop-color="#1F1F1F"/>
</linearGradient>
<linearGradient id="paint15_linear_0_4" x1="63.9579" y1="109.434" x2="146.929" y2="109.434" gradientUnits="userSpaceOnUse">
<stop stop-color="#F0F0F0"/>
<stop offset="0.8" stop-color="#1F1F1F"/>
</linearGradient>
<linearGradient id="paint16_linear_0_4" x1="144.418" y1="90.2395" x2="146.929" y2="90.2395" gradientUnits="userSpaceOnUse">
<stop stop-color="#1F1F1F"/>
<stop offset="1" stop-color="#F0F0F0"/>
</linearGradient>
<linearGradient id="paint17_linear_0_4" x1="63.9582" y1="88.5118" x2="146.929" y2="88.5118" gradientUnits="userSpaceOnUse">
<stop stop-color="#1F1F1F"/>
<stop offset="1" stop-color="#F0F0F0"/>
</linearGradient>
<linearGradient id="paint18_linear_0_4" x1="144.418" y1="90.2395" x2="146.929" y2="90.2395" gradientUnits="userSpaceOnUse">
<stop stop-color="#1F1F1F"/>
<stop offset="1" stop-color="#F0F0F0"/>
</linearGradient>
<linearGradient id="paint19_linear_0_4" x1="179.962" y1="44.1282" x2="153.929" y2="84.9571" gradientUnits="userSpaceOnUse">
<stop stop-color="#1F1F1F" stop-opacity="0.1"/>
<stop offset="1" stop-color="#F0F0F0" stop-opacity="0.1"/>
</linearGradient>
<linearGradient id="paint20_linear_0_4" x1="115.956" y1="37.5481" x2="198.927" y2="37.5481" gradientUnits="userSpaceOnUse">
<stop stop-color="#F0F0F0"/>
<stop offset="0.8" stop-color="#1F1F1F"/>
</linearGradient>
<linearGradient id="paint21_linear_0_4" x1="115.956" y1="79.4335" x2="198.927" y2="79.4335" gradientUnits="userSpaceOnUse">
<stop stop-color="#F0F0F0"/>
<stop offset="0.8" stop-color="#1F1F1F"/>
</linearGradient>
<linearGradient id="paint22_linear_0_4" x1="115.956" y1="58.5118" x2="198.927" y2="58.5118" gradientUnits="userSpaceOnUse">
<stop stop-color="#1F1F1F"/>
<stop offset="1" stop-color="#F0F0F0"/>
</linearGradient>
<linearGradient id="paint23_linear_0_4" x1="115.956" y1="58.5118" x2="198.927" y2="58.5118" gradientUnits="userSpaceOnUse">
<stop stop-color="#1F1F1F"/>
<stop offset="1" stop-color="#F0F0F0"/>
</linearGradient>
<linearGradient id="paint24_linear_0_4" x1="196.416" y1="60.2395" x2="198.927" y2="60.2395" gradientUnits="userSpaceOnUse">
<stop stop-color="#1F1F1F"/>
<stop offset="1" stop-color="#F0F0F0"/>
</linearGradient>
<linearGradient id="paint25_linear_0_4" x1="49.838" y1="92.9852" x2="29.0534" y2="128.985" gradientUnits="userSpaceOnUse">
<stop stop-color="#F0F0F0" stop-opacity="0.1"/>
<stop offset="1" stop-color="#1F1F1F" stop-opacity="0.2"/>
</linearGradient>
<linearGradient id="paint26_linear_0_4" x1="160.689" y1="92.985" x2="181.474" y2="128.985" gradientUnits="userSpaceOnUse">
<stop stop-color="#F0F0F0" stop-opacity="0.1"/>
<stop offset="1" stop-color="#1F1F1F" stop-opacity="0.2"/>
</linearGradient>
<linearGradient id="paint27_linear_0_4" x1="2.65232" y1="60.9852" x2="2.65232" y2="114.985" gradientUnits="userSpaceOnUse">
<stop stop-color="#F0F0F0" stop-opacity="0.1"/>
<stop offset="1" stop-color="#1F1F1F" stop-opacity="0.2"/>
</linearGradient>
<linearGradient id="paint28_linear_0_4" x1="105.263" y1="118.985" x2="105.263" y2="169.471" gradientUnits="userSpaceOnUse">
<stop stop-color="#F0F0F0" stop-opacity="0.1"/>
<stop offset="1" stop-color="#1F1F1F" stop-opacity="0.2"/>
</linearGradient>
<linearGradient id="paint29_linear_0_4" x1="207.875" y1="60.9852" x2="207.875" y2="114.985" gradientUnits="userSpaceOnUse">
<stop stop-color="#F0F0F0" stop-opacity="0.1"/>
<stop offset="1" stop-color="#1F1F1F" stop-opacity="0.2"/>
</linearGradient>
<clipPath id="clip0_0_4">
<rect width="211" height="170" fill="white"/>
</clipPath>
</defs>
</svg>
