<svg preserveAspectRatio="none" width="100%" height="100%" overflow="visible" style="display: block;" viewBox="0 0 213 125" fill="none" xmlns="http://www.w3.org/2000/svg">
<g id="System-node-apg" clip-path="url(#clip0_0_4)">
<path id="Vector" d="M94.2109 4.33013C98.3531 1.93867 105.069 1.93866 109.211 4.33013L174.211 41.8579C178.353 44.2493 178.353 48.1267 174.211 50.5181L109.211 88.0459C105.069 90.4373 98.3531 90.4373 94.2109 88.0459L29.211 50.5181C25.0688 48.1267 25.0688 44.2493 29.211 41.8579L94.2109 4.33013Z" fill="url(#paint0_radial_0_4)" stroke="var(--stroke-0, #1F1F1F)" stroke-width="0.721688"/>
<path id="Vector_2" d="M94.5005 39.5048C92.7602 38.5 92.4593 36.964 92.4062 35.5434C92.3563 34.2078 91.4486 32.8809 89.6833 31.8617C86.0498 29.7639 80.1588 29.7639 76.5254 31.8617C72.8919 33.9594 72.8919 37.3606 76.5254 39.4584C78.2907 40.4776 80.5889 41.0016 82.9023 41.0304C85.3629 41.0611 88.0234 41.2348 89.7637 42.2396L90.1292 42.4506C91.8695 43.4554 92.1704 44.9914 92.2235 46.4121C92.2714 47.6922 91.983 49.0699 90.4148 49.9753L89.7637 50.3512C88.0234 51.356 85.3629 51.5297 82.9023 51.5604C80.5889 51.5892 78.2907 52.1132 76.5254 53.1325C72.8919 55.2302 72.8919 58.6314 76.5254 60.7292C80.1588 62.8269 86.0498 62.8269 89.6833 60.7292C91.4486 59.71 92.3562 58.3831 92.4062 57.0475C92.4593 55.6268 92.7602 54.0908 94.5005 53.086L95.1516 52.7101C96.7198 51.8047 99.1061 51.6382 101.323 51.6658C103.784 51.6965 106.444 51.8702 108.185 52.875L108.55 53.086C110.291 54.0908 110.591 55.6268 110.645 57.0475C110.694 58.3831 111.602 59.7099 113.367 60.7292C117.001 62.8269 122.892 62.8269 126.525 60.7292C130.159 58.6314 130.159 55.2302 126.525 53.1324C124.76 52.1132 122.462 51.5892 120.148 51.5604C117.688 51.5297 115.027 51.356 113.287 50.3512L112.922 50.1402C111.181 49.1354 110.88 47.5994 110.827 46.1788C110.777 44.8431 109.87 43.5163 108.104 42.4971C106.339 41.4778 104.041 40.9538 101.727 40.925C99.2668 40.8943 96.6063 40.7206 94.866 39.7158L94.5005 39.5048Z" fill="var(--fill-0, #1F1F1F)"/>
<path id="Vector_3" d="M102.479 32.0326L94.7486 21.34L96.5403 20.3055L115.02 24.7916L113.309 25.7795L101.354 22.8523C101.023 22.7695 100.64 22.6727 100.207 22.562C99.7747 22.4363 99.3226 22.3148 98.8509 22.1975C98.3801 22.0651 97.9218 21.94 97.4761 21.8221C97.0437 21.6964 96.6555 21.5886 96.3116 21.4985L96.7142 21.266C96.9193 21.5084 97.124 21.7583 97.3282 22.0157C97.5334 22.2581 97.738 22.508 97.9423 22.7654C98.134 23.0155 98.3257 23.2657 98.5174 23.5158C98.7091 23.766 98.9008 24.0162 99.0925 24.2663L104.089 31.1027L102.479 32.0326ZM101.155 28.6183L100.314 27.4585L106.977 23.6114L109.046 24.0622L101.155 28.6183Z" fill="var(--fill-0, #1F1F1F)"/>
<path id="Vector_4" d="M146.035 49.4646C145.093 50.0086 144.053 50.4184 142.915 50.694C141.777 50.9695 140.608 51.1144 139.409 51.1285C138.209 51.1426 137.041 51.019 135.902 50.7576C134.764 50.482 133.724 50.0722 132.782 49.5282C131.84 48.9841 131.136 48.3871 130.671 47.7371C130.206 47.0729 129.973 46.4017 129.973 45.7234C129.986 45.0381 130.23 44.3739 130.708 43.731C131.185 43.0739 131.882 42.4804 132.8 41.9505C133.449 41.576 134.177 41.2616 134.985 41.0072C135.805 40.7458 136.637 40.5621 137.481 40.4561C138.326 40.3501 139.115 40.3254 139.849 40.3819L139.867 41.4947C139.17 41.4877 138.479 41.5336 137.793 41.6325C137.108 41.7314 136.453 41.8763 135.829 42.067C135.217 42.2508 134.679 42.4768 134.214 42.7453C133.492 43.1622 132.947 43.625 132.58 44.1337C132.225 44.6353 132.048 45.1547 132.048 45.6916C132.035 46.2215 132.219 46.7444 132.598 47.2602C132.965 47.7689 133.522 48.2387 134.269 48.6697C134.991 49.0866 135.798 49.4045 136.692 49.6236C137.585 49.8285 138.509 49.9309 139.464 49.9309C140.418 49.9168 141.342 49.8002 142.236 49.5812C143.129 49.3622 143.943 49.0407 144.677 48.6167C145.252 48.2847 145.705 47.9243 146.035 47.5357C146.378 47.1401 146.586 46.7444 146.659 46.3487C146.721 45.946 146.647 45.5645 146.439 45.2041C146.231 44.8438 145.888 44.5258 145.411 44.2503L144.769 43.8793L145.43 43.9217L140.914 46.5289L139.5 45.7128L145.154 42.4486C145.264 42.498 145.393 42.5581 145.54 42.6288C145.674 42.6923 145.809 42.763 145.944 42.8407C146.078 42.9043 146.201 42.9679 146.311 43.0315C147.106 43.4907 147.694 43.9995 148.073 44.5576C148.44 45.1087 148.605 45.6775 148.569 46.2639C148.532 46.8362 148.305 47.3979 147.889 47.9491C147.461 48.4931 146.843 48.9983 146.035 49.4646Z" fill="var(--fill-0, #1F1F1F)"/>
<path id="Vector_5" d="M120.916 42.6773L107.791 35.0996L114.911 30.9892C115.948 30.3903 117.055 29.9677 118.231 29.7215C119.424 29.4661 120.58 29.39 121.702 29.493C122.839 29.587 123.814 29.8686 124.626 30.3377C125.476 30.8284 125.995 31.4093 126.183 32.0803C126.374 32.735 126.255 33.4101 125.825 34.1057C125.411 34.7922 124.685 35.4349 123.648 36.0338L120.536 37.8304L124.924 40.3635L120.916 42.6773ZM117.672 36.2582L120.288 34.7474C120.634 34.5478 120.88 34.3266 121.025 34.0839C121.171 33.8412 121.211 33.6014 121.146 33.3645C121.082 33.1275 120.893 32.9188 120.581 32.7384C120.256 32.5508 119.894 32.4419 119.496 32.4118C119.099 32.3817 118.696 32.4123 118.288 32.5034C117.88 32.5946 117.503 32.74 117.157 32.9396L114.54 34.4504L117.672 36.2582Z" fill="var(--fill-0, #1F1F1F)"/>
<path id="Vector_6" d="M94.2108 88.046L29.2109 50.5183V85.1593L94.2108 122.687V88.046Z" fill="url(#paint1_radial_0_4)" stroke="var(--stroke-0, #1F1F1F)" stroke-width="0.721688"/>
<g id="Vector_7">
<path d="M52.875 73.6121L52.875 73.6121C51.3217 72.7153 50.0625 73.4423 50.0625 75.2359V85.3395C50.0625 87.1331 51.3217 89.3141 52.875 90.2109C54.4283 91.1077 55.6875 90.3807 55.6875 88.5871V78.4835C55.6875 76.6899 54.4283 74.5089 52.875 73.6121Z" fill="url(#paint2_linear_0_4)" fill-opacity="0.3"/>
<path d="M52.875 73.6121L52.875 73.6121C54.4283 74.5089 55.6875 76.6899 55.6875 78.4835V88.5871C55.6875 90.3807 54.4283 91.1077 52.875 90.2109L52.875 90.2109C51.3217 89.3141 50.0625 87.1331 50.0625 85.3395V75.2359C50.0625 73.4423 51.3217 72.7153 52.875 73.6121Z" stroke="var(--stroke-0, #1F1F1F)" stroke-width="0.721688"/>
</g>
<g id="Vector_8">
<path d="M61.625 78.6638L61.625 78.6638C60.0717 77.767 58.8125 78.494 58.8125 80.2876V90.3912C58.8125 92.1848 60.0717 94.3658 61.625 95.2626C63.1783 96.1594 64.4375 95.4324 64.4375 93.6388V83.5352C64.4375 81.7416 63.1783 79.5606 61.625 78.6638Z" fill="url(#paint3_linear_0_4)" fill-opacity="0.3"/>
<path d="M61.625 78.6638L61.625 78.6638C63.1783 79.5606 64.4375 81.7416 64.4375 83.5352V93.6388C64.4375 95.4324 63.1783 96.1594 61.625 95.2626L61.625 95.2626C60.0717 94.3658 58.8125 92.1848 58.8125 90.3912V80.2876C58.8125 78.494 60.0717 77.767 61.625 78.6638Z" stroke="var(--stroke-0, #1F1F1F)" stroke-width="0.721688"/>
</g>
<g id="Vector_9">
<path d="M70.375 83.7156L70.375 83.7156C68.8217 82.8188 67.5625 83.5458 67.5625 85.3394V95.443C67.5625 97.2366 68.8217 99.4176 70.375 100.314C71.9283 101.211 73.1875 100.484 73.1875 98.6906V88.587C73.1875 86.7934 71.9283 84.6124 70.375 83.7156Z" fill="url(#paint4_linear_0_4)" fill-opacity="0.3"/>
<path d="M70.375 83.7156L70.375 83.7156C71.9283 84.6124 73.1875 86.7934 73.1875 88.587V98.6906C73.1875 100.484 71.9283 101.211 70.375 100.314L70.375 100.314C68.8217 99.4176 67.5625 97.2366 67.5625 95.443V85.3394C67.5625 83.5458 68.8217 82.8188 70.375 83.7156Z" stroke="var(--stroke-0, #1F1F1F)" stroke-width="0.721688"/>
</g>
<path id="Vector_10" d="M174.211 50.5182L109.211 88.0459V122.687L174.211 85.1591V50.5182Z" fill="url(#paint5_radial_0_4)" stroke="var(--stroke-0, #1F1F1F)" stroke-width="0.721688"/>
<path id="Vector_11" d="M26.1055 46.188C26.1055 47.879 27.2927 49.4099 29.2121 50.5181V85.1591C27.2927 84.0509 26.1055 82.52 26.1055 80.829V46.188Z" fill="url(#paint6_radial_0_4)" stroke="var(--stroke-0, #1F1F1F)" stroke-width="0.721688"/>
<path id="Vector_12" d="M94.2109 88.0459C98.3531 90.4374 105.069 90.4374 109.211 88.0459V122.687C105.069 125.078 98.3531 125.078 94.2109 122.687V88.0459Z" fill="url(#paint7_radial_0_4)" stroke="var(--stroke-0, #1F1F1F)" stroke-width="0.721688"/>
<path id="Vector_13" d="M177.318 46.188C177.318 47.879 176.13 49.4099 174.211 50.5181V85.1591C176.13 84.0509 177.318 82.52 177.318 80.829V46.188Z" fill="url(#paint8_radial_0_4)" stroke="var(--stroke-0, #1F1F1F)" stroke-width="0.721688"/>
<path id="Vector_14" d="M130.17 92.9174C130.17 94.7109 131.429 95.4379 132.982 94.5411C134.535 93.6444 135.794 91.4634 135.794 89.6698C135.794 87.8762 134.535 87.1492 132.982 88.046C131.429 88.9428 130.17 91.1238 130.17 92.9174Z" fill="var(--fill-0, #7B9D89)" stroke="var(--stroke-0, #1F1F1F)" stroke-width="0.721688"/>
<path id="Vector_15" d="M138.92 87.8656C138.92 89.6592 140.179 90.3861 141.732 89.4894C143.285 88.5926 144.544 86.4116 144.544 84.618C144.544 82.8244 143.285 82.0974 141.732 82.9942C140.179 83.891 138.92 86.072 138.92 87.8656Z" fill="var(--fill-0, #EE585A)" stroke="var(--stroke-0, #1F1F1F)" stroke-width="0.721688"/>
<path id="Vector_16" d="M147.67 82.8136C147.67 84.6071 148.929 85.3341 150.482 84.4373C152.035 83.5406 153.294 81.3596 153.294 79.566C153.294 77.7724 152.035 77.0454 150.482 77.9422C148.929 78.839 147.67 81.02 147.67 82.8136Z" fill="var(--fill-0, #1F1F1F)" stroke="var(--stroke-0, #1F1F1F)" stroke-width="0.721688"/>
<path id="Vector_17" d="M28.1836 38.8243C14.3041 46.531 5.03373 55.048 1.54479 63.2983C-1.94415 71.5486 0.505043 79.1617 8.58264 85.1748C16.6602 91.1879 30.0034 95.3309 46.9249 97.08C63.8464 98.829 83.5862 98.1056 103.648 95.0011C123.71 91.8966 143.193 86.5505 159.633 79.6388C176.073 72.7272 188.732 64.5604 196.009 56.1713C203.286 47.7821 204.854 39.5473 200.516 32.5083C196.177 25.4693 186.126 19.9422 171.634 16.6259L170.219 17.4113C184.419 20.6607 194.268 26.0764 198.519 32.9736C202.77 39.8707 201.234 47.9395 194.103 56.1596C186.973 64.3796 174.569 72.3818 158.46 79.1541C142.351 85.9265 123.261 91.1648 103.604 94.2067C83.9464 97.2487 64.6045 97.9575 48.0241 96.2437C31.4437 94.5299 18.3694 90.4704 10.4546 84.5785C2.53983 78.6866 0.140018 71.227 3.55863 63.143C6.97726 55.059 16.0608 46.7136 29.6605 39.1622L28.1836 38.8243Z" fill="var(--fill-0, #EE585A)"/>
<path id="Vector_18" d="M184.451 42.8243C198.331 50.531 207.601 59.048 211.09 67.2983C214.579 75.5486 212.13 83.1617 204.052 89.1748C195.975 95.1879 182.631 99.3309 165.71 101.08C148.788 102.829 129.049 102.106 108.987 99.0011C88.9249 95.8966 69.4421 90.5505 53.002 83.6388C36.5619 76.7272 23.9029 68.5604 16.6258 60.1713C9.34869 51.7821 7.78038 43.5473 12.1191 36.5083C16.4579 29.4693 26.5089 23.9422 41.0011 20.6259L42.4155 21.4113C28.2155 24.6607 18.3671 30.0764 14.1158 36.9736C9.86444 43.8707 11.4011 51.9395 18.5315 60.1596C25.662 68.3796 38.0658 76.3818 54.1745 83.1541C70.2833 89.9265 89.3734 95.1648 109.031 98.2067C128.688 101.249 148.03 101.958 164.611 100.244C181.191 98.5299 194.265 94.4704 202.18 88.5785C210.095 82.6866 212.495 75.227 209.076 67.143C205.658 59.059 196.574 50.7136 182.974 43.1622L184.451 42.8243Z" fill="var(--fill-0, #EE585A)"/>
</g>
<defs>
<radialGradient id="paint0_radial_0_4" cx="0" cy="0" r="1" gradientTransform="matrix(83.5789 -48.2543 81.2903 19.9919 101.711 46.188)" gradientUnits="userSpaceOnUse">
<stop offset="0.375" stop-color="white"/>
<stop offset="1" stop-color="#D7D7D7"/>
</radialGradient>
<radialGradient id="paint1_radial_0_4" cx="0" cy="0" r="1" gradientTransform="matrix(5.13925e-07 -36.1907 47.0914 17.0853 61.7109 86.6027)" gradientUnits="userSpaceOnUse">
<stop offset="0.375" stop-color="white"/>
<stop offset="1" stop-color="#D7D7D7"/>
</radialGradient>
<linearGradient id="paint2_linear_0_4" x1="49.7914" y1="79.9595" x2="56.0419" y2="79.9595" gradientUnits="userSpaceOnUse">
<stop stop-color="#1F1F1F"/>
<stop offset="1" stop-color="#F4F4F4"/>
</linearGradient>
<linearGradient id="paint3_linear_0_4" x1="58.5414" y1="85.0112" x2="64.7919" y2="85.0112" gradientUnits="userSpaceOnUse">
<stop stop-color="#1F1F1F"/>
<stop offset="1" stop-color="#F4F4F4"/>
</linearGradient>
<linearGradient id="paint4_linear_0_4" x1="67.2914" y1="90.063" x2="73.5419" y2="90.063" gradientUnits="userSpaceOnUse">
<stop stop-color="#1F1F1F"/>
<stop offset="1" stop-color="#F4F4F4"/>
</linearGradient>
<radialGradient id="paint5_radial_0_4" cx="0" cy="0" r="1" gradientTransform="matrix(5.13925e-07 -36.1907 47.0914 -37.2911 141.711 86.6025)" gradientUnits="userSpaceOnUse">
<stop offset="0.375" stop-color="white"/>
<stop offset="1" stop-color="#D7D7D7"/>
</radialGradient>
<radialGradient id="paint6_radial_0_4" cx="0" cy="0" r="1" gradientTransform="matrix(2.45625e-08 -40.7146 2.25068 -11.3658 27.6588 65.6736)" gradientUnits="userSpaceOnUse">
<stop offset="0.375" stop-color="white"/>
<stop offset="1" stop-color="#D7D7D7"/>
</radialGradient>
<radialGradient id="paint7_radial_0_4" cx="0" cy="0" r="1" gradientTransform="matrix(1.18598e-07 -38.0646 10.8672 -10.626 101.711 106.263)" gradientUnits="userSpaceOnUse">
<stop offset="0.375" stop-color="white"/>
<stop offset="1" stop-color="#D7D7D7"/>
</radialGradient>
<radialGradient id="paint8_radial_0_4" cx="0" cy="0" r="1" gradientTransform="matrix(2.45625e-08 -40.7146 2.25068 -11.3658 175.764 65.6736)" gradientUnits="userSpaceOnUse">
<stop offset="0.375" stop-color="white"/>
<stop offset="1" stop-color="#D7D7D7"/>
</radialGradient>
<clipPath id="clip0_0_4">
<rect width="213" height="125" fill="white"/>
</clipPath>
</defs>
</svg>
