<svg preserveAspectRatio="none" width="100%" height="100%" overflow="visible" style="display: block;" viewBox="0 0 30 30" fill="none" xmlns="http://www.w3.org/2000/svg">
<path id="13" fill-rule="evenodd" clip-rule="evenodd" d="M23.75 0C27.2018 0 30 2.79822 30 6.25C30 7.86443 29.3878 9.33574 28.383 10.4447C27.2024 11.7475 26 13.2417 26 14.9999C26 16.758 27.2025 18.2522 28.383 19.5551C29.3878 20.6641 30 22.1355 30 23.75C30 27.2018 27.2018 30 23.75 30C22.1356 30 20.6644 29.3879 19.5554 28.3831C18.2525 27.2025 16.7582 26 15 26C13.2418 26 11.7475 27.2025 10.4446 28.3831C9.33564 29.3879 7.86438 30 6.25 30C2.79822 30 0 27.2018 0 23.75C0 22.1355 0.612163 20.6641 1.61702 19.5551C2.79754 18.2522 4 16.758 4 14.9999C4 13.2417 2.79758 11.7475 1.61703 10.4447C0.612176 9.33574 0 7.86443 0 6.25C0 2.79822 2.79822 0 6.25 0C7.86438 0 9.33564 0.612136 10.4446 1.61693C11.7475 2.79751 13.2418 4 15 4C16.7582 4 18.2525 2.79751 19.5554 1.61693C20.6644 0.612136 22.1356 0 23.75 0ZM14.6899 8.5C13.1185 8.5 11.7802 9.55801 10.6691 10.6691C9.55801 11.7802 8.5 13.1185 8.5 14.6899V15.3098C8.5 16.8812 9.55805 18.2195 10.6692 19.3307C11.7802 20.442 13.1186 21.5 14.69 21.5H15.31C16.8814 21.5 18.2198 20.442 19.3308 19.3307C20.4419 18.2195 21.5 16.8812 21.5 15.3098V14.6899C21.5 13.1185 20.442 11.7802 19.3309 10.6691C18.2198 9.55801 16.8815 8.5 15.3101 8.5H14.6899Z" fill="var(--fill-0, #ED585A)"/>
</svg>
