<svg preserveAspectRatio="none" width="100%" height="100%" overflow="visible" style="display: block;" viewBox="0 0 30 30" fill="none" xmlns="http://www.w3.org/2000/svg">
<g id="221">
<path d="M6.25 17.5C9.70178 17.5 12.5 20.2982 12.5 23.75C12.5 27.2018 9.70178 30 6.25 30C2.79822 30 0 27.2018 0 23.75C0 20.2982 2.79822 17.5 6.25 17.5Z" fill="var(--fill-0, #ED585A)"/>
<path d="M23.75 17.5C27.2018 17.5 30 20.2982 30 23.75C30 27.2018 27.2018 30 23.75 30C20.2982 30 17.5 27.2018 17.5 23.75C17.5 20.2982 20.2982 17.5 23.75 17.5Z" fill="var(--fill-0, #ED585A)"/>
<path d="M6.25 0C9.70178 0 12.5 2.79822 12.5 6.25C12.5 9.70178 9.70178 12.5 6.25 12.5C2.79822 12.5 0 9.70178 0 6.25C0 2.79822 2.79822 0 6.25 0Z" fill="var(--fill-0, #ED585A)"/>
<path d="M23.75 0C27.2018 0 30 2.79822 30 6.25C30 9.70178 27.2018 12.5 23.75 12.5C20.2982 12.5 17.5 9.70178 17.5 6.25C17.5 2.79822 20.2982 0 23.75 0Z" fill="var(--fill-0, #ED585A)"/>
</g>
</svg>
