<svg preserveAspectRatio="none" width="100%" height="100%" overflow="visible" style="display: block;" viewBox="0 0 30 30" fill="none" xmlns="http://www.w3.org/2000/svg">
<g id="3">
<path d="M23.75 0C27.2018 0 30 2.79822 30 6.25C30 7.86443 29.3878 9.33574 28.383 10.4447C27.2024 11.7475 26 13.2417 26 14.9999C26 16.758 27.2025 18.2522 28.383 19.5551C29.3878 20.6641 30 22.1355 30 23.75C30 27.2018 27.2018 30 23.75 30C22.1356 30 20.6644 29.3879 19.5554 28.3831C18.2525 27.2025 16.7582 26 15 26C13.2418 26 11.7475 27.2025 10.4446 28.3831C9.33564 29.3879 7.86438 30 6.25 30C2.79822 30 0 27.2018 0 23.75C0 20.2982 2.79822 17.5 6.25 17.5C7.86438 17.5 9.33564 18.1121 10.4446 19.1169C11.7475 20.2975 13.2418 21.5 15 21.5H15.31C16.8814 21.5 18.2198 20.442 19.3308 19.3307C20.4419 18.2195 21.5 16.8812 21.5 15.3098V14.9999C21.5 13.2417 20.2976 11.7475 19.117 10.4447C18.1122 9.33574 17.5 7.86443 17.5 6.25C17.5 2.79822 20.2982 0 23.75 0Z" fill="var(--fill-0, #ED585A)"/>
<path d="M6.25 0C9.70178 0 12.5 2.79822 12.5 6.25C12.5 9.70178 9.70178 12.5 6.25 12.5C2.79822 12.5 0 9.70178 0 6.25C0 2.79822 2.79822 0 6.25 0Z" fill="var(--fill-0, #ED585A)"/>
</g>
</svg>
