<svg preserveAspectRatio="none" width="100%" height="100%" overflow="visible" style="display: block;" viewBox="0 0 113.112 48" fill="none" xmlns="http://www.w3.org/2000/svg">
<g id="Vector/Dark">
<path d="M26.2737 14.9825C26.2737 13.3117 27.4063 11.8903 28.5619 10.6837C29.6483 9.54933 30.3158 8.01052 30.3158 6.31579C30.3158 2.82767 27.4881 0 24 0C20.5119 0 17.6842 2.82767 17.6842 6.31579C17.6842 8.01052 18.3517 9.54933 19.4381 10.6837C20.5937 11.8903 21.7263 13.3117 21.7263 14.9825V15.3333C21.7263 17.004 20.5937 18.4255 19.4381 19.6321C18.3968 20.7193 17.113 21.7263 15.6075 21.7263H14.9825C13.3117 21.7263 11.8903 20.5937 10.6837 19.4381C9.54932 18.3517 8.01049 17.6842 6.31579 17.6842C2.82767 17.6842 0 20.5119 0 24C0 27.4881 2.82767 30.3158 6.31579 30.3158C8.01049 30.3158 9.54932 29.6483 10.6837 28.5619C11.8903 27.4063 13.3117 26.2737 14.9825 26.2737H15.6075C17.113 26.2737 18.3968 27.2807 19.4381 28.3679C20.5937 29.5745 21.7263 30.996 21.7263 32.6667V33.0175C21.7263 34.6883 20.5937 36.1097 19.4381 37.3163C18.3517 38.4507 17.6842 39.9895 17.6842 41.6842C17.6842 45.1723 20.5119 48 24 48C27.4881 48 30.3158 45.1723 30.3158 41.6842C30.3158 39.9895 29.6483 38.4507 28.5619 37.3163C27.4063 36.1097 26.2737 34.6883 26.2737 33.0175V32.6667C26.2737 30.996 27.4063 29.5745 28.5619 28.3679C29.6483 27.2335 30.3158 25.6947 30.3158 24C30.3158 22.3053 29.6483 20.7665 28.5619 19.6321C27.4063 18.4255 26.2737 17.004 26.2737 15.3333V14.9825Z" fill="var(--fill-0, #1F1F1F)"/>
<path d="M36.3158 12.6L41.4951 0H43.2151L48.3558 12.6H46.7131L43.4084 4.428C43.3182 4.2 43.2151 3.936 43.0992 3.636C42.9961 3.324 42.8802 3.006 42.7513 2.682C42.6354 2.346 42.5194 2.022 42.4035 1.71C42.3004 1.398 42.2038 1.122 42.1136 0.882H42.5001C42.397 1.182 42.2875 1.488 42.1716 1.8C42.0685 2.1 41.959 2.406 41.843 2.718C41.7271 3.018 41.6111 3.318 41.4951 3.618C41.3792 3.918 41.2632 4.218 41.1473 4.518L37.8619 12.6H36.3158ZM38.519 9.126L39.0794 7.758H45.4763L46.0947 9.126H38.519Z" fill="var(--fill-0, #1F1F1F)"/>
<path d="M57.4806 12.6C56.8086 12.6 56.2374 12.4656 55.767 12.1968C55.3078 11.9168 54.955 11.5136 54.7086 10.9872C54.4734 10.4608 54.3558 9.8056 54.3558 9.0216V3.6624H55.6326V8.7696C55.6326 9.3632 55.711 9.8616 55.8678 10.2648C56.0358 10.6568 56.2822 10.9536 56.607 11.1552C56.943 11.3568 57.3518 11.4576 57.8334 11.4576C58.203 11.4576 58.5446 11.396 58.8582 11.2728C59.1718 11.1384 59.4462 10.9592 59.6814 10.7352C59.9166 10.5112 60.1014 10.248 60.2358 9.9456C60.3702 9.6432 60.4374 9.324 60.4374 8.988V3.6624H61.6974V12.432H60.4542L60.4038 10.584L60.6054 10.4832C60.471 10.8752 60.247 11.2336 59.9334 11.5584C59.6198 11.872 59.2446 12.124 58.8078 12.3144C58.3822 12.5048 57.9398 12.6 57.4806 12.6Z" fill="var(--fill-0, #1F1F1F)"/>
<path d="M69.6799 12.6V1.5288H70.9399V12.6H69.6799ZM67.6975 5.04V3.8304H73.1575V5.04H67.6975Z" fill="var(--fill-0, #1F1F1F)"/>
<path d="M79.1575 12.6V0.167999H80.4175V5.7456L80.1655 5.9976C80.2887 5.5384 80.5183 5.1352 80.8543 4.788C81.1903 4.4296 81.5823 4.1496 82.0303 3.948C82.4895 3.7464 82.9543 3.6456 83.4247 3.6456C84.0967 3.6456 84.6567 3.7744 85.1047 4.032C85.5527 4.2896 85.8831 4.6872 86.0959 5.2248C86.3199 5.7624 86.4319 6.4456 86.4319 7.2744V12.6H85.1551V7.3416C85.1551 6.7592 85.0767 6.2832 84.9199 5.9136C84.7743 5.5328 84.5447 5.2528 84.2311 5.0736C83.9175 4.8944 83.5255 4.8104 83.0551 4.8216C82.6855 4.8216 82.3383 4.8888 82.0135 5.0232C81.6887 5.1464 81.4087 5.32 81.1735 5.544C80.9383 5.768 80.7535 6.0256 80.6191 6.3168C80.4847 6.608 80.4175 6.9216 80.4175 7.2576V12.6H79.7959C79.7175 12.6 79.6279 12.6 79.5271 12.6C79.4263 12.6 79.3031 12.6 79.1575 12.6Z" fill="var(--fill-0, #1F1F1F)"/>
<path d="M42.7304 48C41.8258 48 40.9857 47.8414 40.2104 47.5242C39.435 47.207 38.7536 46.7664 38.1662 46.2025C37.5788 45.6386 37.1206 44.9748 36.7916 44.2112C36.4744 43.4358 36.3158 42.5958 36.3158 41.6912C36.3158 40.7866 36.4744 39.9524 36.7916 39.1888C37.1206 38.4134 37.567 37.7438 38.1309 37.1799C38.7066 36.6159 39.3762 36.1813 40.1399 35.8758C40.9153 35.5586 41.7435 35.4 42.6246 35.4C43.2473 35.4 43.8582 35.4881 44.4574 35.6643C45.0683 35.8406 45.6204 36.0873 46.1139 36.4045C46.6073 36.7217 47.0067 37.08 47.3122 37.4794L46.3958 38.4134C46.0669 38.0727 45.6968 37.779 45.2856 37.5323C44.8744 37.2856 44.4397 37.0917 43.9816 36.9508C43.5351 36.8098 43.0887 36.7393 42.6423 36.7393C41.9491 36.7393 41.3029 36.8627 40.7038 37.1094C40.1164 37.3561 39.5995 37.7027 39.153 38.1491C38.7066 38.5838 38.36 39.1066 38.1133 39.7175C37.8666 40.3166 37.7432 40.9745 37.7432 41.6912C37.7432 42.3843 37.8666 43.0364 38.1133 43.6473C38.3718 44.2464 38.7301 44.7751 39.1883 45.2333C39.6582 45.6797 40.1986 46.0263 40.8095 46.273C41.4204 46.5197 42.0783 46.6431 42.7832 46.6431C43.3354 46.6431 43.8523 46.5608 44.334 46.3964C44.8274 46.2319 45.2562 46.0028 45.6204 45.7091C45.9846 45.4036 46.2666 45.0512 46.4663 44.6517C46.666 44.2523 46.7659 43.8235 46.7659 43.3653V42.7485L47.0478 43.101H42.7127V41.7441H48.1404C48.1522 41.838 48.1639 41.9496 48.1757 42.0789C48.1874 42.1964 48.1933 42.3197 48.1933 42.4489C48.2051 42.5664 48.2109 42.678 48.2109 42.7838C48.2109 43.5474 48.0699 44.2523 47.788 44.8985C47.506 45.5329 47.1125 46.085 46.6073 46.555C46.1139 47.0131 45.5382 47.3715 44.8803 47.6299C44.2224 47.8766 43.5058 48 42.7304 48Z" fill="var(--fill-0, #1F1F1F)"/>
<path d="M70.016 48V36.9288H71.276V48H70.016ZM68.0336 40.44V39.2304H73.4936V40.44H68.0336Z" fill="var(--fill-0, #1F1F1F)"/>
<path d="M57.8756 48C57.0767 48 56.3542 47.7944 55.708 47.3832C55.0618 46.9603 54.5508 46.3905 54.1749 45.6738C53.7989 44.9454 53.6109 44.1231 53.6109 43.2067C53.6109 42.2786 53.8048 41.4562 54.1925 40.7396C54.5802 40.0229 55.0971 39.459 55.7432 39.0478C56.4011 38.6366 57.1354 38.431 57.946 38.431C58.4277 38.431 58.8742 38.5015 59.2853 38.6425C59.6965 38.7835 60.0607 38.9832 60.3779 39.2417C60.7069 39.4884 60.9771 39.7821 61.1886 40.1228C61.4118 40.4517 61.5645 40.8101 61.6467 41.1978L61.259 41.0039L61.3119 38.6249H62.6336V47.8238H61.2943V45.5681L61.6467 45.339C61.5645 45.6915 61.4059 46.0322 61.1709 46.3611C60.936 46.6783 60.6481 46.9603 60.3074 47.207C59.9785 47.4537 59.6025 47.6475 59.1796 47.7885C58.7684 47.9295 58.3337 48 57.8756 48ZM58.1751 46.7312C58.786 46.7312 59.3323 46.5843 59.814 46.2906C60.2957 45.9852 60.6716 45.5681 60.9418 45.0394C61.2238 44.499 61.3648 43.8881 61.3648 43.2067C61.3648 42.5253 61.2238 41.9203 60.9418 41.3916C60.6716 40.8629 60.2957 40.4459 59.814 40.1404C59.3323 39.835 58.786 39.6822 58.1751 39.6822C57.5525 39.6822 57.0003 39.835 56.5186 40.1404C56.0487 40.4459 55.6728 40.8629 55.3908 41.3916C55.1206 41.9203 54.9855 42.5253 54.9855 43.2067C54.9855 43.8763 55.1206 44.4814 55.3908 45.0218C55.661 45.5505 56.0369 45.9675 56.5186 46.273C57.0003 46.5784 57.5525 46.7312 58.1751 46.7312Z" fill="var(--fill-0, #1F1F1F)"/>
<path d="M83.5987 48C82.6824 48 81.8659 47.8003 81.1492 47.4008C80.4443 47.0014 79.8921 46.4434 79.4927 45.7267C79.0933 45.0101 78.8935 44.1877 78.8935 43.2596C78.8935 42.5429 79.0052 41.8968 79.2284 41.3211C79.4516 40.7337 79.7629 40.2226 80.1624 39.788C80.5735 39.3533 81.0611 39.0185 81.625 38.7835C82.1889 38.5368 82.7998 38.4134 83.4577 38.4134C84.0804 38.4134 84.6443 38.525 85.1495 38.7482C85.6664 38.9715 86.107 39.2828 86.4712 39.6822C86.8471 40.0699 87.1291 40.534 87.317 41.0744C87.505 41.6148 87.5873 42.2081 87.5638 42.8543L87.5461 43.471H79.8804L79.6866 42.3608H86.5417L86.2245 42.6604V42.2375C86.201 41.8145 86.0776 41.4092 85.8544 41.0215C85.6312 40.6221 85.314 40.299 84.9028 40.0523C84.5033 39.8056 84.0217 39.6822 83.4577 39.6822C82.7998 39.6822 82.2301 39.8173 81.7484 40.0875C81.2667 40.346 80.8966 40.7337 80.6382 41.2506C80.3797 41.7675 80.2505 42.4078 80.2505 43.1715C80.2505 43.8999 80.3915 44.5343 80.6734 45.0747C80.9554 45.6033 81.3548 46.0145 81.8717 46.3082C82.4004 46.6019 83.0348 46.7488 83.7749 46.7488C84.2096 46.7488 84.6384 46.6783 85.0614 46.5373C85.4961 46.3846 85.9719 46.0909 86.4888 45.6562L87.1761 46.6078C86.9059 46.878 86.5828 47.1189 86.2068 47.3303C85.8309 47.5301 85.4197 47.6945 84.9733 47.8238C84.5268 47.9413 84.0686 48 83.5987 48Z" fill="var(--fill-0, #1F1F1F)"/>
<path d="M36.3158 30.3V17.7H43.1506C44.1463 17.7 45.029 17.88 45.7984 18.24C46.583 18.6 47.2016 19.092 47.6542 19.716C48.122 20.34 48.3558 21.042 48.3558 21.822C48.3558 22.638 48.122 23.37 47.6542 24.018C47.2016 24.654 46.583 25.158 45.7984 25.53C45.029 25.902 44.1463 26.088 43.1506 26.088H40.1632V30.3H36.3158ZM40.0953 23.406H42.6074C42.9393 23.406 43.2411 23.34 43.5127 23.208C43.7842 23.076 44.003 22.896 44.169 22.668C44.3349 22.44 44.4179 22.176 44.4179 21.876C44.4179 21.564 44.3349 21.3 44.169 21.084C44.003 20.868 43.7842 20.7 43.5127 20.58C43.2411 20.46 42.9393 20.4 42.6074 20.4H40.0953V23.406Z" fill="#1F1F1F"/>
<path d="M54.3558 30.3V20.1048H57.2742L57.4086 23.4264L56.8326 22.7928C56.9862 22.2424 57.2358 21.7496 57.5814 21.3144C57.9398 20.8792 58.3558 20.5336 58.8294 20.2776C59.303 20.0216 59.8086 19.8936 60.3462 19.8936C60.5766 19.8936 60.7878 19.9128 60.9798 19.9512C61.1846 19.9896 61.3702 20.0344 61.5366 20.0856L60.6918 23.484C60.551 23.3944 60.359 23.324 60.1158 23.2728C59.8854 23.2088 59.6422 23.1768 59.3862 23.1768C59.1046 23.1768 58.8422 23.228 58.599 23.3304C58.3558 23.42 58.151 23.5544 57.9846 23.7336C57.8182 23.9128 57.6838 24.124 57.5814 24.3672C57.4918 24.6104 57.447 24.8856 57.447 25.1928V30.3H54.3558Z" fill="#1F1F1F"/>
<path d="M73.047 30.3C71.9846 30.3 71.0374 30.0696 70.2054 29.6088C69.3862 29.148 68.7334 28.5208 68.247 27.7272C67.7734 26.9336 67.5366 26.0248 67.5366 25.0008C67.5366 23.9768 67.7734 23.068 68.247 22.2744C68.7334 21.4808 69.3862 20.8536 70.2054 20.3928C71.0374 19.932 71.9846 19.7016 73.047 19.7016C74.1094 19.7016 75.0502 19.932 75.8694 20.3928C76.7014 20.8536 77.3542 21.4808 77.8278 22.2744C78.3014 23.068 78.5382 23.9768 78.5382 25.0008C78.5382 26.0248 78.3014 26.9336 77.8278 27.7272C77.3542 28.5208 76.7014 29.148 75.8694 29.6088C75.0502 30.0696 74.1094 30.3 73.047 30.3ZM73.047 27.6504C73.5078 27.6504 73.9174 27.5352 74.2758 27.3048C74.6342 27.0744 74.9158 26.7608 75.1206 26.364C75.3254 25.9672 75.4214 25.5128 75.4086 25.0008C75.4214 24.4888 75.3254 24.0344 75.1206 23.6376C74.9158 23.228 74.6342 22.908 74.2758 22.6776C73.9174 22.4472 73.5078 22.332 73.047 22.332C72.5862 22.332 72.1702 22.4472 71.799 22.6776C71.4406 22.908 71.159 23.228 70.9542 23.6376C70.7494 24.0344 70.6534 24.4888 70.6662 25.0008C70.6534 25.5128 70.7494 25.9672 70.9542 26.364C71.159 26.7608 71.4406 27.0744 71.799 27.3048C72.1702 27.5352 72.5862 27.6504 73.047 27.6504Z" fill="#1F1F1F"/>
<path d="M91.8342 30.3L89.6646 27.0168L88.6662 25.6152L84.6342 20.1048H88.3206L90.4134 23.2344L91.5078 24.732L95.4822 30.3H91.8342ZM84.5382 30.3L88.647 24.5784L90.2982 26.556L88.167 30.3H84.5382ZM91.2774 25.8648L89.6454 23.9064L91.6614 20.1048H95.2902L91.2774 25.8648Z" fill="#1F1F1F"/>
<path d="M103.954 34.716L106.277 29.244L106.315 30.8184L101.4 20.1048H104.875L107.026 25.2312C107.141 25.4872 107.25 25.7624 107.352 26.0568C107.454 26.3512 107.531 26.6328 107.582 26.9016L107.16 27.1512C107.237 26.9592 107.32 26.7224 107.41 26.4408C107.512 26.1464 107.621 25.8328 107.736 25.5L109.618 20.1048H113.112L108.773 30.3L107.006 34.716H103.954Z" fill="#1F1F1F"/>
</g>
</svg>
