<svg preserveAspectRatio="none" width="100%" height="100%" overflow="visible" style="display: block;" viewBox="0 0 84.3145 56.3044" fill="none" xmlns="http://www.w3.org/2000/svg">
<path id="Vector" d="M59.4856 32.0315C56.8394 34.6777 56.3818 38.7229 56.3011 42.4644C56.2251 45.982 54.845 49.4767 52.1608 52.1608C46.6362 57.6855 37.6785 57.6857 32.1536 52.1608C29.4694 49.4766 28.0892 45.982 28.0133 42.4645C27.9325 38.723 27.475 34.6776 24.8287 32.0313L24.2731 31.4757C21.6268 28.8294 17.5814 28.3719 13.8398 28.2911C10.3223 28.2152 6.8278 26.835 4.14356 24.1508C-1.38128 18.6259 -1.38109 9.6682 4.14356 4.14356C9.6682 -1.38109 18.6259 -1.38128 24.1508 4.14356C26.835 6.8278 28.2152 10.3223 28.2911 13.8399C28.3719 17.5814 28.8294 21.6268 31.4757 24.2731L32.2485 25.0459C34.7639 27.5613 38.5999 28.0101 42.1572 28.0101C45.7146 28.0101 49.5506 27.5613 52.066 25.0459L52.8389 24.2729C55.4852 21.6267 55.9427 17.5815 56.0235 13.84C56.0994 10.3224 57.4795 6.82773 60.1637 4.14356C65.6884 -1.38109 74.6461 -1.38128 80.1709 4.14356C85.6958 9.6684 85.6956 18.6261 80.1709 24.1508C77.4867 26.8349 73.9921 28.215 70.4745 28.291C66.733 28.3718 62.6878 28.8293 60.0415 31.4755L59.4856 32.0315Z" fill="var(--fill-0, #1F1F1F)"/>
</svg>
