<svg preserveAspectRatio="none" width="100%" height="100%" overflow="visible" style="display: block;" viewBox="0 0 55.8758 77.1104" fill="none" xmlns="http://www.w3.org/2000/svg">
<g id="Group">
<path id="Rectangle" d="M53.7106 32.26L55.8757 31.01L55.8757 75.8604L53.7106 77.1104L53.7106 32.26Z" fill="var(--fill-0, #A3A3A3)"/>
<path id="Rectangle_2" d="M2.1652 7.83263e-05L55.8758 31.0099L53.7108 32.2599L0.000134422 1.25008L2.1652 7.83263e-05Z" fill="url(#paint0_radial_0_4)"/>
<path id="Rectangle_3" d="M8.08096e-05 1.25008L53.7107 32.2599L53.7107 77.1103L7.98215e-05 46.1005L8.08096e-05 1.25008Z" fill="var(--fill-0, #D7D7D7)"/>
<path id="Rectangle_4" d="M2.78227 10.3053C2.78227 9.75301 3.17 9.52915 3.64829 9.8053L49.5476 36.3053C50.0259 36.5814 50.4137 37.253 50.4137 37.8053L50.4137 70.8053C50.4137 71.3576 50.0259 71.5814 49.5476 71.3053L3.64829 44.8053C3.17 44.5291 2.78227 43.8576 2.78227 43.3053L2.78227 10.3053Z" fill="var(--fill-0, white)"/>
<g id="Group_2">
<ellipse id="Ellipse" cx="1" cy="0.999999" rx="1" ry="0.999999" transform="matrix(0.866025 0.5 -2.20305e-08 1 2.78227 5.11767)" fill="var(--fill-0, #1F1F1F)"/>
<ellipse id="Ellipse_2" cx="0.999999" cy="1" rx="0.999999" ry="1" transform="matrix(0.866025 0.5 -2.20305e-08 1 5.34477 6.61771)" fill="var(--fill-0, #1F1F1F)"/>
<ellipse id="Ellipse_3" cx="1" cy="1" rx="1" ry="1" transform="matrix(0.866025 0.500001 -2.20305e-08 1 7.8761 8.11775)" fill="var(--fill-0, #1F1F1F)"/>
</g>
</g>
<defs>
<radialGradient id="paint0_radial_0_4" cx="0" cy="0" r="1" gradientTransform="matrix(2.26192 -1.30592 39.5439 22.1016 27.938 16.13)" gradientUnits="userSpaceOnUse">
<stop offset="0.375" stop-color="white"/>
<stop offset="1" stop-color="#D7D7D7"/>
</radialGradient>
</defs>
</svg>
