<svg preserveAspectRatio="none" width="100%" height="100%" overflow="visible" style="display: block;" viewBox="0 0 55.8758 77.1104" fill="none" xmlns="http://www.w3.org/2000/svg">
<g id="Group">
<path id="Rectangle" d="M53.7105 32.26L55.8756 31.01L55.8756 75.8604L53.7105 77.1104L53.7105 32.26Z" fill="var(--fill-0, #A3A3A3)"/>
<path id="Rectangle_2" d="M2.16512 3.84335e-05L55.8757 31.0099L53.7107 32.2599L5.47118e-05 1.25004L2.16512 3.84335e-05Z" fill="url(#paint0_radial_0_23)"/>
<path id="Rectangle_3" d="M9.8808e-07 1.25004L53.7106 32.2599L53.7106 77.1103L0 46.1004L9.8808e-07 1.25004Z" fill="var(--fill-0, #D7D7D7)"/>
<path id="Rectangle_4" d="M2.78219 10.3053C2.78219 9.75297 3.16992 9.52911 3.64821 9.80526L49.5476 36.3053C50.0259 36.5814 50.4136 37.253 50.4136 37.8053L50.4136 70.8053C50.4136 71.3575 50.0259 71.5814 49.5476 71.3053L3.64821 44.8053C3.16992 44.5291 2.78219 43.8575 2.78219 43.3053L2.78219 10.3053Z" fill="var(--fill-0, #1F1F1F)"/>
<g id="Group_2">
<ellipse id="Ellipse" cx="0.999999" cy="1" rx="0.999999" ry="1" transform="matrix(0.866025 0.500001 -2.20305e-08 1 2.78219 5.11763)" fill="var(--fill-0, #1F1F1F)"/>
<ellipse id="Ellipse_2" cx="1" cy="1" rx="1" ry="1" transform="matrix(0.866026 0.499999 -2.20306e-08 1 5.34477 6.61763)" fill="var(--fill-0, #1F1F1F)"/>
<ellipse id="Ellipse_3" cx="1" cy="1" rx="1" ry="1" transform="matrix(0.866026 0.5 -2.20305e-08 1 7.8761 8.11767)" fill="var(--fill-0, #1F1F1F)"/>
</g>
</g>
<defs>
<radialGradient id="paint0_radial_0_23" cx="0" cy="0" r="1" gradientTransform="matrix(2.26192 -1.30592 39.5439 22.1016 27.9379 16.13)" gradientUnits="userSpaceOnUse">
<stop offset="0.375" stop-color="white"/>
<stop offset="1" stop-color="#D7D7D7"/>
</radialGradient>
</defs>
</svg>
