<svg preserveAspectRatio="none" width="100%" height="100%" overflow="visible" style="display: block;" viewBox="0 0 55.8757 77.1103" fill="none" xmlns="http://www.w3.org/2000/svg">
<g id="Group">
<path id="Rectangle" d="M53.7105 32.2599L55.8756 31.0099L55.8756 75.8603L53.7105 77.1103L53.7105 32.2599Z" fill="var(--fill-0, #A3A3A3)"/>
<path id="Rectangle_2" d="M2.16512 0L55.8757 31.0098L53.7107 32.2598L5.46561e-05 1.25L2.16512 0Z" fill="url(#paint0_radial_0_13)"/>
<path id="Rectangle_3" d="M9.88077e-07 1.25L53.7106 32.2598L53.7106 77.1102L0 46.1004L9.88077e-07 1.25Z" fill="var(--fill-0, #D7D7D7)"/>
<path id="Rectangle_4" d="M2.78219 10.3052C2.78219 9.75293 3.16992 9.52908 3.64821 9.80522L49.5476 36.3052C50.0259 36.5814 50.4136 37.2529 50.4136 37.8052L50.4136 70.8052C50.4136 71.3575 50.0259 71.5814 49.5476 71.3052L3.64821 44.8052C3.16992 44.5291 2.78219 43.8575 2.78219 43.3052L2.78219 10.3052Z" fill="var(--fill-0, #1F1F1F)"/>
<g id="Group_2">
<ellipse id="Ellipse" cx="0.999999" cy="0.999999" rx="0.999999" ry="0.999999" transform="matrix(0.866025 0.5 -2.20305e-08 1 2.78219 5.1176)" fill="var(--fill-0, #1F1F1F)"/>
<ellipse id="Ellipse_2" cx="0.999999" cy="1" rx="0.999999" ry="1" transform="matrix(0.866025 0.5 -2.20305e-08 1 5.3446 6.61776)" fill="var(--fill-0, #1F1F1F)"/>
<ellipse id="Ellipse_3" cx="0.999999" cy="1" rx="0.999999" ry="1" transform="matrix(0.866025 0.5 -2.20305e-08 1 7.87593 8.1178)" fill="var(--fill-0, #1F1F1F)"/>
</g>
</g>
<defs>
<radialGradient id="paint0_radial_0_13" cx="0" cy="0" r="1" gradientTransform="matrix(2.26192 -1.30592 39.5439 22.1016 27.9379 16.1299)" gradientUnits="userSpaceOnUse">
<stop offset="0.375" stop-color="white"/>
<stop offset="1" stop-color="#D7D7D7"/>
</radialGradient>
</defs>
</svg>
