<svg preserveAspectRatio="none" width="100%" height="100%" overflow="visible" style="display: block;" viewBox="0 0 29.5002 29.5469" fill="none" xmlns="http://www.w3.org/2000/svg">
<g id="Vector">
<path d="M25.9207 13.2679C25.9207 11.7884 26.9236 10.5296 27.9469 9.46111C28.9091 8.45652 29.5002 7.09377 29.5002 5.59304C29.5002 2.5042 26.9961 0 23.9072 0C22.4064 0 21.0437 0.59108 20.0391 1.55317C18.9706 2.57653 17.7118 3.57955 16.2322 3.57955H15.9216C14.442 3.57955 13.1832 2.57653 12.1147 1.55317C11.1102 0.59108 9.74742 0 8.24665 0C5.1577 0 2.65361 2.5042 2.65361 5.59304C2.65361 8.68188 5.1577 11.1861 8.24665 11.1861C9.74742 11.1861 11.1102 10.595 12.1147 9.63291C13.1832 8.60955 14.442 7.60653 15.9216 7.60653L16.3537 7.60653C17.76 7.60653 18.9578 8.55345 19.9523 9.5479C20.9468 10.5424 21.8937 11.7402 21.8937 13.1465V13.5787C21.8937 15.0582 20.8907 16.317 19.8674 17.3855C18.9053 18.3901 18.3141 19.7528 18.3141 21.2536C18.3141 24.3424 20.8182 26.8466 23.9072 26.8466C26.9961 26.8466 29.5002 24.3424 29.5002 21.2535C29.5002 19.7528 28.9091 18.3901 27.9469 17.3855C26.9236 16.317 25.9207 15.0582 25.9207 13.5787V13.2679Z" fill="var(--fill-0, #1F1F1F)"/>
<path d="M16.8679 12.6789C15.47 11.281 13.2036 11.281 11.8057 12.6789L1.04842 23.4362C-0.349475 24.8341 -0.349475 27.1005 1.04842 28.4984C2.44632 29.8963 4.71277 29.8963 6.11067 28.4984L16.8679 17.7412C18.2658 16.3433 18.2658 14.0768 16.8679 12.6789Z" fill="var(--fill-0, #1F1F1F)"/>
</g>
</svg>
