<svg preserveAspectRatio="none" width="100%" height="100%" overflow="visible" style="display: block;" viewBox="0 0 84.3145 56.3044" fill="none" xmlns="http://www.w3.org/2000/svg">
<path id="Vector" d="M60.5176 4.49707C65.847 -0.832142 74.4879 -0.832434 79.8174 4.49707C85.1469 9.82659 85.1466 18.4675 79.8174 23.7969C77.228 26.3863 73.8578 27.7177 70.4639 27.791C66.728 27.8717 62.4897 28.321 59.6885 31.1221L59.1318 31.6777C56.3308 34.4788 55.8815 38.7173 55.8008 42.4531C55.7275 45.8471 54.3971 49.2182 51.8076 51.8076C46.4782 57.137 37.8364 57.1372 32.5068 51.8076C29.9174 49.2182 28.5861 45.8478 28.5127 42.4541C28.432 38.7182 27.9838 34.479 25.1826 31.6777L24.627 31.1221C21.8257 28.3208 17.5866 27.8717 13.8506 27.791C10.4568 27.7177 7.08658 26.3864 4.49707 23.7969C-0.83232 18.4673 -0.832256 9.8264 4.49707 4.49707C9.8264 -0.832256 18.4673 -0.832319 23.7969 4.49707C26.3864 7.08658 27.7177 10.4568 27.791 13.8506C27.8717 17.5866 28.3208 21.8257 31.1221 24.627L31.8945 25.3994C34.5659 28.0708 38.594 28.5098 42.1572 28.5098C45.7204 28.5098 49.7485 28.0708 52.4199 25.3994L53.1924 24.627C55.9936 21.8257 56.4428 17.5865 56.5234 13.8506C56.5968 10.4567 57.9282 7.08646 60.5176 4.49707Z" stroke="var(--stroke-0, #F4F4F4)"/>
</svg>
