<svg preserveAspectRatio="none" width="100%" height="100%" overflow="visible" style="display: block;" viewBox="0 0 64 44" fill="none" xmlns="http://www.w3.org/2000/svg">
<g id="Icon Container">
<path id="Vector_1" d="M64 0H49V1H63V12H64V0Z" fill="var(--fill-0, #1F1F1F)"/>
<path id="Vector_2" d="M0 44H15V43H1V32H0V44Z" fill="var(--fill-0, #1F1F1F)"/>
<g id="Arrow Down">
<path id="Vector" d="M21.1795 28.834C19.6068 27.2614 19.6068 24.7116 21.1795 23.139C21.915 22.4035 22.8642 22.012 23.8273 21.9646C24.9587 21.9089 26.1873 21.776 26.9883 20.975C27.7893 20.1739 27.9223 18.9453 27.978 17.8139C28.0255 16.8508 28.4169 15.9015 29.1525 15.166C30.7251 13.5933 33.2749 13.5933 34.8475 15.166C35.583 15.9015 35.9744 16.8507 36.0219 17.8137C36.0776 18.9452 36.2106 20.1738 37.0116 20.9749C37.8127 21.7759 39.0413 21.9089 40.1728 21.9646C41.1358 22.0121 42.085 22.4035 42.8205 23.139C44.3932 24.7116 44.3932 27.2614 42.8205 28.834C41.2479 30.4066 38.6981 30.4066 37.1255 28.834C36.39 28.0985 35.9986 27.1493 35.9511 26.1863C35.8954 25.0548 35.7625 23.8261 34.9614 23.0251L34.8201 22.8838C34.1042 22.1679 33.0124 22.0402 32 22.0403C30.9875 22.0403 29.8957 22.168 29.1797 22.884L29.0385 23.0252C28.2375 23.8262 28.1046 25.0547 28.0489 26.1862C28.0014 27.1492 27.61 28.0985 26.8745 28.834C25.3019 30.4066 22.7521 30.4066 21.1795 28.834Z" fill="var(--fill-0, #1F1F1F)"/>
</g>
</g>
</svg>
