<svg preserveAspectRatio="none" width="100%" height="100%" overflow="visible" style="display: block;" viewBox="0 0 24 17" fill="none" xmlns="http://www.w3.org/2000/svg">
<path d="M1.17947 13.834C-0.393157 12.2614 -0.393157 9.7116 1.17947 8.139C1.91499 7.40347 2.86421 7.01201 3.82726 6.96458C4.95868 6.90885 6.1873 6.77595 6.98835 5.9749C7.7894 5.17385 7.92233 3.94524 7.97806 2.81383C8.0255 1.85077 8.41694 0.90152 9.15247 0.165995C10.7251 -1.40663 13.2749 -1.40663 14.8475 0.165995C15.5831 0.90152 15.9745 1.85072 16.0219 2.81372C16.0777 3.94517 16.2106 5.17378 17.0117 5.97483C17.8127 6.77587 19.0414 6.9088 20.1728 6.96453C21.1358 7.01197 22.085 7.40343 22.8205 8.13895C24.3932 9.71158 24.3932 12.2614 22.8205 13.834C21.2479 15.4066 18.6981 15.4066 17.1255 13.834C16.39 13.0985 15.9986 12.1493 15.9511 11.1863C15.8954 10.0548 15.7625 8.82615 14.9614 8.0251L14.8202 7.88384C14.1042 7.1679 13.0125 7.0402 12 7.04026C10.9876 7.04031 9.89575 7.16801 9.17977 7.884L9.03853 8.02524C8.23748 8.82623 8.10456 10.0547 8.04883 11.1862C8.0014 12.1492 7.60994 13.0985 6.87442 13.834C5.30179 15.4066 2.75199 15.4066 1.17947 13.834Z" fill="var(--fill-0, #1F1F1F)"/>
</svg>
