<svg preserveAspectRatio="none" width="100%" height="100%" overflow="visible" style="display: block;" viewBox="0 0 30 30" fill="none" xmlns="http://www.w3.org/2000/svg">
<path id="Vector" fill-rule="evenodd" clip-rule="evenodd" d="M15 0C6.7155 0 0 6.7155 0 15C0 23.2845 6.7155 30 15 30C23.2845 30 30 23.2845 30 15C30 6.7155 23.2845 0 15 0ZM17.5095 15.5355C17.4006 15.628 17.3168 15.7465 17.2657 15.8799C17.2146 16.0133 17.1978 16.1574 17.217 16.299L17.8545 20.127C17.8724 20.2344 17.8666 20.3444 17.8377 20.4493C17.8087 20.5543 17.7573 20.6517 17.6869 20.7348C17.6166 20.8178 17.529 20.8846 17.4302 20.9304C17.3314 20.9762 17.2239 20.9999 17.115 21H12.885C12.7761 20.9999 12.6686 20.9762 12.5698 20.9304C12.471 20.8846 12.3834 20.8178 12.3131 20.7348C12.2427 20.6517 12.1913 20.5543 12.1623 20.4493C12.1334 20.3444 12.1276 20.2344 12.1455 20.127L12.783 16.299C12.8022 16.1574 12.7854 16.0133 12.7343 15.8799C12.6832 15.7465 12.5994 15.628 12.4905 15.5355C11.9272 15.0279 11.5309 14.3614 11.3541 13.624C11.1773 12.8867 11.2282 12.113 11.5001 11.4051C11.7719 10.6972 12.252 10.0884 12.877 9.65895C13.502 9.2295 14.2425 8.99962 15.0007 8.99962C15.759 8.99962 16.4995 9.2295 17.1245 9.65895C17.7495 10.0884 18.2296 10.6972 18.5014 11.4051C18.7733 12.113 18.8242 12.8867 18.6474 13.624C18.4706 14.3614 18.0728 15.0279 17.5095 15.5355Z" fill="var(--fill-0, #1F1F1F)"/>
</svg>
