<svg preserveAspectRatio="none" width="100%" height="100%" overflow="visible" style="display: block;" viewBox="0 0 30 29.9975" fill="none" xmlns="http://www.w3.org/2000/svg">
<path id="Vector" d="M15 5.55324e-06C13.8193 -0.00175341 12.6761 0.414395 11.7729 1.17475C10.8697 1.93509 10.2647 2.99058 10.0651 4.15425C9.86547 5.31792 10.0841 6.51468 10.6824 7.53257C11.2806 8.55046 12.2198 9.32379 13.3335 9.71559V13.3318H8.33408C7.00814 13.3318 5.73652 13.8586 4.79894 14.7961C3.86136 15.7337 3.33464 17.0054 3.33464 18.3313V20.2811C2.22227 20.6742 1.28471 21.4479 0.687667 22.4655C0.090624 23.4831 -0.127453 24.679 0.0719837 25.8418C0.27142 27.0046 0.875528 28.0594 1.77752 28.8199C2.67952 29.5804 3.82133 29.9975 5.00112 29.9975C6.18091 29.9975 7.32271 29.5804 8.22471 28.8199C9.12671 28.0594 9.73082 27.0046 9.93025 25.8418C10.1297 24.679 9.91161 23.4831 9.31457 22.4655C8.71753 21.4479 7.77996 20.6742 6.6676 20.2811V18.3313C6.6676 17.8893 6.84317 17.4654 7.1557 17.1529C7.46823 16.8404 7.8921 16.6648 8.33408 16.6648H21.6659C22.1079 16.6648 22.5318 16.8404 22.8443 17.1529C23.1568 17.4654 23.3324 17.8893 23.3324 18.3313V20.2811C22.22 20.6742 21.2825 21.4479 20.6854 22.4655C20.0884 23.4831 19.8703 24.679 20.0697 25.8418C20.2692 27.0046 20.8733 28.0594 21.7753 28.8199C22.6773 29.5804 23.8191 29.9975 24.9989 29.9975C26.1787 29.9975 27.3205 29.5804 28.2225 28.8199C29.1245 28.0594 29.7286 27.0046 29.928 25.8418C30.1275 24.679 29.9094 23.4831 29.3123 22.4655C28.7153 21.4479 27.7777 20.6742 26.6654 20.2811V18.3313C26.6654 17.0054 26.1386 15.7337 25.2011 14.7961C24.2635 13.8586 22.9919 13.3318 21.6659 13.3318H16.6665V9.71559C17.7783 9.32205 18.7152 8.54825 19.3118 7.53089C19.9084 6.51352 20.1262 5.31805 19.9268 4.15564C19.7274 2.99323 19.1237 1.93868 18.2221 1.17828C17.3206 0.417879 16.1794 0.000547164 15 5.55324e-06Z" fill="#1F1F1F"/>
</svg>
