<svg preserveAspectRatio="none" width="100%" height="100%" overflow="visible" style="display: block;" viewBox="0 0 30 30" fill="none" xmlns="http://www.w3.org/2000/svg">
<g id="Vector">
<path fill-rule="evenodd" clip-rule="evenodd" d="M0.976311 0.976311C0.351189 1.60143 0 2.44928 0 3.33333V13.3333H13.3333V0H3.33333C2.44928 0 1.60143 0.351189 0.976311 0.976311ZM4.6875 5.625C5.20527 5.625 5.625 5.20527 5.625 4.6875C5.625 4.16973 5.20527 3.75 4.6875 3.75C4.16973 3.75 3.75 4.16973 3.75 4.6875C3.75 5.20527 4.16973 5.625 4.6875 5.625ZM4.6875 9.5625C5.20527 9.5625 5.625 9.14277 5.625 8.625C5.625 8.10723 5.20527 7.6875 4.6875 7.6875C4.16973 7.6875 3.75 8.10723 3.75 8.625C3.75 9.14277 4.16973 9.5625 4.6875 9.5625ZM9.5625 4.6875C9.5625 5.20527 9.14277 5.625 8.625 5.625C8.10723 5.625 7.6875 5.20527 7.6875 4.6875C7.6875 4.16973 8.10723 3.75 8.625 3.75C9.14277 3.75 9.5625 4.16973 9.5625 4.6875ZM8.625 9.5625C9.14277 9.5625 9.5625 9.14277 9.5625 8.625C9.5625 8.10723 9.14277 7.6875 8.625 7.6875C8.10723 7.6875 7.6875 8.10723 7.6875 8.625C7.6875 9.14277 8.10723 9.5625 8.625 9.5625Z" fill="#1F1F1F"/>
<path d="M0 16.6667H13.3333V30H3.33333C2.44928 30 1.60143 29.6488 0.976311 29.0237C0.351189 28.3986 0 27.5507 0 26.6667V16.6667Z" fill="#1F1F1F"/>
<path fill-rule="evenodd" clip-rule="evenodd" d="M26.6667 30H16.6667V16.6667H30V26.6667C30 27.5507 29.6488 28.3986 29.0237 29.0237C28.3986 29.6488 27.5507 30 26.6667 30ZM25.125 23.25C25.125 24.2855 24.2855 25.125 23.25 25.125C22.2145 25.125 21.375 24.2855 21.375 23.25C21.375 22.2145 22.2145 21.375 23.25 21.375C24.2855 21.375 25.125 22.2145 25.125 23.25Z" fill="#1F1F1F"/>
<path d="M16.6667 0V13.3333H30V3.33333C30 2.44928 29.6488 1.60143 29.0237 0.976311C28.3986 0.351189 27.5507 0 26.6667 0H16.6667Z" fill="#1F1F1F"/>
</g>
</svg>
