<svg preserveAspectRatio="none" width="100%" height="100%" overflow="visible" style="display: block;" viewBox="0 0 30 30" fill="none" xmlns="http://www.w3.org/2000/svg">
<g id="Vector">
<path d="M14.9998 13.5837C14.6342 13.5736 14.2443 13.5233 13.9868 13.2657L13.9312 13.2101C13.6663 12.9453 13.6206 12.5405 13.6125 12.1661C13.6049 11.814 13.4668 11.4643 13.1982 11.1957C12.6453 10.6429 11.7489 10.6428 11.196 11.1957C10.6431 11.7486 10.6431 12.645 11.196 13.1979C11.4646 13.4665 11.8143 13.6046 12.1663 13.6122C12.5407 13.6203 12.9456 13.6661 13.2104 13.9309L13.2877 14.0082C13.5395 14.26 13.5844 14.6438 13.5844 14.9998C13.5844 15.3558 13.5395 15.7397 13.2877 15.9914L13.2104 16.0687C12.9456 16.3336 12.5407 16.3793 12.1663 16.3874C11.8143 16.395 11.4646 16.5331 11.196 16.8018C10.6431 17.3546 10.6431 18.2511 11.196 18.8039C11.7489 19.3568 12.6453 19.3568 13.1982 18.8039C13.4668 18.5353 13.6049 18.1856 13.6125 17.8336C13.6206 17.4592 13.6663 17.0543 13.9312 16.7895L13.9868 16.7339C14.2444 16.4763 14.6346 16.426 15.0003 16.416C15.3659 16.426 15.7559 16.4764 16.0134 16.7339L16.069 16.7895C16.3338 17.0543 16.3796 17.4592 16.3877 17.8336C16.3953 18.1856 16.5334 18.5353 16.802 18.8039C17.3549 19.3568 18.2513 19.3568 18.8042 18.8039C19.3571 18.251 19.357 17.3546 18.8042 16.8018C18.5356 16.5331 18.1859 16.395 17.8338 16.3874C17.4594 16.3794 17.0546 16.3336 16.7898 16.0688L16.7125 15.9914C16.4607 15.7397 16.4158 15.3558 16.4158 14.9998C16.4158 14.6438 16.4607 14.26 16.7125 14.0082L16.7898 13.9309C17.0546 13.6661 17.4594 13.6203 17.8339 13.6122C18.1859 13.6046 18.5356 13.4665 18.8042 13.1979C19.3571 12.645 19.357 11.7486 18.8042 11.1957C18.2513 10.6429 17.3549 10.6428 16.802 11.1957C16.5334 11.4643 16.3953 11.814 16.3877 12.166C16.3796 12.5405 16.3338 12.9453 16.069 13.2101L16.0134 13.2657C15.7558 13.5234 15.3656 13.5737 14.9998 13.5837Z" fill="#1F1F1F"/>
<path fill-rule="evenodd" clip-rule="evenodd" d="M29.0237 9.30964C28.3986 8.68452 27.5507 8.33333 26.6667 8.33333H21.6667V3.33333C21.6667 2.44928 21.3155 1.60143 20.6904 0.976311C20.0652 0.351189 19.2174 0 18.3333 0H3.33333C2.44928 0 1.60143 0.351189 0.976311 0.976311C0.351189 1.60143 0 2.44928 0 3.33333V18.3333C0 19.2174 0.351189 20.0652 0.976311 20.6904C1.60143 21.3155 2.44928 21.6667 3.33333 21.6667H8.33333V26.6667C8.33333 27.5507 8.68452 28.3986 9.30964 29.0237C9.93477 29.6488 10.7826 30 11.6667 30H26.6667C27.5507 30 28.3986 29.6488 29.0237 29.0237C29.6488 28.3986 30 27.5507 30 26.6667V11.6667C30 10.7826 29.6488 9.93477 29.0237 9.30964ZM8.33333 21.6667V11.6667C8.33333 10.7826 8.68452 9.93477 9.30964 9.30964C9.93477 8.68452 10.7826 8.33333 11.6667 8.33333H21.6667V18.3333C21.6667 19.2174 21.3155 20.0652 20.6904 20.6904C20.0652 21.3155 19.2174 21.6667 18.3333 21.6667H8.33333Z" fill="#1F1F1F"/>
</g>
</svg>
