<svg width="100" height="100" viewBox="0 0 100 100" fill="none" xmlns="http://www.w3.org/2000/svg">
<path d="M82.2261 70.0146C82.226 70.1932 82.1307 70.358 81.9761 70.4473C81.8214 70.5365 81.6307 70.5365 81.4761 70.4473L72.2495 65.1201H72.2485C71.5956 64.7725 70.9136 64.2424 70.2632 63.5879L74.3306 74.2812C74.3497 74.3317 74.3606 74.3856 74.3628 74.4395C74.5473 78.9878 71.6293 83.4632 65.8569 86.7959C60.2535 90.031 52.9404 91.6338 45.6548 91.6338C38.3694 91.6337 31.0569 90.0309 25.4536 86.7959C19.6812 83.4632 16.7623 78.9878 16.9468 74.4395L16.9565 74.3594C16.962 74.3329 16.9694 74.3066 16.979 74.2812L27.5786 46.4395L20.5972 42.3936L20.5942 42.3926C18.7745 41.3207 17.7378 39.1017 17.7378 36.1396C17.7379 33.1549 18.7822 29.8823 20.4468 26.999C22.1115 24.1156 24.4243 21.5745 27.0093 20.082L45.0513 9.66504C47.3301 8.3494 49.5056 8.0391 51.2563 8.71582C51.3353 8.71952 51.4131 8.73994 51.4829 8.78027C52.2844 9.24298 56.9917 11.8965 61.4995 14.4717C63.7503 15.7575 65.9496 17.0221 67.5796 17.9805C68.394 18.4593 69.0697 18.8637 69.5396 19.1562C69.7732 19.3018 69.9619 19.4243 70.0933 19.5156C70.1569 19.5599 70.2193 19.6049 70.2681 19.6465C70.2734 19.651 70.2786 19.6577 70.2856 19.6641C72.3649 20.6194 73.5717 22.9481 73.5718 26.1396C73.5718 29.1246 72.5275 32.3978 70.8628 35.2812C69.198 38.1646 66.8862 40.7058 64.3013 42.1982L62.3403 43.3291C62.8045 44.2497 63.0249 45.2263 63.2056 46.1631C63.4093 47.2195 63.5653 48.2087 63.9233 49.1455L67.3862 51.1455C67.9457 50.5378 68.6805 50.171 69.5269 50.085C70.5157 49.9845 71.6196 50.2687 72.7495 50.9209H72.7505L81.9761 56.248C82.1306 56.3373 82.2259 56.5022 82.2261 56.6807V70.0146Z" fill="#1F1F1F" stroke="#1F1F1F" stroke-linejoin="round"/>
<path d="M55.7005 54.8972C57.8081 56.1141 59.6519 55.8746 60.6599 54.5092L67.4639 58.4375C68.4606 61.0126 70.3298 63.4381 72.4713 64.6746L81.6978 70.0015V64.9869L72.7766 59.8362C71.9795 59.376 71.3333 58.2567 71.3333 57.3362C71.3333 56.4157 71.9795 56.0426 72.7766 56.5029L81.6978 61.6535V56.6681L72.4713 51.3412C70.3389 50.11 68.4764 50.3697 67.4766 51.7782L60.742 47.89C59.7543 45.2819 57.8667 42.8146 55.7005 41.5639C52.5119 39.723 49.927 41.2154 49.927 44.8972C49.927 48.5791 52.5119 53.0563 55.7005 54.8972Z" fill="#F4F4F4"/>
<path d="M62.3863 44.3955H28.8638L17.4031 74.4594H17.4167C17.2424 78.7556 19.9946 83.084 25.6733 86.3626C36.6923 92.7244 54.5578 92.7244 65.5768 86.3626C71.2555 83.084 74.0077 78.7556 73.8334 74.4594H73.847L62.3863 44.3955Z" fill="url(#paint0_radial_630_10789)"/>
<path d="M33.7755 39.4798C40.4061 35.6516 51.1566 35.6516 57.7872 39.4798C64.4179 43.308 64.4179 49.5148 57.7872 53.343C51.1566 57.1712 40.4061 57.1712 33.7755 53.343C27.1448 49.5148 27.1448 43.308 33.7755 39.4798Z" fill="#1F1F1F"/>
<path d="M27.2291 20.5149C22.2469 23.3914 18.208 30.387 18.208 36.1399C18.208 38.9975 19.2045 41.011 20.8181 41.9614L20.8122 41.9732L39.5761 52.8066L48.5964 34.6514L59.5643 40.9837L69.9671 20.0462L51.8069 9.56139C51.7037 9.49581 51.5979 9.43473 51.4896 9.37821L51.2032 9.21289L51.1913 9.23691C49.607 8.55925 47.5367 8.79038 45.2713 10.0983L27.2291 20.5149Z" fill="url(#paint1_radial_630_10789)"/>
<path d="M36.958 46.9732C36.958 41.2202 40.9969 34.2247 45.9791 31.3482L64.0213 20.9315C69.0035 18.0551 73.0424 20.3869 73.0424 26.1399C73.0424 31.8928 69.0035 38.8884 64.0213 41.7649L45.9791 52.1815C40.9969 55.058 36.958 52.7262 36.958 46.9732Z" fill="#BABABA" stroke="#1F1F1F"/>
<path d="M48.3643 34.9419C51.1543 33.3311 53.416 34.6373 53.416 37.8589C53.4159 41.0805 51.1542 44.9981 48.3643 46.6089C45.5742 48.2197 43.3125 46.9135 43.3125 43.6919C43.3125 40.4702 45.5742 36.5527 48.3643 34.9419ZM62.5518 26.6089C65.3417 24.9981 67.6033 26.3035 67.6035 29.5249C67.6035 32.7466 65.3418 36.6641 62.5518 38.2749C59.7618 39.8857 57.5001 38.5804 57.5 35.3589C57.5 32.1373 59.7619 28.2198 62.5518 26.6089Z" fill="#1F1F1F"/>
<path d="M31.5338 69.4082C33.6413 70.625 35.4851 70.3856 36.4931 69.0202L43.2971 72.9485C44.2938 75.5236 46.1631 77.9491 48.3046 79.1855L57.5311 84.5125V79.4979L48.6099 74.3472C47.8127 73.887 47.1665 72.7677 47.1665 71.8472C47.1665 70.9267 47.8127 70.5536 48.6099 71.0139L57.5311 76.1645V71.1791L48.3046 65.8522C46.1721 64.621 44.3097 64.8807 43.3098 66.2891L36.5753 62.4009C35.5875 59.7929 33.6999 57.3256 31.5338 56.0749C28.3451 54.234 25.7603 55.7263 25.7603 59.4082C25.7603 63.0901 28.3451 67.5673 31.5338 69.4082Z" fill="#1F1F1F"/>
<defs>
<radialGradient id="paint0_radial_630_10789" cx="0" cy="0" r="1" gradientTransform="matrix(4.46277e-07 -48.8294 40.8927 -13.6311 45.625 67.7647)" gradientUnits="userSpaceOnUse">
<stop offset="0.375" stop-color="white"/>
<stop offset="1" stop-color="#D7D7D7"/>
</radialGradient>
<radialGradient id="paint1_radial_630_10789" cx="0" cy="0" r="1" gradientTransform="matrix(4.09236e-07 -45.9061 37.4986 -12.815 44.0876 30.8364)" gradientUnits="userSpaceOnUse">
<stop offset="0.375" stop-color="white"/>
<stop offset="1" stop-color="#D7D7D7"/>
</radialGradient>
</defs>
</svg>
