<svg width="110" height="12" viewBox="0 0 110 12" fill="none" xmlns="http://www.w3.org/2000/svg">
<path d="M1 4.77344C0.447715 4.77344 0 5.22115 0 5.77344C0 6.32572 0.447715 6.77344 1 6.77344V5.77344V4.77344ZM110 5.77344L100 -6.53267e-05V11.5469L110 5.77344ZM1 5.77344V6.77344H2.94643V5.77344V4.77344H1V5.77344ZM6.83929 5.77344V6.77344H10.7321V5.77344V4.77344H6.83929V5.77344ZM14.625 5.77344V6.77344H18.5179V5.77344V4.77344H14.625V5.77344ZM22.4107 5.77344V6.77344H26.3036V5.77344V4.77344H22.4107V5.77344ZM30.1964 5.77344V6.77344H34.0893V5.77344V4.77344H30.1964V5.77344ZM37.9821 5.77344V6.77344H41.875V5.77344V4.77344H37.9821V5.77344ZM45.7679 5.77344V6.77344H49.6607V5.77344V4.77344H45.7679V5.77344ZM53.5536 5.77344V6.77344H57.4464V5.77344V4.77344H53.5536V5.77344ZM61.3393 5.77344V6.77344H65.2321V5.77344V4.77344H61.3393V5.77344ZM69.125 5.77344V6.77344H73.0179V5.77344V4.77344H69.125V5.77344ZM76.9107 5.77344V6.77344H80.8036V5.77344V4.77344H76.9107V5.77344ZM84.6964 5.77344V6.77344H88.5893V5.77344V4.77344H84.6964V5.77344ZM92.4822 5.77344V6.77344H96.375V5.77344V4.77344H92.4822V5.77344ZM100.268 5.77344V6.77344H104.161V5.77344V4.77344H100.268V5.77344ZM1 4.77344C0.447715 4.77344 0 5.22115 0 5.77344C0 6.32572 0.447715 6.77344 1 6.77344V5.77344V4.77344ZM110 5.77344L100 -6.53267e-05V11.5469L110 5.77344ZM1 5.77344V6.77344H2.94643V5.77344V4.77344H1V5.77344ZM6.83929 5.77344V6.77344H10.7321V5.77344V4.77344H6.83929V5.77344ZM14.625 5.77344V6.77344H18.5179V5.77344V4.77344H14.625V5.77344ZM22.4107 5.77344V6.77344H26.3036V5.77344V4.77344H22.4107V5.77344ZM30.1964 5.77344V6.77344H34.0893V5.77344V4.77344H30.1964V5.77344ZM37.9821 5.77344V6.77344H41.875V5.77344V4.77344H37.9821V5.77344ZM45.7679 5.77344V6.77344H49.6607V5.77344V4.77344H45.7679V5.77344ZM53.5536 5.77344V6.77344H57.4464V5.77344V4.77344H53.5536V5.77344ZM61.3393 5.77344V6.77344H65.2321V5.77344V4.77344H61.3393V5.77344ZM69.125 5.77344V6.77344H73.0179V5.77344V4.77344H69.125V5.77344ZM76.9107 5.77344V6.77344H80.8036V5.77344V4.77344H76.9107V5.77344ZM84.6964 5.77344V6.77344H88.5893V5.77344V4.77344H84.6964V5.77344ZM92.4822 5.77344V6.77344H96.375V5.77344V4.77344H92.4822V5.77344ZM100.268 5.77344V6.77344H104.161V5.77344V4.77344H100.268V5.77344Z" fill="#ED585A"/>
</svg>
