<svg width="100" height="100" viewBox="0 0 100 100" fill="none" xmlns="http://www.w3.org/2000/svg">
<path d="M89.417 81.3955L89.167 81.5391L87.002 82.7891L86.752 82.9336L86.502 82.7891L78.541 78.1934V87.5674L78.291 87.7119L76.126 88.9619L75.876 89.1064L75.626 88.9619L67.666 84.3652V93.9346L67.416 94.0791L65.251 95.3291L65.001 95.4736L64.751 95.3291L11.04 64.3193L10.79 64.1748V18.7471L11.04 18.6035L13.2051 17.3525L13.4551 17.209L13.7051 17.3525L21.666 21.9482V12.3799L21.916 12.2354L24.0811 10.9854L24.3311 10.8408L24.5811 10.9854L32.541 15.5811V6.20703L32.791 6.06348L34.9561 4.81348L35.2061 4.66895L35.4561 4.81348L89.167 35.8232L89.417 35.9668V81.3955Z" fill="#1F1F1F" stroke="#1F1F1F"/>
<path d="M86.7627 37.51L88.9278 36.26L88.9278 81.1104L86.7627 82.3604L86.7627 37.51Z" fill="#A3A3A3"/>
<path d="M35.2173 5.25L88.9279 36.2598L86.7628 37.5098L33.0522 6.5L35.2173 5.25Z" fill="url(#paint0_radial_694_907)"/>
<path d="M33.0522 6.5L86.7629 37.5098L86.7629 82.3602L33.0522 51.3504L33.0522 6.5Z" fill="#D7D7D7"/>
<path d="M35.8342 15.5552C35.8342 15.0029 36.222 14.779 36.7003 15.0552L82.5996 41.5552C83.0779 41.8313 83.4656 42.5029 83.4656 43.0552L83.4656 76.0552C83.4656 76.6075 83.0779 76.8313 82.5996 76.5552L36.7003 50.0552C36.222 49.779 35.8342 49.1075 35.8342 48.5552L35.8342 15.5552Z" fill="#1F1F1F"/>
<ellipse cx="0.999999" cy="1" rx="0.999999" ry="1" transform="matrix(0.866025 0.500001 -2.20305e-08 1 35.8342 10.3677)" fill="#1F1F1F"/>
<ellipse cx="1" cy="1" rx="1" ry="1" transform="matrix(0.866026 0.499999 -2.20306e-08 1 38.3967 11.8677)" fill="#1F1F1F"/>
<ellipse cx="1" cy="1" rx="1" ry="1" transform="matrix(0.866026 0.5 -2.20305e-08 1 40.9282 13.3677)" fill="#1F1F1F"/>
<path d="M75.887 43.6821L78.052 42.4321L78.052 87.2825L75.887 88.5325L75.887 43.6821Z" fill="#A3A3A3"/>
<path d="M24.3415 11.4224L78.0522 42.4322L75.8871 43.6822L22.1765 12.6724L24.3415 11.4224Z" fill="url(#paint1_radial_694_907)"/>
<path d="M22.1765 12.6724L75.8871 43.6822L75.8871 88.5326L22.1765 57.5228L22.1765 12.6724Z" fill="#D7D7D7"/>
<path d="M24.9587 21.7275C24.9587 21.1753 25.3465 20.9514 25.8248 21.2275L71.7241 47.7275C72.2024 48.0037 72.5901 48.6753 72.5901 49.2275L72.5901 82.2275C72.5901 82.7798 72.2024 83.0037 71.7241 82.7275L25.8248 56.2275C25.3465 55.9514 24.9587 55.2798 24.9587 54.7275L24.9587 21.7275Z" fill="#1F1F1F"/>
<ellipse cx="0.999999" cy="0.999999" rx="0.999999" ry="0.999999" transform="matrix(0.866025 0.5 -2.20305e-08 1 24.9587 16.5398)" fill="#1F1F1F"/>
<ellipse cx="0.999999" cy="1" rx="0.999999" ry="1" transform="matrix(0.866025 0.5 -2.20305e-08 1 27.5212 18.04)" fill="#1F1F1F"/>
<ellipse cx="0.999999" cy="1" rx="0.999999" ry="1" transform="matrix(0.866025 0.5 -2.20305e-08 1 30.0525 19.54)" fill="#1F1F1F"/>
<path d="M65.0115 50.05L67.1765 48.8L67.1765 93.6504L65.0115 94.9004L65.0115 50.05Z" fill="#A3A3A3"/>
<path d="M13.4661 17.79L67.1767 48.7999L65.0116 50.0499L11.301 19.04L13.4661 17.79Z" fill="url(#paint2_radial_694_907)"/>
<path d="M11.3008 19.04L65.0114 50.0499L65.0114 94.9003L11.3008 63.8904L11.3008 19.04Z" fill="#D7D7D7"/>
<path d="M14.083 28.0952C14.083 27.5429 14.4707 27.3191 14.949 27.5952L60.8484 54.0952C61.3267 54.3714 61.7144 55.0429 61.7144 55.5952L61.7144 88.5952C61.7144 89.1475 61.3267 89.3714 60.8484 89.0952L14.949 62.5952C14.4707 62.3191 14.083 61.6475 14.083 61.0952L14.083 28.0952Z" fill="white"/>
<ellipse cx="1" cy="0.999999" rx="1" ry="0.999999" transform="matrix(0.866025 0.5 -2.20305e-08 1 14.083 22.9077)" fill="#1F1F1F"/>
<ellipse cx="0.999999" cy="1" rx="0.999999" ry="1" transform="matrix(0.866025 0.5 -2.20305e-08 1 16.6455 24.4077)" fill="#1F1F1F"/>
<ellipse cx="1" cy="1" rx="1" ry="1" transform="matrix(0.866025 0.500001 -2.20305e-08 1 19.1768 25.9077)" fill="#1F1F1F"/>
<g clip-path="url(#clip0_694_907)">
<rect width="26.7052" height="6.18435" rx="1.07683" transform="matrix(0.866025 0.5 -2.20305e-08 1 26.335 52.6494)" fill="#D7D7D7"/>
<path d="M26.335 52.6494L28.067 53.6494L28.067 60.9827L26.335 59.9827L26.335 52.6494Z" fill="#ED585A"/>
</g>
<rect width="26.7052" height="6.18435" rx="1.07683" transform="matrix(0.866025 0.5 -2.20305e-08 1 26.335 44.2539)" fill="#1F1F1F"/>
<defs>
<radialGradient id="paint0_radial_694_907" cx="0" cy="0" r="1" gradientTransform="matrix(2.26192 -1.30592 39.5439 22.1016 60.9901 21.3799)" gradientUnits="userSpaceOnUse">
<stop offset="0.375" stop-color="white"/>
<stop offset="1" stop-color="#D7D7D7"/>
</radialGradient>
<radialGradient id="paint1_radial_694_907" cx="0" cy="0" r="1" gradientTransform="matrix(2.26192 -1.30592 39.5439 22.1016 50.1143 27.5523)" gradientUnits="userSpaceOnUse">
<stop offset="0.375" stop-color="white"/>
<stop offset="1" stop-color="#D7D7D7"/>
</radialGradient>
<radialGradient id="paint2_radial_694_907" cx="0" cy="0" r="1" gradientTransform="matrix(2.26192 -1.30592 39.5439 22.1016 39.2388 33.92)" gradientUnits="userSpaceOnUse">
<stop offset="0.375" stop-color="white"/>
<stop offset="1" stop-color="#D7D7D7"/>
</radialGradient>
<clipPath id="clip0_694_907">
<rect width="26.7052" height="6.18435" rx="1.07683" transform="matrix(0.866025 0.5 -2.20305e-08 1 26.335 52.6494)" fill="white"/>
</clipPath>
</defs>
</svg>
