<svg preserveAspectRatio="none" width="100%" height="100%" overflow="visible" style="display: block;" viewBox="0 0 224 174" fill="none" xmlns="http://www.w3.org/2000/svg">
<g id="System-node 1 1">
<path id="Vector" d="M101.313 6.48076C107.052 3.16706 116.358 3.16706 122.097 6.48076L212.164 58.4808C217.903 61.7945 217.903 67.1671 212.164 70.4808L122.097 122.481C116.358 125.794 107.052 125.794 101.313 122.481L11.246 70.4808C5.50654 67.1671 5.50654 61.7945 11.246 58.4808L101.313 6.48076Z" fill="var(--fill-0, white)"/>
<path id="Vector_2" d="M101.313 6.48076C107.052 3.16706 116.358 3.16706 122.097 6.48076L212.164 58.4808C217.903 61.7945 217.903 67.1671 212.164 70.4808L122.097 122.481C116.358 125.794 107.052 125.794 101.313 122.481L11.246 70.4808C5.50654 67.1671 5.50654 61.7945 11.246 58.4808L101.313 6.48076Z" fill="url(#paint0_linear_0_4)"/>
<path id="Vector_3" d="M101.313 6.48076C107.052 3.16706 116.358 3.16706 122.097 6.48076L212.164 58.4808C217.903 61.7945 217.903 67.1671 212.164 70.4808L122.097 122.481C116.358 125.794 107.052 125.794 101.313 122.481L11.246 70.4808C5.50654 67.1671 5.50654 61.7945 11.246 58.4808L101.313 6.48076Z" stroke="var(--stroke-0, #1F1F1F)"/>
<path id="Vector_4" d="M101.313 122.481L11.2461 70.4807V118.481L101.313 170.481V122.481Z" fill="var(--fill-0, white)"/>
<path id="Vector_5" d="M101.313 122.481L11.2461 70.4807V118.481L101.313 170.481V122.481Z" fill="url(#paint1_linear_0_4)"/>
<path id="Vector_6" d="M101.313 122.481L11.2461 70.4807V118.481L101.313 170.481V122.481Z" stroke="var(--stroke-0, #1F1F1F)"/>
<path id="Vector_7" d="M39.7031 104.481C39.7031 101.719 41.6418 100.6 44.0333 101.981C46.4247 103.361 48.3634 106.719 48.3634 109.481V123.481C48.3634 126.242 46.4247 127.361 44.0333 125.981C41.6418 124.6 39.7031 121.242 39.7031 118.481V104.481Z" fill="var(--fill-0, #ED585A)"/>
<path id="Vector_8" d="M51.8271 111.481C51.8271 108.719 53.7657 107.6 56.1572 108.981C58.5487 110.361 60.4874 113.719 60.4874 116.481V130.481C60.4874 133.242 58.5487 134.361 56.1572 132.981C53.7657 131.6 51.8271 128.242 51.8271 125.481V111.481Z" fill="var(--fill-0, #EE585A)"/>
<path id="Vector_9" d="M63.9521 118.481C63.9521 115.719 65.8908 114.6 68.2823 115.981C70.6737 117.361 72.6124 120.719 72.6124 123.481V137.481C72.6124 140.242 70.6737 141.361 68.2823 139.981C65.8908 138.6 63.9521 135.242 63.9521 132.481V118.481Z" fill="var(--fill-0, #ED585A)"/>
<path id="Vector_10" d="M65.4697 116.11C66.0441 115.778 66.9276 115.776 68.0322 116.414C69.1339 117.05 70.1598 118.161 70.9111 119.463C71.6625 120.764 72.1123 122.209 72.1123 123.481V137.481C72.1122 138.756 71.6681 139.52 71.0938 139.851C70.5194 140.183 69.6367 140.185 68.5322 139.547C67.4305 138.911 66.4047 137.8 65.6533 136.499C64.9021 135.197 64.4522 133.753 64.4521 132.481V118.481C64.4521 117.206 64.8954 116.442 65.4697 116.11ZM53.3457 109.11C53.92 108.778 54.8028 108.776 55.9072 109.414C57.0089 110.05 58.0348 111.161 58.7861 112.463C59.5375 113.764 59.9873 115.209 59.9873 116.481V130.481C59.9872 131.756 59.544 132.52 58.9697 132.851C58.3954 133.183 57.5119 133.185 56.4072 132.547C55.3055 131.911 54.2796 130.8 53.5283 129.499C52.7771 128.197 52.3272 126.753 52.3271 125.481V111.481C52.3271 110.206 52.7713 109.442 53.3457 109.11ZM41.2217 102.11C41.7961 101.779 42.6788 101.776 43.7832 102.414C44.885 103.05 45.9108 104.161 46.6621 105.463C47.4135 106.764 47.8633 108.209 47.8633 109.481V123.481C47.8632 124.756 47.419 125.52 46.8447 125.851C46.2703 126.183 45.3876 126.185 44.2832 125.547C43.1814 124.911 42.1556 123.8 41.4043 122.499C40.653 121.197 40.2032 119.753 40.2031 118.481V104.481C40.2031 103.206 40.6473 102.442 41.2217 102.11Z" stroke="var(--stroke-0, #1F1F1F)"/>
<path id="Vector_11" d="M212.164 70.481L122.098 122.481V170.481L212.164 118.481V70.481Z" fill="var(--fill-0, white)"/>
<path id="Vector_12" d="M212.164 70.481L122.098 122.481V170.481L212.164 118.481V70.481Z" fill="url(#paint2_linear_0_4)"/>
<path id="Vector_13" d="M212.164 70.481L122.098 122.481V170.481L212.164 118.481V70.481Z" stroke="var(--stroke-0, #1F1F1F)"/>
<path id="Vector_14" d="M6.94141 64.4807C6.94141 66.8239 8.58642 68.9452 11.246 70.4807V118.481C8.58642 116.945 6.94141 114.824 6.94141 112.481V64.4807Z" fill="var(--fill-0, white)"/>
<path id="Vector_15" d="M6.94141 64.4807C6.94141 66.8239 8.58642 68.9452 11.246 70.4807V118.481C8.58642 116.945 6.94141 114.824 6.94141 112.481V64.4807Z" fill="url(#paint3_linear_0_4)"/>
<path id="Vector_16" d="M6.94141 64.4807C6.94141 66.8239 8.58642 68.9452 11.246 70.4807V118.481C8.58642 116.945 6.94141 114.824 6.94141 112.481V64.4807Z" stroke="var(--stroke-0, #1F1F1F)"/>
<path id="Vector_17" d="M101.312 122.481C107.052 125.795 116.358 125.795 122.097 122.481V170.481C116.358 173.795 107.052 173.795 101.312 170.481V122.481Z" fill="var(--fill-0, white)"/>
<path id="Vector_18" d="M101.312 122.481C107.052 125.795 116.358 125.795 122.097 122.481V170.481C116.358 173.795 107.052 173.795 101.312 170.481V122.481Z" fill="url(#paint4_linear_0_4)"/>
<path id="Vector_19" d="M101.312 122.481C107.052 125.795 116.358 125.795 122.097 122.481V170.481C116.358 173.795 107.052 173.795 101.312 170.481V122.481Z" stroke="var(--stroke-0, #1F1F1F)"/>
<path id="Vector_20" d="M216.469 64.4807C216.469 66.8239 214.824 68.9452 212.164 70.4807V118.481C214.824 116.945 216.469 114.824 216.469 112.481V64.4807Z" fill="var(--fill-0, white)"/>
<path id="Vector_21" d="M216.469 64.4807C216.469 66.8239 214.824 68.9452 212.164 70.4807V118.481C214.824 116.945 216.469 114.824 216.469 112.481V64.4807Z" fill="url(#paint5_linear_0_4)"/>
<path id="Vector_22" d="M216.469 64.4807C216.469 66.8239 214.824 68.9452 212.164 70.4807V118.481C214.824 116.945 216.469 114.824 216.469 112.481V64.4807Z" stroke="var(--stroke-0, #1F1F1F)"/>
<path id="Vector_23" d="M155.033 131.981C152.642 133.361 150.703 132.242 150.703 129.481C150.703 126.719 152.642 123.361 155.033 121.981C157.425 120.6 159.363 121.719 159.363 124.481C159.363 127.242 157.425 130.6 155.033 131.981Z" fill="var(--fill-0, #7B9D89)"/>
<path id="Vector_24" d="M167.158 124.981C164.766 126.361 162.827 125.242 162.827 122.481C162.827 119.719 164.766 116.361 167.158 114.981C169.549 113.6 171.488 114.719 171.488 117.481C171.488 120.242 169.549 123.6 167.158 124.981Z" fill="var(--fill-0, #EE585A)"/>
<path id="Vector_25" d="M179.282 117.981C176.891 119.361 174.952 118.242 174.952 115.481C174.952 112.719 176.891 109.361 179.282 107.981C181.673 106.6 183.612 107.719 183.612 110.481C183.612 113.242 181.673 116.6 179.282 117.981Z" fill="var(--fill-0, #1F1F1F)"/>
<path id="Vector_26" d="M155.283 122.414C156.388 121.776 157.27 121.779 157.845 122.11C158.419 122.442 158.863 123.206 158.863 124.481C158.863 125.753 158.413 127.197 157.662 128.499C156.911 129.8 155.885 130.911 154.783 131.547C153.679 132.185 152.796 132.183 152.222 131.851C151.647 131.52 151.203 130.756 151.203 129.481C151.203 128.209 151.653 126.764 152.404 125.463C153.156 124.161 154.181 123.05 155.283 122.414ZM167.407 115.414C168.512 114.776 169.395 114.778 169.97 115.11C170.544 115.442 170.987 116.206 170.987 117.481C170.987 118.753 170.537 120.197 169.786 121.499C169.035 122.8 168.009 123.911 166.907 124.547C165.803 125.185 164.92 125.183 164.346 124.851C163.771 124.52 163.327 123.756 163.327 122.481C163.327 121.209 163.777 119.764 164.528 118.463C165.28 117.161 166.306 116.05 167.407 115.414ZM179.532 108.414C180.637 107.776 181.519 107.779 182.094 108.11C182.668 108.442 183.112 109.206 183.112 110.481C183.112 111.753 182.662 113.197 181.911 114.499C181.16 115.8 180.134 116.911 179.032 117.547C177.928 118.185 177.044 118.183 176.47 117.851C175.896 117.52 175.452 116.756 175.452 115.481C175.452 114.209 175.902 112.764 176.653 111.463C177.405 110.161 178.43 109.05 179.532 108.414Z" stroke="var(--stroke-0, #1F1F1F)"/>
<path id="Vector_27" d="M53.422 37.6797C56.77 35.7467 62.1983 35.7467 65.5463 37.6797L98.4553 56.6797C101.803 58.6127 101.803 61.7467 98.4553 63.6797L65.5463 82.6797C62.1983 84.6127 56.77 84.6127 53.422 82.6797L20.513 63.6797C17.165 61.7467 17.165 58.6127 20.513 56.6797L53.422 37.6797Z" fill="var(--fill-0, white)"/>
<path id="Vector_28" d="M53.422 37.6797C56.77 35.7467 62.1983 35.7467 65.5463 37.6797L98.4553 56.6797C101.803 58.6127 101.803 61.7467 98.4553 63.6797L65.5463 82.6797C62.1983 84.6127 56.77 84.6127 53.422 82.6797L20.513 63.6797C17.165 61.7467 17.165 58.6127 20.513 56.6797L53.422 37.6797Z" fill="url(#paint6_linear_0_4)"/>
<path id="Vector_29" d="M53.422 37.6797C56.77 35.7467 62.1983 35.7467 65.5463 37.6797L98.4553 56.6797C101.803 58.6127 101.803 61.7467 98.4553 63.6797L65.5463 82.6797C62.1983 84.6127 56.77 84.6127 53.422 82.6797L20.513 63.6797C17.165 61.7467 17.165 58.6127 20.513 56.6797L53.422 37.6797Z" stroke="var(--stroke-0, #1F1F1F)"/>
<path id="Vector_30" d="M53.42 37.6797L20.5111 56.6797C17.163 58.6127 17.163 61.7467 20.5111 63.6797L53.42 82.6797C56.7681 84.6127 62.1963 84.6127 65.5444 82.6797L98.4533 63.6797C101.801 61.7467 101.801 58.6127 98.4533 56.6797L65.5444 37.6797C62.1963 35.7467 56.7681 35.7467 53.42 37.6797Z" fill="var(--fill-0, #ED585A)"/>
<path id="Vector_31" d="M74.1211 67.2557L52.8377 54.9676L50.8008 56.1436L54.3341 58.1836L49.0549 61.2316L43.4014 57.9676L47.0595 55.8557L43.4846 53.7917L48.7639 50.7437L52.3388 52.8077L56.0385 50.6716L79.442 64.1836L74.1211 67.2557Z" fill="var(--fill-0, white)"/>
<path id="Vector_32" d="M53.4206 82.6797L20.5117 63.6797V68.6797L53.4206 87.6797V82.6797Z" fill="url(#paint7_linear_0_4)" stroke="var(--stroke-0, #1F1F1F)"/>
<path id="Vector_33" d="M98.4519 63.6797L65.543 82.6797V87.6797L98.4519 68.6797V63.6797Z" fill="url(#paint8_linear_0_4)" stroke="var(--stroke-0, #1F1F1F)"/>
<path id="Vector_34" d="M18 60.1797C18 61.5465 18.9596 62.784 20.511 63.6797V68.6797C18.9596 67.784 18 66.5465 18 65.1797V60.1797Z" fill="url(#paint9_linear_0_4)" stroke="var(--stroke-0, #1F1F1F)"/>
<path id="Vector_35" d="M53.4219 82.6797C56.7699 84.6127 62.1982 84.6127 65.5462 82.6797V87.6797C62.1982 89.6127 56.7699 89.6127 53.4219 87.6797V82.6797Z" fill="url(#paint10_linear_0_4)" stroke="var(--stroke-0, #1F1F1F)"/>
<path id="Vector_36" d="M100.964 60.1797C100.964 61.5465 100.005 62.784 98.4531 63.6797V68.6797C100.005 67.784 100.964 66.5465 100.964 65.1797V60.1797Z" fill="url(#paint11_linear_0_4)" stroke="var(--stroke-0, #1F1F1F)"/>
<path id="Vector_37" d="M105.82 7.44974C109.168 5.51675 114.597 5.51675 117.945 7.44974L150.854 26.4497C154.202 28.3827 154.202 31.5167 150.854 33.4497L117.945 52.4497C114.597 54.3827 109.168 54.3827 105.82 52.4497L72.9115 33.4497C69.5634 31.5167 69.5634 28.3827 72.9115 26.4497L105.82 7.44974Z" fill="var(--fill-0, white)"/>
<path id="Vector_38" d="M105.82 7.44974C109.168 5.51675 114.597 5.51675 117.945 7.44974L150.854 26.4497C154.202 28.3827 154.202 31.5167 150.854 33.4497L117.945 52.4497C114.597 54.3827 109.168 54.3827 105.82 52.4497L72.9115 33.4497C69.5634 31.5167 69.5634 28.3827 72.9115 26.4497L105.82 7.44974Z" fill="url(#paint12_linear_0_4)"/>
<path id="Vector_39" d="M105.82 7.44974C109.168 5.51675 114.597 5.51675 117.945 7.44974L150.854 26.4497C154.202 28.3827 154.202 31.5167 150.854 33.4497L117.945 52.4497C114.597 54.3827 109.168 54.3827 105.82 52.4497L72.9115 33.4497C69.5634 31.5167 69.5634 28.3827 72.9115 26.4497L105.82 7.44974Z" stroke="var(--stroke-0, #1F1F1F)"/>
<path id="Vector_40" d="M105.819 52.4496L72.9102 33.4496V38.4496L105.819 57.4496V52.4496Z" fill="url(#paint13_linear_0_4)" stroke="var(--stroke-0, #1F1F1F)"/>
<path id="Vector_41" d="M150.85 33.4496L117.941 52.4496V57.4496L150.85 38.4496V33.4496Z" fill="url(#paint14_linear_0_4)" stroke="var(--stroke-0, #1F1F1F)"/>
<path id="Vector_42" d="M70.3984 29.9497C70.3984 31.3165 71.358 32.554 72.9095 33.4497V38.4497C71.358 37.554 70.3984 36.3165 70.3984 34.9497V29.9497Z" fill="url(#paint15_linear_0_4)" stroke="var(--stroke-0, #1F1F1F)"/>
<path id="Vector_43" d="M105.82 52.4497C109.168 54.3827 114.596 54.3827 117.944 52.4497V57.4497C114.596 59.3827 109.168 59.3827 105.82 57.4497V52.4497Z" fill="url(#paint16_linear_0_4)" stroke="var(--stroke-0, #1F1F1F)"/>
<path id="Vector_44" d="M153.363 29.9497C153.363 31.3165 152.404 32.554 150.852 33.4497V38.4497C152.404 37.554 153.363 36.3165 153.363 34.9497V29.9497Z" fill="url(#paint17_linear_0_4)" stroke="var(--stroke-0, #1F1F1F)"/>
<path id="Vector_45" d="M105.819 7.44974L72.9094 26.4497C69.5614 28.3827 69.5614 31.5167 72.9094 33.4497L105.819 52.4497C109.167 54.3827 114.595 54.3827 117.943 52.4497L150.852 33.4497C154.2 31.5167 154.2 28.3827 150.852 26.4497L117.943 7.44974C114.595 5.51675 109.167 5.51675 105.819 7.44974Z" fill="var(--fill-0, white)"/>
<path id="Vector_46" d="M119.397 41.1377L115.863 39.0977L112.205 41.2097L102.935 35.8577L106.593 33.7457L103.101 31.7297L114.117 25.3697L109.129 22.4897L99.7344 27.9137L103.268 29.9537L97.9884 33.0017L92.335 29.7377L95.9931 27.6257L92.4182 25.5617L105.055 18.2657L108.63 20.3297L112.33 18.1937L121.517 23.4977L117.817 25.6337L121.35 27.6737L110.335 34.0337L115.364 36.9377L124.759 31.5137L121.184 29.4497L126.505 26.3777L132.2 29.6657L128.5 31.8017L132.034 33.8417L119.397 41.1377Z" fill="var(--fill-0, #ED585A)"/>
<path id="Vector_47" d="M105.828 67.9136C109.176 65.9806 114.605 65.9806 117.953 67.9136L150.862 86.9136C154.21 88.8466 154.21 91.9806 150.862 93.9136L117.953 112.914C114.605 114.847 109.176 114.847 105.828 112.914L72.9193 93.9136C69.5712 91.9806 69.5712 88.8466 72.9193 86.9136L105.828 67.9136Z" fill="var(--fill-0, white)"/>
<path id="Vector_48" d="M105.828 67.9136C109.176 65.9806 114.605 65.9806 117.953 67.9136L150.862 86.9136C154.21 88.8466 154.21 91.9806 150.862 93.9136L117.953 112.914C114.605 114.847 109.176 114.847 105.828 112.914L72.9193 93.9136C69.5712 91.9806 69.5712 88.8466 72.9193 86.9136L105.828 67.9136Z" fill="url(#paint18_linear_0_4)"/>
<path id="Vector_49" d="M105.828 67.9136C109.176 65.9806 114.605 65.9806 117.953 67.9136L150.862 86.9136C154.21 88.8466 154.21 91.9806 150.862 93.9136L117.953 112.914C114.605 114.847 109.176 114.847 105.828 112.914L72.9193 93.9136C69.5712 91.9806 69.5712 88.8466 72.9193 86.9136L105.828 67.9136Z" stroke="var(--stroke-0, #1F1F1F)"/>
<path id="Vector_50" d="M105.826 67.9136L72.9173 86.9136C69.5693 88.8466 69.5693 91.9806 72.9173 93.9136L105.826 112.914C109.174 114.847 114.603 114.847 117.951 112.914L150.86 93.9136C154.208 91.9806 154.208 88.8466 150.86 86.9136L117.951 67.9136C114.603 65.9806 109.174 65.9806 105.826 67.9136Z" fill="var(--fill-0, white)"/>
<path id="Vector_51" d="M119.404 101.601L115.871 99.5615L112.213 101.673L106.518 98.3855L111.797 95.3375L115.372 97.4015L124.767 91.9775L119.737 89.0735L108.721 95.4335L103.109 92.1935L114.125 85.8335L109.137 82.9535L99.7422 88.3775L103.276 90.4175L97.9963 93.4655L92.3428 90.2015L96.0009 88.0895L92.426 86.0255L105.063 78.7295L108.638 80.7935L112.338 78.6575L121.524 83.9615L117.825 86.0975L119.238 86.9135L122.938 84.7775L132.208 90.1295L128.508 92.2655L132.041 94.3055L119.404 101.601Z" fill="var(--fill-0, #ED585A)"/>
<path id="Vector_52" d="M105.827 112.913L72.918 93.9136V98.9136L105.827 117.913V112.913Z" fill="url(#paint19_linear_0_4)" stroke="var(--stroke-0, #1F1F1F)"/>
<path id="Vector_53" d="M150.858 93.9133L117.949 112.914V117.914L150.858 98.9133V93.9133Z" fill="url(#paint20_linear_0_4)" stroke="var(--stroke-0, #1F1F1F)"/>
<path id="Vector_54" d="M70.4062 90.4136C70.4062 91.7804 71.3659 93.0179 72.9174 93.9136V98.9136C71.3659 98.0179 70.4062 96.7804 70.4062 95.4136V90.4136Z" fill="url(#paint21_linear_0_4)" stroke="var(--stroke-0, #1F1F1F)"/>
<path id="Vector_55" d="M105.828 112.914C109.176 114.847 114.604 114.847 117.952 112.914V117.914C114.604 119.847 109.176 119.847 105.828 117.914V112.914Z" fill="url(#paint22_linear_0_4)" stroke="var(--stroke-0, #1F1F1F)"/>
<path id="Vector_56" d="M153.37 90.4136C153.37 91.7804 152.411 93.0179 150.859 93.9136V98.9136C152.411 98.0179 153.37 96.7804 153.37 95.4136V90.4136Z" fill="url(#paint23_linear_0_4)" stroke="var(--stroke-0, #1F1F1F)"/>
<path id="Vector_57" d="M158.223 37.6836C161.571 35.7506 166.999 35.7506 170.347 37.6836L203.256 56.6836C206.604 58.6166 206.604 61.7506 203.256 63.6836L170.347 82.6836C166.999 84.6166 161.571 84.6166 158.223 82.6836L125.314 63.6836C121.966 61.7506 121.966 58.6166 125.314 56.6836L158.223 37.6836Z" fill="var(--fill-0, white)"/>
<path id="Vector_58" d="M158.223 37.6836C161.571 35.7506 166.999 35.7506 170.347 37.6836L203.256 56.6836C206.604 58.6166 206.604 61.7506 203.256 63.6836L170.347 82.6836C166.999 84.6166 161.571 84.6166 158.223 82.6836L125.314 63.6836C121.966 61.7506 121.966 58.6166 125.314 56.6836L158.223 37.6836Z" fill="url(#paint24_linear_0_4)"/>
<path id="Vector_59" d="M158.223 37.6836C161.571 35.7506 166.999 35.7506 170.347 37.6836L203.256 56.6836C206.604 58.6166 206.604 61.7506 203.256 63.6836L170.347 82.6836C166.999 84.6166 161.571 84.6166 158.223 82.6836L125.314 63.6836C121.966 61.7506 121.966 58.6166 125.314 56.6836L158.223 37.6836Z" stroke="var(--stroke-0, #1F1F1F)"/>
<path id="Vector_60" d="M158.22 82.6836L125.311 63.6836V68.6836L158.22 87.6836V82.6836Z" fill="url(#paint25_linear_0_4)" stroke="var(--stroke-0, #1F1F1F)"/>
<path id="Vector_61" d="M203.252 63.6836L170.344 82.6836V87.6836L203.252 68.6836V63.6836Z" fill="url(#paint26_linear_0_4)" stroke="var(--stroke-0, #1F1F1F)"/>
<path id="Vector_62" d="M122.801 60.1836C122.801 61.5505 123.76 62.7879 125.312 63.6836V68.6836C123.76 67.7879 122.801 66.5505 122.801 65.1836V60.1836Z" fill="url(#paint27_linear_0_4)" stroke="var(--stroke-0, #1F1F1F)"/>
<path id="Vector_63" d="M158.221 82.6836C161.569 84.6166 166.998 84.6166 170.346 82.6836V87.6836C166.998 89.6166 161.569 89.6166 158.221 87.6836V82.6836Z" fill="url(#paint28_linear_0_4)" stroke="var(--stroke-0, #1F1F1F)"/>
<path id="Vector_64" d="M205.765 60.1836C205.765 61.5505 204.805 62.7879 203.254 63.6836V68.6836C204.805 67.7879 205.765 66.5505 205.765 65.1836V60.1836Z" fill="url(#paint29_linear_0_4)" stroke="var(--stroke-0, #1F1F1F)"/>
<path id="Vector_65" d="M158.221 37.6836L125.312 56.6836C121.964 58.6166 121.964 61.7506 125.312 63.6836L158.221 82.6836C161.569 84.6166 166.997 84.6166 170.345 82.6836L203.254 63.6836C206.602 61.7506 206.602 58.6166 203.254 56.6836L170.345 37.6836C166.997 35.7506 161.569 35.7506 158.221 37.6836Z" fill="var(--fill-0, #ED585A)"/>
<path id="Vector_66" d="M182.814 65.0115L175.705 60.9075L161.032 69.3795L151.845 64.0755L155.503 61.9635L151.928 59.8995L155.586 57.7875L152.053 55.7475L155.752 53.6115L152.177 51.5475L161.156 46.3635L188.135 61.9395L182.814 65.0115ZM160.616 63.0435L170.01 57.6195L161.53 52.7235L159.493 53.8995L163.027 55.9395L159.327 58.0755L162.861 60.1155L159.202 62.2275L160.616 63.0435Z" fill="var(--fill-0, white)"/>
</g>
<defs>
<linearGradient id="paint0_linear_0_4" x1="111.705" y1="3.99548" x2="111.705" y2="124.966" gradientUnits="userSpaceOnUse">
<stop stop-color="#1F1F1F" stop-opacity="0.1"/>
<stop offset="1" stop-color="#F4F4F4" stop-opacity="0.1"/>
</linearGradient>
<linearGradient id="paint1_linear_0_4" x1="56.2794" y1="96.4807" x2="35.4948" y2="132.481" gradientUnits="userSpaceOnUse">
<stop stop-color="#F0F0F0" stop-opacity="0.1"/>
<stop offset="1" stop-color="#1F1F1F" stop-opacity="0.2"/>
</linearGradient>
<linearGradient id="paint2_linear_0_4" x1="167.131" y1="96.481" x2="187.916" y2="132.481" gradientUnits="userSpaceOnUse">
<stop stop-color="#F0F0F0" stop-opacity="0.1"/>
<stop offset="1" stop-color="#1F1F1F" stop-opacity="0.2"/>
</linearGradient>
<linearGradient id="paint3_linear_0_4" x1="9.09372" y1="64.4807" x2="9.09372" y2="118.481" gradientUnits="userSpaceOnUse">
<stop stop-color="#F0F0F0" stop-opacity="0.1"/>
<stop offset="1" stop-color="#1F1F1F" stop-opacity="0.2"/>
</linearGradient>
<linearGradient id="paint4_linear_0_4" x1="111.705" y1="122.481" x2="111.705" y2="172.966" gradientUnits="userSpaceOnUse">
<stop stop-color="#F0F0F0" stop-opacity="0.1"/>
<stop offset="1" stop-color="#1F1F1F" stop-opacity="0.2"/>
</linearGradient>
<linearGradient id="paint5_linear_0_4" x1="214.316" y1="64.4807" x2="214.316" y2="118.481" gradientUnits="userSpaceOnUse">
<stop stop-color="#F0F0F0" stop-opacity="0.1"/>
<stop offset="1" stop-color="#1F1F1F" stop-opacity="0.2"/>
</linearGradient>
<linearGradient id="paint6_linear_0_4" x1="82.0007" y1="47.1797" x2="59.4841" y2="86.1798" gradientUnits="userSpaceOnUse">
<stop stop-color="#F4F4F4"/>
<stop offset="1" stop-color="#F4F4F4" stop-opacity="0.1"/>
</linearGradient>
<linearGradient id="paint7_linear_0_4" x1="20.5091" y1="66.1807" x2="53.4206" y2="66.1807" gradientUnits="userSpaceOnUse">
<stop stop-color="#F4F4F4"/>
<stop offset="0.8" stop-color="#1F1F1F"/>
</linearGradient>
<linearGradient id="paint8_linear_0_4" x1="65.5403" y1="85.1837" x2="98.4519" y2="85.1837" gradientUnits="userSpaceOnUse">
<stop stop-color="#F4F4F4"/>
<stop offset="0.8" stop-color="#1F1F1F"/>
</linearGradient>
<linearGradient id="paint9_linear_0_4" x1="17.9998" y1="64.434" x2="20.511" y2="64.434" gradientUnits="userSpaceOnUse">
<stop stop-color="#1F1F1F"/>
<stop offset="1" stop-color="#F4F4F4"/>
</linearGradient>
<linearGradient id="paint10_linear_0_4" x1="53.4209" y1="85.9078" x2="65.5462" y2="85.9078" gradientUnits="userSpaceOnUse">
<stop stop-color="#1F1F1F"/>
<stop offset="1" stop-color="#F4F4F4"/>
</linearGradient>
<linearGradient id="paint11_linear_0_4" x1="98.4529" y1="64.434" x2="100.964" y2="64.434" gradientUnits="userSpaceOnUse">
<stop stop-color="#1F1F1F"/>
<stop offset="1" stop-color="#F4F4F4"/>
</linearGradient>
<linearGradient id="paint12_linear_0_4" x1="134.399" y1="16.9497" x2="111.883" y2="55.9497" gradientUnits="userSpaceOnUse">
<stop stop-color="#F4F4F4"/>
<stop offset="1" stop-color="#F4F4F4" stop-opacity="0.1"/>
</linearGradient>
<linearGradient id="paint13_linear_0_4" x1="72.9076" y1="35.9506" x2="105.819" y2="35.9506" gradientUnits="userSpaceOnUse">
<stop stop-color="#F4F4F4"/>
<stop offset="0.8" stop-color="#1F1F1F"/>
</linearGradient>
<linearGradient id="paint14_linear_0_4" x1="117.939" y1="54.9536" x2="150.85" y2="54.9536" gradientUnits="userSpaceOnUse">
<stop stop-color="#F4F4F4"/>
<stop offset="0.8" stop-color="#1F1F1F"/>
</linearGradient>
<linearGradient id="paint15_linear_0_4" x1="70.3982" y1="34.204" x2="72.9095" y2="34.204" gradientUnits="userSpaceOnUse">
<stop stop-color="#1F1F1F"/>
<stop offset="1" stop-color="#F4F4F4"/>
</linearGradient>
<linearGradient id="paint16_linear_0_4" x1="105.819" y1="55.6778" x2="117.944" y2="55.6778" gradientUnits="userSpaceOnUse">
<stop stop-color="#1F1F1F"/>
<stop offset="1" stop-color="#F4F4F4"/>
</linearGradient>
<linearGradient id="paint17_linear_0_4" x1="150.852" y1="34.204" x2="153.363" y2="34.204" gradientUnits="userSpaceOnUse">
<stop stop-color="#1F1F1F"/>
<stop offset="1" stop-color="#F4F4F4"/>
</linearGradient>
<linearGradient id="paint18_linear_0_4" x1="134.407" y1="77.4136" x2="111.89" y2="116.414" gradientUnits="userSpaceOnUse">
<stop stop-color="#F4F4F4"/>
<stop offset="1" stop-color="#F4F4F4" stop-opacity="0.1"/>
</linearGradient>
<linearGradient id="paint19_linear_0_4" x1="72.9153" y1="96.4146" x2="105.827" y2="96.4146" gradientUnits="userSpaceOnUse">
<stop stop-color="#F4F4F4"/>
<stop offset="0.8" stop-color="#1F1F1F"/>
</linearGradient>
<linearGradient id="paint20_linear_0_4" x1="117.946" y1="115.418" x2="150.858" y2="115.418" gradientUnits="userSpaceOnUse">
<stop stop-color="#F4F4F4"/>
<stop offset="0.8" stop-color="#1F1F1F"/>
</linearGradient>
<linearGradient id="paint21_linear_0_4" x1="70.406" y1="94.6679" x2="72.9174" y2="94.6679" gradientUnits="userSpaceOnUse">
<stop stop-color="#1F1F1F"/>
<stop offset="1" stop-color="#F4F4F4"/>
</linearGradient>
<linearGradient id="paint22_linear_0_4" x1="105.827" y1="116.142" x2="117.952" y2="116.142" gradientUnits="userSpaceOnUse">
<stop stop-color="#1F1F1F"/>
<stop offset="1" stop-color="#F4F4F4"/>
</linearGradient>
<linearGradient id="paint23_linear_0_4" x1="150.859" y1="94.6679" x2="153.37" y2="94.6679" gradientUnits="userSpaceOnUse">
<stop stop-color="#1F1F1F"/>
<stop offset="1" stop-color="#F4F4F4"/>
</linearGradient>
<linearGradient id="paint24_linear_0_4" x1="186.802" y1="47.1836" x2="164.285" y2="86.1836" gradientUnits="userSpaceOnUse">
<stop stop-color="#F4F4F4"/>
<stop offset="1" stop-color="#F4F4F4" stop-opacity="0.1"/>
</linearGradient>
<linearGradient id="paint25_linear_0_4" x1="125.309" y1="66.1846" x2="158.22" y2="66.1846" gradientUnits="userSpaceOnUse">
<stop stop-color="#F4F4F4"/>
<stop offset="0.8" stop-color="#1F1F1F"/>
</linearGradient>
<linearGradient id="paint26_linear_0_4" x1="170.341" y1="85.1876" x2="203.252" y2="85.1876" gradientUnits="userSpaceOnUse">
<stop stop-color="#F4F4F4"/>
<stop offset="0.8" stop-color="#1F1F1F"/>
</linearGradient>
<linearGradient id="paint27_linear_0_4" x1="122.8" y1="64.4379" x2="125.312" y2="64.4379" gradientUnits="userSpaceOnUse">
<stop stop-color="#1F1F1F"/>
<stop offset="1" stop-color="#F4F4F4"/>
</linearGradient>
<linearGradient id="paint28_linear_0_4" x1="158.22" y1="85.9117" x2="170.346" y2="85.9117" gradientUnits="userSpaceOnUse">
<stop stop-color="#1F1F1F"/>
<stop offset="1" stop-color="#F4F4F4"/>
</linearGradient>
<linearGradient id="paint29_linear_0_4" x1="203.253" y1="64.4379" x2="205.765" y2="64.4379" gradientUnits="userSpaceOnUse">
<stop stop-color="#1F1F1F"/>
<stop offset="1" stop-color="#F4F4F4"/>
</linearGradient>
</defs>
</svg>
