<svg preserveAspectRatio="none" width="100%" height="100%" overflow="visible" style="display: block;" viewBox="0 0 30 30" fill="none" xmlns="http://www.w3.org/2000/svg">
<g id="Notifi">
<path d="M6.25 17.5C9.70178 17.5 12.5 20.2982 12.5 23.75C12.5 27.2018 9.70178 30 6.25 30C2.79822 30 0 27.2018 0 23.75C0 20.2982 2.79822 17.5 6.25 17.5Z" fill="var(--fill-0, #1F1F1F)"/>
<path d="M23.75 17.5C27.2018 17.5 30 20.2982 30 23.75C30 27.2018 27.2018 30 23.75 30C20.2982 30 17.5 27.2018 17.5 23.75C17.5 20.2982 20.2982 17.5 23.75 17.5Z" fill="var(--fill-0, #1F1F1F)"/>
<path d="M15 0C18.4518 0 21.25 2.79822 21.25 6.25C21.25 9.70178 18.4518 12.5 15 12.5C11.5482 12.5 8.75 9.70178 8.75 6.25C8.75 2.79822 11.5482 0 15 0Z" fill="var(--fill-0, #1F1F1F)"/>
</g>
</svg>
