<svg preserveAspectRatio="none" width="100%" height="100%" overflow="visible" style="display: block;" viewBox="0 0 30 30" fill="none" xmlns="http://www.w3.org/2000/svg">
<g id="12">
<path d="M23.75 17.5C27.2018 17.5 30 20.2982 30 23.75C30 27.2018 27.2018 30 23.75 30C22.1356 30 20.6644 29.3879 19.5554 28.3831C18.2525 27.2025 16.7582 26 15 26C13.2418 26 11.7475 27.2025 10.4446 28.3831C9.33564 29.3879 7.86438 30 6.25 30C2.79822 30 0 27.2018 0 23.75C0 20.2982 2.79822 17.5 6.25 17.5C7.86438 17.5 9.33564 18.1121 10.4446 19.1169C11.7475 20.2975 13.2418 21.5 15 21.5C16.7582 21.5 18.2525 20.2975 19.5554 19.1169C20.6644 18.1121 22.1356 17.5 23.75 17.5Z" fill="var(--fill-0, #1F1F1F)"/>
<path d="M23.75 0C27.2018 0 30 2.79822 30 6.25C30 9.70178 27.2018 12.5 23.75 12.5C22.1356 12.5 20.6644 11.8879 19.5554 10.8831C18.2525 9.70249 16.7582 8.5 15 8.5C13.2418 8.5 11.7475 9.70249 10.4446 10.8831C9.33564 11.8879 7.86438 12.5 6.25 12.5C2.79822 12.5 0 9.70178 0 6.25C0 2.79822 2.79822 0 6.25 0C7.86438 0 9.33564 0.612136 10.4446 1.61693C11.7475 2.79751 13.2418 4 15 4C16.7582 4 18.2525 2.79751 19.5554 1.61693C20.6644 0.612136 22.1356 0 23.75 0Z" fill="var(--fill-0, #1F1F1F)"/>
</g>
</svg>
