<svg preserveAspectRatio="none" width="100%" height="100%" overflow="visible" style="display: block;" viewBox="0 0 30 30" fill="none" xmlns="http://www.w3.org/2000/svg">
<g id="7">
<path d="M10.7359 19.2641C13.0909 21.619 13.0909 25.4372 10.7359 27.7922C8.38095 30.1472 4.56277 30.1472 2.20779 27.7922C-0.147186 25.4372 -0.147185 21.619 2.20779 19.2641C4.56277 16.9091 8.38095 16.9091 10.7359 19.2641Z" fill="var(--fill-0, #1F1F1F)"/>
<path d="M27.7922 17.132C30.7359 20.0758 30.7359 24.8485 27.7922 27.7922C24.8485 30.7359 20.0758 30.7359 17.132 27.7922C15.7553 26.4154 15.0226 24.6387 14.9338 22.8361C14.8294 20.7181 14.5806 18.4183 13.0812 16.9188C11.5817 15.4194 9.28191 15.1706 7.16394 15.0662C5.36132 14.9774 3.58456 14.2447 2.20779 12.868C-0.735931 9.92424 -0.735932 5.15152 2.20779 2.20779C5.15152 -0.735931 9.92424 -0.735931 12.868 2.20779C14.2447 3.58456 14.9774 5.36132 15.0662 7.16394C15.1706 9.28191 15.4194 11.5817 16.9188 13.0812C18.4183 14.5806 20.7181 14.8294 22.8361 14.9338C24.6387 15.0226 26.4154 15.7553 27.7922 17.132Z" fill="var(--fill-0, #1F1F1F)"/>
<path d="M27.7922 2.20779C30.1472 4.56277 30.1472 8.38095 27.7922 10.7359C25.4372 13.0909 21.619 13.0909 19.2641 10.7359C16.9091 8.38095 16.9091 4.56277 19.2641 2.20779C21.619 -0.147186 25.4372 -0.147187 27.7922 2.20779Z" fill="var(--fill-0, #1F1F1F)"/>
</g>
</svg>
