<svg preserveAspectRatio="none" width="100%" height="100%" overflow="visible" style="display: block;" viewBox="0 0 11.1298 16.6667" fill="none" xmlns="http://www.w3.org/2000/svg">
<path id="Vector" d="M6.33174 4.90799C6.85483 5.43107 7.65447 5.52152 8.39404 5.53748C9.08938 5.55249 9.78018 5.82531 10.3108 6.35589C11.4028 7.44796 11.4029 9.21866 10.3108 10.3108C9.78017 10.8414 9.08939 11.1142 8.39408 11.1292C7.65448 11.1452 6.85481 11.2356 6.33171 11.7587L6.22188 11.8685C5.69878 12.3916 5.60835 13.1913 5.59238 13.9309C5.57736 14.6262 5.30454 15.317 4.77394 15.8476C3.68183 16.9397 1.91114 16.9397 0.819068 15.8476C-0.273003 14.7555 -0.273042 12.9848 0.819068 11.8927C1.34967 11.3621 2.04045 11.0893 2.73576 11.0743C3.47536 11.0583 4.27503 10.9679 4.79813 10.4448L4.95089 10.292C5.44812 9.79479 5.53682 9.03652 5.53682 8.33333C5.53682 7.63015 5.44812 6.87188 4.95089 6.37465L4.7981 6.22185C4.27501 5.69877 3.47537 5.60832 2.73579 5.59235C2.04046 5.57734 1.34966 5.30453 0.819068 4.77394C-0.273003 3.68187 -0.273042 1.91118 0.819068 0.819068C1.91118 -0.273042 3.68187 -0.273003 4.77394 0.819068C5.30453 1.34966 5.57734 2.04046 5.59235 2.73579C5.60832 3.47537 5.69877 4.27501 6.22185 4.7981L6.33174 4.90799Z" fill="var(--fill-0, #F4F4F4)"/>
</svg>
