<svg viewBox="0 0 16.6667 11.1298" fill="none" xmlns="http://www.w3.org/2000/svg">
<path d="M11.7587 6.33174C11.2356 6.85483 11.1451 7.65446 11.1292 8.39404C11.1142 9.08938 10.8414 9.78018 10.3108 10.3108C9.2187 11.4028 7.448 11.4029 6.35589 10.3108C5.82529 9.78017 5.55247 9.08939 5.53746 8.39408C5.52149 7.65448 5.43106 6.85481 4.90796 6.33171L4.79813 6.22188C4.27503 5.69878 3.47536 5.60835 2.73576 5.59238C2.04045 5.57736 1.34967 5.30454 0.819068 4.77394C-0.273042 3.68183 -0.273003 1.91114 0.819068 0.819068C1.91114 -0.273003 3.68183 -0.273042 4.77394 0.819068C5.30454 1.34967 5.57736 2.04045 5.59238 2.73576C5.60835 3.47536 5.69878 4.27503 6.22188 4.79812L6.37465 4.95089C6.87188 5.44812 7.63015 5.53682 8.33333 5.53682C9.03652 5.53682 9.79479 5.44812 10.292 4.95089L10.4448 4.7981C10.9679 4.27501 11.0583 3.47537 11.0743 2.73579C11.0893 2.04046 11.3621 1.34966 11.8927 0.819068C12.9848 -0.273003 14.7555 -0.273042 15.8476 0.819068C16.9397 1.91118 16.9397 3.68187 15.8476 4.77394C15.317 5.30453 14.6262 5.57734 13.9309 5.59235C13.1913 5.60832 12.3917 5.69877 11.8686 6.22185L11.7587 6.33174Z" fill="#1F1F1F"/>
</svg>
