<svg width="20" height="20" viewBox="0 0 20 20" fill="none" xmlns="http://www.w3.org/2000/svg">
  <path d="M10.7673 6.57425C11.2904 7.09733 12.09 7.18778 12.8296 7.20374C13.5249 7.21875 14.2157 7.49157 14.7463 8.02215C15.8384 9.11422 15.8384 10.8849 14.7463 11.977C14.2157 12.5076 13.5249 12.7805 12.8296 12.7955C12.09 12.8114 11.2904 12.9019 10.7673 13.425L10.6574 13.5348C10.1343 14.0579 10.0439 14.8576 10.0279 15.5972C10.0129 16.2925 9.74009 16.9833 9.20949 17.5139C8.11738 18.606 6.34669 18.6059 5.25461 17.5139C4.16254 16.4218 4.16251 14.6511 5.25461 13.559C5.78522 13.0284 6.47599 12.7556 7.17131 12.7405C7.91091 12.7246 8.71057 12.6341 9.23367 12.111L9.38644 11.9583C9.88367 11.461 9.97237 10.7028 9.97237 9.99959C9.97237 9.29641 9.88367 8.53814 9.38644 8.04091L9.23364 7.88811C8.71056 7.36503 7.91092 7.27458 7.17134 7.25861C6.476 7.2436 5.7852 6.97079 5.25461 6.4402C4.16254 5.34813 4.16251 3.57744 5.25461 2.48533C6.34672 1.39322 8.11742 1.39326 9.20949 2.48533C9.74008 3.01592 10.0129 3.70672 10.0279 4.40205C10.0439 5.14163 10.1343 5.94127 10.6574 6.46435L10.7673 6.57425Z" fill="#F4F4F4"/>
</svg>
