<svg preserveAspectRatio="none" width="100%" height="100%" overflow="visible" style="display: block;" viewBox="0 0 17.7001 17.7281" fill="none" xmlns="http://www.w3.org/2000/svg">
<g id="Vector">
<path d="M15.5524 7.96073C15.5524 7.07303 16.1542 6.31776 16.7682 5.67666C17.3454 5.07391 17.7001 4.25626 17.7001 3.35582C17.7001 1.50252 16.1977 0 14.3443 0C13.4438 0 12.6262 0.354648 12.0235 0.931901C11.3823 1.54592 10.6271 2.14773 9.73934 2.14773H9.55295C8.66522 2.14773 7.90995 1.54592 7.26882 0.931901C6.66609 0.354648 5.84845 0 4.94799 0C3.09462 0 1.59217 1.50252 1.59217 3.35582C1.59217 5.20913 3.09462 6.71165 4.94799 6.71165C5.84845 6.71165 6.66609 6.357 7.26882 5.77975C7.90995 5.16573 8.66522 4.56392 9.55295 4.56392L9.81221 4.56392C10.656 4.56392 11.3747 5.13207 11.9714 5.72874C12.5681 6.32542 13.1362 7.04409 13.1362 7.88792V8.14722C13.1362 9.03492 12.5344 9.79019 11.9204 10.4313C11.3432 11.034 10.9885 11.8517 10.9885 12.7521C10.9885 14.6054 12.4909 16.108 14.3443 16.108C16.1977 16.108 17.7001 14.6054 17.7001 12.7521C17.7001 11.8517 17.3454 11.034 16.7682 10.4313C16.1542 9.79019 15.5524 9.03492 15.5524 8.14722V7.96073Z" fill="var(--fill-0, #1F1F1F)"/>
<path d="M10.1208 7.60736C9.28202 6.76862 7.92215 6.76862 7.08341 7.60736L0.629055 14.0617C-0.209685 14.9005 -0.209685 16.2603 0.629055 17.0991C1.46779 17.9378 2.82766 17.9378 3.6664 17.0991L10.1208 10.6447C10.9595 9.80597 10.9595 8.4461 10.1208 7.60736Z" fill="var(--fill-0, #1F1F1F)"/>
</g>
</svg>
