<svg preserveAspectRatio="none" width="100%" height="100%" overflow="visible" style="display: block;" viewBox="0 0 20 20" fill="none" xmlns="http://www.w3.org/2000/svg">
<path id="Vector" fill-rule="evenodd" clip-rule="evenodd" d="M7.03787 18.8446C7.8327 18.0833 8.76906 17.3373 9.86963 17.3373H10.1008C11.2014 17.3373 12.1378 18.0833 12.9326 18.8446C13.6799 19.5603 14.6936 20 15.81 20C16.9665 20 18.0128 19.5281 18.7669 18.7663C19.5283 18.0123 20 16.9662 20 15.8099C20 14.6936 19.5603 13.6799 18.8446 12.9326C18.0833 12.1378 17.3373 11.2014 17.3373 10.1008V9.86963C17.3373 8.76906 18.0833 7.83269 18.8446 7.03786C19.5603 6.29058 20 5.27687 20 4.16051C20 1.8628 18.1373 2.09013e-07 15.8395 2.09013e-07C14.7231 2.09013e-07 13.7094 0.439689 12.9621 1.15536C12.1673 1.91661 11.2309 2.66273 10.1303 2.66273H9.89923C8.79863 2.66273 7.86225 1.91661 7.06739 1.15536C6.32013 0.439689 5.30643 0 4.19005 0C3.03365 -3.91899e-07 1.98745 0.471804 1.23341 1.2334C0.471806 1.98744 -4.44152e-07 3.03365 0 4.19005C5.22535e-08 5.30643 0.439689 6.32013 1.15536 7.06739C1.91661 7.86225 2.66273 8.79863 2.66273 9.89923V10.1303C2.66273 11.2309 1.91662 12.1673 1.15536 12.9621C0.439689 13.7094 7.83799e-07 14.7231 8.36052e-07 15.8395C8.36052e-07 18.1373 1.86281 20 4.16051 20C5.27687 20 6.29058 19.5603 7.03787 18.8446ZM7.1177 7.11769C6.37339 7.90168 5.6583 8.82176 5.6583 9.89923L5.6583 10.2206C5.6583 11.2668 6.36268 12.1578 7.10243 12.8976C7.84218 13.6373 8.73319 14.3417 9.77935 14.3417L10.1008 14.3417C11.1783 14.3417 12.0983 13.6267 12.8823 12.8824C13.6266 12.0984 14.3417 11.1783 14.3417 10.1008L14.3417 9.77935C14.3417 8.73319 13.6373 7.84218 12.8976 7.10243C12.1578 6.36268 11.2668 5.6583 10.2206 5.6583H9.89922C8.82177 5.6583 7.90169 6.37337 7.1177 7.11769Z" fill="var(--fill-0, #1F1F1F)"/>
</svg>
