<svg preserveAspectRatio="none" width="100%" height="100%" overflow="visible" style="display: block;" viewBox="0 0 40 39.9966" fill="none" xmlns="http://www.w3.org/2000/svg">
<path id="Vector" d="M20 7.40432e-06C18.4258 -0.00233787 16.9015 0.552527 15.6972 1.56633C14.4929 2.58013 13.6862 3.98743 13.4201 5.539C13.154 7.09056 13.4455 8.68624 14.2432 10.0434C15.0408 11.4006 16.293 12.4317 17.778 12.9541V17.7758H11.1121C9.34419 17.7758 7.64869 18.4781 6.39859 19.7282C5.14848 20.9783 4.44618 22.6738 4.44618 24.4417V27.0414C2.96303 27.5656 1.71295 28.5972 0.916889 29.954C0.120832 31.3108 -0.169937 32.9053 0.0959783 34.4557C0.361893 36.0061 1.16737 37.4126 2.37003 38.4265C3.5727 39.4405 5.0951 39.9966 6.66816 39.9966C8.24121 39.9966 9.76362 39.4405 10.9663 38.4265C12.1689 37.4126 12.9744 36.0061 13.2403 34.4557C13.5063 32.9053 13.2155 31.3108 12.4194 29.954C11.6234 28.5972 10.3733 27.5656 8.89013 27.0414V24.4417C8.89013 23.8524 9.12423 23.2872 9.54093 22.8705C9.95763 22.4538 10.5228 22.2197 11.1121 22.2197H28.8879C29.4772 22.2197 30.0424 22.4538 30.4591 22.8705C30.8758 23.2872 31.1099 23.8524 31.1099 24.4417V27.0414C29.6267 27.5656 28.3766 28.5972 27.5806 29.954C26.7845 31.3108 26.4937 32.9053 26.7597 34.4557C27.0256 36.0061 27.8311 37.4126 29.0337 38.4265C30.2364 39.4405 31.7588 39.9966 33.3318 39.9966C34.9049 39.9966 36.4273 39.4405 37.63 38.4265C38.8326 37.4126 39.6381 36.0061 39.904 34.4557C40.1699 32.9053 39.8792 31.3108 39.0831 29.954C38.2871 28.5972 37.037 27.5656 35.5538 27.0414V24.4417C35.5538 22.6738 34.8515 20.9783 33.6014 19.7282C32.3513 18.4781 30.6558 17.7758 28.8879 17.7758H22.222V12.9541C23.7044 12.4294 24.9536 11.3977 25.7491 10.0412C26.5445 8.68469 26.8349 7.09073 26.5691 5.54085C26.3033 3.99097 25.4982 2.58491 24.2962 1.57104C23.0942 0.557172 21.5725 0.000729552 20 7.40432e-06Z" fill="var(--fill-0, #1F1F1F)"/>
</svg>
