<svg preserveAspectRatio="none" width="100%" height="100%" overflow="visible" style="display: block;" viewBox="0 0 40 40" fill="none" xmlns="http://www.w3.org/2000/svg">
<g id="Vector">
<path d="M0 8C0 5.19974 0 3.79961 0.544967 2.73005C1.02433 1.78924 1.78924 1.02433 2.73005 0.544967C3.79961 0 5.19974 0 8 0H10V4.5H4.5V10H0V8Z" fill="var(--fill-0, #1F1F1F)"/>
<path d="M30 4.5V0H32C34.8003 0 36.2004 0 37.27 0.544967C38.2108 1.02433 38.9757 1.78924 39.455 2.73005C40 3.79961 40 5.19974 40 8V10H35.5V4.5H30Z" fill="var(--fill-0, #1F1F1F)"/>
<path d="M10 35.5H4.5V30H0V32C0 34.8003 0 36.2004 0.544967 37.27C1.02433 38.2108 1.78924 38.9757 2.73005 39.455C3.79961 40 5.19974 40 8 40H10V35.5Z" fill="var(--fill-0, #1F1F1F)"/>
<path d="M32 40H30V35.5H35.5V30H40V32C40 34.8003 40 36.2004 39.455 37.27C38.9757 38.2108 38.2108 38.9757 37.27 39.455C36.2004 40 34.8003 40 32 40Z" fill="var(--fill-0, #1F1F1F)"/>
<path d="M18.7331 20.4594C18.4259 20.1521 18.3674 19.6858 18.3561 19.2499C18.3674 18.8141 18.4259 18.3478 18.7331 18.0405L18.8248 17.9488C19.1231 17.6505 19.5781 17.5973 20 17.5973C20.4219 17.5973 20.8769 17.6505 21.1752 17.9488L21.2669 18.0405C21.5742 18.3478 21.6326 18.8141 21.6439 19.2499C21.6326 19.6858 21.5742 20.1521 21.2669 20.4593L21.1752 20.551C20.8769 20.8494 20.4219 20.9026 20 20.9026C19.5781 20.9026 19.1231 20.8494 18.8248 20.551L18.7331 20.4594Z" fill="var(--fill-0, #1F1F1F)"/>
<path fill-rule="evenodd" clip-rule="evenodd" d="M27.1419 11.6911C25.2587 9.80794 22.7047 8.75 20.0415 8.75C17.3783 8.75 14.8242 9.80794 12.9411 11.6911C11.0579 13.5742 10 16.1283 10 18.7915C10 22.2212 11.8699 25.0273 13.8403 27.0422C14.8947 28.1065 16.0505 29.0654 17.2912 29.9052L17.7487 30.2098L17.9629 30.3492L18.5431 30.7063L19.0072 30.9763C19.3224 31.1557 19.6788 31.25 20.0415 31.25C20.4041 31.25 20.7606 31.1557 21.0758 30.9763L21.5399 30.7063L21.9148 30.4775L22.3354 30.2098L22.5586 30.0614L23.0338 29.7378C24.1839 28.9397 25.2581 28.0373 26.2427 27.0422C28.213 25.0284 30.083 22.2212 30.083 18.7915C30.083 16.1283 29.025 13.5742 27.1419 11.6911ZM22.0552 17.1203C21.7414 16.8065 21.6871 16.3267 21.6775 15.8829C21.6685 15.4657 21.5048 15.0512 21.1865 14.7329C20.5312 14.0777 19.4688 14.0776 18.8135 14.7329C18.4952 15.0513 18.3315 15.4657 18.3225 15.8829C18.3129 16.3267 18.2586 16.8065 17.9448 17.1203L17.8789 17.1862C17.565 17.5001 17.0852 17.5543 16.6415 17.5639C16.2243 17.5729 15.8098 17.7366 15.4914 18.055C15.1617 18.3848 14.9979 18.8177 15 19.2499C14.9979 19.6822 15.1617 20.1151 15.4914 20.4449C15.8098 20.7632 16.2243 20.9269 16.6415 20.9359C17.0852 20.9455 17.565 20.9998 17.8789 21.3136L17.9448 21.3795C18.2586 21.6934 18.3129 22.1732 18.3225 22.6169C18.3315 23.0341 18.4952 23.4486 18.8135 23.767C19.4688 24.4222 20.5312 24.4222 21.1865 23.767C21.5048 23.4486 21.6685 23.0341 21.6775 22.6169C21.6871 22.1732 21.7414 21.6934 22.0552 21.3795L22.1211 21.3136C22.435 20.9998 22.9148 20.9455 23.3585 20.9359C23.7757 20.9269 24.1902 20.7632 24.5086 20.4449C24.8383 20.1151 25.0021 19.6822 25 19.2499C25.0021 18.8177 24.8383 18.3848 24.5086 18.055C24.1902 17.7366 23.7757 17.573 23.3585 17.5639C22.9148 17.5544 22.435 17.5001 22.1211 17.1862L22.0552 17.1203Z" fill="var(--fill-0, #1F1F1F)"/>
</g>
</svg>
