<svg preserveAspectRatio="none" width="100%" height="100%" overflow="visible" style="display: block;" viewBox="0 0 40 40" fill="none" xmlns="http://www.w3.org/2000/svg">
<g id="Vector">
<path d="M19.9998 18.1115C19.5123 18.0982 18.9924 18.031 18.649 17.6876L18.5749 17.6135C18.2218 17.2604 18.1607 16.7206 18.15 16.2214C18.1398 15.7521 17.9557 15.2858 17.5975 14.9276C16.8604 14.1905 15.6652 14.1905 14.928 14.9276C14.1908 15.6648 14.1908 16.86 14.928 17.5972C15.2861 17.9553 15.7524 18.1395 16.2218 18.1496C16.721 18.1604 17.2608 18.2214 17.6138 18.5745L17.717 18.6776C18.0526 19.0133 18.1125 19.5251 18.1125 19.9998C18.1125 20.4744 18.0526 20.9862 17.717 21.3219L17.6139 21.425C17.2608 21.7781 16.721 21.8391 16.2218 21.8499C15.7524 21.86 15.2861 22.0442 14.928 22.4023C14.1908 23.1395 14.1908 24.3347 14.928 25.0719C15.6651 25.809 16.8604 25.8091 17.5975 25.0719C17.9557 24.7137 18.1398 24.2475 18.15 23.7781C18.1608 23.2789 18.2218 22.7391 18.5749 22.386L18.649 22.3119C18.9925 21.9684 19.5128 21.9013 20.0005 21.888C20.4879 21.9013 21.0078 21.9685 21.3512 22.3119L21.4254 22.386C21.7785 22.7391 21.8395 23.2789 21.8503 23.7781C21.8604 24.2474 22.0446 24.7137 22.4027 25.0719C23.1399 25.809 24.3351 25.8091 25.0723 25.0719C25.8094 24.3347 25.8094 23.1395 25.0723 22.4023C24.7141 22.0442 24.2478 21.86 23.7785 21.8499C23.2792 21.8391 22.7395 21.7781 22.3864 21.425L22.2833 21.3219C21.9476 20.9862 21.8878 20.4744 21.8878 19.9998C21.8878 19.5251 21.9476 19.0133 22.2833 18.6776L22.3864 18.5745C22.7395 18.2214 23.2793 18.1604 23.7785 18.1496C24.2478 18.1395 24.7141 17.9553 25.0723 17.5972C25.8094 16.86 25.8094 15.6648 25.0723 14.9276C24.3351 14.1905 23.1399 14.1905 22.4027 14.9276C22.0446 15.2858 21.8604 15.7521 21.8503 16.2214C21.8395 16.7206 21.7784 17.2604 21.4254 17.6135L21.3512 17.6876C21.0077 18.0311 20.4875 18.0982 19.9998 18.1115Z" fill="var(--fill-0, #1F1F1F)"/>
<path fill-rule="evenodd" clip-rule="evenodd" d="M38.6983 12.4129C37.8648 11.5794 36.7343 11.1111 35.5556 11.1111H28.8889V4.44444C28.8889 3.2657 28.4206 2.13524 27.5871 1.30175C26.7536 0.468252 25.6232 0 24.4444 0H4.44444C3.2657 0 2.13524 0.468252 1.30175 1.30175C0.468252 2.13524 0 3.2657 0 4.44444V24.4444C0 25.6232 0.468252 26.7536 1.30175 27.5871C2.13524 28.4206 3.2657 28.8889 4.44444 28.8889H11.1111V35.5556C11.1111 36.7343 11.5794 37.8648 12.4129 38.6983C13.2464 39.5317 14.3768 40 15.5556 40H35.5556C36.7343 40 37.8648 39.5317 38.6983 38.6983C39.5317 37.8648 40 36.7343 40 35.5556V15.5556C40 14.3768 39.5317 13.2464 38.6983 12.4129ZM11.1111 28.8889V15.5556C11.1111 14.3768 11.5794 13.2464 12.4129 12.4129C13.2464 11.5794 14.3768 11.1111 15.5556 11.1111H28.8889V24.4444C28.8889 25.6232 28.4206 26.7536 27.5871 27.5871C26.7536 28.4206 25.6232 28.8889 24.4444 28.8889H11.1111Z" fill="var(--fill-0, #1F1F1F)"/>
</g>
</svg>
