<svg preserveAspectRatio="none" width="100%" height="100%" overflow="visible" style="display: block;" viewBox="0 0 40 40" fill="none" xmlns="http://www.w3.org/2000/svg">
<g id="Vector">
<path fill-rule="evenodd" clip-rule="evenodd" d="M1.30175 1.30175C0.468252 2.13524 0 3.2657 0 4.44444V17.7778H17.7778V0H4.44444C3.2657 0 2.13524 0.468252 1.30175 1.30175ZM6.25 7.5C6.94036 7.5 7.5 6.94036 7.5 6.25C7.5 5.55964 6.94036 5 6.25 5C5.55964 5 5 5.55964 5 6.25C5 6.94036 5.55964 7.5 6.25 7.5ZM6.25 12.75C6.94036 12.75 7.5 12.1904 7.5 11.5C7.5 10.8096 6.94036 10.25 6.25 10.25C5.55964 10.25 5 10.8096 5 11.5C5 12.1904 5.55964 12.75 6.25 12.75ZM12.75 6.25C12.75 6.94036 12.1904 7.5 11.5 7.5C10.8096 7.5 10.25 6.94036 10.25 6.25C10.25 5.55964 10.8096 5 11.5 5C12.1904 5 12.75 5.55964 12.75 6.25ZM11.5 12.75C12.1904 12.75 12.75 12.1904 12.75 11.5C12.75 10.8096 12.1904 10.25 11.5 10.25C10.8096 10.25 10.25 10.8096 10.25 11.5C10.25 12.1904 10.8096 12.75 11.5 12.75Z" fill="var(--fill-0, #1F1F1F)"/>
<path d="M0 22.2222H17.7778V40H4.44444C3.2657 40 2.13524 39.5317 1.30175 38.6983C0.468252 37.8648 0 36.7343 0 35.5556V22.2222Z" fill="var(--fill-0, #1F1F1F)"/>
<path fill-rule="evenodd" clip-rule="evenodd" d="M35.5556 40H22.2222V22.2222H40V35.5556C40 36.7343 39.5317 37.8648 38.6983 38.6983C37.8648 39.5317 36.7343 40 35.5556 40ZM33.5 31C33.5 32.3807 32.3807 33.5 31 33.5C29.6193 33.5 28.5 32.3807 28.5 31C28.5 29.6193 29.6193 28.5 31 28.5C32.3807 28.5 33.5 29.6193 33.5 31Z" fill="var(--fill-0, #1F1F1F)"/>
<path d="M22.2222 0V17.7778H40V4.44444C40 3.2657 39.5317 2.13524 38.6983 1.30175C37.8648 0.468252 36.7343 0 35.5556 0H22.2222Z" fill="var(--fill-0, #1F1F1F)"/>
</g>
</svg>
