<svg preserveAspectRatio="none" width="100%" height="100%" overflow="visible" style="display: block;" viewBox="0 0 40 40" fill="none" xmlns="http://www.w3.org/2000/svg">
<path id="Vector" fill-rule="evenodd" clip-rule="evenodd" d="M20 0C8.954 0 0 8.954 0 20C0 31.046 8.954 40 20 40C31.046 40 40 31.046 40 20C40 8.954 31.046 0 20 0ZM23.346 20.714C23.2009 20.8374 23.0891 20.9953 23.0209 21.1732C22.9528 21.3511 22.9304 21.5432 22.956 21.732L23.806 26.836C23.8298 26.9792 23.8222 27.1259 23.7836 27.2658C23.745 27.4057 23.6764 27.5356 23.5826 27.6464C23.4888 27.7571 23.3719 27.8461 23.2403 27.9072C23.1086 27.9683 22.9652 27.9999 22.82 28H17.18C17.0348 27.9999 16.8914 27.9683 16.7597 27.9072C16.6281 27.8461 16.5112 27.7571 16.4174 27.6464C16.3236 27.5356 16.255 27.4057 16.2164 27.2658C16.1778 27.1259 16.1702 26.9792 16.194 26.836L17.044 21.732C17.0696 21.5432 17.0472 21.3511 16.9791 21.1732C16.9109 20.9953 16.7991 20.8374 16.654 20.714C15.9029 20.0372 15.3746 19.1486 15.1388 18.1654C14.9031 17.1822 14.9709 16.1506 15.3334 15.2068C15.6959 14.263 16.336 13.4512 17.1693 12.8786C18.0026 12.306 18.9899 11.9995 20.001 11.9995C21.0121 11.9995 21.9994 12.306 22.8327 12.8786C23.6659 13.4512 24.3061 14.263 24.6686 15.2068C25.0311 16.1506 25.0989 17.1822 24.8632 18.1654C24.6274 19.1486 24.0971 20.0372 23.346 20.714Z" fill="var(--fill-0, #1F1F1F)"/>
</svg>
