<svg width="153" height="171" viewBox="0 0 153 171" fill="none" xmlns="http://www.w3.org/2000/svg">
<path d="M69 49.8106C73.1421 47.4191 79.8579 47.4191 84 49.8106L149 87.3383C153.142 89.7298 153.142 93.6071 149 95.9986L84 133.526C79.8579 135.918 73.1421 135.918 69 133.526L4.00003 95.9986C-0.1421 93.6071 -0.142104 89.7298 4.00003 87.3383L69 49.8106Z" fill="url(#paint0_radial_646_11072)" stroke="#1F1F1F" stroke-width="0.721688"/>
<path d="M69.2893 84.9853C67.549 83.9805 67.2481 82.4445 67.195 81.0238C67.1451 79.6882 66.2374 78.3613 64.4721 77.3421C60.8386 75.2443 54.9477 75.2444 51.3142 77.3421C47.6807 79.4399 47.6807 82.8411 51.3142 84.9388C53.0795 85.9581 55.3778 86.4821 57.6911 86.5109C60.1517 86.5416 62.8122 86.7153 64.5525 87.7201L64.918 87.9311C66.6583 88.9359 66.9592 90.4719 67.0124 91.8925C67.0602 93.1727 66.7718 94.5504 65.2036 95.4558L64.5525 95.8317C62.8122 96.8365 60.1517 97.0102 57.6911 97.0408C55.3778 97.0697 53.0795 97.5937 51.3142 98.6129C47.6807 100.711 47.6807 104.112 51.3142 106.21C54.9477 108.307 60.8386 108.307 64.4721 106.21C66.2374 105.19 67.1451 103.864 67.195 102.528C67.2481 101.107 67.549 99.5713 69.2894 98.5665L69.9405 98.1906C71.5087 97.2852 73.8949 97.1187 76.1121 97.1463C78.5728 97.177 81.2332 97.3507 82.9735 98.3555L83.339 98.5665C85.0794 99.5713 85.3803 101.107 85.4334 102.528C85.4833 103.864 86.3909 105.19 88.1563 106.21C91.7897 108.307 97.6807 108.307 101.314 106.21C104.948 104.112 104.948 100.711 101.314 98.6129C99.5488 97.5937 97.2506 97.0697 94.9373 97.0409C92.4767 97.0102 89.8162 96.8365 88.0759 95.8317L87.7104 95.6207C85.9701 94.6159 85.6692 93.0799 85.616 91.6592C85.5661 90.3236 84.6585 88.9967 82.8931 87.9775C81.1278 86.9583 78.8296 86.4343 76.5162 86.4055C74.0556 86.3748 71.3952 86.2011 69.6548 85.1963L69.2893 84.9853Z" fill="#1F1F1F"/>
<path d="M77.2683 77.5133L69.5384 66.8207L71.3301 65.7862L89.81 70.2723L88.0988 71.2603L76.1439 68.333C75.8125 68.2502 75.4301 68.1534 74.9968 68.0427C74.5645 67.917 74.1124 67.7955 73.6407 67.6782C73.1699 67.5458 72.7116 67.4207 72.2658 67.3028C71.8335 67.1772 71.4453 67.0693 71.1014 66.9792L71.504 66.7467C71.7091 66.9891 71.9138 67.239 72.118 67.4964C72.3232 67.7388 72.5278 67.9887 72.732 68.2461C72.9238 68.4962 73.1155 68.7464 73.3072 68.9966C73.4989 69.2467 73.6906 69.4969 73.8823 69.747L78.8788 76.5835L77.2683 77.5133ZM75.9445 74.099L75.1033 72.9392L81.7667 69.0921L83.8359 69.5429L75.9445 74.099Z" fill="#1F1F1F"/>
<path d="M120.825 94.9451C119.883 95.4891 118.842 95.8989 117.704 96.1745C116.566 96.45 115.397 96.5949 114.198 96.609C112.999 96.6231 111.83 96.4995 110.692 96.2381C109.554 95.9625 108.514 95.5527 107.571 95.0087C106.629 94.4646 105.925 93.8676 105.46 93.2176C104.995 92.5534 104.763 91.8822 104.763 91.2039C104.775 90.5186 105.02 89.8544 105.497 89.2114C105.974 88.5543 106.672 87.9608 107.59 87.4309C108.238 87.0565 108.966 86.7421 109.774 86.4877C110.594 86.2263 111.426 86.0426 112.271 85.9366C113.115 85.8306 113.904 85.8059 114.639 85.8624L114.657 86.9752C113.959 86.9682 113.268 87.0141 112.583 87.113C111.897 87.2119 111.243 87.3568 110.619 87.5475C110.007 87.7312 109.468 87.9573 109.003 88.2258C108.281 88.6427 107.737 89.1055 107.369 89.6142C107.015 90.1158 106.837 90.6351 106.837 91.1721C106.825 91.702 107.008 92.2249 107.388 92.7406C107.755 93.2494 108.312 93.7192 109.058 94.1502C109.78 94.5671 110.588 94.885 111.481 95.104C112.375 95.3089 113.299 95.4114 114.253 95.4114C115.208 95.3973 116.132 95.2807 117.025 95.0616C117.918 94.8426 118.732 94.5211 119.466 94.0972C120.042 93.7651 120.494 93.4048 120.825 93.0162C121.168 92.6205 121.376 92.2249 121.449 91.8292C121.51 91.4265 121.437 91.0449 121.229 90.6846C121.021 90.3242 120.678 90.0063 120.201 89.7308L119.558 89.3598L120.219 89.4022L115.703 92.0094L114.29 91.1933L119.944 87.9291C120.054 87.9785 120.182 88.0386 120.329 88.1092C120.464 88.1728 120.598 88.2435 120.733 88.3212C120.868 88.3848 120.99 88.4484 121.1 88.512C121.896 88.9712 122.483 89.4799 122.862 90.0381C123.23 90.5892 123.395 91.158 123.358 91.7444C123.321 92.3167 123.095 92.8784 122.679 93.4295C122.251 93.9736 121.633 94.4787 120.825 94.9451Z" fill="#1F1F1F"/>
<path d="M95.7056 88.1578L82.5806 80.5801L89.7001 76.4696C90.7374 75.8707 91.8443 75.4482 93.0208 75.2019C94.2131 74.9466 95.3699 74.8705 96.4914 74.9735C97.6286 75.0675 98.6035 75.349 99.416 75.8181C100.266 76.3089 100.785 76.8898 100.973 77.5608C101.164 78.2155 101.044 78.8906 100.615 79.5862C100.201 80.2727 99.4749 80.9153 98.4376 81.5142L95.3257 83.3108L99.7132 85.844L95.7056 88.1578ZM92.4613 81.7387L95.078 80.2279C95.4238 80.0283 95.6694 79.8071 95.8148 79.5644C95.9602 79.3217 96.0006 79.0819 95.9359 78.8449C95.8713 78.608 95.6828 78.3993 95.3703 78.2189C95.0453 78.0313 94.6838 77.9224 94.2859 77.8923C93.8881 77.8622 93.4852 77.8927 93.0773 77.9839C92.6694 78.0751 92.2926 78.2205 91.9468 78.4201L89.33 79.9309L92.4613 81.7387Z" fill="#1F1F1F"/>
<rect width="75.0555" height="34.641" transform="matrix(0.866025 0.5 0 1 4 95.999)" fill="url(#paint1_radial_646_11072)" stroke="#1F1F1F" stroke-width="0.721688"/>
<rect x="0.3125" y="0.541266" width="6.49519" height="16.5988" rx="3.24759" transform="matrix(0.866025 0.5 0 1 24.58 116.771)" fill="#ED585A" stroke="#1F1F1F" stroke-width="0.721688"/>
<rect x="0.3125" y="0.541266" width="6.49519" height="16.5988" rx="3.24759" transform="matrix(0.866025 0.5 0 1 33.33 121.823)" fill="#ED585A" stroke="#1F1F1F" stroke-width="0.721688"/>
<rect x="0.3125" y="0.541266" width="6.49519" height="16.5988" rx="3.24759" transform="matrix(0.866025 0.5 0 1 42.08 126.875)" fill="#ED585A" stroke="#1F1F1F" stroke-width="0.721688"/>
<rect width="75.0555" height="34.641" transform="matrix(0.866025 -0.5 0 1 84 133.526)" fill="url(#paint2_radial_646_11072)" stroke="#1F1F1F" stroke-width="0.721688"/>
<path d="M0.894043 91.6685C0.894043 93.3595 2.08123 94.8904 4.00064 95.9986V130.64C2.08123 129.531 0.894043 128 0.894043 126.309V91.6685Z" fill="url(#paint3_radial_646_11072)" stroke="#1F1F1F" stroke-width="0.721688"/>
<path d="M69 133.526C73.1421 135.918 79.8579 135.918 84 133.526V168.167C79.8579 170.559 73.1421 170.559 69 168.167V133.526Z" fill="url(#paint4_radial_646_11072)" stroke="#1F1F1F" stroke-width="0.721688"/>
<path d="M152.107 91.6685C152.107 93.3595 150.919 94.8904 149 95.9986V130.64C150.919 129.531 152.107 128 152.107 126.309V91.6685Z" fill="url(#paint5_radial_646_11072)" stroke="#1F1F1F" stroke-width="0.721688"/>
<circle cx="3.60844" cy="3.60844" r="3.24759" transform="matrix(-3.78552e-08 1 -0.866025 0.5 110.896 131.361)" fill="#7B9D89" stroke="#1F1F1F" stroke-width="0.721688"/>
<circle cx="3.60844" cy="3.60844" r="3.24759" transform="matrix(-3.78552e-08 1 -0.866025 0.5 119.646 126.31)" fill="#EE585A" stroke="#1F1F1F" stroke-width="0.721688"/>
<circle cx="3.60844" cy="3.60844" r="3.24759" transform="matrix(-3.78552e-08 1 -0.866025 0.5 128.396 121.258)" fill="#1F1F1F" stroke="#1F1F1F" stroke-width="0.721688"/>
<path d="M69 2.8106C73.1421 0.419134 79.8579 0.419132 84 2.81059L149 40.3383C153.142 42.7298 153.142 46.6071 149 48.9986L84 86.5263C79.8579 88.9178 73.1421 88.9178 69 86.5264L4.00003 48.9986C-0.1421 46.6071 -0.142104 42.7298 4.00003 40.3383L69 2.8106Z" fill="url(#paint6_radial_646_11072)" stroke="#1F1F1F" stroke-width="0.721688"/>
<path d="M69.2893 37.9853C67.549 36.9805 67.2481 35.4445 67.195 34.0238C67.1451 32.6882 66.2374 31.3613 64.4721 30.3421C60.8386 28.2443 54.9477 28.2444 51.3142 30.3421C47.6807 32.4399 47.6807 35.8411 51.3142 37.9388C53.0795 38.9581 55.3778 39.4821 57.6911 39.5109C60.1517 39.5416 62.8122 39.7153 64.5525 40.7201L64.918 40.9311C66.6583 41.9359 66.9592 43.4719 67.0124 44.8925C67.0602 46.1727 66.7718 47.5504 65.2036 48.4558L64.5525 48.8317C62.8122 49.8365 60.1517 50.0102 57.6911 50.0408C55.3778 50.0697 53.0795 50.5937 51.3142 51.6129C47.6807 53.7107 47.6807 57.1119 51.3142 59.2096C54.9477 61.3074 60.8386 61.3074 64.4721 59.2096C66.2374 58.1904 67.1451 56.8635 67.195 55.5279C67.2481 54.1073 67.549 52.5713 69.2894 51.5665L69.9405 51.1906C71.5087 50.2852 73.8949 50.1187 76.1121 50.1463C78.5728 50.177 81.2332 50.3507 82.9735 51.3555L83.339 51.5665C85.0794 52.5713 85.3803 54.1073 85.4334 55.5279C85.4833 56.8635 86.3909 58.1904 88.1563 59.2096C91.7897 61.3074 97.6807 61.3074 101.314 59.2096C104.948 57.1119 104.948 53.7107 101.314 51.6129C99.5488 50.5937 97.2506 50.0697 94.9373 50.0409C92.4767 50.0102 89.8162 49.8365 88.0759 48.8317L87.7104 48.6207C85.9701 47.6159 85.6692 46.0799 85.616 44.6592C85.5661 43.3236 84.6585 41.9967 82.8931 40.9775C81.1278 39.9583 78.8296 39.4343 76.5162 39.4055C74.0556 39.3748 71.3952 39.2011 69.6548 38.1963L69.2893 37.9853Z" fill="#1F1F1F"/>
<path d="M77.2683 30.5133L69.5384 19.8207L71.3301 18.7862L89.81 23.2723L88.0988 24.2603L76.1439 21.333C75.8125 21.2502 75.4301 21.1534 74.9968 21.0427C74.5645 20.917 74.1124 20.7955 73.6407 20.6782C73.1699 20.5458 72.7116 20.4207 72.2658 20.3028C71.8335 20.1772 71.4453 20.0693 71.1014 19.9792L71.504 19.7467C71.7091 19.9891 71.9138 20.239 72.118 20.4964C72.3232 20.7388 72.5278 20.9887 72.732 21.2461C72.9238 21.4962 73.1155 21.7464 73.3072 21.9966C73.4989 22.2467 73.6906 22.4969 73.8823 22.747L78.8788 29.5835L77.2683 30.5133ZM75.9445 27.099L75.1033 25.9392L81.7667 22.0921L83.8359 22.5429L75.9445 27.099Z" fill="#1F1F1F"/>
<path d="M120.825 47.9451C119.883 48.4891 118.842 48.8989 117.704 49.1745C116.566 49.45 115.397 49.5949 114.198 49.609C112.999 49.6231 111.83 49.4995 110.692 49.2381C109.554 48.9625 108.514 48.5527 107.571 48.0087C106.629 47.4646 105.925 46.8676 105.46 46.2176C104.995 45.5534 104.763 44.8822 104.763 44.2039C104.775 43.5186 105.02 42.8544 105.497 42.2114C105.974 41.5543 106.672 40.9608 107.59 40.4309C108.238 40.0565 108.966 39.7421 109.774 39.4877C110.594 39.2263 111.426 39.0426 112.271 38.9366C113.115 38.8306 113.904 38.8059 114.639 38.8624L114.657 39.9752C113.959 39.9682 113.268 40.0141 112.583 40.113C111.897 40.2119 111.243 40.3568 110.619 40.5475C110.007 40.7312 109.468 40.9573 109.003 41.2258C108.281 41.6427 107.737 42.1055 107.369 42.6142C107.015 43.1158 106.837 43.6351 106.837 44.1721C106.825 44.702 107.008 45.2249 107.388 45.7406C107.755 46.2494 108.312 46.7192 109.058 47.1502C109.78 47.5671 110.588 47.885 111.481 48.104C112.375 48.3089 113.299 48.4114 114.253 48.4114C115.208 48.3973 116.132 48.2807 117.025 48.0616C117.918 47.8426 118.732 47.5211 119.466 47.0972C120.042 46.7651 120.494 46.4048 120.825 46.0162C121.168 45.6205 121.376 45.2249 121.449 44.8292C121.51 44.4265 121.437 44.0449 121.229 43.6846C121.021 43.3242 120.678 43.0063 120.201 42.7308L119.558 42.3598L120.219 42.4022L115.703 45.0094L114.29 44.1933L119.944 40.9291C120.054 40.9785 120.182 41.0386 120.329 41.1092C120.464 41.1728 120.598 41.2435 120.733 41.3212C120.868 41.3848 120.99 41.4484 121.1 41.512C121.896 41.9712 122.483 42.4799 122.862 43.0381C123.23 43.5892 123.395 44.158 123.358 44.7444C123.321 45.3167 123.095 45.8784 122.679 46.4295C122.251 46.9736 121.633 47.4787 120.825 47.9451Z" fill="#1F1F1F"/>
<path d="M95.7056 41.1578L82.5806 33.5801L89.7001 29.4696C90.7374 28.8707 91.8443 28.4482 93.0208 28.2019C94.2131 27.9466 95.3699 27.8705 96.4914 27.9735C97.6286 28.0675 98.6035 28.349 99.416 28.8181C100.266 29.3089 100.785 29.8898 100.973 30.5608C101.164 31.2155 101.044 31.8906 100.615 32.5862C100.201 33.2727 99.4749 33.9153 98.4376 34.5142L95.3257 36.3108L99.7132 38.844L95.7056 41.1578ZM92.4613 34.7387L95.078 33.2279C95.4238 33.0283 95.6694 32.8071 95.8148 32.5644C95.9602 32.3217 96.0006 32.0819 95.9359 31.8449C95.8713 31.608 95.6828 31.3993 95.3703 31.2189C95.0453 31.0313 94.6838 30.9224 94.2859 30.8923C93.8881 30.8622 93.4852 30.8927 93.0773 30.9839C92.6694 31.0751 92.2926 31.2205 91.9468 31.4201L89.33 32.9309L92.4613 34.7387Z" fill="#1F1F1F"/>
<rect width="75.0555" height="34.641" transform="matrix(0.866025 0.5 0 1 4 48.999)" fill="url(#paint7_radial_646_11072)" stroke="#1F1F1F" stroke-width="0.721688"/>
<rect x="0.3125" y="0.541266" width="6.49519" height="16.5988" rx="3.24759" transform="matrix(0.866025 0.5 0 1 24.58 69.7715)" fill="#ED585A" stroke="#1F1F1F" stroke-width="0.721688"/>
<rect x="0.3125" y="0.541266" width="6.49519" height="16.5988" rx="3.24759" transform="matrix(0.866025 0.5 0 1 33.33 74.8232)" fill="#ED585A" stroke="#1F1F1F" stroke-width="0.721688"/>
<rect x="0.3125" y="0.541266" width="6.49519" height="16.5988" rx="3.24759" transform="matrix(0.866025 0.5 0 1 42.08 79.875)" fill="#ED585A" stroke="#1F1F1F" stroke-width="0.721688"/>
<rect width="75.0555" height="34.641" transform="matrix(0.866025 -0.5 0 1 84 86.5264)" fill="url(#paint8_radial_646_11072)" stroke="#1F1F1F" stroke-width="0.721688"/>
<path d="M0.894043 44.6685C0.894043 46.3595 2.08123 47.8904 4.00064 48.9986V83.6396C2.08123 82.5314 0.894043 81.0005 0.894043 79.3095V44.6685Z" fill="url(#paint9_radial_646_11072)" stroke="#1F1F1F" stroke-width="0.721688"/>
<path d="M69 86.5264C73.1421 88.9178 79.8579 88.9178 84 86.5264V121.167C79.8579 123.559 73.1421 123.559 69 121.167V86.5264Z" fill="url(#paint10_radial_646_11072)" stroke="#1F1F1F" stroke-width="0.721688"/>
<path d="M152.107 44.6685C152.107 46.3595 150.919 47.8904 149 48.9986V83.6396C150.919 82.5314 152.107 81.0005 152.107 79.3095V44.6685Z" fill="url(#paint11_radial_646_11072)" stroke="#1F1F1F" stroke-width="0.721688"/>
<circle cx="3.60844" cy="3.60844" r="3.24759" transform="matrix(-3.78552e-08 1 -0.866025 0.5 110.896 84.3613)" fill="#7B9D89" stroke="#1F1F1F" stroke-width="0.721688"/>
<circle cx="3.60844" cy="3.60844" r="3.24759" transform="matrix(-3.78552e-08 1 -0.866025 0.5 119.646 79.3096)" fill="#EE585A" stroke="#1F1F1F" stroke-width="0.721688"/>
<circle cx="3.60844" cy="3.60844" r="3.24759" transform="matrix(-3.78552e-08 1 -0.866025 0.5 128.396 74.2578)" fill="#1F1F1F" stroke="#1F1F1F" stroke-width="0.721688"/>
<defs>
<radialGradient id="paint0_radial_646_11072" cx="0" cy="0" r="1" gradientTransform="matrix(83.5789 -48.2543 81.2903 19.9919 76.5 91.6685)" gradientUnits="userSpaceOnUse">
<stop offset="0.375" stop-color="white"/>
<stop offset="1" stop-color="#D7D7D7"/>
</radialGradient>
<radialGradient id="paint1_radial_646_11072" cx="0" cy="0" r="1" gradientTransform="matrix(5.9343e-07 -36.1907 54.3765 -10.1029 37.5278 17.3205)" gradientUnits="userSpaceOnUse">
<stop offset="0.375" stop-color="white"/>
<stop offset="1" stop-color="#D7D7D7"/>
</radialGradient>
<radialGradient id="paint2_radial_646_11072" cx="0" cy="0" r="1" gradientTransform="matrix(5.9343e-07 -36.1907 54.3765 -10.1029 37.5278 17.3205)" gradientUnits="userSpaceOnUse">
<stop offset="0.375" stop-color="white"/>
<stop offset="1" stop-color="#D7D7D7"/>
</radialGradient>
<radialGradient id="paint3_radial_646_11072" cx="0" cy="0" r="1" gradientTransform="matrix(2.45625e-08 -40.7146 2.25068 -11.3658 2.44734 111.154)" gradientUnits="userSpaceOnUse">
<stop offset="0.375" stop-color="white"/>
<stop offset="1" stop-color="#D7D7D7"/>
</radialGradient>
<radialGradient id="paint4_radial_646_11072" cx="0" cy="0" r="1" gradientTransform="matrix(1.18598e-07 -38.0646 10.8672 -10.626 76.5 151.744)" gradientUnits="userSpaceOnUse">
<stop offset="0.375" stop-color="white"/>
<stop offset="1" stop-color="#D7D7D7"/>
</radialGradient>
<radialGradient id="paint5_radial_646_11072" cx="0" cy="0" r="1" gradientTransform="matrix(2.45625e-08 -40.7146 2.25068 -11.3658 150.553 111.154)" gradientUnits="userSpaceOnUse">
<stop offset="0.375" stop-color="white"/>
<stop offset="1" stop-color="#D7D7D7"/>
</radialGradient>
<radialGradient id="paint6_radial_646_11072" cx="0" cy="0" r="1" gradientTransform="matrix(83.5789 -48.2543 81.2903 19.9919 76.5 44.6685)" gradientUnits="userSpaceOnUse">
<stop offset="0.375" stop-color="white"/>
<stop offset="1" stop-color="#D7D7D7"/>
</radialGradient>
<radialGradient id="paint7_radial_646_11072" cx="0" cy="0" r="1" gradientTransform="matrix(5.9343e-07 -36.1907 54.3765 -10.1029 37.5278 17.3205)" gradientUnits="userSpaceOnUse">
<stop offset="0.375" stop-color="white"/>
<stop offset="1" stop-color="#D7D7D7"/>
</radialGradient>
<radialGradient id="paint8_radial_646_11072" cx="0" cy="0" r="1" gradientTransform="matrix(5.9343e-07 -36.1907 54.3765 -10.1029 37.5278 17.3205)" gradientUnits="userSpaceOnUse">
<stop offset="0.375" stop-color="white"/>
<stop offset="1" stop-color="#D7D7D7"/>
</radialGradient>
<radialGradient id="paint9_radial_646_11072" cx="0" cy="0" r="1" gradientTransform="matrix(2.45625e-08 -40.7146 2.25068 -11.3658 2.44734 64.154)" gradientUnits="userSpaceOnUse">
<stop offset="0.375" stop-color="white"/>
<stop offset="1" stop-color="#D7D7D7"/>
</radialGradient>
<radialGradient id="paint10_radial_646_11072" cx="0" cy="0" r="1" gradientTransform="matrix(1.18598e-07 -38.0646 10.8672 -10.626 76.5 104.744)" gradientUnits="userSpaceOnUse">
<stop offset="0.375" stop-color="white"/>
<stop offset="1" stop-color="#D7D7D7"/>
</radialGradient>
<radialGradient id="paint11_radial_646_11072" cx="0" cy="0" r="1" gradientTransform="matrix(2.45625e-08 -40.7146 2.25068 -11.3658 150.553 64.154)" gradientUnits="userSpaceOnUse">
<stop offset="0.375" stop-color="white"/>
<stop offset="1" stop-color="#D7D7D7"/>
</radialGradient>
</defs>
</svg>
