<svg width="100" height="100" viewBox="0 0 100 100" fill="none" xmlns="http://www.w3.org/2000/svg">
<path d="M86.4189 71.1226L86.1689 71.2661L50.084 92.1001L49.834 92.2446L49.584 92.1001L13.5 71.2661L13.25 71.1226V26.3784L13.5 26.2339L49.584 5.40088L49.834 5.25635L50.084 5.40088L86.1689 26.2339L86.4189 26.3784V71.1226Z" fill="#F4F4F4" stroke="#1F1F1F"/>
<path d="M13.75 50.0005L49.8344 70.8338L49.8344 91.6672L13.75 70.8338L13.75 50.0005Z" fill="white"/>
<path d="M49.8345 70.8335L85.9189 50.0002L85.9189 70.8335L49.8345 91.6668L49.8345 70.8335Z" fill="url(#paint0_radial_646_11423)"/>
<path d="M49.8345 29.167L85.9189 50.0003L49.8345 70.8337L13.7501 50.0003L49.8345 29.167Z" fill="#1F1F1F"/>
<path d="M31.2498 70.834C31.2498 69.9137 31.8962 69.5402 32.6931 70L44.9617 77.084C45.7588 77.5442 46.406 78.6635 46.406 79.584C46.4059 80.5043 45.7588 80.8772 44.9617 80.417L32.6931 73.334C31.8961 72.8737 31.2498 71.7544 31.2498 70.834ZM22.4998 65.417C22.4998 64.0365 23.4692 63.4769 24.6648 64.167C25.8605 64.8573 26.8298 66.5363 26.8298 67.917C26.8298 69.2977 25.8605 69.8573 24.6648 69.167C23.4692 68.4765 22.4998 66.7976 22.4998 65.417ZM16.6667 62.084C16.6667 60.7033 17.6361 60.1436 18.8318 60.834C20.0275 61.5244 20.9968 63.2033 20.9968 64.584C20.9967 65.9645 20.0274 66.5242 18.8318 65.834C17.6361 65.1437 16.6668 63.4647 16.6667 62.084Z" fill="#ED585A"/>
<path d="M13.75 26.667L49.8344 47.5003L49.8344 68.3337L13.75 47.5003L13.75 26.667Z" fill="white"/>
<path d="M49.8345 47.5L85.9189 26.6667L85.9189 47.5L49.8345 68.3333L49.8345 47.5Z" fill="url(#paint1_radial_646_11423)"/>
<path d="M49.8345 5.83349L85.9189 26.6668L49.8345 47.5002L13.7501 26.6668L49.8345 5.83349Z" fill="url(#paint2_radial_646_11423)"/>
<path fill-rule="evenodd" clip-rule="evenodd" d="M31.2498 47.9163C31.2498 46.996 31.8961 46.6232 32.6931 47.0833L44.9617 54.1663C45.7588 54.6265 46.4059 55.7459 46.406 56.6663C46.406 57.5868 45.7588 57.9595 44.9617 57.4993L32.6931 50.4163C31.8961 49.956 31.2498 48.8367 31.2498 47.9163ZM22.4998 42.9163C22.4998 41.5358 23.4692 40.9762 24.6648 41.6663C25.8605 42.3566 26.8298 44.0356 26.8298 45.4163C26.8298 46.797 25.8605 47.3567 24.6648 46.6663C23.4692 45.9758 22.4998 44.2969 22.4998 42.9163ZM16.6667 39.5833C16.6667 38.2026 17.6361 37.6429 18.8318 38.3333C20.0275 39.0237 20.9968 40.7026 20.9968 42.0833C20.9967 43.4638 20.0274 44.0236 18.8318 43.3333C17.6361 42.643 16.6668 40.964 16.6667 39.5833Z" fill="#1F1F1F"/>
<defs>
<radialGradient id="paint0_radial_646_11423" cx="0" cy="0" r="1" gradientTransform="matrix(-1.94199e-07 -21.7654 26.1425 -21.1694 67.8767 70.8335)" gradientUnits="userSpaceOnUse">
<stop offset="0.375" stop-color="white"/>
<stop offset="1" stop-color="#D7D7D7"/>
</radialGradient>
<radialGradient id="paint1_radial_646_11423" cx="0" cy="0" r="1" gradientTransform="matrix(-1.94199e-07 -21.7654 26.1425 -21.1694 67.8767 47.5)" gradientUnits="userSpaceOnUse">
<stop offset="0.375" stop-color="white"/>
<stop offset="1" stop-color="#D7D7D7"/>
</radialGradient>
<radialGradient id="paint2_radial_646_11423" cx="0" cy="0" r="1" gradientTransform="matrix(37.6987 -21.7654 36.6664 9.01744 49.8345 26.6668)" gradientUnits="userSpaceOnUse">
<stop offset="0.375" stop-color="white"/>
<stop offset="1" stop-color="#D7D7D7"/>
</radialGradient>
</defs>
</svg>
