<svg width="100" height="100" viewBox="0 0 100 100" fill="none" xmlns="http://www.w3.org/2000/svg">
<g clip-path="url(#clip0_813_627)">
<path d="M42.1926 23.7188C42.2697 23.7254 42.4225 23.7516 42.5793 23.7803C42.7503 23.8117 42.9657 23.8536 43.1936 23.8975C43.6531 23.9862 44.1618 24.0857 44.4797 24.1426L76.969 29.9551C77.2229 30.0006 77.4786 30.0756 77.72 30.1563L78.386 30.3907L78.4895 30.4258L78.5686 30.5001C78.6397 30.5672 78.7212 30.6389 78.8167 30.7237C78.9092 30.806 79.012 30.8985 79.1135 30.9962C79.3121 31.1872 79.5329 31.4253 79.6848 31.7032L79.6965 31.7237L79.7053 31.7452L86.9817 48.5674C87.1216 48.8908 87.2914 49.2391 87.4729 49.6495C87.5555 49.8362 87.6342 50.0224 87.6907 50.1827C87.7188 50.2624 87.7448 50.3448 87.7629 50.4229C87.7758 50.4783 87.7921 50.5662 87.7893 50.6631V74.7003C87.7892 75.6012 87.1958 76.261 86.5735 76.6202L73.9075 83.9307C59.4478 92.2766 37.4191 94.3269 19.1897 89.0645C18.4866 88.8616 17.8681 88.5208 17.4641 88.0547C13.7158 83.73 12.0548 79.0034 12.4163 74.3292V52.5352C11.8184 44.8124 16.7561 37.2019 26.4045 31.6329L39.0657 24.3253C39.9326 23.8249 41.0973 23.6259 42.1926 23.7188Z" fill="#414141" stroke="#1F1F1F"/>
<path d="M53.6262 50.4688H87.4479V74.6596C87.4581 74.7464 87.458 74.8333 87.4479 74.9197V75H87.4355C87.3548 75.4244 87.0301 75.8324 86.4798 76.1501L73.7864 83.4786C59.4308 91.7668 37.4993 93.8208 19.3419 88.5776C18.6976 88.3916 18.1752 88.09 17.8529 87.718C14.1617 83.458 12.5574 78.8381 12.9166 74.298V50.4688H36.7449L39.3716 48.9523C40.4184 48.3479 42.0302 48.2149 43.3283 48.6257L53.6262 50.4688Z" fill="url(#paint0_radial_813_627)"/>
<path fill-rule="evenodd" clip-rule="evenodd" d="M77.0173 30.2803C77.5445 30.3746 78.0777 30.485 78.4813 30.7024C78.9971 30.9802 79.2168 31.3846 79.3876 31.7797L86.3122 47.7945C86.8134 48.9537 87.064 49.5333 86.9064 50.6455C86.7488 51.7577 87.4709 50.7929 87.1821 51.1788C87.0189 51.3969 86.7838 51.5998 86.4799 51.7752L73.7866 59.1037C59.431 67.3919 37.4995 69.4459 19.3421 64.2027C18.6978 64.0167 18.1753 63.7151 17.853 63.3431C8.76792 52.858 12.3254 40.1926 26.6843 31.9025L39.3718 24.5774C39.8398 24.3072 40.4208 24.1312 41.0362 24.0559C41.573 23.9902 40.2309 24.1544 41.7328 24.1942C43.2348 24.2341 44.0194 24.3745 45.5887 24.6554L77.0173 30.2803Z" fill="url(#paint1_radial_813_627)"/>
<path d="M54.5105 48.8544C57.0017 50.2926 57.0017 52.6245 54.5105 54.0627C52.0194 55.5009 47.9806 55.5009 45.4895 54.0627C44.3244 53.39 43.7044 52.522 43.6292 51.6412C43.5409 50.6064 43.3303 49.4828 42.0614 48.7502C40.7925 48.0176 38.8463 47.896 37.054 47.8451C35.5286 47.8017 34.025 47.4437 32.8599 46.771C30.3688 45.3328 30.3688 43.0009 32.8599 41.5627C35.351 40.1245 39.3899 40.1245 41.881 41.5627C43.0461 42.2354 43.6661 43.1034 43.7413 43.9842C43.8296 45.019 44.0401 46.1426 45.309 46.8752C46.5779 47.6078 48.5241 47.7294 50.3165 47.7804C51.8419 47.8237 53.3455 48.1817 54.5105 48.8544Z" fill="#ED585A"/>
<path d="M67.1401 41.5627C69.6312 43.0009 69.6312 45.3328 67.1401 46.771C64.649 48.2093 60.6101 48.2093 58.119 46.771C56.9539 46.0984 56.3339 45.2303 56.2587 44.3496C56.1704 43.3148 55.9599 42.1911 54.691 41.4585C53.4221 40.7259 51.4759 40.6044 49.6835 40.5534C48.1581 40.51 46.6545 40.152 45.4895 39.4794C42.9983 38.0411 42.9983 35.7093 45.4895 34.271C47.9806 32.8328 52.0194 32.8328 54.5105 34.271C55.6756 34.9437 56.2956 35.8118 56.3708 36.6925C56.4591 37.7273 56.6697 38.8509 57.9386 39.5835C59.2075 40.3161 61.1537 40.4377 62.946 40.4887C64.4714 40.5321 65.975 40.89 67.1401 41.5627Z" fill="#ED585A"/>
</g>
<defs>
<radialGradient id="paint0_radial_813_627" cx="0" cy="0" r="1" gradientTransform="matrix(5.89734e-07 -44.9922 54.0378 -12.5599 50.1615 69.9217)" gradientUnits="userSpaceOnUse">
<stop offset="0.375" stop-color="white"/>
<stop offset="1" stop-color="#D7D7D7"/>
</radialGradient>
<radialGradient id="paint1_radial_813_627" cx="0" cy="0" r="1" gradientTransform="matrix(61.3302 -35.409 51.2498 9.81973 47.8256 46.8944)" gradientUnits="userSpaceOnUse">
<stop offset="0.375" stop-color="white"/>
<stop offset="1" stop-color="#D7D7D7"/>
</radialGradient>
<clipPath id="clip0_813_627">
<rect width="100" height="100" fill="white"/>
</clipPath>
</defs>
</svg>
