<svg width="100" height="100" viewBox="0 0 100 100" fill="none" xmlns="http://www.w3.org/2000/svg">
<path d="M50 6.91119C56.5042 6.9112 61.7355 9.94871 71.9004 15.8174C76.9909 18.7564 80.8521 20.9843 83.4346 22.9385C85.9978 24.8782 87.46 26.6615 87.46 28.7501V70.4171C87.4598 72.5055 85.9978 74.2889 83.4346 76.2286C80.8521 78.1828 76.9909 80.4107 71.9004 83.3497C61.7356 89.2183 56.5042 92.2559 50 92.2559C43.4958 92.2559 38.2644 89.2183 28.0996 83.3497C23.0091 80.4107 19.1479 78.1828 16.5654 76.2286C14.0022 74.2889 12.5402 72.5056 12.54 70.4171V28.7501C12.54 26.6615 14.0022 24.8782 16.5654 22.9385C19.1479 20.9843 23.0091 18.7564 28.0996 15.8174C38.2645 9.94871 43.4958 6.91119 50 6.91119Z" stroke="#1F1F1F"/>
<path d="M86.9528 51.2501H13.0205V70.4167L13.0397 70.4167C13.0397 74.0779 18.1428 77.0242 28.349 82.9167C38.5552 88.8093 43.6583 91.7556 49.9997 91.7556C56.341 91.7556 61.4441 88.8093 71.6503 82.9167C81.8565 77.0242 86.9596 74.0779 86.9596 70.4167C86.9596 70.3394 86.9573 70.2625 86.9528 70.1858V51.2501Z" fill="url(#paint0_radial_813_1139)"/>
<path d="M28.3491 38.7501C38.5553 32.8575 43.6584 29.9113 49.9997 29.9113C56.3411 29.9113 61.4442 32.8575 71.6504 38.7501C81.8566 44.6426 86.9597 47.5889 86.9597 51.2501C86.9597 54.9113 81.8566 57.8575 71.6504 63.7501C61.4442 69.6426 56.3411 72.5889 49.9997 72.5889C43.6584 72.5889 38.5553 69.6426 28.3491 63.7501C18.1429 57.8575 13.0398 54.9113 13.0398 51.2501C13.0398 47.5889 18.1429 44.6426 28.3491 38.7501Z" fill="#1F1F1F"/>
<path d="M30.8257 68.7497C30.8258 68.2896 31.1489 68.1036 31.5474 68.3337L32.6294 68.9587C33.028 69.1888 33.3511 69.7484 33.3511 70.2087V81.8747C33.3511 82.3349 33.028 82.5218 32.6294 82.2917L31.5474 81.6667C31.1488 81.4366 30.8257 80.8769 30.8257 80.4167V68.7497ZM26.6587 66.5622C26.6588 66.1021 26.9819 65.9161 27.3804 66.1462L28.4634 66.7712C28.8618 67.0014 29.1851 67.5611 29.1851 68.0212V79.6872C29.1851 80.1473 28.8618 80.3341 28.4634 80.1042L27.3804 79.4792C26.9819 79.249 26.6587 78.6894 26.6587 78.2292V66.5622ZM22.4917 64.1667C22.4917 63.7064 22.8158 63.5196 23.2144 63.7497L24.2964 64.3747C24.6949 64.6048 25.018 65.1645 25.0181 65.6247V77.2917C25.018 77.7518 24.6949 77.9386 24.2964 77.7087L23.2144 77.0837C22.8159 76.8536 22.4919 76.2938 22.4917 75.8337V64.1667ZM18.3257 61.4587C18.3257 60.9984 18.6488 60.8116 19.0474 61.0417L20.1294 61.6667C20.528 61.8968 20.8511 62.4564 20.8511 62.9167V74.5837C20.8509 75.0436 20.5279 75.2297 20.1294 74.9997L19.0474 74.3747C18.6488 74.1446 18.3257 73.5849 18.3257 73.1247V61.4587Z" fill="#ED585A"/>
<path d="M86.9528 28.7501H13.0205V48.3334L13.0397 48.3334C13.0397 51.9946 18.1428 54.9408 28.349 60.8334C38.5552 66.726 43.6583 69.6722 49.9997 69.6722C56.341 69.6722 61.4441 66.726 71.6503 60.8334C81.8565 54.9408 86.9596 51.9946 86.9596 48.3334C86.9596 48.2561 86.9573 48.1791 86.9528 48.1025V28.7501Z" fill="url(#paint1_radial_813_1139)"/>
<path d="M28.3491 16.2501C38.5553 10.3575 43.6584 7.41126 49.9997 7.41125C56.3411 7.41125 61.4442 10.3575 71.6504 16.2501C81.8566 22.1426 86.9597 25.0889 86.9597 28.7501C86.9597 32.4113 81.8566 35.3575 71.6504 41.2501C61.4442 47.1427 56.3411 50.0889 49.9997 50.0889C43.6584 50.0889 38.5553 47.1427 28.3491 41.2501C18.1429 35.3575 13.0398 32.4113 13.0398 28.7501C13.0398 25.0889 18.1429 22.1426 28.3491 16.2501Z" fill="url(#paint2_radial_813_1139)"/>
<path d="M67.1398 24.8959C69.6309 26.3341 69.6309 28.666 67.1398 30.1042C65.9747 30.7769 64.4711 31.1349 62.9456 31.1783C61.1534 31.2292 59.2073 31.3508 57.9384 32.0833C56.6696 32.8159 56.459 33.9395 56.3707 34.9743C56.2955 35.8551 55.6754 36.7232 54.5103 37.3959C52.0192 38.8341 47.9803 38.8341 45.4892 37.3959C44.3241 36.7232 43.7041 35.8552 43.629 34.9744C43.5406 33.9396 43.3301 32.816 42.0612 32.0834C40.7923 31.3508 38.8461 31.2292 37.0538 31.1782C35.5283 31.1349 34.0247 30.7769 32.8597 30.1042C30.3686 28.666 30.3686 26.3341 32.8597 24.8959C35.3508 23.4577 39.3897 23.4577 41.8808 24.8959C43.0458 25.5686 43.6659 26.4366 43.741 27.3174C43.8293 28.3522 44.0399 29.4758 45.3088 30.2084L45.5325 30.3376C46.6666 30.9923 48.396 31.1091 49.9998 31.1091C51.6037 31.109 53.3331 30.9922 54.4672 30.3375L54.6908 30.2083C55.9597 29.4758 56.1702 28.3522 56.2585 27.3174C56.3336 26.4367 56.9536 25.5686 58.1187 24.8959C60.6099 23.4577 64.6487 23.4577 67.1398 24.8959Z" fill="#ED585A"/>
<path d="M54.5103 17.6042C57.0014 19.0425 57.0014 21.3743 54.5103 22.8126C52.0192 24.2508 47.9803 24.2508 45.4892 22.8126C42.9981 21.3743 42.9981 19.0425 45.4892 17.6042C47.9803 16.166 52.0192 16.166 54.5103 17.6042Z" fill="#ED585A"/>
<defs>
<radialGradient id="paint0_radial_813_1139" cx="0" cy="0" r="1" gradientTransform="matrix(5.84603e-07 -42.3176 53.5676 -11.8133 49.9901 71.5028)" gradientUnits="userSpaceOnUse">
<stop offset="0.365385" stop-color="white"/>
<stop offset="0.639423" stop-color="#D7D7D7"/>
</radialGradient>
<radialGradient id="paint1_radial_813_1139" cx="0" cy="0" r="1" gradientTransform="matrix(5.84604e-07 -42.7529 53.5677 -11.9348 49.9901 49.2112)" gradientUnits="userSpaceOnUse">
<stop offset="0.365385" stop-color="white"/>
<stop offset="0.639423" stop-color="#D7D7D7"/>
</radialGradient>
<radialGradient id="paint2_radial_813_1139" cx="0" cy="0" r="1" gradientTransform="matrix(5.84452e-07 -44.5869 53.5537 -12.4468 49.9997 28.7501)" gradientUnits="userSpaceOnUse">
<stop offset="0.278846" stop-color="white"/>
<stop offset="1" stop-color="#D7D7D7"/>
</radialGradient>
</defs>
</svg>
