<svg preserveAspectRatio="none" width="100%" height="100%" overflow="visible" style="display: block;" viewBox="0 0 100 100" fill="none" xmlns="http://www.w3.org/2000/svg">
<g id="Robot">
<path id="Union" d="M82.2261 70.0146C82.226 70.1932 82.1307 70.3579 81.9761 70.4472C81.8214 70.5364 81.6307 70.5365 81.4761 70.4472L72.2495 65.1201H72.2485C71.5956 64.7724 70.9136 64.2423 70.2632 63.5878L74.3306 74.2812C74.3497 74.3316 74.3606 74.3855 74.3628 74.4394C74.5473 78.9877 71.6293 83.4632 65.8569 86.7959C60.2535 90.031 52.9404 91.6337 45.6548 91.6337C38.3694 91.6337 31.0569 90.0308 25.4536 86.7959C19.6812 83.4632 16.7623 78.9877 16.9468 74.4394L16.9565 74.3593C16.962 74.3329 16.9694 74.3065 16.979 74.2812L27.5786 46.4394L20.5972 42.3935L20.5942 42.3925C18.7745 41.3207 17.7378 39.1017 17.7378 36.1396C17.7379 33.1549 18.7822 29.8822 20.4468 26.999C22.1115 24.1155 24.4243 21.5744 27.0093 20.082L45.0513 9.665C47.3301 8.34936 49.5056 8.03906 51.2563 8.71578C51.3353 8.71948 51.4131 8.7399 51.4829 8.78023C52.2844 9.24294 56.9917 11.8964 61.4995 14.4716C63.7503 15.7574 65.9496 17.0221 67.5796 17.9804C68.394 18.4593 69.0697 18.8636 69.5396 19.1562C69.7732 19.3017 69.9619 19.4242 70.0933 19.5156C70.1569 19.5598 70.2193 19.6048 70.2681 19.6464C70.2734 19.651 70.2786 19.6577 70.2856 19.664C72.3649 20.6194 73.5717 22.9481 73.5718 26.1396C73.5718 29.1245 72.5275 32.3978 70.8628 35.2812C69.198 38.1646 66.8862 40.7058 64.3013 42.1982L62.3403 43.3291C62.8045 44.2496 63.0249 45.2262 63.2056 46.163C63.4093 47.2195 63.5653 48.2086 63.9233 49.1455L67.3862 51.1455C67.9457 50.5377 68.6805 50.171 69.5269 50.0849C70.5157 49.9845 71.6196 50.2686 72.7495 50.9209H72.7505L81.9761 56.248C82.1306 56.3372 82.2259 56.5022 82.2261 56.6806V70.0146Z" fill="var(--fill-0, #1F1F1F)" stroke="var(--stroke-0, #1F1F1F)" stroke-linejoin="round"/>
<g id="Group">
<path id="Union_2" d="M55.7005 54.8972C57.8081 56.114 59.6519 55.8745 60.6599 54.5091L67.4639 58.4374C68.4606 61.0125 70.3298 63.4381 72.4714 64.6745L81.6979 70.0014V64.9868L72.7767 59.8361C71.9795 59.3759 71.3333 58.2566 71.3333 57.3361C71.3333 56.4157 71.9795 56.0426 72.7767 56.5028L81.6979 61.6535V56.6681L72.4714 51.3411C70.3389 50.11 68.4765 50.3696 67.4766 51.7781L60.7421 47.8899C59.7543 45.2818 57.8667 42.8145 55.7005 41.5638C52.5119 39.7229 49.927 41.2153 49.927 44.8972C49.927 48.5791 52.5119 53.0562 55.7005 54.8972Z" fill="var(--fill-0, #F4F4F4)"/>
<g id="Group_2">
<path id="Union_3" d="M62.3866 44.3955H28.864L17.4033 74.4595H17.417C17.2426 78.7556 19.9948 83.084 25.6735 86.3626C36.6926 92.7245 54.558 92.7245 65.5771 86.3626C71.2558 83.084 74.0079 78.7556 73.8336 74.4595H73.8473L62.3866 44.3955Z" fill="url(#paint0_radial_0_93)"/>
<path id="Rectangle" d="M33.7757 39.4798C40.4063 35.6516 51.1567 35.6516 57.7874 39.4798C64.4181 43.3081 64.4181 49.5148 57.7874 53.343C51.1567 57.1712 40.4063 57.1712 33.7756 53.343C27.145 49.5148 27.145 43.3081 33.7757 39.4798Z" fill="var(--fill-0, #1F1F1F)"/>
</g>
<g id="Group_3">
<path id="Union_4" d="M27.2292 20.5149C22.247 23.3914 18.2081 30.3869 18.2081 36.1399C18.2081 38.9974 19.2046 41.0109 20.8181 41.9613L20.8123 41.9732L39.5761 52.8065L48.5965 34.6513L59.5644 40.9836L69.9672 20.0461L51.8069 9.56131C51.7038 9.49573 51.598 9.43465 51.4897 9.37813L51.2033 9.21281L51.1914 9.23682C49.6071 8.55917 47.5367 8.7903 45.2714 10.0982L27.2292 20.5149Z" fill="url(#paint1_radial_0_93)"/>
<path id="Rectangle_2" d="M36.9581 46.9732C36.9581 41.2202 40.997 34.2246 45.9792 31.3482L64.0214 20.9315C69.0036 18.055 73.0425 20.3869 73.0425 26.1398C73.0425 31.8928 69.0036 38.8883 64.0214 41.7648L45.9792 52.1815C40.997 55.058 36.9581 52.7261 36.9581 46.9732Z" fill="var(--fill-0, #BABABA)" stroke="var(--stroke-1, #1F1F1F)"/>
<path id="Union_5" d="M48.3642 34.9423C51.1542 33.3315 53.4158 34.6369 53.416 37.8583C53.416 41.0799 51.1542 44.9974 48.3642 46.6083C45.5743 48.2191 43.3126 46.9137 43.3125 43.6923C43.3125 40.4707 45.5742 36.5532 48.3642 34.9423ZM62.5517 26.6083C65.3418 24.9975 67.6035 26.3036 67.6035 29.5253C67.6035 32.747 65.3418 36.6645 62.5517 38.2753C59.7618 39.886 57.5 38.5799 57.5 35.3583C57.5001 32.1367 59.7618 28.2191 62.5517 26.6083Z" fill="var(--fill-0, #1F1F1F)"/>
</g>
<path id="Union_6" d="M31.5339 69.4083C33.6414 70.6251 35.4853 70.3856 36.4932 69.0202L43.2973 72.9485C44.294 75.5236 46.1632 77.9492 48.3047 79.1856L57.5312 84.5125V79.4979L48.61 74.3472C47.8128 73.887 47.1666 72.7677 47.1666 71.8472C47.1666 70.9268 47.8128 70.5537 48.61 71.0139L57.5312 76.1646V71.1792L48.3047 65.8522C46.1722 64.6211 44.3098 64.8808 43.31 66.2892L36.5754 62.401C35.5876 59.7929 33.7001 57.3256 31.5339 56.0749C28.3453 54.234 25.7604 55.7264 25.7604 59.4083C25.7604 63.0902 28.3453 67.5673 31.5339 69.4083Z" fill="var(--fill-0, #1F1F1F)"/>
</g>
</g>
<defs>
<radialGradient id="paint0_radial_0_93" cx="0" cy="0" r="1" gradientTransform="matrix(4.46277e-07 -48.8294 40.8927 -13.6311 45.6253 67.7648)" gradientUnits="userSpaceOnUse">
<stop offset="0.375" stop-color="white"/>
<stop offset="1" stop-color="#D7D7D7"/>
</radialGradient>
<radialGradient id="paint1_radial_0_93" cx="0" cy="0" r="1" gradientTransform="matrix(4.09236e-07 -45.9061 37.4986 -12.815 44.0876 30.8363)" gradientUnits="userSpaceOnUse">
<stop offset="0.375" stop-color="white"/>
<stop offset="1" stop-color="#D7D7D7"/>
</radialGradient>
</defs>
</svg>
