<svg preserveAspectRatio="none" width="100%" height="100%" overflow="visible" style="display: block;" viewBox="0 0 71.4912 88.3511" fill="none" xmlns="http://www.w3.org/2000/svg">
<path id="Union" d="M70.9912 66.0268L70.7412 66.1713L61.7197 71.3793L61.4697 71.5238L61.2197 71.3793L56.9941 68.9389V74.1518L56.7441 74.2963L47.7227 79.5043L47.4727 79.6488L47.2227 79.5043L42.9971 77.0639V82.2768L42.7471 82.4213L33.7256 87.6293L33.4756 87.7738L33.2256 87.6293L0.75 68.8793L0.5 68.7348V22.3246L0.75 22.1801L9.77148 16.9721L10.0215 16.8276L10.2715 16.9721L14.4971 19.4106V14.1996L14.7471 14.0551L23.7686 8.84708L24.0186 8.70255L24.2686 8.84708L28.4941 11.2856V6.07462L28.7441 5.93009L37.7656 0.722083L38.0156 0.577552L38.2656 0.722083L70.7412 19.4721L70.9912 19.6156V66.0268Z" fill="var(--fill-0, #1F1F1F)" stroke="var(--stroke-0, #1F1F1F)"/>
</svg>
