<svg width="100" height="100" viewBox="0 0 100 100" fill="none" xmlns="http://www.w3.org/2000/svg">
<path d="M80.0864 81.4004L79.8364 81.5449L74.3745 84.6992L74.1245 84.8428L73.8745 84.6992L70.8315 82.9414V85.5762L70.5815 85.7207L54.1948 95.1807L53.9448 95.3252L53.6948 95.1807L29.4185 81.165L29.1685 81.0205V76.4434L29.4185 76.2988L41.3071 69.4346V65.8955L20.1636 53.6885L19.9136 53.5449V8.11719L20.1636 7.97266L25.6255 4.81934L25.8755 4.6748L26.1255 4.81934L79.8364 35.8291L80.0864 35.9727V81.4004Z" stroke="#1F1F1F"/>
<path d="M29.6685 76.7323L53.9445 90.748L53.9445 94.748L29.6685 80.7323L29.6685 76.7323Z" fill="#D7D7D7"/>
<rect width="18.9213" height="4" transform="matrix(0.866025 -0.5 2.20305e-08 1 53.9443 90.748)" fill="url(#paint0_radial_813_852)"/>
<path d="M46.0547 67.2717L70.3307 81.2874L53.9444 90.748L29.6684 76.7323L46.0547 67.2717Z" fill="url(#paint1_radial_813_852)"/>
<path d="M55.1589 62.3661L58.623 60.3661L58.623 82.0905L55.1589 84.0905L55.1589 62.3661Z" fill="#A3A3A3"/>
<path d="M41.8069 54.6575L55.1587 62.3661L55.1587 84.0905L41.8069 76.3819L41.8069 54.6575Z" fill="#BABABA"/>
<path d="M74.1243 39.4153L79.5864 36.2618L79.5864 81.1122L74.1243 84.2657L74.1243 39.4153Z" fill="#A3A3A3"/>
<path d="M25.8757 5.25195L79.5864 36.2618L74.1243 39.4153L20.4136 8.40549L25.8757 5.25195Z" fill="url(#paint2_radial_813_852)"/>
<path d="M20.4136 8.40546L74.1242 39.4153L74.1242 84.2657L20.4136 53.2559L20.4136 8.40546Z" fill="#D7D7D7"/>
<path d="M24.1958 16.7637C24.1958 16.2114 24.5835 15.9876 25.0618 16.2637L68.8472 41.5433C69.3255 41.8194 69.7133 42.491 69.7133 43.0433L69.7133 76.0826C69.7133 76.6349 69.3255 76.8588 68.8472 76.5826L25.0618 51.3031C24.5835 51.027 24.1958 50.3554 24.1958 49.8031L24.1958 16.7637Z" fill="white"/>
<path fill-rule="evenodd" clip-rule="evenodd" d="M52.1401 35.8958C54.6312 37.3341 56.6506 40.8318 56.6506 43.7083C56.6506 45.0537 56.2088 46.0247 55.4836 46.5301C54.6317 47.1239 53.7639 47.8681 53.7639 49.3332C53.7639 50.7984 54.6317 52.5446 55.4837 54.1222C56.2088 55.465 56.6506 56.9463 56.6506 58.2917C56.6506 61.1681 54.6312 62.3341 52.1401 60.8958C50.975 60.2232 49.9132 59.1 49.1129 57.8006C48.1726 56.2739 47.0942 54.6493 45.8253 53.9167C44.5564 53.1841 43.478 53.5635 42.5377 54.0045C41.7374 54.3797 40.6756 54.2768 39.5105 53.6042C37.0194 52.1659 35 48.6681 35 45.7917C35 44.4463 35.4418 43.4752 36.167 42.9697C37.019 42.3758 37.8868 41.6317 37.8868 40.1665C37.8868 38.7014 37.019 36.9553 36.167 35.3777C35.4418 34.0349 35 32.5537 35 31.2083C35 28.3319 37.0194 27.1659 39.5105 28.6042C40.6756 29.2768 41.7374 30.4 42.5377 31.6994C43.478 33.2261 44.5564 34.8507 45.8253 35.5833C47.0942 36.3159 48.1726 35.9365 49.1129 35.4955C49.9132 35.1203 50.975 35.2232 52.1401 35.8958ZM45.6015 39.2041C44.4675 38.5494 43.5017 38.8734 42.6998 39.3364C41.8979 39.7994 41.1343 40.4738 41.1343 41.7832V42.2998C41.1343 43.6093 41.8979 45.1655 42.6998 46.5544C43.5017 47.9434 44.4675 49.3827 45.6016 50.0375L46.0491 50.2959C47.1831 50.9506 48.149 50.6265 48.9508 50.1635C49.7527 49.7004 50.5163 49.026 50.5163 47.7165V47.1999C50.5163 45.8904 49.7527 44.3344 48.9509 42.9455C48.149 41.5566 47.1832 40.1173 46.0491 39.4625L45.6015 39.2041Z" fill="#ED585A"/>
<defs>
<radialGradient id="paint0_radial_813_852" cx="0" cy="0" r="1" gradientTransform="matrix(1.49602e-07 -4.17895 13.7081 -1.16658 9.46063 2)" gradientUnits="userSpaceOnUse">
<stop offset="0.375" stop-color="white"/>
<stop offset="1" stop-color="#D7D7D7"/>
</radialGradient>
<radialGradient id="paint1_radial_813_852" cx="0" cy="0" r="1" gradientTransform="matrix(17.1194 -9.88387 22.3665 7.39502 49.9995 79.0099)" gradientUnits="userSpaceOnUse">
<stop offset="0.375" stop-color="white"/>
<stop offset="1" stop-color="#D7D7D7"/>
</radialGradient>
<radialGradient id="paint2_radial_813_852" cx="0" cy="0" r="1" gradientTransform="matrix(5.70645 -3.29462 40.5054 21.5464 50 22.3336)" gradientUnits="userSpaceOnUse">
<stop offset="0.375" stop-color="white"/>
<stop offset="1" stop-color="#D7D7D7"/>
</radialGradient>
</defs>
</svg>
